<svg id="Слой_1" data-name="Слой 1" xmlns="http://www.w3.org/2000/svg" xmlns:xlink="http://www.w3.org/1999/xlink" viewBox="0 0 883.77 337.81"><defs><style>.cls-1{fill:none;}.cls-2{clip-path:url(#clip-path);}.cls-3{clip-path:url(#clip-path-2);}.cls-4{fill:#0a0404;}.cls-5{clip-path:url(#clip-path-3);}</style><clipPath id="clip-path" transform="translate(-30.89 -61.58)"><rect class="cls-1" x="-32" y="-18" width="979.2" height="576"/></clipPath><clipPath id="clip-path-2" transform="translate(-30.89 -61.58)"><rect class="cls-1" x="-461.06" y="-474.11" width="1408.3" height="1408.3"/></clipPath><clipPath id="clip-path-3" transform="translate(-30.89 -61.58)"><rect class="cls-1" x="-32" y="-18" width="1024" height="576"/></clipPath></defs><g class="cls-2"><g class="cls-3"><path class="cls-4" d="M225,153.42c-7.84-1.17-9.47-6.11-12.9-10a106.18,106.18,0,0,1-8.35-12.9c-1.24-2.3-2.53-4.67-3.7-7.32a81.19,81.19,0,0,1-2.81-7.87c-1.59-5-3-11.46-2.26-17.65a49.47,49.47,0,0,1,2-8.54,27,27,0,0,1,4.44-8.68A9.26,9.26,0,0,1,215.05,79a27.54,27.54,0,0,1,5.85,7c5.69,9.35,9,18.93,12.74,28.48l-4.48.51a168.51,168.51,0,0,1,6.67-28.76,43.6,43.6,0,0,1,7.56-13.91,48,48,0,0,1,5.34-5.8c2.14-1.8,4.36-3.82,8.5-4.76a10.18,10.18,0,0,1,6.94,1.09,13.41,13.41,0,0,1,4.21,4.29,26.27,26.27,0,0,1,3.11,8.3,74.12,74.12,0,0,1,1.33,15.27,100.54,100.54,0,0,1-5,29.85,155.54,155.54,0,0,1-28.11,52.05c-12.78,15.51-27.91,28.13-44.12,39.28-32.51,21.89-71.42,36-111.22,34.71-9.9-.5-20.35-2.22-29.39-7.83s-15.24-14.26-19.41-23.57-6-20.07-3.63-30.59,9-20,17.39-26.34c8.38-6.54,18-10.79,27.67-13.91,2.46-.74,4.92-1.44,7.37-2.06s4.84-1.17,7.45-1.72a97.5,97.5,0,0,1,15.71-1.67,124,124,0,0,1,30.87,3.78c9.67,2.49,19.18,5.14,28.61,8.49a298.94,298.94,0,0,1,27.64,11.5c9,4.28,17.62,8.92,26.16,13.52,17,9.54,33.41,18.46,50.48,27.54s33.68,18.28,50.6,25.06a118.39,118.39,0,0,0,25.69,7.32,130.17,130.17,0,0,0,27.13,1c18.28-1.09,36.95-4.83,51.77-14.53a46.4,46.4,0,0,0,16.92-19.36,62.69,62.69,0,0,0,5.8-26.26l0,.27a51.38,51.38,0,0,0-10.76-29.18A65.08,65.08,0,0,0,414,128.21a115.47,115.47,0,0,0-15.12-5.92,119.81,119.81,0,0,0-15.75-4.05,110.64,110.64,0,0,0-32.28-1,101.54,101.54,0,0,0-30.95,8.61,126.5,126.5,0,0,0-27.17,17.49,160.15,160.15,0,0,0-22.61,23.54c-7,8.69-14.31,17.26-21.4,25.87S234.34,210,227.05,218.45s-14.5,17.18-21.94,25.64-14.89,16.6-21.68,25.29-13.52,17.57-18,27.19a87.73,87.73,0,0,0-5.22,15c-.66,2.53-1.17,5.26-1.64,8a41.38,41.38,0,0,0-.74,8.1c0,5.26,1.64,10.6,5.46,13.68,3.63,3.19,8.46,4.6,13.49,5.06,10.13,1,20.85-1.44,30.83-4.79,10-3.51,19.18-8.45,26.9-15.58a71.33,71.33,0,0,0,17.93-25.88,82.28,82.28,0,0,0,4.8-15.23,78.34,78.34,0,0,0,1.24-7.91,33.86,33.86,0,0,0,.2-7.36c0-.12-.08-.47-.08-.43v0a1,1,0,0,0,.31.47,2.56,2.56,0,0,0,1.33.82,3.1,3.1,0,0,0,1.64.11c.78-.27.66-.31.66-.31a13.71,13.71,0,0,0-1.83,2.38c-1.37,2.1-2.65,4.52-3.9,6.93-2.46,4.91-4.68,9.94-6.82,15.08A164.89,164.89,0,0,0,239.92,326a88.05,88.05,0,0,0-1,32.26,61.78,61.78,0,0,0,5,15.16c2.15,4.83,5.34,9.66,9.13,12.74a14.58,14.58,0,0,0,5.69,3.19,9.75,9.75,0,0,0,5.18-.15c3.51-1.06,7.41-4.45,10.64-8.46a140,140,0,0,0,9.28-13.25,85.27,85.27,0,0,0,7.41-14.14,86.18,86.18,0,0,0,6.27-31.52,83.56,83.56,0,0,0-1.17-16.09,12.56,12.56,0,0,0-.89-2.92c.08.07-.08,0,.58.39.31,0,.59.07.86.07a1.32,1.32,0,0,0,.35-.15h.08a7.14,7.14,0,0,0-.51.62,28.57,28.57,0,0,0-3,6.9c-3.16,10.24-2.42,21.19.94,31.21a50.85,50.85,0,0,0,6.93,13.79c2.81,4.09,6.55,7.17,10.33,8.45,7.45,2.46,16.88-4.44,24.6-11.45,3.67-3.51,6.51-7.79,7.29-12.59a21.37,21.37,0,0,0,0-7.4,18.2,18.2,0,0,0-.9-3.51c-.27-1-1.24-1.94-.78-1.59.47.07.63-.12.32,0a5.57,5.57,0,0,0-.94.89,14.25,14.25,0,0,0-1.83,3,15.88,15.88,0,0,0-1.56,7c0,4.91,2.38,9.82,5.73,13.72a24.78,24.78,0,0,0,12.82,8.14,28.74,28.74,0,0,0,15.29-.78l1.44,4.45a33,33,0,0,1-17.82.7,30.44,30.44,0,0,1-15.24-9.47,27.75,27.75,0,0,1-7.17-16.6,21.43,21.43,0,0,1,1.75-9.27,21,21,0,0,1,2.46-4.25,9.36,9.36,0,0,1,2.06-2,5,5,0,0,1,4.25-.81,5.74,5.74,0,0,1,3,2.33,13.05,13.05,0,0,1,1.33,2.38,22.91,22.91,0,0,1,1.36,4.6,30.52,30.52,0,0,1,.47,9.27c-.66,6.39-3.82,12.23-7.68,16.95a80.4,80.4,0,0,1-6.12,6.43,48.55,48.55,0,0,1-7.21,5.73,28.29,28.29,0,0,1-9.2,3.85,21.38,21.38,0,0,1-10.72-.5c-6.9-2.38-11.73-7.48-15-12.67A58.93,58.93,0,0,1,287.32,344a64.14,64.14,0,0,1,1.09-35,33.71,33.71,0,0,1,3.82-8.41,8.23,8.23,0,0,1,2.42-2.38l.51-.27a5.81,5.81,0,0,1,.89-.2,2.89,2.89,0,0,1,1.83.16,4.31,4.31,0,0,1,2.19,1.67,14.21,14.21,0,0,1,1.87,5,100.59,100.59,0,0,1,1.75,17.3,95.94,95.94,0,0,1-4.83,34.36,92.64,92.64,0,0,1-7.21,16.06,119,119,0,0,1-9.55,14.53c-3.75,4.6-8.07,9.7-15.4,12a16.16,16.16,0,0,1-11.31-.9,22.79,22.79,0,0,1-7.83-6.46,56.07,56.07,0,0,1-5-7.68c-1.48-2.53-2.73-5-4-7.75a67.88,67.88,0,0,1-5.38-16.68,100,100,0,0,1,.43-34.52,170.15,170.15,0,0,1,9.59-32.85c2.07-5.22,4.25-10.51,6.79-15.66a77.49,77.49,0,0,1,4.17-7.75,19,19,0,0,1,3.35-4.21A6.81,6.81,0,0,1,260,263a4.91,4.91,0,0,1,2.69.11,5.47,5.47,0,0,1,2.15,1.44,10,10,0,0,1,.89,1.37l.36.93c.23.7.23,1.06.39,1.6a42.61,42.61,0,0,1,0,9.39c-.28,3-.71,5.84-1.21,8.73a89.4,89.4,0,0,1-5,16.83,91.1,91.1,0,0,1-19,29.65,72.11,72.11,0,0,1-30.37,18.43c-11.27,3.47-23.24,5.14-35.36,2.88-6-1.17-12.16-4.24-16.18-9.31-4.17-5-5.38-11.42-5.69-17.18a137.36,137.36,0,0,1,.31-17.34,57.42,57.42,0,0,1,4.6-17c4.68-10.91,11.39-20.18,17.94-29.41s14.07-17.89,21.36-26.3c14.42-16.91,28.49-34.49,43.11-51.4,7.25-8.57,14.58-16.94,21.72-25.63a169.55,169.55,0,0,1,24.2-24.55,134.79,134.79,0,0,1,29.36-18.43,110.08,110.08,0,0,1,33.68-9,118.76,118.76,0,0,1,34.65,1.6A130.49,130.49,0,0,1,401.23,115a118.9,118.9,0,0,1,16.06,6.5c21.16,10.25,37.15,31.29,39.68,55.25l0,.31a71.35,71.35,0,0,1-4.68,30.12,52.59,52.59,0,0,1-3.43,7.09c-1.44,2.22-2.88,4.52-4.4,6.71l-5.31,6c-1.94,1.75-4,3.43-6,5.14-8.38,6.39-17.85,10.75-27.52,14a161.87,161.87,0,0,1-29.55,6.62,144.64,144.64,0,0,1-30.64,1.17,130.86,130.86,0,0,1-30.33-6.43,272.77,272.77,0,0,1-27.83-11.06c-9-4-17.7-8.3-26.39-12.67-17.27-8.37-34.69-17.92-51.38-27.19-16.72-9.43-33.06-18.24-50.25-25.41-8.53-3.62-17.38-6.89-26.19-9.82a107.83,107.83,0,0,0-26-5.76,77.94,77.94,0,0,0-13.14.08c-2.14.19-4.44.46-6.74.81s-4.52.74-6.75,1.21c-8.85,1.91-17.54,4.72-24.87,9.51S42.47,178.44,40,186.74a40.31,40.31,0,0,0,1.48,26,42.13,42.13,0,0,0,17,20.19c7.56,4.48,16.84,6,26.08,6.15a163.35,163.35,0,0,0,55.31-9.43A213.28,213.28,0,0,0,190,203.88c15.28-10.95,30.17-23.14,41.91-37.52a231,231,0,0,0,16.21-23,114.43,114.43,0,0,0,12.05-25.21,71.6,71.6,0,0,0,3.35-27.08,78.49,78.49,0,0,0-1.91-13.4,21.88,21.88,0,0,0-1.91-5.18,4.21,4.21,0,0,0-.74-.94c0,.12.31,0,0,0-.62,0-2.41,1-3.94,2.22a48.59,48.59,0,0,0-4.71,4.56,36.74,36.74,0,0,0-7.21,10.79,160,160,0,0,0-9.28,26.73l-1.52,6.24-3-5.73c-4.64-8.88-9.56-18-15.52-25.33A18.43,18.43,0,0,0,209.4,87c-.59-.35-.94-.15-.2-.07s.94-.36.62.19c-1.28,2.18-2.37,7.68-2.37,11.57s1,7.64,2.8,12.08a62.88,62.88,0,0,0,6.4,12.31A121.56,121.56,0,0,1,224,136.24c1.83,4.79,5.41,8.53,2.84,16Z" transform="translate(-30.89 -61.58)"/></g></g><g class="cls-5"><path d="M403.74,300.84h24.19a9,9,0,0,1,1,2.11,9.91,9.91,0,0,1,.45,3.14q0,5.37-4.86,5.37H404.12v45.32a13.3,13.3,0,0,1-2.5.71,18.19,18.19,0,0,1-3.52.32c-2.47,0-4.31-.47-5.5-1.41s-1.79-2.52-1.79-4.74V293.29a26.75,26.75,0,0,1,1.72-10.12,17.63,17.63,0,0,1,4.93-6.91,20.56,20.56,0,0,1,7.75-4A37.14,37.14,0,0,1,415.26,271q7.94,0,12.16,2.05t4.23,5.76a6.67,6.67,0,0,1-.71,3.14,9.52,9.52,0,0,1-1.73,2.36,36.7,36.7,0,0,0-5.63-1.79,28,28,0,0,0-6.53-.77q-7.17,0-10.24,2.82t-3.07,9.22Z" transform="translate(-30.89 -61.58)"/><path d="M465.06,295.33q11.9,0,18.94,5.19t7.05,16.32v29.83a6.83,6.83,0,0,1-1.35,4.54,14.34,14.34,0,0,1-3.65,3,36.15,36.15,0,0,1-8.57,3.33A47.16,47.16,0,0,1,465.31,359q-12.42,0-19.39-4.86t-7-14.34q0-8.46,5.44-12.93t15.68-5.51l17.8-1.79v-2.82q0-5.62-3.65-8.19T464,306a34.3,34.3,0,0,0-9.85,1.41,55.8,55.8,0,0,0-8.45,3.2,9.4,9.4,0,0,1-2.18-2.5,6.13,6.13,0,0,1-.9-3.26,5.75,5.75,0,0,1,1.09-3.59,8.62,8.62,0,0,1,3.39-2.43,30.36,30.36,0,0,1,8.2-2.62A54.15,54.15,0,0,1,465.06,295.33Zm.25,53.13a30.14,30.14,0,0,0,7.81-.89,15.37,15.37,0,0,0,4.74-1.92V329.39l-13.95,1.41c-3.93.42-6.88,1.3-8.84,2.62a6.83,6.83,0,0,0-2.94,6.08,7.7,7.7,0,0,0,3.2,6.59Q458.53,348.46,465.31,348.46Z" transform="translate(-30.89 -61.58)"/><path d="M553.9,295.85a7.46,7.46,0,0,1,4.61,1.34,5,5,0,0,1,1.79,4.29,23.78,23.78,0,0,1-1,5.18c-.64,2.44-1.51,5.27-2.62,8.52s-2.35,6.74-3.71,10.49-2.82,7.49-4.36,11.21-3,7.25-4.54,10.62-2.88,6.26-4.16,8.64a12.2,12.2,0,0,1-3.07,1.22,17.25,17.25,0,0,1-4.61.58c-4.19,0-6.92-1.16-8.2-3.46q-1.79-3.19-4.73-10.05t-6-15q-3.08-8.13-6-16.26t-4.55-14a9.33,9.33,0,0,1,3.07-2.36,9.05,9.05,0,0,1,4.1-1,7.39,7.39,0,0,1,4.67,1.34,9.18,9.18,0,0,1,2.76,4.67l7,22c.51,1.62,1.11,3.42,1.79,5.38s1.36,3.95,2,5.95,1.36,3.93,2.05,5.76,1.23,3.4,1.66,4.68h.64q4.35-12,8.32-24.26t6.92-24.14A11.9,11.9,0,0,1,553.9,295.85Z" transform="translate(-30.89 -61.58)"/><path d="M586.67,356.78a13.17,13.17,0,0,1-2.49.71,18.27,18.27,0,0,1-3.52.32c-2.48,0-4.31-.47-5.51-1.41s-1.79-2.52-1.79-4.74v-42a9.44,9.44,0,0,1,1.28-5.18,13.22,13.22,0,0,1,4.1-3.78,34.9,34.9,0,0,1,9.47-3.84,49.31,49.31,0,0,1,12.67-1.54q11.26,0,11.27,6.4a8.1,8.1,0,0,1-.51,2.89,14,14,0,0,1-1.15,2.36c-.86-.17-1.92-.34-3.2-.51a31.36,31.36,0,0,0-4.1-.25,37.75,37.75,0,0,0-9.35,1.08,30,30,0,0,0-7.17,2.76Z" transform="translate(-30.89 -61.58)"/><path d="M616.76,350.25a8.73,8.73,0,0,1,2.24-6.14,9.23,9.23,0,0,1,12.48,0,9.75,9.75,0,0,1,0,12.29,9.23,9.23,0,0,1-12.48,0A8.74,8.74,0,0,1,616.76,350.25Z" transform="translate(-30.89 -61.58)"/><path d="M660.93,346c1.79,1.28,4.3,1.92,7.55,1.92a18,18,0,0,0,4.61-.64,21.89,21.89,0,0,0,4.22-1.54,13.33,13.33,0,0,1,1.6,2.31,6.27,6.27,0,0,1,.71,3.07q0,3.33-3.4,5.51t-10.3,2.17q-9.6,0-15.3-4.29t-5.7-14.14V280.61c.6-.17,1.45-.38,2.56-.64a15.75,15.75,0,0,1,3.59-.38c2.47,0,4.29.47,5.44,1.41s1.73,2.51,1.73,4.73v12.68h19.84a8.83,8.83,0,0,1,1,2.17,9.63,9.63,0,0,1,.45,2.95q0,5.5-4.74,5.5H658.24V339.5C658.24,342.57,659.13,344.75,660.93,346Z" transform="translate(-30.89 -61.58)"/><path d="M750.8,327.08a37.86,37.86,0,0,1-2.18,13.19,28.62,28.62,0,0,1-6.08,10,26.29,26.29,0,0,1-9.54,6.34,36.25,36.25,0,0,1-25.09,0,26.38,26.38,0,0,1-9.54-6.34,28.62,28.62,0,0,1-6.08-10,41.14,41.14,0,0,1,0-26.37,28.08,28.08,0,0,1,6.15-10,27.14,27.14,0,0,1,9.6-6.34,35.52,35.52,0,0,1,24.83,0,26.77,26.77,0,0,1,9.61,6.41,29,29,0,0,1,6.14,10A37.34,37.34,0,0,1,750.8,327.08Zm-30.34-21a14.87,14.87,0,0,0-12.17,5.5q-4.47,5.51-4.48,15.49t4.36,15.43q4.35,5.44,12.29,5.44t12.29-5.44q4.35-5.44,4.35-15.43t-4.42-15.42Q728.27,306.08,720.46,306.09Z" transform="translate(-30.89 -61.58)"/><path d="M804.44,315.56c-1,3.76-2.11,7.53-3.27,11.33s-2.3,7.49-3.45,11.07-2.27,6.92-3.33,10-2,5.76-2.88,8.07a10.41,10.41,0,0,1-3.08,1.4,16.55,16.55,0,0,1-4.48.52,14.28,14.28,0,0,1-5.24-.9,5.07,5.07,0,0,1-3.08-2.82,67.83,67.83,0,0,1-3.58-9.85q-2.06-6.8-4.1-14.85t-4-16.26c-1.28-5.46-2.3-10.25-3.07-14.34a9.77,9.77,0,0,1,2.88-2.11,8.94,8.94,0,0,1,4.16-1q5.76,0,6.92,6.53t2.49,13.18q1.35,6.66,2.63,12.48t2.36,10.37c.73,3,1.26,5.32,1.6,6.85h.52q.63-2.29,2-6.72t3.07-10.11c1.16-3.8,2.41-7.9,3.78-12.29s2.77-8.77,4.22-13.13a13.36,13.36,0,0,1,7.05-1.79,10.54,10.54,0,0,1,4.92,1,5,5,0,0,1,2.63,2.94q2,6.4,4,12.61t3.52,11.59l2.81,9.47c.81,2.73,1.43,4.87,1.86,6.4h.64q2.57-11,5.38-23.3T835,297.38a17.49,17.49,0,0,1,2.81-1.09,11.28,11.28,0,0,1,3.07-.44,7.42,7.42,0,0,1,4.55,1.28,4.76,4.76,0,0,1,1.73,4.09,34.82,34.82,0,0,1-.77,5.64c-.51,2.64-1.22,5.74-2.11,9.28s-1.88,7.29-3,11.26-2.13,7.79-3.2,11.46-2.11,7-3.13,10.11-1.88,5.43-2.57,7a9.38,9.38,0,0,1-3.07,1.34,17.14,17.14,0,0,1-4.61.58c-4.52,0-7.17-1.07-7.93-3.2s-1.67-4.57-2.69-7.56-2.09-6.21-3.2-9.66-2.22-7.06-3.33-10.82S805.46,319.23,804.44,315.56Z" transform="translate(-30.89 -61.58)"/><path d="M897.7,309q-3.53-2.94-9.54-2.94a25.62,25.62,0,0,0-8,1.15,35.77,35.77,0,0,0-6.08,2.56v47a13.3,13.3,0,0,1-2.5.71,18.27,18.27,0,0,1-3.52.32c-2.47,0-4.31-.47-5.5-1.41s-1.8-2.52-1.8-4.74V309.42a8.64,8.64,0,0,1,1.16-4.74,13.34,13.34,0,0,1,3.84-3.59,42.4,42.4,0,0,1,9.34-4,43.77,43.77,0,0,1,13.06-1.8q12.42,0,19.46,5.57t7,16.84v39a13.24,13.24,0,0,1-2.56.71,19.22,19.22,0,0,1-3.58.32c-2.48,0-4.31-.47-5.51-1.41s-1.79-2.52-1.79-4.74V318.25Q901.22,312,897.7,309Z" transform="translate(-30.89 -61.58)"/></g></svg>