<?xml version="1.0" encoding="utf-8"?>
<!-- Generator: Adobe Illustrator 24.3.0, SVG Export Plug-In . SVG Version: 6.00 Build 0)  -->
<svg version="1.1" id="Слой_1" xmlns="http://www.w3.org/2000/svg" xmlns:xlink="http://www.w3.org/1999/xlink" x="0px" y="0px"
	 viewBox="0 0 1440 303" style="enable-background:new 0 0 1440 303;" xml:space="preserve">
<style type="text/css">
	.st0{fill:none;stroke:#000000;stroke-width:3;stroke-miterlimit:10;}
	.st1{fill:none;stroke:#000000;stroke-width:6;stroke-miterlimit:10;}
	.st2{fill:none;stroke:#000000;stroke-width:2;stroke-miterlimit:10;}
	.st3{fill:none;stroke:#000000;stroke-width:5;stroke-miterlimit:10;}
</style>
<g>
	<path class="st0" d="M959.9,303c160,0,320,0,480,0"/>
	<path class="st0" d="M884.7,220.9c0.5,22.2,1,44.4,1.5,66.6c24.6,5.2,49.1,10.4,73.7,15.6"/>
	<path class="st0" d="M836.7,244.3c0.1-8,0.2-16,0.3-24c15.9,0.2,31.8,0.4,47.7,0.5"/>
	<line class="st0" x1="864.8" y1="244" x2="836.9" y2="243.3"/>
	<path class="st1" d="M864.6,53.2c0,64.1-0.1,128.3-0.1,192.4"/>
	<line class="st0" x1="820" y1="112" x2="864.6" y2="53.2"/>
	<path class="st2" d="M809.2,296c4.7,0.1,9.3,0.2,14,0.2c-1.1-61.4-2.1-122.8-3.2-184.2"/>
	<path class="st3" d="M806.1,143.9c1,50.7,2,101.4,3.1,152"/>
	<path class="st3" d="M806.1,143.9c-24,0-48,0-72,0"/>
	<path class="st1" d="M734.1,213.1c0-23.1,0-46.1,0-69.2"/>
	<path class="st0" d="M718.4,0c0.5,35.6,1,71.2,1.5,106.8c0.5,34.9,1,69.7,1.5,104.6c4.2-0.1,8.4-0.1,12.6-0.2"/>
	<path class="st1" d="M556.1,129.9C610.2,87.1,664.3,44.3,718.5,1.5"/>
	<path class="st1" d="M556.7,187.4c0.1-20.2,0.3-40.3,0.4-60.5"/>
	<path class="st1" d="M557.4,292.1c-0.3-34.9-0.5-69.8-0.8-104.7"/>
	<path class="st0" d="M567.5,228.2c44.3,0.4,88.6,0.7,132.9,1.1c0.3,21.2,0.7,42.4,1,63.6c-48-0.3-96-0.5-144-0.8"/>
	<path class="st0" d="M538,227.8c9.8,0.2,19.7,0.3,29.5,0.5"/>
	<path class="st0" d="M-0.1,303h478c20-7.6,40.1-15.2,60.1-22.8c0-17.5,0-34.9,0-52.4"/>
</g>
</svg>
