<?xml version="1.0" encoding="utf-8"?>
<!-- Generator: Adobe Illustrator 24.3.0, SVG Export Plug-In . SVG Version: 6.00 Build 0)  -->
<svg version="1.1" id="Слой_1" xmlns="http://www.w3.org/2000/svg" xmlns:xlink="http://www.w3.org/1999/xlink" x="0px" y="0px"
	 viewBox="0 0 1440 303" style="enable-background:new 0 0 1440 303;" xml:space="preserve">
<style type="text/css">
	.st0{fill:none;stroke:#000000;stroke-width:3;stroke-miterlimit:10;}
	.st1{fill:none;stroke:#000000;stroke-width:6;stroke-miterlimit:10;}
	.st2{fill:none;stroke:#000000;stroke-width:2;stroke-miterlimit:10;}
	.st3{fill:none;stroke:#000000;stroke-width:5;stroke-miterlimit:10;}
</style>
<g>
	<path class="st0" d="M959.9,303.3c160,0,320,0,480,0"/>
	<path class="st1" d="M886.3,289c24.6,4.8,49.1,9.6,73.7,14.4"/>
	<path class="st0" d="M864.5,252.5c8.4,0.8,16.8,1.5,25.1,2.3c-1.1,11.4-2.3,22.8-3.4,34.2"/>
	<path class="st1" d="M864.6,107.5c0,48.3-0.1,96.6-0.1,145"/>
	<path class="st0" d="M801.6,87.2c21,6.8,42,13.6,63,20.4"/>
	<path class="st2" d="M766.8,254.5c12.7,8.5,25.4,17,38,25.6c-1.1-64.3-2.2-128.6-3.3-192.9"/>
	<path class="st3" d="M734.1,220.5c-0.5-67.3-1-134.7-1.4-202c10,16.9,19.9,33.7,29.9,50.6c1.4,61.8,2.9,123.6,4.3,185.5"/>
	<path class="st0" d="M715.8,0.3c1.8,40,3.2,80.7,4.1,122.1c0.8,32.6,1.3,64.7,1.5,96.5c4.2-0.1,8.4-0.1,12.6-0.2"/>
	<path class="st1" d="M557,84.9c25.7,0.1,51.5,0.2,77.2,0.2c0.6,18.3,1.3,36.6,1.9,54.9c9.5-0.3,19.1-0.7,28.6-1
		c-0.6-45-1.2-89.9-1.8-134.9c17.6-1.3,35.2-2.5,52.9-3.8"/>
	<path class="st1" d="M557.4,293.3c-0.2-69.5-0.3-138.9-0.5-208.4"/>
	<path class="st0" d="M537.6,179.3c30.8,1,61.6,2,92.4,3c0,37.9,0,75.8,0,113.7c-24.2-0.9-48.4-1.8-72.6-2.8"/>
	<path class="st0" d="M538,234c-0.1-18.2-0.3-36.5-0.4-54.7"/>
	<path class="st0" d="M538,282.3c0-16.1,0-32.2,0-48.3"/>
	<path class="st1" d="M477.9,303.3c20-7,40.1-14,60.1-21.1"/>
	<line class="st0" x1="-0.1" y1="303.3" x2="477.9" y2="303.3"/>
</g>
</svg>
