<?xml version="1.0" encoding="utf-8"?>
<!-- Generator: Adobe Illustrator 24.3.0, SVG Export Plug-In . SVG Version: 6.00 Build 0)  -->
<svg version="1.1" id="Слой_1" xmlns="http://www.w3.org/2000/svg" xmlns:xlink="http://www.w3.org/1999/xlink" x="0px" y="0px"
	 viewBox="0 0 1440 303" style="enable-background:new 0 0 1440 303;" xml:space="preserve">
<style type="text/css">
	.st0{fill:none;stroke:#000000;stroke-width:3;stroke-miterlimit:10;}
	.st1{fill:none;stroke:#000000;stroke-width:6;stroke-miterlimit:10;}
	.st2{fill:none;stroke:#000000;stroke-width:5;stroke-miterlimit:10;}
	.st3{fill:none;stroke:#000000;stroke-width:2;stroke-miterlimit:10;}
</style>
<g>
	<path class="st0" d="M959.9,303.5c160,0,320,0,480,0"/>
	<polyline class="st1" points="893,230 893,263.7 959.9,303.5 	"/>
	<path class="st0" d="M839.2,228.5c17.9,0.5,35.9,1,53.8,1.5"/>
	<path class="st0" d="M795.9,119.2c14.4,5.6,28.8,11.3,43.2,16.9c0,30.8,0.1,61.6,0.1,92.4"/>
	<path class="st2" d="M796.4,175.4c-0.2-18.7-0.3-37.5-0.5-56.2"/>
	<path class="st0" d="M709.2,174.6c29.1,0.3,58.1,0.5,87.2,0.8"/>
	<path class="st2" d="M708.6,302.5c0.2-42.6,0.4-85.3,0.6-127.9"/>
	<path class="st3" d="M782.2,0.5c-0.1,100.5-0.1,201-0.2,301.6c-24.5,0.1-48.9,0.3-73.4,0.4"/>
	<path class="st1" d="M647.5,228c-0.5-74.4-1-148.8-1.5-223.2c45.4-1.4,90.8-2.8,136.2-4.2"/>
	<path class="st2" d="M659.7,228"/>
	<path class="st2" d="M586.3,229.2"/>
	<path class="st3" d="M646.9,226.8c13.8-0.2,27.6-0.4,41.4-0.7"/>
	<path class="st3" d="M686.9,102.2c0.4,41.3,0.9,82.7,1.3,124"/>
	<path class="st0" d="M556.5,72c43.5,10.1,87,20.1,130.4,30.2"/>
	<path class="st2" d="M556.2,157.4c0.1-28.5,0.2-57,0.3-85.4"/>
	<path class="st2" d="M479.9,303.5c12-12.3,24-24.5,36-36.8c14.1,0.2,28.1,0.3,42.2,0.5c-0.6-36.6-1.3-73.2-1.9-109.8"/>
	<line class="st0" x1="-0.1" y1="302.5" x2="479.9" y2="302.5"/>
</g>
</svg>
