<?xml version="1.0" encoding="utf-8"?>
<!-- Generator: Adobe Illustrator 24.3.0, SVG Export Plug-In . SVG Version: 6.00 Build 0)  -->
<svg version="1.1" id="Слой_1" xmlns="http://www.w3.org/2000/svg" xmlns:xlink="http://www.w3.org/1999/xlink" x="0px" y="0px"
	 viewBox="0 0 1440 303" style="enable-background:new 0 0 1440 303;" xml:space="preserve">
<style type="text/css">
	.st0{fill:none;stroke:#000000;stroke-width:3;stroke-miterlimit:10;}
	.st1{fill:none;stroke:#000000;stroke-width:5;stroke-miterlimit:10;}
	.st2{fill:none;stroke:#000000;stroke-width:2;stroke-miterlimit:10;}
	.st3{fill:none;stroke:#000000;stroke-width:6;stroke-miterlimit:10;}
	.st4{fill:none;stroke:#000000;stroke-width:4;stroke-miterlimit:10;}
</style>
<g>
	<path class="st0" d="M959.9,303.6c160,0,320,0,480,0"/>
	<path class="st1" d="M888.2,260.7c11,0.6,22,1.1,32.9,1.7c12.8,0,25.5,0,38.3,0c0.2,13.7,0.3,27.5,0.5,41.2"/>
	<path class="st0" d="M886.3,174.5c0.6,28.8,1.2,57.5,1.9,86.3"/>
	<path class="st2" d="M816.4,173.9c23.3,0.2,46.6,0.3,70,0.5"/>
	<path class="st3" d="M735.8,0.7c26,1.9,52,3.9,78,5.8c0.9,55.8,1.7,111.6,2.6,167.4"/>
	<path class="st2" d="M734.2,303.7c0.5-101,1.1-202,1.6-303"/>
	<path class="st0" d="M801.6,303.7c-22.5,0-44.9,0-67.4,0"/>
	<path class="st1" d="M803.2,211.7c-0.5,30.7-1,61.4-1.5,92"/>
	<path class="st3" d="M722,79c0,44.2,0,88.5,0,132.7c27.1,0,54.1,0,81.2,0"/>
	<path class="st2" d="M674.5,139.6c-0.8-19.5-1.5-39.1-2.3-58.6c16.6-0.6,33.2-1.3,49.8-1.9"/>
	<path class="st3" d="M681.1,216.3"/>
	<path class="st3" d="M605.2,214.8c-0.2-25-0.5-49.9-0.7-74.9c23.3-0.1,46.6-0.2,69.9-0.3"/>
	<path class="st0" d="M648.4,176.5l-9.2,39.3c-11.3-0.3-22.7-0.7-34-1"/>
	<path class="st3" d="M564.6,178.5c27.9-0.7,55.8-1.4,83.7-2"/>
	<path class="st4" d="M563.4,280.1c0.4-33.8,0.8-67.7,1.2-101.5"/>
	<path class="st0" d="M538.1,254.6h125.6c-0.3,8.6-0.7,17.1-1,25.7c-33.1-0.1-66.2-0.1-99.3-0.2"/>
	<path class="st3" d="M479.9,303.6c10.6-8.9,21.3-17.9,31.9-26.8c8.8-7.4,17.6-14.8,26.3-22.2"/>
	<line class="st0" x1="-0.1" y1="303.6" x2="479.9" y2="303.6"/>
</g>
</svg>
