<?xml version="1.0" encoding="utf-8"?>
<!-- Generator: Adobe Illustrator 24.3.0, SVG Export Plug-In . SVG Version: 6.00 Build 0)  -->
<svg version="1.1" id="Слой_1" xmlns="http://www.w3.org/2000/svg" xmlns:xlink="http://www.w3.org/1999/xlink" x="0px" y="0px"
	 viewBox="0 0 1440 303" style="enable-background:new 0 0 1440 303;" xml:space="preserve">
<style type="text/css">
	.st0{fill:none;stroke:#000000;stroke-width:3;stroke-miterlimit:10;}
	.st1{fill:none;stroke:#000000;stroke-width:6;stroke-miterlimit:10;}
	.st2{fill:none;stroke:#000000;stroke-width:5;stroke-miterlimit:10;}
</style>
<g>
	<path class="st0" d="M959.9,301.9c160,0,320,0,480,0"/>
	<path class="st1" d="M884.7,222.4c4.8,16.4,9.7,32.8,14.5,49.1c20.2,10.1,40.4,20.3,60.7,30.4"/>
	<path class="st0" d="M779.8,289.8c-0.3-22.5-0.5-44.9-0.8-67.4c35.2,0,70.5,0,105.7,0"/>
	<path class="st0" d="M866.3,289c-28.9,0.3-57.7,0.5-86.6,0.8"/>
	<path class="st1" d="M864.6,133.7c0.6,51.8,1.2,103.6,1.7,155.3"/>
	<path class="st0" d="M793.6,132.1c23.7,0.5,47.3,1.1,71,1.6"/>
	<path class="st2" d="M795.9-1.1c-0.8,44.4-1.5,88.8-2.3,133.1"/>
	<path class="st2" d="M795.9,4c-28.1,12.3-56.2,24.5-84.3,36.8"/>
	<path class="st1" d="M710.8,289.8c0.3-84.3,0.5-168.5,0.8-252.8"/>
	<path class="st0" d="M735.1,53.3c7.7,79.3,15.5,158.7,23.2,238c-15.8-0.5-31.7-1.1-47.5-1.6"/>
	<path class="st1" d="M592.8,123.8c25.3-1,50.6-1.9,75.9-2.9c0-22.5,0-45.1,0-67.6c22.1,0,44.3,0,66.4,0"/>
	<path class="st1" d="M557.4,291.4c11.8-55.8,23.6-111.7,35.4-167.5"/>
	<path class="st0" d="M567.5,229.5c15.9,0.1,31.7,0.3,47.6,0.4c-0.3,20.7-0.7,41.5-1,62.2c-18.9-0.3-37.8-0.5-56.7-0.8"/>
	<path class="st0" d="M538,229.1c9.8,0.1,19.7,0.3,29.5,0.4"/>
	<path class="st1" d="M477.9,301.9c20-7.4,40.1-14.7,60.1-22.1c0-16.9,0-33.8,0-50.7"/>
	<line class="st0" x1="-0.1" y1="301.9" x2="477.9" y2="301.9"/>
</g>
</svg>
