<?xml version="1.0" encoding="utf-8"?>
<!-- Generator: Adobe Illustrator 24.3.0, SVG Export Plug-In . SVG Version: 6.00 Build 0)  -->
<svg version="1.1" id="Слой_1" xmlns="http://www.w3.org/2000/svg" xmlns:xlink="http://www.w3.org/1999/xlink" x="0px" y="0px"
	 viewBox="0 0 1440 303" style="enable-background:new 0 0 1440 303;" xml:space="preserve">
<style type="text/css">
	.st0{fill:none;stroke:#000000;stroke-width:3;stroke-miterlimit:10;}
	.st1{fill:none;stroke:#000000;stroke-width:6;stroke-miterlimit:10;}
	.st2{fill:none;stroke:#000000;stroke-width:5;stroke-miterlimit:10;}
	.st3{fill:none;stroke:#000000;stroke-width:2;stroke-miterlimit:10;}
</style>
<g>
	<path class="st0" d="M959.9,302.1c160,0,320,0,480,0"/>
	<polyline class="st1" points="893,229.1 893,262.6 959.9,302.1 	"/>
	<path class="st0" d="M756.5,53.7c22.9,10.5,45.8,21,68.7,31.5c7.6,2.9,15.2,5.9,22.7,8.8c0.5,12.2,0.9,24.5,1.4,36.7l15.7-2l0,99.4
		c9.4,0.3,18.7,0.7,28.1,1"/>
	<path class="st2" d="M757.8,304c-0.4-83.5-0.8-166.9-1.3-250.4"/>
	<path class="st0" d="M823.9,143.6c-0.1,52.7-0.2,105.4-0.3,158.1c-21.9,0.8-43.8,1.5-65.8,2.3"/>
	<path class="st3" d="M782.2,1c0,48.2-0.1,96.4-0.1,144.7c14.1,0.3,28.2,0.5,42.2,0.8"/>
	<path class="st1" d="M660.2,302.5c0-1.7,0-3.4,0-5.1c-0.8-91.6-1.6-183.2-2.4-274.8c41.5-7.2,83-14.3,124.4-21.5"/>
	<path class="st2" d="M659.7,227"/>
	<path class="st2" d="M586.3,228.3"/>
	<path class="st3" d="M635,302.9c8.5-0.3,17-0.6,25.5-0.9"/>
	<path class="st3" d="M676.8,73c1,51.2,2,102.5,3.1,153.7c-30.3,0.6-60.7,1.2-91,1.8v72.6c17.2,0.6,34.3,1.2,51.5,1.8"/>
	<path class="st0" d="M556.5,72c40.1,0.3,80.2,0.7,120.3,1"/>
	<path class="st2" d="M556.2,156.9c0.1-28.3,0.2-56.6,0.3-84.9"/>
	<path class="st2" d="M479.9,302.1c12-12.2,24-24.4,36-36.6c14.1,0.2,28.1,0.3,42.2,0.5c-0.6-36.4-1.3-72.7-1.9-109.1"/>
	<line class="st0" x1="-0.1" y1="301.1" x2="479.9" y2="301.1"/>
</g>
</svg>
