<?xml version="1.0" encoding="utf-8"?>
<!-- Generator: Adobe Illustrator 24.3.0, SVG Export Plug-In . SVG Version: 6.00 Build 0)  -->
<svg version="1.1" id="Слой_1" xmlns="http://www.w3.org/2000/svg" xmlns:xlink="http://www.w3.org/1999/xlink" x="0px" y="0px"
	 viewBox="0 0 1440 303" style="enable-background:new 0 0 1440 303;" xml:space="preserve">
<style type="text/css">
	.st0{fill:none;stroke:#000000;stroke-width:3;stroke-miterlimit:10;}
	.st1{fill:none;stroke:#000000;stroke-width:5;stroke-miterlimit:10;}
	.st2{fill:none;stroke:#000000;stroke-width:4;stroke-miterlimit:10;}
	.st3{fill:none;stroke:#000000;stroke-width:2;stroke-miterlimit:10;}
	.st4{fill:none;stroke:#000000;stroke-width:6;stroke-miterlimit:10;}
</style>
<g>
	<path class="st0" d="M959.9,304c160,0,320,0,480,0"/>
	<path class="st1" d="M888.2,261.1c11,0.6,22,1.1,32.9,1.7c12.8,0,25.5,0,38.3,0c0.2,13.7,0.3,27.5,0.5,41.2"/>
	<path class="st2" d="M810.7,170.6c26-0.5,51.9-1,77.9-1.5c-0.1,30.7-0.2,61.3-0.4,92"/>
	<path class="st3" d="M792.4,26c6.1,48.2,12.1,96.5,18.2,144.7"/>
	<path class="st4" d="M701.4,1c30.4,8.3,60.7,16.6,91.1,25"/>
	<path class="st4" d="M703.4,303.5c-0.7-100.8-1.4-201.7-2-302.5"/>
	<path class="st0" d="M766.2,302.2c-20.9,0.4-41.9,0.9-62.8,1.3"/>
	<path class="st3" d="M724.1,82.4c13.3,21.9,26.6,43.8,39.9,65.7c0.8,51.3,1.5,102.7,2.3,154"/>
	<path class="st4" d="M673,139.8c-0.3-19.6-0.6-39.1-0.9-58.7c17.3,0.4,34.6,0.8,51.9,1.3"/>
	<path class="st0" d="M604.5,162.6c0-7.5,0-15,0-22.4c23.3-0.1,46.6-0.2,69.9-0.3"/>
	<path class="st4" d="M637.2,216.1"/>
	<path class="st4" d="M636.2,163.5"/>
	<path class="st1" d="M562.5,161.4c24.6,0.7,17.5,0.5,42,1.1"/>
	<path class="st4" d="M563.2,246.3c-0.2-28.3-0.4-56.5-0.7-84.8"/>
	<path class="st0" d="M541,220.7c40.2,1.4,80.3,2.7,120.5,4.1c0.2,7.8,0.3,15.7,0.5,23.5c-33-0.7-65.9-1.4-98.9-2.1"/>
	<path class="st1" d="M479.9,304c0.1-9.7,0.2-19.4,0.4-29.1c11.2-0.6,22.4-1.2,33.6-1.8c9-17.5,18.1-34.9,27.1-52.4"/>
	<line class="st0" x1="-0.1" y1="304" x2="479.9" y2="304"/>
</g>
</svg>
