<?xml version="1.0" encoding="utf-8"?>
<!-- Generator: Adobe Illustrator 24.3.0, SVG Export Plug-In . SVG Version: 6.00 Build 0)  -->
<svg version="1.1" id="Слой_1" xmlns="http://www.w3.org/2000/svg" xmlns:xlink="http://www.w3.org/1999/xlink" x="0px" y="0px"
	 viewBox="0 0 1440 303" style="enable-background:new 0 0 1440 303;" xml:space="preserve">
<style type="text/css">
	.st0{fill:none;stroke:#000000;stroke-width:3;stroke-miterlimit:10;}
	.st1{fill:none;stroke:#000000;stroke-width:5;stroke-miterlimit:10;}
	.st2{fill:none;stroke:#000000;stroke-width:6;stroke-miterlimit:10;}
</style>
<g>
	<path class="st0" d="M913.5,303.6h46.5c160,0,320,0,480,0"/>
	<path class="st1" d="M816.4,230.2c13.5,1,27,2,40.5,3.1c18.9,12.2,37.8,24.3,56.7,36.5c0,11.3-0.1,22.5-0.1,33.8"/>
	<path class="st2" d="M737.3,123.5c26.9,10.1,53.7,20.3,80.6,30.4c-0.5,26.9-1,53.9-1.6,80.8"/>
	<path class="st0" d="M754.3,118.7c0.2,47.8,0.4,95.6,0.4,143.4c0,6.4,0,16.5,0,22.9c-6.3,0.4-12.6,0.8-18.9,1.3
		c0.5-54.2,1-108.5,1.5-162.7"/>
	<path class="st2" d="M705.1,122c9.1-15.5,18.3-30.9,27.4-46.4c7.2,14.4,14.5,28.7,21.7,43.1"/>
	<path class="st2" d="M590.1,185.6c38-0.2,75.9-0.3,113.9-0.5c0.4-21,0.8-42.1,1.2-63.1"/>
	<path class="st0" d="M623.3,0.6c19.4,16,38.8,31.9,58.2,47.9c0.2,83.6,0.3,167.3,0.5,250.9c-30.8,0-61.6,0-92.4,0
		c0.2-37.9,0.3-75.9,0.5-113.8"/>
	<path class="st2" d="M546.7,261.7c7.5,2.2,15.1,4.4,22.6,6.6c0.6-71.2,1.3-142.4,1.9-213.7c17.4-18,34.7-36,52.1-54"/>
	<path class="st1" d="M510.9,302.6c0.2-5.2,0.4-10.4,0.7-15.6c11.7-8.5,23.4-16.9,35.1-25.4"/>
	<polyline class="st0" points="-0.1,302.6 30.9,302.6 510.9,302.6 	"/>
</g>
</svg>
