<?xml version="1.0" encoding="utf-8"?>
<!-- Generator: Adobe Illustrator 24.3.0, SVG Export Plug-In . SVG Version: 6.00 Build 0)  -->
<svg version="1.1" id="Слой_1" xmlns="http://www.w3.org/2000/svg" xmlns:xlink="http://www.w3.org/1999/xlink" x="0px" y="0px"
	 viewBox="0 0 1440 303" style="enable-background:new 0 0 1440 303;" xml:space="preserve">
<style type="text/css">
	.st0{fill:none;stroke:#000000;stroke-width:3;stroke-miterlimit:10;}
	.st1{fill:none;stroke:#000000;stroke-width:6;stroke-miterlimit:10;}
	.st2{fill:none;stroke:#000000;stroke-width:2;stroke-miterlimit:10;}
	.st3{fill:none;stroke:#000000;stroke-width:5;stroke-miterlimit:10;}
</style>
<g>
	<path class="st0" d="M830.4,56.3c-50-12.6-100.1-25.2-150.1-37.8"/>
	<path class="st0" d="M959.9,303.4c160,0,320,0,480,0"/>
	<path class="st1" d="M959.9,274.1c0,9.7,0,19.5,0,29.2"/>
	<path class="st2" d="M865.1,274.9c31.6-0.2,63.2-0.5,94.8-0.7"/>
	<path class="st0" d="M864.1,151.3c0,18.9,0,37.9,0,56.8c0.3,22.3,0.7,44.5,1,66.8"/>
	<path class="st1" d="M715,284.9c0.3-45.5,0.7-91,1-136.4c49.4,1,98.7,1.9,148.1,2.9"/>
	<path class="st0" d="M519,285.3h99.2c32.3-0.1,64.5-0.3,96.8-0.4"/>
	<polyline class="st1" points="616.7,171.5 520.3,171.5 519,285.3 	"/>
	<path class="st3" d="M648.9,0.4C637.9,13.2,627,26,616.1,38.7c0.2,44.3,0.4,88.5,0.6,132.8"/>
	<path class="st0" d="M649.6,241.8c-0.3-80.5-0.5-160.9-0.8-241.4"/>
	<path class="st1" d="M680.3,21.8c0.5,73.3,1,146.6,1.5,220c-10.7,0-21.4,0-32.2,0"/>
	<path class="st0" d="M831.4,268.9c-0.3-70.1-0.7-140.2-1-210.2"/>
	<path class="st0" d="M519.2,267.6c32.4-0.4,64.9-0.6,97.8-0.7c72.6-0.1,144.1,0.6,214.5,2"/>
	<path class="st1" d="M479.9,303.4c0-12.1,0-24.1,0-36.2c13.1,0.1,26.2,0.3,39.3,0.4"/>
	<line class="st0" x1="-0.1" y1="303.4" x2="479.9" y2="303.4"/>
</g>
</svg>
