<?xml version="1.0" encoding="utf-8"?>
<!-- Generator: Adobe Illustrator 24.3.0, SVG Export Plug-In . SVG Version: 6.00 Build 0)  -->
<svg version="1.1" id="Слой_1" xmlns="http://www.w3.org/2000/svg" xmlns:xlink="http://www.w3.org/1999/xlink" x="0px" y="0px"
	 viewBox="0 0 1440 303" style="enable-background:new 0 0 1440 303;" xml:space="preserve">
<style type="text/css">
	.st0{fill:none;stroke:#000000;stroke-width:3;stroke-miterlimit:10;}
	.st1{fill:none;stroke:#000000;stroke-width:6;stroke-miterlimit:10;}
	.st2{fill:none;stroke:#000000;stroke-width:5;stroke-miterlimit:10;}
	.st3{fill:none;stroke:#000000;stroke-width:2;stroke-miterlimit:10;}
</style>
<g>
	<path class="st0" d="M959.9,303.5c160,0,320,0,480,0"/>
	<polyline class="st1" points="893,230 893,263.7 959.9,303.5 	"/>
	<path class="st0" d="M865,229c9.4,0.3,18.7,0.7,28.1,1"/>
	<path class="st0" d="M791.2,47.3c25.2,19,50.5,38,75.7,57.1c-0.7,41.5-1.3,83.1-2,124.6"/>
	<path class="st2" d="M792.6,135.1c-0.5-29.3-0.9-58.5-1.4-87.8"/>
	<path class="st0" d="M709.4,132.2c27.7,1,55.5,1.9,83.2,2.9"/>
	<path class="st2" d="M708.6,246.3c0.3-38,0.5-76,0.8-114.1"/>
	<path class="st3" d="M782.2,0.5c-0.1,81.8-0.1,163.6-0.2,245.4c-24.5,0.1-48.9,0.2-73.4,0.3"/>
	<polyline class="st1" points="659.7,228 722,0.5 782.2,0.5 	"/>
	<path class="st2" d="M659.7,228"/>
	<path class="st2" d="M586.3,229.2"/>
	<path class="st3" d="M642.3,228.8c6-1.1,12-2.2,18-3.3"/>
	<path class="st3" d="M687.2,71.7c-15,52.4-29.9,104.8-44.9,157.1"/>
	<path class="st0" d="M556.5,72c43.6-0.1,87.2-0.2,130.8-0.3"/>
	<path class="st2" d="M556.2,157.4c0.1-28.5,0.2-57,0.3-85.4"/>
	<path class="st2" d="M479.9,303.5c12-12.3,24-24.5,36-36.8c14.1,0.2,28.1,0.3,42.2,0.5c-0.6-36.6-1.3-73.2-1.9-109.8"/>
	<line class="st0" x1="-0.1" y1="302.5" x2="479.9" y2="302.5"/>
</g>
</svg>
