<?xml version="1.0" encoding="utf-8"?>
<!-- Generator: Adobe Illustrator 24.3.0, SVG Export Plug-In . SVG Version: 6.00 Build 0)  -->
<svg version="1.1" id="Слой_1" xmlns="http://www.w3.org/2000/svg" xmlns:xlink="http://www.w3.org/1999/xlink" x="0px" y="0px"
	 viewBox="0 0 1440 303" style="enable-background:new 0 0 1440 303;" xml:space="preserve">
<style type="text/css">
	.st0{fill:none;stroke:#000000;stroke-width:3;stroke-miterlimit:10;}
	.st1{fill:none;stroke:#000000;stroke-width:5;stroke-miterlimit:10;}
	.st2{fill:none;stroke:#000000;stroke-width:6;stroke-miterlimit:10;}
	.st3{fill:none;stroke:#000000;stroke-width:2;stroke-miterlimit:10;}
	.st4{fill:none;stroke:#000000;stroke-width:4;stroke-miterlimit:10;}
</style>
<g>
	<path class="st0" d="M959.9,303.7c160,0,320,0,480,0"/>
	<path class="st1" d="M888.2,260.8c11,0.6,22,1.1,32.9,1.7c12.8,0,25.5,0,38.3,0c0.2,13.7,0.3,27.5,0.5,41.2"/>
	<line class="st0" x1="794.7" y1="165.9" x2="888.2" y2="260.8"/>
	<path class="st2" d="M735.8,0.8c18.9,8.4,37.7,16.7,56.6,25.1c0.8,46.6,1.5,93.3,2.3,139.9"/>
	<path class="st3" d="M734.2,303.8c0.5-101,1.1-202,1.6-303"/>
	<path class="st0" d="M801.6,303.8c-22.5,0-44.9,0-67.4,0"/>
	<path class="st1" d="M803.2,211.8c-0.5,30.7-1,61.4-1.5,92"/>
	<path class="st2" d="M722,79.1c0,44.2,0,88.5,0,132.7c27.1,0,54.1,0,81.2,0"/>
	<path class="st3" d="M674.5,139.7c-0.8-19.5-1.5-39.1-2.3-58.6c16.6-0.6,33.2-1.3,49.8-1.9"/>
	<path class="st0" d="M639.2,215.8c-11.3-0.3-22.7-0.7-34-1c-0.2-25-0.5-49.9-0.7-74.9c23.3-0.1,46.6-0.2,69.9-0.3"/>
	<path class="st2" d="M634.5,73c0.9,47.6,1.8,95.2,2.7,142.8"/>
	<path class="st1" d="M563,40.8c23.8,10.7,47.7,21.4,71.5,32.2"/>
	<path class="st3" d="M563.4,280.1c-0.1-79.8-0.3-159.5-0.4-239.3"/>
	<path class="st4" d="M538.1,254.7h125.6c-0.3,8.6-0.7,17.1-1,25.7c-33.1-0.1-66.2-0.1-99.3-0.2"/>
	<path class="st1" d="M479.9,303.7c10.6-8.9,21.3-17.9,31.9-26.8c8.8-7.4,17.6-14.8,26.3-22.2"/>
	<line class="st0" x1="-0.1" y1="303.7" x2="479.9" y2="303.7"/>
</g>
</svg>
