<?xml version="1.0" encoding="utf-8"?>
<!-- Generator: Adobe Illustrator 24.3.0, SVG Export Plug-In . SVG Version: 6.00 Build 0)  -->
<svg version="1.1" id="Слой_1" xmlns="http://www.w3.org/2000/svg" xmlns:xlink="http://www.w3.org/1999/xlink" x="0px" y="0px"
	 viewBox="0 0 1440 303" style="enable-background:new 0 0 1440 303;" xml:space="preserve">
<style type="text/css">
	.st0{fill:none;stroke:#000000;stroke-width:3;stroke-miterlimit:10;}
	.st1{fill:none;stroke:#000000;stroke-width:5;stroke-miterlimit:10;}
	.st2{fill:none;stroke:#000000;stroke-width:6;stroke-miterlimit:10;}
	.st3{fill:none;stroke:#000000;stroke-width:4;stroke-miterlimit:10;}
	.st4{fill:none;stroke:#000000;stroke-width:2;stroke-miterlimit:10;}
</style>
<g>
	<path class="st0" d="M913.5,304.1h46.5c160,0,320,0,480,0"/>
	<path class="st1" d="M818.5,289.4c31.5,1.1,63,2.3,94.5,3.4c0.2,3.8,0.3,7.5,0.5,11.3"/>
	<path class="st2" d="M737.3,119.4c26.9,10.4,53.7,20.8,80.6,31.2c0.2,46.3,0.4,92.6,0.6,138.8"/>
	<path class="st0" d="M754.1,65.5c0.2,65.3,0.3,130.6,0.5,195.9c0,7.8,0,15.7,0,23.5c-6.3,0.4-12.6,0.9-18.9,1.3
		c0.5-55.6,1-111.3,1.5-166.9"/>
	<path class="st2" d="M705.1,117.8c6.8-17.2,13.5-34.4,20.3-51.6c9.6-0.2,19.2-0.5,28.7-0.7"/>
	<path class="st3" d="M702.6,273c0.9-51.7,1.7-103.5,2.6-155.2"/>
	<path class="st4" d="M589.4,273.5c37.7-0.2,75.4-0.3,113.1-0.5"/>
	<path class="st0" d="M693.4,1.1c-1,99.6-2,199.2-3,298.7c-33.6,0-67.2,0-100.8,0c0-8.8-0.1-17.5-0.1-26.3"/>
	<path class="st2" d="M635.5,256.3c4.1-82.7,8.2-165.5,12.2-248.2c15.2-2.3,30.4-4.7,45.6-7"/>
	<path class="st0" d="M573.4,289.1c0.1-11,0.1-21.9,0.2-32.9c20.7,0,41.3,0,62,0"/>
	<path class="st1" d="M510.9,303c0.2-5.3,0.4-10.6,0.7-16c20.6,0.7,41.2,1.4,61.8,2.1"/>
	<polyline class="st0" points="-0.1,303 30.9,303 510.9,303 	"/>
</g>
</svg>
