<?xml version="1.0" encoding="utf-8"?>
<!-- Generator: Adobe Illustrator 24.3.0, SVG Export Plug-In . SVG Version: 6.00 Build 0)  -->
<svg version="1.1" id="Слой_1" xmlns="http://www.w3.org/2000/svg" xmlns:xlink="http://www.w3.org/1999/xlink" x="0px" y="0px"
	 viewBox="0 0 1440 303" style="enable-background:new 0 0 1440 303;" xml:space="preserve">
<style type="text/css">
	.st0{fill:none;stroke:#000000;stroke-width:3;stroke-miterlimit:10;}
	.st1{fill:none;stroke:#000000;stroke-width:6;stroke-miterlimit:10;}
	.st2{fill:none;stroke:#000000;stroke-width:5;stroke-miterlimit:10;}
	.st3{fill:none;stroke:#000000;stroke-width:2;stroke-miterlimit:10;}
	.st4{fill:none;stroke:#000000;stroke-width:4;stroke-miterlimit:10;}
</style>
<g>
	<line class="st0" x1="959.9" y1="304.6" x2="1439.9" y2="304.6"/>
	<line class="st1" x1="898.5" y1="243.3" x2="959.9" y2="304.6"/>
	<line class="st2" x1="898.5" y1="198.4" x2="898.5" y2="243.3"/>
	<line class="st3" x1="845.7" y1="194.3" x2="898.5" y2="198.4"/>
	<path class="st2" d="M809.8,50c12,0.4,23.9,0.9,35.9,1.3c0,47.7,0,95.4,0,143.1"/>
	<path class="st0" d="M807.8,247.1c0.7-65.7,1.4-131.4,2-197.1"/>
	<g>
		<path d="M764.9,71.6c2.8,0,5.6,0.1,8.5,0.1c2.8,0.1,5.6,0.1,8.4,0.2c5.6,0.2,11.3,0.4,16.9,0.7c5.6,0.2,11.3,0.6,16.9,0.9
			c5.6,0.3,11.2,0.7,16.9,1.1l1.2,0.1l0,1.1L833,97.1c-0.2,7.1-0.2,14.2-0.2,21.3c0.1,14.2,0.6,28.4,0.8,42.6
			c0.1,7.1,0.2,14.2,0.2,21.3l0.1,10.6l0,10.6c-0.1,14.2-0.3,28.4-0.6,42.6l0,1l-0.9,0l-12.3,0.1c-4.1,0-8.2,0-12.3-0.1l0-0.3
			c4.1-0.3,8.2-0.6,12.3-0.9l12.3-0.8l-0.9,1c-0.3-14.2-0.6-28.4-0.6-42.6l0-10.6l0.1-10.6c0.1-7.1,0.1-14.2,0.2-21.3
			c0.2-14.2,0.8-28.4,0.8-42.6c0.1-7.1,0-14.2-0.2-21.3l-0.6-21.3l1.1,1.2c-5.6-0.2-11.3-0.5-16.9-0.9c-5.6-0.4-11.2-0.7-16.9-1.2
			c-5.6-0.4-11.2-0.9-16.8-1.4c-2.8-0.2-5.6-0.5-8.4-0.8c-2.8-0.3-5.6-0.6-8.4-0.9L764.9,71.6z"/>
	</g>
	<line class="st1" x1="764.9" y1="249.5" x2="764.9" y2="71.7"/>
	<polyline class="st3" points="740.4,106.5 740.4,247.4 764.9,249.5 	"/>
	<path class="st0" d="M716.9,28.5c1,91.7,2,183.4,3.1,275.1h-11.7V135.1c10.7-9.9,21.4-19.7,32.2-29.6"/>
	<path class="st1" d="M667.3,250.5l0.5-248.9c16.3,9,32.7,17.9,49,26.9"/>
	<polyline class="st3" points="695.7,120.8 695.7,250.1 667.3,250.5 	"/>
	<path class="st4" d="M604.5,206.6c0-28.6,0-57.2,0-85.8h91.1"/>
	<polyline class="st2" points="479.9,304.6 560.6,304.6 560.6,206.6 604.5,206.6 	"/>
	<line class="st0" x1="-0.1" y1="304.6" x2="479.9" y2="304.6"/>
</g>
</svg>
