<?xml version="1.0" encoding="utf-8"?>
<!-- Generator: Adobe Illustrator 24.3.0, SVG Export Plug-In . SVG Version: 6.00 Build 0)  -->
<svg version="1.1" id="Слой_1" xmlns="http://www.w3.org/2000/svg" xmlns:xlink="http://www.w3.org/1999/xlink" x="0px" y="0px"
	 viewBox="0 0 1440 303" style="enable-background:new 0 0 1440 303;" xml:space="preserve">
<style type="text/css">
	.st0{fill:none;stroke:#000000;stroke-width:3;stroke-miterlimit:10;}
	.st1{fill:none;stroke:#000000;stroke-width:5;stroke-miterlimit:10;}
	.st2{fill:none;stroke:#000000;stroke-width:6;stroke-miterlimit:10;}
	.st3{fill:none;stroke:#000000;stroke-width:2;stroke-miterlimit:10;}
</style>
<g>
	<path class="st0" d="M913.5,304.1h46.5c160,0,320,0,480,0"/>
	<path class="st1" d="M818.5,285.5c31.5,1.4,63,2.9,94.5,4.3c0.2,4.8,0.3,9.5,0.5,14.3"/>
	<path class="st2" d="M738,107.9c26.6,0.6,53.2,1.1,79.8,1.7c0.2,58.7,0.4,117.3,0.6,176"/>
	<path class="st0" d="M754.1,1.8c0.2,82.8,0.3,165.6,0.5,248.4c0,9.9,0,19.9,0,29.8c-6.3,0.5-12.6,1.1-18.9,1.6
		c0.8-57.9,1.5-115.8,2.3-173.7"/>
	<path class="st2" d="M705.1,68c-0.3-22.3-0.7-44.6-1-66.9c16.7,0.2,33.3,0.4,50,0.7"/>
	<path class="st2" d="M702.6,264.7c0.9-65.6,1.7-131.2,2.6-196.7"/>
	<path class="st3" d="M647,265.1c18.5-0.1,37.1-0.2,55.6-0.3"/>
	<path class="st0" d="M692.1,86.1c-0.6,70.9-1.2,141.7-1.8,212.6c-14.5,0-28.9,0-43.4,0c0-11.2,0-22.4,0-33.6"/>
	<path class="st2" d="M598.7,243.5c-0.5-29.7-1-59.5-1.5-89.2c31.7-22.7,63.3-45.5,95-68.2"/>
	<path class="st0" d="M573.4,285.2c0.1-13.9,0.1-27.8,0.2-41.6c8.4,0,16.8,0,25.1,0"/>
	<path class="st1" d="M510.9,302.8c0.2-6.7,0.4-13.5,0.7-20.2c20.6,0.9,41.2,1.8,61.8,2.6"/>
	<polyline class="st0" points="-0.1,302.8 30.9,302.8 510.9,302.8 	"/>
</g>
</svg>
