<?xml version="1.0" encoding="utf-8"?>
<!-- Generator: Adobe Illustrator 24.3.0, SVG Export Plug-In . SVG Version: 6.00 Build 0)  -->
<svg version="1.1" id="Слой_1" xmlns="http://www.w3.org/2000/svg" xmlns:xlink="http://www.w3.org/1999/xlink" x="0px" y="0px"
	 viewBox="0 0 1440 303" style="enable-background:new 0 0 1440 303;" xml:space="preserve">
<style type="text/css">
	.st0{fill:none;stroke:#000000;stroke-width:3;stroke-miterlimit:10;}
	.st1{fill:none;stroke:#000000;stroke-width:6;stroke-miterlimit:10;}
	.st2{fill:none;stroke:#000000;stroke-width:5;stroke-miterlimit:10;}
	.st3{fill:none;stroke:#000000;stroke-width:2;stroke-miterlimit:10;}
	.st4{fill:none;stroke:#000000;stroke-width:4;stroke-miterlimit:10;}
</style>
<g>
	<line class="st0" x1="959.9" y1="303.1" x2="1439.9" y2="303.1"/>
	<line class="st1" x1="898.5" y1="241.6" x2="959.9" y2="303.1"/>
	<line class="st2" x1="898.5" y1="196.5" x2="898.5" y2="241.6"/>
	<path class="st3" d="M866.9,195.2c10.5,0.4,21.1,0.9,31.6,1.3"/>
	<path class="st3" d="M810,98.5c19.3,0.3,38.6,0.5,57.9,0.8c0,32,0.1,63.9,0.1,95.9"/>
	<path class="st1" d="M764.9,69.4c0.2-17.4,0.5-34.7,0.7-52.1c14.8-0.1,29.6-0.2,44.4-0.3c0,27.2,0,54.3,0,81.5"/>
	<line class="st1" x1="764.9" y1="247.7" x2="764.9" y2="69.4"/>
	<path class="st3" d="M797,147.5c0.7,34,1.4,68,2,102c-11.4-0.6-22.8-1.2-34.1-1.7"/>
	<path class="st3" d="M715.8,0.1c1.4,100.7,2.8,201.3,4.2,302c-11.1-0.5-22.2-0.9-33.3-1.4c-0.3-49.7-0.5-99.4-0.8-149.2
		c37-1.4,74-2.7,111.1-4.1"/>
	<path class="st1" d="M667.3,248.8c0.1-66.2,0.3-132.5,0.4-198.7c16-16.7,32-33.3,48-50"/>
	<path class="st3" d="M605.5,60.1c8.9-0.8,17.9-1.5,26.8-2.3c0.3,63.6,0.5,127.1,0.8,190.7c11.4,0.1,22.9,0.2,34.3,0.3"/>
	<path class="st4" d="M604.5,204.7c0-28.7,0-57.4,0-86.1c0.3-19.5,0.6-39,0.9-58.5"/>
	<polyline class="st2" points="479.9,303.1 560.6,303.1 560.6,204.7 604.5,204.7 	"/>
	<line class="st0" x1="-0.1" y1="303.1" x2="479.9" y2="303.1"/>
</g>
</svg>
