<?xml version="1.0" encoding="utf-8"?>
<!-- Generator: Adobe Illustrator 24.3.0, SVG Export Plug-In . SVG Version: 6.00 Build 0)  -->
<svg version="1.1" id="Слой_1" xmlns="http://www.w3.org/2000/svg" xmlns:xlink="http://www.w3.org/1999/xlink" x="0px" y="0px"
	 viewBox="0 0 1440 303" style="enable-background:new 0 0 1440 303;" xml:space="preserve">
<style type="text/css">
	.st0{fill:none;stroke:#000000;stroke-width:3;stroke-miterlimit:10;}
	.st1{fill:none;stroke:#000000;stroke-width:6;stroke-miterlimit:10;}
	.st2{fill:none;stroke:#000000;stroke-width:2;stroke-miterlimit:10;}
</style>
<g>
	<path class="st0" d="M959.9,302.9c160,0,320,0,480,0"/>
	<path class="st1" d="M959.9,273c0,10,0,20,0,30"/>
	<path class="st2" d="M868,274c30.6-0.3,61.3-0.7,91.9-1"/>
	<path class="st1" d="M867,241.7c0.3,10.8,0.7,21.6,1,32.3"/>
	<line class="st2" x1="819" y1="241.7" x2="867" y2="241.7"/>
	<path class="st1" d="M684.3,208.6c44.5-28.7,88.9-57.4,133.4-86c0.4,39.7,0.9,79.4,1.3,119.1"/>
	<path class="st0" d="M701.5-0.1c12.9,20.3,25.9,40.6,38.8,61c0.6,80,1.3,159.9,1.9,239.9c-19.1,0.7-38.1,1.5-57.2,2.2
		c-0.3-31.4-0.5-62.9-0.8-94.3"/>
	<path class="st1" d="M615.1,134.3c28.6,0.2,57.2,0.4,85.8,0.5c0.2-45,0.4-89.9,0.7-134.9"/>
	<path class="st2" d="M653.4,242.6c-12.9-0.5-25.9-1-38.8-1.5c0.2-35.6,0.3-71.2,0.5-106.8"/>
	<path class="st1" d="M656,85.3c-0.9,52.4-1.7,104.9-2.6,157.3"/>
	<path class="st2" d="M599,113.5c19-9.4,37.9-18.8,56.9-28.1"/>
	<path class="st1" d="M560.6,265.8c12.8-50.8,25.6-101.6,38.4-152.4"/>
	<path class="st1" d="M479.9,302.9c0-12.4,0-24.7,0-37.1c26.9,0,53.8,0,80.7,0"/>
	<line class="st0" x1="-0.1" y1="302.9" x2="479.9" y2="302.9"/>
</g>
</svg>
