<?xml version="1.0" encoding="utf-8"?>
<!-- Generator: Adobe Illustrator 24.3.0, SVG Export Plug-In . SVG Version: 6.00 Build 0)  -->
<svg version="1.1" id="Слой_1" xmlns="http://www.w3.org/2000/svg" xmlns:xlink="http://www.w3.org/1999/xlink" x="0px" y="0px"
	 viewBox="0 0 1440 250" style="enable-background:new 0 0 1440 250;" xml:space="preserve">
<style type="text/css">
	.st0{opacity:0.5;}
	.st1{fill:none;stroke:#000000;stroke-width:3;stroke-miterlimit:10;}
	.st2{fill:none;stroke:#000000;stroke-width:6;stroke-miterlimit:10;}
	.st3{fill:none;stroke:#000000;stroke-width:2;stroke-miterlimit:10;}
	.st4{fill:none;stroke:#000000;stroke-width:5;stroke-miterlimit:10;}
</style>
<g class="st0">
	<path class="st1" d="M959.9-0.5c160,0,320,0,480,0"/>
	<path class="st1" d="M884.7,67.3c0.5-18.3,1-36.6,1.5-54.9c24.6-4.3,49.1-8.6,73.7-12.8"/>
	<path class="st1" d="M836.7,47.9c0.1,6.6,0.2,13.2,0.3,19.8c15.9-0.1,31.8-0.3,47.7-0.4"/>
	<line class="st1" x1="864.8" y1="48.2" x2="836.9" y2="48.8"/>
	<path class="st2" d="M864.6,205.7c0-52.9-0.1-105.8-0.1-158.8"/>
	<line class="st1" x1="820" y1="157.1" x2="864.6" y2="205.7"/>
	<path class="st3" d="M809.2,5.3c4.7-0.1,9.3-0.1,14-0.2c-1.1,50.7-2.1,101.3-3.2,152"/>
	<path class="st4" d="M806.1,130.8c1-41.8,2-83.6,3.1-125.4"/>
	<path class="st4" d="M806.1,130.8c-24,0-48,0-72,0"/>
	<path class="st2" d="M734.1,73.7c0,19,0,38.1,0,57.1"/>
	<path class="st1" d="M718.4,249.5c0.5-29.4,1-58.7,1.5-88.1c0.5-28.8,1-57.5,1.5-86.3c4.2,0,8.4,0.1,12.6,0.1"/>
	<path class="st2" d="M556.1,142.3c54.1,35.3,108.3,70.6,162.4,106"/>
	<path class="st2" d="M556.7,94.9c0.1,16.6,0.3,33.3,0.4,49.9"/>
	<path class="st2" d="M557.4,8.5c-0.3,28.8-0.5,57.6-0.8,86.4"/>
	<path class="st1" d="M567.5,61.2c44.3-0.3,88.6-0.6,132.9-0.9c0.3-17.5,0.7-35,1-52.5c-48,0.2-96,0.5-144,0.7"/>
	<path class="st1" d="M538,61.6c9.8-0.1,19.7-0.3,29.5-0.4"/>
	<path class="st1" d="M-0.1-0.5l478,0c20,6.3,40.1,12.6,60.1,18.8c0,14.4,0,28.8,0,43.2"/>
</g>
</svg>
