<?xml version="1.0" encoding="utf-8"?>
<!-- Generator: Adobe Illustrator 24.3.0, SVG Export Plug-In . SVG Version: 6.00 Build 0)  -->
<svg version="1.1" id="Слой_1" xmlns="http://www.w3.org/2000/svg" xmlns:xlink="http://www.w3.org/1999/xlink" x="0px" y="0px"
	 viewBox="0 0 1440 250" style="enable-background:new 0 0 1440 250;" xml:space="preserve">
<style type="text/css">
	.st0{opacity:0.5;}
	.st1{fill:none;stroke:#000000;stroke-width:3;stroke-miterlimit:10;}
	.st2{fill:none;stroke:#000000;stroke-width:6;stroke-miterlimit:10;}
	.st3{fill:none;stroke:#000000;stroke-width:2;stroke-miterlimit:10;}
	.st4{fill:none;stroke:#000000;stroke-width:5;stroke-miterlimit:10;}
</style>
<g class="st0">
	<path class="st1" d="M959.9-0.2c160,0,320,0,480,0"/>
	<path class="st2" d="M886.3,11.7c24.6-3.9,49.1-7.9,73.7-11.8"/>
	<path class="st1" d="M864.5,41.8c8.4-0.6,16.8-1.2,25.1-1.9c-1.1-9.4-2.3-18.8-3.4-28.2"/>
	<path class="st2" d="M864.6,161.4c0-39.9-0.1-79.7-0.1-119.6"/>
	<path class="st1" d="M801.6,178.2c21-5.6,42-11.2,63-16.8"/>
	<path class="st3" d="M766.8,40.1c12.7-7,25.4-14.1,38-21.1c-1.1,53.1-2.2,106.1-3.3,159.2"/>
	<path class="st4" d="M734.1,68.2c-0.5,55.6-1,111.1-1.4,166.7c10-13.9,19.9-27.8,29.9-41.7c1.4-51,2.9-102,4.3-153"/>
	<path class="st1" d="M715.8,249.8c1.8-33,3.2-66.6,4.1-100.7c0.8-26.9,1.3-53.4,1.5-79.6c4.2,0,8.4,0.1,12.6,0.1"/>
	<path class="st2" d="M557,180.1c25.7-0.1,51.5-0.1,77.2-0.2c0.6-15.1,1.3-30.2,1.9-45.3c9.5,0.3,19.1,0.6,28.6,0.8
		c-0.6,37.1-1.2,74.2-1.8,111.3c17.6,1,35.2,2.1,52.9,3.1"/>
	<path class="st2" d="M557.4,8.2c-0.2,57.3-0.3,114.6-0.5,171.9"/>
	<path class="st1" d="M537.6,102.2c30.8-0.8,61.6-1.7,92.4-2.5c0-31.3,0-62.6,0-93.9c-24.2,0.8-48.4,1.5-72.6,2.3"/>
	<path class="st1" d="M538,57.1c-0.1,15-0.3,30.1-0.4,45.1"/>
	<path class="st1" d="M538,17.2c0,13.3,0,26.6,0,39.9"/>
	<path class="st2" d="M477.9-0.2c20,5.8,40.1,11.6,60.1,17.4"/>
	<line class="st1" x1="-0.1" y1="-0.2" x2="477.9" y2="-0.2"/>
</g>
</svg>
