<?xml version="1.0" encoding="utf-8"?>
<!-- Generator: Adobe Illustrator 24.3.0, SVG Export Plug-In . SVG Version: 6.00 Build 0)  -->
<svg version="1.1" id="Слой_1" xmlns="http://www.w3.org/2000/svg" xmlns:xlink="http://www.w3.org/1999/xlink" x="0px" y="0px"
	 viewBox="0 0 1440 250" style="enable-background:new 0 0 1440 250;" xml:space="preserve">
<style type="text/css">
	.st0{opacity:0.5;}
	.st1{fill:none;stroke:#000000;stroke-width:3;stroke-miterlimit:10;}
	.st2{fill:none;stroke:#000000;stroke-width:6;stroke-miterlimit:10;}
	.st3{fill:none;stroke:#000000;stroke-width:5;stroke-miterlimit:10;}
	.st4{fill:none;stroke:#000000;stroke-width:2;stroke-miterlimit:10;}
</style>
<g class="st0">
	<path class="st1" d="M959.9,0c160,0,320,0,480,0"/>
	<polyline class="st2" points="893,60.7 893,32.9 959.9,0 	"/>
	<path class="st1" d="M839.2,62c17.9-0.4,35.9-0.8,53.8-1.3"/>
	<path class="st1" d="M795.9,152.2c14.4-4.7,28.8-9.3,43.2-14c0-25.4,0.1-50.8,0.1-76.2"/>
	<path class="st3" d="M796.4,105.8c-0.2,15.5-0.3,30.9-0.5,46.4"/>
	<path class="st1" d="M709.2,106.4c29.1-0.2,58.1-0.4,87.2-0.6"/>
	<path class="st3" d="M708.6,0.9c0.2,35.2,0.4,70.4,0.6,105.6"/>
	<path class="st4" d="M782.2,250c-0.1-82.9-0.1-165.9-0.2-248.8c-24.5-0.1-48.9-0.2-73.4-0.4"/>
	<path class="st2" d="M647.5,62.4c-0.5,61.4-1,122.8-1.5,184.2c45.4,1.2,90.8,2.3,136.2,3.5"/>
	<path class="st3" d="M659.7,62.4"/>
	<path class="st3" d="M586.3,61.3"/>
	<path class="st4" d="M646.9,63.3c13.8,0.2,27.6,0.4,41.4,0.5"/>
	<path class="st4" d="M686.9,166.2c0.4-34.1,0.9-68.2,1.3-102.3"/>
	<path class="st1" d="M556.5,191.1c43.5-8.3,87-16.6,130.4-24.9"/>
	<path class="st3" d="M556.2,120.6c0.1,23.5,0.2,47,0.3,70.5"/>
	<path class="st3" d="M479.9,0c12,10.1,24,20.3,36,30.4c14.1-0.1,28.1-0.3,42.2-0.4c-0.6,30.2-1.3,60.4-1.9,90.6"/>
	<line class="st1" x1="-0.1" y1="0.9" x2="479.9" y2="0.9"/>
</g>
</svg>
