<?xml version="1.0" encoding="utf-8"?>
<!-- Generator: Adobe Illustrator 24.3.0, SVG Export Plug-In . SVG Version: 6.00 Build 0)  -->
<svg version="1.1" id="Слой_1" xmlns="http://www.w3.org/2000/svg" xmlns:xlink="http://www.w3.org/1999/xlink" x="0px" y="0px"
	 viewBox="0 0 1440 250" style="enable-background:new 0 0 1440 250;" xml:space="preserve">
<style type="text/css">
	.st0{opacity:0.5;}
	.st1{fill:none;stroke:#000000;stroke-width:3;stroke-miterlimit:10;}
	.st2{fill:none;stroke:#000000;stroke-width:5;stroke-miterlimit:10;}
	.st3{fill:none;stroke:#000000;stroke-width:2;stroke-miterlimit:10;}
	.st4{fill:none;stroke:#000000;stroke-width:6;stroke-miterlimit:10;}
	.st5{fill:none;stroke:#000000;stroke-width:4;stroke-miterlimit:10;}
</style>
<g class="st0">
	<path class="st1" d="M959.9,0.4c160,0,320,0,480,0"/>
	<path class="st2" d="M888.2,35.7c11-0.5,22-0.9,32.9-1.4c12.8,0,25.5,0,38.3,0c0.2-11.3,0.3-22.7,0.5-34"/>
	<path class="st1" d="M886.3,106.9c0.6-23.7,1.2-47.5,1.9-71.2"/>
	<path class="st3" d="M816.4,107.3c23.3-0.1,46.6-0.3,70-0.4"/>
	<path class="st4" d="M735.8,250.2c26-1.6,52-3.2,78-4.8c0.9-46,1.7-92.1,2.6-138.1"/>
	<path class="st3" d="M734.2,0.2c0.5,83.3,1.1,166.7,1.6,250"/>
	<path class="st1" d="M801.6,0.2c-22.5,0-44.9,0-67.4,0"/>
	<path class="st2" d="M803.2,76.2c-0.5-25.3-1-50.6-1.5-75.9"/>
	<path class="st4" d="M722,185.7c0-36.5,0-73,0-109.5c27.1,0,54.1,0,81.2,0"/>
	<path class="st3" d="M674.5,135.7c-0.8,16.1-1.5,32.2-2.3,48.4c16.6,0.5,33.2,1.1,49.8,1.6"/>
	<path class="st4" d="M681.1,72.4"/>
	<path class="st4" d="M605.2,73.7c-0.2,20.6-0.5,41.2-0.7,61.8c23.3,0.1,46.6,0.2,69.9,0.3"/>
	<path class="st1" d="M648.4,105.2l-9.2-32.4c-11.3,0.3-22.7,0.6-34,0.8"/>
	<path class="st4" d="M564.6,103.6c27.9,0.6,55.8,1.1,83.7,1.7"/>
	<path class="st5" d="M563.4,19.8c0.4,27.9,0.8,55.8,1.2,83.8"/>
	<path class="st1" d="M538.1,40.8h125.6c-0.3-7.1-0.7-14.1-1-21.2c-33.1,0.1-66.2,0.1-99.3,0.2"/>
	<path class="st4" d="M479.9,0.4c10.6,7.4,21.3,14.8,31.9,22.1c8.8,6.1,17.6,12.2,26.3,18.3"/>
	<line class="st1" x1="-0.1" y1="0.4" x2="479.9" y2="0.4"/>
</g>
</svg>
