<?xml version="1.0" encoding="utf-8"?>
<!-- Generator: Adobe Illustrator 24.3.0, SVG Export Plug-In . SVG Version: 6.00 Build 0)  -->
<svg version="1.1" id="Слой_1" xmlns="http://www.w3.org/2000/svg" xmlns:xlink="http://www.w3.org/1999/xlink" x="0px" y="0px"
	 viewBox="0 0 1440 250" style="enable-background:new 0 0 1440 250;" xml:space="preserve">
<style type="text/css">
	.st0{opacity:0.5;}
	.st1{fill:none;stroke:#000000;stroke-width:3;stroke-miterlimit:10;}
	.st2{fill:none;stroke:#000000;stroke-width:6;stroke-miterlimit:10;}
	.st3{fill:none;stroke:#000000;stroke-width:5;stroke-miterlimit:10;}
</style>
<g class="st0">
	<path class="st1" d="M959.9-1.6c160,0,320,0,480,0"/>
	<path class="st2" d="M884.7,64c4.8-13.5,9.7-27,14.5-40.5c20.2-8.4,40.4-16.7,60.7-25.1"/>
	<path class="st1" d="M779.8,8.5C779.5,27,779.3,45.5,779,64c35.2,0,70.5,0,105.7,0"/>
	<path class="st1" d="M866.3,9.1c-28.9-0.2-57.7-0.4-86.6-0.7"/>
	<path class="st2" d="M864.6,137.3c0.6-42.7,1.2-85.4,1.7-128.2"/>
	<path class="st1" d="M793.6,138.6c23.7-0.4,47.3-0.9,71-1.3"/>
	<path class="st3" d="M795.9,248.4c-0.8-36.6-1.5-73.2-2.3-109.8"/>
	<path class="st3" d="M795.9,244.2c-28.1-10.1-56.2-20.2-84.3-30.3"/>
	<path class="st2" d="M710.8,8.5c0.3,69.5,0.5,139.1,0.8,208.6"/>
	<path class="st1" d="M735.1,203.5c7.7-65.5,15.5-130.9,23.2-196.4c-15.8,0.4-31.7,0.9-47.5,1.3"/>
	<path class="st2" d="M592.8,145.4c25.3,0.8,50.6,1.6,75.9,2.4c0,18.6,0,37.2,0,55.8c22.1,0,44.3,0,66.4,0"/>
	<path class="st2" d="M557.4,7.2c11.8,46.1,23.6,92.1,35.4,138.2"/>
	<path class="st1" d="M567.5,58.2c15.9-0.1,31.7-0.2,47.6-0.3c-0.3-17.1-0.7-34.2-1-51.3c-18.9,0.2-37.8,0.4-56.7,0.7"/>
	<path class="st1" d="M538,58.5c9.8-0.1,19.7-0.2,29.5-0.4"/>
	<path class="st2" d="M477.9-1.6c20,6.1,40.1,12.2,60.1,18.2c0,13.9,0,27.9,0,41.8"/>
	<line class="st1" x1="-0.1" y1="-1.6" x2="477.9" y2="-1.6"/>
</g>
</svg>
