<?xml version="1.0" encoding="utf-8"?>
<!-- Generator: Adobe Illustrator 24.3.0, SVG Export Plug-In . SVG Version: 6.00 Build 0)  -->
<svg version="1.1" id="Слой_1" xmlns="http://www.w3.org/2000/svg" xmlns:xlink="http://www.w3.org/1999/xlink" x="0px" y="0px"
	 viewBox="0 0 1440 250" style="enable-background:new 0 0 1440 250;" xml:space="preserve">
<style type="text/css">
	.st0{opacity:0.5;}
	.st1{fill:none;stroke:#000000;stroke-width:3;stroke-miterlimit:10;}
	.st2{fill:none;stroke:#000000;stroke-width:6;stroke-miterlimit:10;}
	.st3{fill:none;stroke:#000000;stroke-width:5;stroke-miterlimit:10;}
	.st4{fill:none;stroke:#000000;stroke-width:2;stroke-miterlimit:10;}
</style>
<g class="st0">
	<path class="st1" d="M959.9,2.1c160,0,320,0,480,0"/>
	<polyline class="st2" points="893,62.4 893,34.8 959.9,2.1 	"/>
	<path class="st1" d="M756.5,207.1c22.9-8.7,45.8-17.3,68.7-26c7.6-2.4,15.2-4.9,22.7-7.3c0.5-10.1,0.9-20.2,1.4-30.3l15.7,1.7l0-82
		c9.4-0.3,18.7-0.6,28.1-0.8"/>
	<path class="st3" d="M757.8,0.5c-0.4,68.9-0.8,137.7-1.3,206.6"/>
	<path class="st1" d="M823.9,132.9c-0.1-43.5-0.2-87-0.3-130.4c-21.9-0.6-43.8-1.3-65.8-1.9"/>
	<path class="st4" d="M782.2,250.5c0-39.8-0.1-79.6-0.1-119.4c14.1-0.2,28.2-0.4,42.2-0.6"/>
	<path class="st2" d="M660.2,1.8c0,1.4,0,2.8,0,4.2c-0.8,75.6-1.6,151.2-2.4,226.8c41.5,5.9,83,11.8,124.4,17.8"/>
	<path class="st3" d="M659.7,64.1"/>
	<path class="st3" d="M586.3,63"/>
	<path class="st4" d="M635,1.5c8.5,0.2,17,0.5,25.5,0.7"/>
	<path class="st4" d="M676.8,191.1c1-42.3,2-84.6,3.1-126.9c-30.3-0.5-60.7-1-91-1.5V2.9c17.2-0.5,34.3-1,51.5-1.5"/>
	<path class="st1" d="M556.5,192c40.1-0.3,80.2-0.6,120.3-0.8"/>
	<path class="st3" d="M556.2,121.9c0.1,23.4,0.2,46.7,0.3,70.1"/>
	<path class="st3" d="M479.9,2.1c12,10.1,24,20.1,36,30.2c14.1-0.1,28.1-0.3,42.2-0.4c-0.6,30-1.3,60-1.9,90"/>
	<line class="st1" x1="-0.1" y1="2.9" x2="479.9" y2="2.9"/>
</g>
</svg>
