<?xml version="1.0" encoding="utf-8"?>
<!-- Generator: Adobe Illustrator 24.3.0, SVG Export Plug-In . SVG Version: 6.00 Build 0)  -->
<svg version="1.1" id="Слой_1" xmlns="http://www.w3.org/2000/svg" xmlns:xlink="http://www.w3.org/1999/xlink" x="0px" y="0px"
	 viewBox="0 0 1440 250" style="enable-background:new 0 0 1440 250;" xml:space="preserve">
<style type="text/css">
	.st0{opacity:0.5;}
	.st1{fill:none;stroke:#000000;stroke-width:3;stroke-miterlimit:10;}
	.st2{fill:none;stroke:#000000;stroke-width:5;stroke-miterlimit:10;}
	.st3{fill:none;stroke:#000000;stroke-width:4;stroke-miterlimit:10;}
	.st4{fill:none;stroke:#000000;stroke-width:2;stroke-miterlimit:10;}
	.st5{fill:none;stroke:#000000;stroke-width:6;stroke-miterlimit:10;}
</style>
<g class="st0">
	<path class="st1" d="M959.9,0.5c160,0,320,0,480,0"/>
	<path class="st2" d="M888.2,35.9c11-0.5,22-0.9,32.9-1.4c12.8,0,25.5,0,38.3,0c0.2-11.3,0.3-22.7,0.5-34"/>
	<path class="st3" d="M810.7,110.6c26,0.4,51.9,0.8,77.9,1.3c-0.1-25.3-0.2-50.6-0.4-75.9"/>
	<path class="st4" d="M792.4,229.9c6.1-39.8,12.1-79.6,18.2-119.4"/>
	<path class="st5" d="M701.4,250.5c30.4-6.9,60.7-13.7,91.1-20.6"/>
	<path class="st5" d="M703.4,0.9c-0.7,83.2-1.4,166.4-2,249.6"/>
	<path class="st1" d="M766.2,2c-20.9-0.4-41.9-0.7-62.8-1.1"/>
	<path class="st4" d="M724.1,183.4c13.3-18.1,26.6-36.2,39.9-54.2c0.8-42.4,1.5-84.7,2.3-127.1"/>
	<path class="st5" d="M673,136c-0.3,16.1-0.6,32.3-0.9,48.4c17.3-0.3,34.6-0.7,51.9-1"/>
	<path class="st1" d="M604.5,117.2c0,6.2,0,12.3,0,18.5c23.3,0.1,46.6,0.2,69.9,0.3"/>
	<path class="st5" d="M637.2,73.1"/>
	<path class="st5" d="M636.2,116.5"/>
	<path class="st2" d="M562.5,118.1c24.6-0.6,17.5-0.4,42-0.9"/>
	<path class="st5" d="M563.2,48.2c-0.2,23.3-0.4,46.7-0.7,70"/>
	<path class="st1" d="M541,69.2c40.2-1.1,80.3-2.2,120.5-3.4c0.2-6.5,0.3-12.9,0.5-19.4c-33,0.6-65.9,1.1-98.9,1.7"/>
	<path class="st2" d="M479.9,0.5c0.1,8,0.2,16,0.4,24c11.2,0.5,22.4,1,33.6,1.5c9,14.4,18.1,28.8,27.1,43.2"/>
	<line class="st1" x1="-0.1" y1="0.5" x2="479.9" y2="0.5"/>
</g>
</svg>
