<?xml version="1.0" encoding="utf-8"?>
<!-- Generator: Adobe Illustrator 24.3.0, SVG Export Plug-In . SVG Version: 6.00 Build 0)  -->
<svg version="1.1" id="Слой_1" xmlns="http://www.w3.org/2000/svg" xmlns:xlink="http://www.w3.org/1999/xlink" x="0px" y="0px"
	 viewBox="0 0 1440 250" style="enable-background:new 0 0 1440 250;" xml:space="preserve">
<style type="text/css">
	.st0{opacity:0.5;}
	.st1{fill:none;stroke:#000000;stroke-width:3;stroke-miterlimit:10;}
	.st2{fill:none;stroke:#000000;stroke-width:5;stroke-miterlimit:10;}
	.st3{fill:none;stroke:#000000;stroke-width:6;stroke-miterlimit:10;}
</style>
<g class="st0">
	<path class="st1" d="M913.5,0.1l46.5,0c160,0,320,0,480,0"/>
	<path class="st2" d="M816.4,60.7c13.5-0.8,27-1.7,40.5-2.5c18.9-10,37.8-20.1,56.7-30.1c0-9.3-0.1-18.6-0.1-27.9"/>
	<path class="st3" d="M737.3,148.7c26.9-8.4,53.7-16.7,80.6-25.1c-0.5-22.2-1-44.5-1.6-66.7"/>
	<path class="st1" d="M754.3,152.7c0.2-39.4,0.4-78.9,0.4-118.3c0-5.3,0-13.6,0-18.9c-6.3-0.3-12.6-0.7-18.9-1
		c0.5,44.8,1,89.5,1.5,134.3"/>
	<path class="st3" d="M705.1,149.9c9.1,12.8,18.3,25.5,27.4,38.3c7.2-11.9,14.5-23.7,21.7-35.6"/>
	<path class="st3" d="M590.1,97.4c38,0.1,75.9,0.3,113.9,0.4c0.4,17.4,0.8,34.7,1.2,52.1"/>
	<path class="st1" d="M623.3,250.1c19.4-13.2,38.8-26.4,58.2-39.5c0.2-69,0.3-138,0.5-207c-30.8,0-61.6,0-92.4,0
		c0.2,31.3,0.3,62.6,0.5,93.9"/>
	<path class="st3" d="M546.7,34.7c7.5-1.8,15.1-3.6,22.6-5.4c0.6,58.8,1.3,117.5,1.9,176.3c17.4,14.8,34.7,29.7,52.1,44.5"/>
	<path class="st2" d="M510.9,0.9c0.2,4.3,0.4,8.6,0.7,12.8c11.7,7,23.4,13.9,35.1,20.9"/>
	<polyline class="st1" points="-0.1,0.9 30.9,0.9 510.9,0.9 	"/>
</g>
</svg>
