<?xml version="1.0" encoding="utf-8"?>
<!-- Generator: Adobe Illustrator 24.3.0, SVG Export Plug-In . SVG Version: 6.00 Build 0)  -->
<svg version="1.1" id="Слой_1" xmlns="http://www.w3.org/2000/svg" xmlns:xlink="http://www.w3.org/1999/xlink" x="0px" y="0px"
	 viewBox="0 0 1440 250" style="enable-background:new 0 0 1440 250;" xml:space="preserve">
<style type="text/css">
	.st0{opacity:0.5;}
	.st1{fill:none;stroke:#000000;stroke-width:3;stroke-miterlimit:10;}
	.st2{fill:none;stroke:#000000;stroke-width:6;stroke-miterlimit:10;}
	.st3{fill:none;stroke:#000000;stroke-width:2;stroke-miterlimit:10;}
	.st4{fill:none;stroke:#000000;stroke-width:5;stroke-miterlimit:10;}
</style>
<g class="st0">
	<path class="st1" d="M830.4,203.7c-50,10.4-100.1,20.8-150.1,31.2"/>
	<path class="st1" d="M959.9-0.1c160,0,320,0,480,0"/>
	<path class="st2" d="M959.9,24c0-8,0-16.1,0-24.1"/>
	<path class="st3" d="M865.1,23.4c31.6,0.2,63.2,0.4,94.8,0.6"/>
	<path class="st1" d="M864.1,125.3c0-15.6,0-31.2,0-46.9c0.3-18.4,0.7-36.7,1-55.1"/>
	<path class="st2" d="M715,15.1c0.3,37.5,0.7,75,1,112.6c49.4-0.8,98.7-1.6,148.1-2.4"/>
	<path class="st1" d="M519,14.8h99.2c32.3,0.1,64.5,0.2,96.8,0.3"/>
	<polyline class="st2" points="616.7,108.7 520.3,108.7 519,14.8 	"/>
	<path class="st4" d="M648.9,249.9c-10.9-10.6-21.8-21.1-32.8-31.7c0.2-36.5,0.4-73,0.6-109.5"/>
	<path class="st1" d="M649.6,50.7c-0.3,66.4-0.5,132.8-0.8,199.2"/>
	<path class="st2" d="M680.3,232.2c0.5-60.5,1-121,1.5-181.5c-10.7,0-21.4,0-32.2,0"/>
	<path class="st1" d="M831.4,28.3c-0.3,57.8-0.7,115.6-1,173.5"/>
	<path class="st1" d="M519.2,29.4c32.4,0.3,64.9,0.5,97.8,0.5c72.6,0.1,144.1-0.5,214.5-1.6"/>
	<path class="st2" d="M479.9-0.1c0,10,0,19.9,0,29.9c13.1-0.1,26.2-0.2,39.3-0.3"/>
	<line class="st1" x1="-0.1" y1="-0.1" x2="479.9" y2="-0.1"/>
</g>
</svg>
