<?xml version="1.0" encoding="utf-8"?>
<!-- Generator: Adobe Illustrator 24.3.0, SVG Export Plug-In . SVG Version: 6.00 Build 0)  -->
<svg version="1.1" id="Слой_1" xmlns="http://www.w3.org/2000/svg" xmlns:xlink="http://www.w3.org/1999/xlink" x="0px" y="0px"
	 viewBox="0 0 1440 250" style="enable-background:new 0 0 1440 250;" xml:space="preserve">
<style type="text/css">
	.st0{opacity:0.5;}
	.st1{fill:none;stroke:#000000;stroke-width:3;stroke-miterlimit:10;}
	.st2{fill:none;stroke:#000000;stroke-width:6;stroke-miterlimit:10;}
	.st3{fill:none;stroke:#000000;stroke-width:5;stroke-miterlimit:10;}
	.st4{fill:none;stroke:#000000;stroke-width:2;stroke-miterlimit:10;}
</style>
<g class="st0">
	<path class="st1" d="M959.9,0c160,0,320,0,480,0"/>
	<polyline class="st2" points="893,60.7 893,32.9 959.9,0 	"/>
	<path class="st1" d="M865,61.5c9.4-0.3,18.7-0.6,28.1-0.8"/>
	<path class="st1" d="M791.2,211.4c25.2-15.7,50.5-31.4,75.7-47.1c-0.7-34.3-1.3-68.5-2-102.8"/>
	<path class="st3" d="M792.6,139c-0.5,24.1-0.9,48.3-1.4,72.4"/>
	<path class="st1" d="M709.4,141.4c27.7-0.8,55.5-1.6,83.2-2.4"/>
	<path class="st3" d="M708.6,47.3c0.3,31.4,0.5,62.7,0.8,94.1"/>
	<path class="st4" d="M782.2,250c-0.1-67.5-0.1-135-0.2-202.5c-24.5-0.1-48.9-0.2-73.4-0.3"/>
	<polyline class="st2" points="659.7,62.4 722,250 782.2,250 	"/>
	<path class="st3" d="M659.7,62.4"/>
	<path class="st3" d="M586.3,61.3"/>
	<path class="st4" d="M642.3,61.7c6,0.9,12,1.8,18,2.7"/>
	<path class="st4" d="M687.2,191.3c-15-43.2-29.9-86.4-44.9-129.6"/>
	<path class="st1" d="M556.5,191.1c43.6,0.1,87.2,0.1,130.8,0.2"/>
	<path class="st3" d="M556.2,120.6c0.1,23.5,0.2,47,0.3,70.5"/>
	<path class="st3" d="M479.9,0c12,10.1,24,20.3,36,30.4c14.1-0.1,28.1-0.3,42.2-0.4c-0.6,30.2-1.3,60.4-1.9,90.6"/>
	<line class="st1" x1="-0.1" y1="0.9" x2="479.9" y2="0.9"/>
</g>
</svg>
