<?xml version="1.0" encoding="utf-8"?>
<!-- Generator: Adobe Illustrator 24.3.0, SVG Export Plug-In . SVG Version: 6.00 Build 0)  -->
<svg version="1.1" id="Слой_1" xmlns="http://www.w3.org/2000/svg" xmlns:xlink="http://www.w3.org/1999/xlink" x="0px" y="0px"
	 viewBox="0 0 1440 250" style="enable-background:new 0 0 1440 250;" xml:space="preserve">
<style type="text/css">
	.st0{opacity:0.5;}
	.st1{fill:none;stroke:#000000;stroke-width:3;stroke-miterlimit:10;}
	.st2{fill:none;stroke:#000000;stroke-width:5;stroke-miterlimit:10;}
	.st3{fill:none;stroke:#000000;stroke-width:6;stroke-miterlimit:10;}
	.st4{fill:none;stroke:#000000;stroke-width:4;stroke-miterlimit:10;}
	.st5{fill:none;stroke:#000000;stroke-width:2;stroke-miterlimit:10;}
</style>
<g class="st0">
	<path class="st1" d="M913.5,0.6h46.5c160,0,320,0,480,0"/>
	<path class="st2" d="M818.5,12.6c31.5-0.9,63-1.9,94.5-2.8c0.2-3.1,0.3-6.2,0.5-9.3"/>
	<path class="st3" d="M737.3,152.9c26.9-8.6,53.7-17.2,80.6-25.8c0.2-38.2,0.4-76.4,0.6-114.5"/>
	<path class="st1" d="M754.1,197.3c0.2-53.9,0.3-107.8,0.5-161.7c0-6.5,0-12.9,0-19.4c-6.3-0.4-12.6-0.7-18.9-1.1
		c0.5,45.9,1,91.8,1.5,137.7"/>
	<path class="st3" d="M705.1,154.2c6.8,14.2,13.5,28.4,20.3,42.6c9.6,0.2,19.2,0.4,28.7,0.6"/>
	<path class="st4" d="M702.6,26.2c0.9,42.7,1.7,85.4,2.6,128.1"/>
	<path class="st5" d="M589.4,25.7c37.7,0.1,75.4,0.3,113.1,0.4"/>
	<path class="st1" d="M693.4,250.6c-1-82.2-2-164.3-3-246.5c-33.6,0-67.2,0-100.8,0c0,7.2-0.1,14.4-0.1,21.7"/>
	<path class="st3" d="M635.5,40c4.1,68.3,8.2,136.5,12.2,204.8c15.2,1.9,30.4,3.9,45.6,5.8"/>
	<path class="st1" d="M573.4,12.9c0.1,9,0.1,18.1,0.2,27.1c20.7,0,41.3,0,62,0"/>
	<path class="st2" d="M510.9,1.4c0.2,4.4,0.4,8.8,0.7,13.2c20.6-0.6,41.2-1.1,61.8-1.7"/>
	<polyline class="st1" points="-0.1,1.4 30.9,1.4 510.9,1.4 	"/>
</g>
</svg>
