<?xml version="1.0" encoding="utf-8"?>
<!-- Generator: Adobe Illustrator 24.3.0, SVG Export Plug-In . SVG Version: 6.00 Build 0)  -->
<svg version="1.1" id="Слой_1" xmlns="http://www.w3.org/2000/svg" xmlns:xlink="http://www.w3.org/1999/xlink" x="0px" y="0px"
	 viewBox="0 0 1440 250" style="enable-background:new 0 0 1440 250;" xml:space="preserve">
<style type="text/css">
	.st0{opacity:0.5;}
	.st1{fill:none;stroke:#000000;stroke-width:3;stroke-miterlimit:10;}
	.st2{fill:none;stroke:#000000;stroke-width:6;stroke-miterlimit:10;}
	.st3{fill:none;stroke:#000000;stroke-width:5;stroke-miterlimit:10;}
	.st4{fill:none;stroke:#000000;stroke-width:2;stroke-miterlimit:10;}
	.st5{fill:none;stroke:#000000;stroke-width:4;stroke-miterlimit:10;}
</style>
<g class="st0">
	<line class="st1" x1="959.9" y1="1.1" x2="1439.9" y2="1.1"/>
	<line class="st2" x1="898.5" y1="51.7" x2="959.9" y2="1.1"/>
	<line class="st3" x1="898.5" y1="88.7" x2="898.5" y2="51.7"/>
	<line class="st4" x1="845.7" y1="92.1" x2="898.5" y2="88.7"/>
	<path class="st3" d="M809.8,211.2c12-0.4,23.9-0.7,35.9-1.1c0-39.3,0-78.7,0-118"/>
	<path class="st1" d="M807.8,48.6c0.7,54.2,1.4,108.4,2,162.6"/>
	<g>
		<path d="M764.9,193.1c2.8-0.3,5.6-0.6,8.4-0.8c2.8-0.3,5.6-0.5,8.4-0.7c5.6-0.5,11.2-0.8,16.8-1.2c2.8-0.2,5.6-0.3,8.4-0.5
			c2.8-0.2,5.6-0.3,8.4-0.4c2.8-0.1,5.6-0.2,8.4-0.3l8.4-0.2l-0.9,1c0.1-5.9,0.4-11.7,0.5-17.6c0.1-5.9,0.1-11.7,0-17.6
			c-0.2-11.7-0.6-23.4-0.8-35.1c-0.1-11.7-0.3-23.4-0.3-35.1c0.1-11.7,0.2-23.4,0.5-35.1l1,1.1L820,49.6c-4.1-0.3-8.2-0.5-12.3-0.9
			l0-0.3c4.1-0.1,8.2-0.1,12.3-0.2l12.3,0l1,0l0,1.1c0.3,11.7,0.5,23.4,0.5,35.1c0,11.7-0.2,23.4-0.3,35.1
			c-0.2,11.7-0.6,23.4-0.8,35.1c-0.1,5.9-0.1,11.7,0,17.6c0.1,5.9,0.3,11.7,0.5,17.6l0,0.9l-1,0.1l-8.4,0.7
			c-2.8,0.2-5.6,0.4-8.4,0.5c-2.8,0.2-5.6,0.3-8.4,0.4c-2.8,0.1-5.6,0.3-8.4,0.3c-5.6,0.2-11.3,0.4-16.9,0.5
			c-2.8,0.1-5.6,0.1-8.4,0.1c-2.8,0-5.6,0-8.5,0L764.9,193.1z"/>
	</g>
	<line class="st2" x1="764.9" y1="46.6" x2="764.9" y2="193.2"/>
	<polyline class="st4" points="740.4,164.6 740.4,48.3 764.9,46.6 	"/>
	<path class="st1" d="M716.9,228.9c1-75.7,2-151.3,3.1-227h-11.7v139c10.7,8.1,21.4,16.3,32.2,24.4"/>
	<path class="st2" d="M667.3,45.8l0.5,205.3c16.3-7.4,32.7-14.8,49-22.2"/>
	<polyline class="st4" points="695.7,152.8 695.7,46 667.3,45.8 	"/>
	<path class="st5" d="M604.5,82c0,23.6,0,47.2,0,70.8h91.1"/>
	<polyline class="st3" points="479.9,1.1 560.6,1.1 560.6,82 604.5,82 	"/>
	<line class="st1" x1="-0.1" y1="1.1" x2="479.9" y2="1.1"/>
</g>
</svg>
