<?xml version="1.0" encoding="utf-8"?>
<!-- Generator: Adobe Illustrator 24.3.0, SVG Export Plug-In . SVG Version: 6.00 Build 0)  -->
<svg version="1.1" id="Слой_1" xmlns="http://www.w3.org/2000/svg" xmlns:xlink="http://www.w3.org/1999/xlink" x="0px" y="0px"
	 viewBox="0 0 1440 250" style="enable-background:new 0 0 1440 250;" xml:space="preserve">
<style type="text/css">
	.st0{opacity:0.5;}
	.st1{fill:none;stroke:#000000;stroke-width:3;stroke-miterlimit:10;}
	.st2{fill:none;stroke:#000000;stroke-width:5;stroke-miterlimit:10;}
	.st3{fill:none;stroke:#000000;stroke-width:6;stroke-miterlimit:10;}
	.st4{fill:none;stroke:#000000;stroke-width:2;stroke-miterlimit:10;}
</style>
<g class="st0">
	<path class="st1" d="M913.5,0.6h46.5c160,0,320,0,480,0"/>
	<path class="st2" d="M818.5,15.9c31.5-1.2,63-2.4,94.5-3.5c0.2-3.9,0.3-7.9,0.5-11.8"/>
	<path class="st3" d="M738,162.5c26.6-0.5,53.2-0.9,79.8-1.4c0.2-48.4,0.4-96.8,0.6-145.2"/>
	<path class="st1" d="M754.1,250c0.2-68.3,0.3-136.6,0.5-204.9c0-8.2,0-16.4,0-24.6c-6.3-0.5-12.6-0.9-18.9-1.4
		c0.8,47.8,1.5,95.5,2.3,143.3"/>
	<path class="st3" d="M705.1,195.4c-0.3,18.4-0.7,36.8-1,55.2c16.7-0.2,33.3-0.4,50-0.5"/>
	<path class="st3" d="M702.6,33c0.9,54.1,1.7,108.2,2.6,162.3"/>
	<path class="st4" d="M647,32.8c18.5,0.1,37.1,0.2,55.6,0.3"/>
	<path class="st1" d="M692.1,180.4C691.6,122,691,63.5,690.4,5c-14.5,0-28.9,0-43.4,0c0,9.2,0,18.5,0,27.7"/>
	<path class="st3" d="M598.7,50.6c-0.5,24.5-1,49.1-1.5,73.6c31.7,18.8,63.3,37.5,95,56.3"/>
	<path class="st1" d="M573.4,16.2c0.1,11.5,0.1,22.9,0.2,34.4c8.4,0,16.8,0,25.1,0"/>
	<path class="st2" d="M510.9,1.7c0.2,5.6,0.4,11.1,0.7,16.7c20.6-0.7,41.2-1.5,61.8-2.2"/>
	<polyline class="st1" points="-0.1,1.7 30.9,1.7 510.9,1.7 	"/>
</g>
</svg>
