<?xml version="1.0" encoding="utf-8"?>
<!-- Generator: Adobe Illustrator 24.3.0, SVG Export Plug-In . SVG Version: 6.00 Build 0)  -->
<svg version="1.1" id="Слой_1" xmlns="http://www.w3.org/2000/svg" xmlns:xlink="http://www.w3.org/1999/xlink" x="0px" y="0px"
	 viewBox="0 0 1440 250" style="enable-background:new 0 0 1440 250;" xml:space="preserve">
<style type="text/css">
	.st0{opacity:0.5;}
	.st1{fill:none;stroke:#000000;stroke-width:3;stroke-miterlimit:10;}
	.st2{fill:none;stroke:#000000;stroke-width:6;stroke-miterlimit:10;}
	.st3{fill:none;stroke:#000000;stroke-width:5;stroke-miterlimit:10;}
	.st4{fill:none;stroke:#000000;stroke-width:2;stroke-miterlimit:10;}
	.st5{fill:none;stroke:#000000;stroke-width:4;stroke-miterlimit:10;}
</style>
<g class="st0">
	<line class="st1" x1="959.9" y1="-0.4" x2="1439.9" y2="-0.4"/>
	<line class="st2" x1="898.5" y1="50.4" x2="959.9" y2="-0.4"/>
	<line class="st3" x1="898.5" y1="87.6" x2="898.5" y2="50.4"/>
	<path class="st4" d="M866.9,88.7c10.5-0.4,21.1-0.7,31.6-1.1"/>
	<path class="st4" d="M810,168.4c19.3-0.2,38.6-0.4,57.9-0.6c0-26.4,0.1-52.7,0.1-79.1"/>
	<path class="st2" d="M764.9,192.5c0.2,14.3,0.5,28.6,0.7,43c14.8,0.1,29.6,0.1,44.4,0.2c0-22.4,0-44.8,0-67.2"/>
	<line class="st2" x1="764.9" y1="45.3" x2="764.9" y2="192.5"/>
	<path class="st4" d="M797,128c0.7-28.1,1.4-56.1,2-84.2c-11.4,0.5-22.8,1-34.1,1.4"/>
	<path class="st4" d="M715.8,249.6c1.4-83.1,2.8-166.1,4.2-249.2c-11.1,0.4-22.2,0.7-33.3,1.1c-0.3,41-0.5,82.1-0.8,123.1
		c37,1.1,74,2.3,111.1,3.4"/>
	<path class="st2" d="M667.3,44.4c0.1,54.6,0.3,109.3,0.4,163.9c16,13.7,32,27.5,48,41.2"/>
	<path class="st4" d="M605.5,200.1c8.9,0.6,17.9,1.3,26.8,1.9c0.3-52.4,0.5-104.9,0.8-157.3c11.4-0.1,22.9-0.2,34.3-0.3"/>
	<path class="st5" d="M604.5,80.8c0,23.7,0,47.4,0,71.1c0.3,16.1,0.6,32.2,0.9,48.3"/>
	<polyline class="st3" points="479.9,-0.4 560.6,-0.4 560.6,80.8 604.5,80.8 	"/>
	<line class="st1" x1="-0.1" y1="-0.4" x2="479.9" y2="-0.4"/>
</g>
</svg>
