<?xml version="1.0" encoding="utf-8"?>
<!-- Generator: Adobe Illustrator 24.3.0, SVG Export Plug-In . SVG Version: 6.00 Build 0)  -->
<svg version="1.1" id="Слой_1" xmlns="http://www.w3.org/2000/svg" xmlns:xlink="http://www.w3.org/1999/xlink" x="0px" y="0px"
	 viewBox="0 0 1440 250" style="enable-background:new 0 0 1440 250;" xml:space="preserve">
<style type="text/css">
	.st0{opacity:0.5;}
	.st1{fill:none;stroke:#000000;stroke-width:3;stroke-miterlimit:10;}
	.st2{fill:none;stroke:#000000;stroke-width:6;stroke-miterlimit:10;}
	.st3{fill:none;stroke:#000000;stroke-width:2;stroke-miterlimit:10;}
</style>
<g class="st0">
	<path class="st1" d="M959.9-0.6c160,0,320,0,480,0"/>
	<path class="st2" d="M959.9,24.2c0-8.2,0-16.5,0-24.7"/>
	<path class="st3" d="M868,23.3c30.6,0.3,61.3,0.6,91.9,0.8"/>
	<path class="st2" d="M867,50c0.3-8.9,0.7-17.8,1-26.7"/>
	<line class="st3" x1="819" y1="50" x2="867" y2="50"/>
	<path class="st2" d="M684.3,77.3c44.5,23.7,88.9,47.3,133.4,71c0.4-32.7,0.9-65.5,1.3-98.2"/>
	<path class="st1" d="M701.5,249.4c12.9-16.8,25.9-33.5,38.8-50.3c0.6-66,1.3-131.9,1.9-197.9c-19.1-0.6-38.1-1.2-57.2-1.8
		c-0.3,25.9-0.5,51.9-0.8,77.8"/>
	<path class="st2" d="M615.1,138.6c28.6-0.1,57.2-0.3,85.8-0.4c0.2,37.1,0.4,74.2,0.7,111.3"/>
	<path class="st3" d="M653.4,49.2c-12.9,0.4-25.9,0.8-38.8,1.3c0.2,29.4,0.3,58.7,0.5,88.1"/>
	<path class="st2" d="M656,179c-0.9-43.3-1.7-86.5-2.6-129.8"/>
	<path class="st3" d="M599,155.8c19,7.7,37.9,15.5,56.9,23.2"/>
	<path class="st2" d="M560.6,30.1c12.8,41.9,25.6,83.8,38.4,125.7"/>
	<path class="st2" d="M479.9-0.6c0,10.2,0,20.4,0,30.6c26.9,0,53.8,0,80.7,0"/>
	<line class="st1" x1="-0.1" y1="-0.6" x2="479.9" y2="-0.6"/>
</g>
</svg>
