<svg viewBox="0 0 1050 1050" xmlns="http://www.w3.org/2000/svg" xml:space="preserve" style="fill-rule:evenodd;clip-rule:evenodd;stroke-linejoin:round;stroke-miterlimit:2"><g transform="rotate(89.646 474.653 524.923) scale(.92691)"><clipPath id="a"><path d="M0 0h1025v1024H0z"/></clipPath><g clip-path="url(#a)"><path d="M816.026 928.01c61.767 0 112.005-50.237 112.005-112.005 0-61.768-50.238-112.005-112.005-112.005-61.768 0-112.006 50.237-112.006 112.005 0 61.768 50.238 112.005 112.006 112.005Zm0-192c44.093 0 79.994 35.881 79.994 79.995 0 44.114-35.901 79.995-79.994 79.995-44.094 0-79.995-35.881-79.995-79.995 0-44.114 35.901-79.995 79.995-79.995ZM599.45 766.403c0 46.428 11.427 104.673 26.746 137.625C657.551 983.613 719.258 1024 809.615 1024c118.211 0 214.405-96.195 214.405-214.405 0-114.975-90.173-198.39-214.405-198.39-141.209 0-187.289-75.878-189.112-79.012a17.051 17.051 0 0 0-2.232-3.031L126.915 5.059c-4.486-4.772-11.449-6.308-17.572-3.933-6.083 2.397-10.117 8.315-10.117 14.889 0 308.839 205.946 470.877 356.311 589.149 80.425 63.262 143.913 113.192 143.913 161.239ZM132.628 57.958l461.19 491.91c8.581 13.557 65.413 93.347 215.797 93.347 105.698 0 182.395 69.981 182.395 166.4 0 100.619-81.817 182.395-182.395 182.395-76.963 0-127.221-32.645-154.009-100.598-11.715-25.149-24.167-77.537-24.167-124.989 0-63.59-68.894-117.801-156.098-186.409C337.203 471.347 150.467 324.485 132.628 57.958ZM96.031 816.005c0 61.768 50.237 112.005 112.005 112.005 61.768 0 112.005-50.237 112.005-112.005 0-61.768-50.237-112.005-112.005-112.005-61.768 0-112.005 50.237-112.005 112.005Zm192 0c0 44.135-35.902 79.995-79.995 79.995-44.094 0-79.995-35.881-79.995-79.995 0-44.114 35.901-79.995 79.995-79.995 44.093 0 79.995 35.881 79.995 79.995Zm372.285-320.942c-6.533 5.96-7.004 16.056-1.065 22.589a16.015 16.015 0 0 0 11.838 5.223c3.85 0 7.721-1.372 10.793-4.199C794.993 415.642 924.815 265.4 924.815 15.995a16 16 0 0 0-10.117-14.889c-6.082-2.335-13.066-.84-17.572 3.932L547.697 377.713c-6.042 6.43-5.735 16.568.737 22.589 6.431 6.021 16.548 5.755 22.63-.696l320.451-341.77C877.875 269.988 762.04 402.35 660.316 495.043v.02ZM349.164 604.672c8.232-3.195 12.328-12.452 9.154-20.664-3.174-8.213-12.472-12.391-20.705-9.114-6.759 2.622-14.049 5.857-21.893 9.339-27.013 12.001-60.642 26.972-101.315 26.972C90.173 611.205 0 694.62 0 809.595 0 927.805 96.195 1024 214.405 1024c90.358 0 152.064-40.387 183.009-119.112 16.2-34.713 18.596-110.715 18.596-152.903 0-8.602 24.392-26.973 38.974-37.95 13.476-10.117 27.402-20.603 36.987-31.416 5.857-6.615 5.242-16.732-1.352-22.59-6.595-5.877-16.732-5.242-22.59 1.352-7.495 8.479-20.09 17.961-32.317 27.136C409.129 708.547 384 727.429 384 752.005c0 66.294-5.816 118.436-15.974 140.288-26.399 67.072-76.678 99.717-153.641 99.717-100.578 0-182.395-81.817-182.395-182.395 0-96.44 76.697-166.4 182.395-166.4 47.493 0 86.118-17.223 114.339-29.798 7.291-3.256 14.111-6.267 20.419-8.745h.021Zm137.072-61.174c0 14.254 11.551 25.785 25.784 25.785 14.234 0 25.785-11.551 25.785-25.785 0-14.254-11.551-25.784-25.785-25.784-14.233 0-25.784 11.551-25.784 25.784Z" style="fill-rule:nonzero"/></g></g></svg>