<svg viewBox="0 0 1050 1050" xmlns="http://www.w3.org/2000/svg" xml:space="preserve" style="fill-rule:evenodd;clip-rule:evenodd;stroke-linejoin:round;stroke-miterlimit:2"><path d="M1091.41 621a914.103 914.103 0 0 0-34 95.75c-2.32 8.11-4.56 16.23-6.64 24.39s-4 16.35-5.81 24.54c-.9 4.11-1.75 8.22-2.6 12.33-.85 4.11-1.64 8.23-2.35 12.36a748.046 748.046 0 0 0-4.1 24.81l-3.17 24.93-.41 3.11-.27 3.12-.56 6.25-1.11 12.48c-1.19 16.66-2 33.33-2 50l-.08 6.26c0 2.09.08 4.18.12 6.27l.24 12.53.11 6.26.28 6.28.59 12.55.29 6.28.44 6.29.86 12.58.4 6.29.5 6.31 1 12.61c2.86 33.67 6 67.58 8.34 101.65.54 8.52 1.15 17 1.61 25.58l1.3 25.62c.25 4.27.37 8.55.49 12.82l.72 25.66c.13 4.28.11 8.56.17 12.84l.22 25.67c0 8.56-.25 17.11-.37 25.66l-.21 12.83-.11 6.42-.19 6.45c-.27 8.59-.67 17.17-1.2 25.76-1 17.16-2.39 34.29-4.2 51.37s-4 34.1-6.56 51.07l-3.15 20.92-16.57-12.28c-10.78-8-21.41-16.18-31.89-24.53-10.48-8.37-20.71-17-30.81-25.83-10.1-8.83-20-17.84-29.68-27.06-2.42-2.3-4.84-4.61-7.23-7-2.39-2.39-4.8-4.65-7.17-7-4.71-4.75-9.43-9.47-14.06-14.3-18.6-19.19-36.26-39.26-53.09-59.92a961.82 961.82 0 0 1-24.45-31.61c-4-5.34-7.81-10.77-11.65-16.2l-5.69-8.18-5.56-8.28 13.29 14.83c4.46 4.91 9 9.77 13.48 14.62 9.04 9.69 18.197 19.24 27.47 28.65a1261.581 1261.581 0 0 0 57.33 54.52 1171.63 1171.63 0 0 0 60.55 50.51c5.16 4.05 10.39 8 15.63 12s10.53 7.82 15.83 11.68a971.931 971.931 0 0 0 32.2 22.55l-19.72 8.64c1.85-16.72 3.43-33.46 4.64-50.21.56-8.38 1.17-16.76 1.63-25.14.46-8.38.84-16.77 1.13-25.15.29-8.38.48-16.77.64-25.16l.09-6.29v-18.96c0-8.43.08-16.86 0-25.29l-.36-25.28c-.73-33.7-2-67.37-4.15-101.09-.49-8.42-1-16.87-1.59-25.31-.59-8.44-1.09-16.89-1.7-25.36-1.2-16.91-2.34-33.89-3.3-50.94-.96-17.05-1.8-34.18-2.06-51.39l-.16-12.91-.06-6.46.11-6.47.26-12.95c.05-2.15.08-4.31.16-6.46l.37-6.48c.82-17.26 2.34-34.51 4.57-51.64l1.85-12.82 1.38-9.6.6-3.18 4.85-25.39a624.185 624.185 0 0 1 12.8-50c2.46-8.23 5.13-16.4 7.93-24.51 2.8-8.11 5.73-16.17 8.87-24.15a648.332 648.332 0 0 1 20.53-47c1.81-3.86 3.81-7.64 5.7-11.47 1-1.9 1.92-3.8 2.91-5.69l3-5.64c4.07-7.58 8.31-14.98 12.56-22.32Z" style="fill:#070000;fill-rule:nonzero" transform="matrix(-1 .00347 -.00239 -.68827 1639.61 1468.79)"/><path d="M792.21 1203.74c40.26 62.12 78.73 125 119.57 186 20.44 30.41 41.31 60.52 63.89 88.66 11.33 14 23 27.64 35.64 39.34 6.29 5.79 12.8 11.2 19.3 15.13 2.91 1.82 6.03 3.3 9.28 4.41 2.14.78 4.42 1.05 6.68.8.37-.06.74-.15 1.1-.26.34-.06.69-.34 1.07-.45.19 0 .43-.26.64-.37l.69-.39c.5-.42 1-.71 1.54-1.18a43.55 43.55 0 0 0 6.76-7.53c2.33-3.27 4.47-6.67 6.41-10.19 2-3.62 3.94-7.48 5.81-11.39 3.75-7.83 7.15-16.08 10.44-24.45 3.29-8.37 6.35-17 9.55-25.57 3.2-8.57 6.32-17.35 9.83-26.23l1.34-3.35 1.33-3.26 2.64-6.34 5.23-12.7c6.94-17 13.38-33.92 20.34-51.33 3.48-8.73 7.31-17.45 11.53-26s8.67-17 13.64-25c2.4-4.1 5-8 7.58-12 1.27-2 2.66-3.91 4-5.87 1.34-1.96 2.64-3.92 4.07-5.8l4.22-5.69c.71-.94 1.4-1.9 2.12-2.83l2.19-2.77 4.39-5.54c1.46-1.85 3-3.62 4.53-5.41a402.335 402.335 0 0 1 39.24-40.18l5.22-4.65 5.36-4.47c3.58-3 7.12-6 10.84-8.77l5.53-4.23c1.84-1.42 3.68-2.82 5.58-4.16l5.64-4 5.68-4-4.88 4.95-4.91 4.88c-1.66 1.6-3.25 3.28-4.83 5l-4.76 5c-3.22 3.28-6.3 6.71-9.38 10.11l-4.64 5.09-4.49 5.2a482.338 482.338 0 0 0-33.5 43.19 380.686 380.686 0 0 0-27.52 46.51c-4 8-7.67 16.15-11 24.44-3.4 8.26-6.36 16.71-9.28 25.28-2.92 8.57-5.71 17.41-8.63 26.21-2.92 8.8-6 17.6-9.12 26.36l-4.73 13.12-2.42 6.53-1.18 3.18-1.14 3.12c-3 8.38-5.83 17.12-8.75 25.89s-6 17.62-9.21 26.48c-3.21 8.86-6.74 17.75-10.78 26.65-2 4.44-4.2 8.86-6.65 13.29-2.49 4.58-5.24 9.01-8.25 13.27a71.955 71.955 0 0 1-11.71 13c-1.2 1-2.62 2-3.95 3-.72.48-1.5.94-2.26 1.4l-1.15.69c-.4.24-.8.45-1.22.64-1.71.86-3.48 1.6-5.3 2.22-1.83.61-3.71 1.06-5.62 1.36-3.62.56-7.31.62-10.95.19a48.83 48.83 0 0 1-9.64-2.13 73.075 73.075 0 0 1-15.65-7.42c-4.46-2.77-8.74-5.81-12.81-9.13-4-3.21-7.71-6.52-11.27-9.94-7.1-6.84-13.63-14-19.87-21.2-6.24-7.2-12.17-14.64-17.85-22.18a742.192 742.192 0 0 1-32.18-46.12c-5.06-7.83-10.08-15.68-14.94-23.62-4.86-7.94-9.62-15.91-14.32-23.92a1688.662 1688.662 0 0 1-52.85-97.82 2189.635 2189.635 0 0 1-24.17-50c-3.93-8.38-7.75-16.8-11.55-25.24-3.8-8.44-7.56-16.96-11.13-25.51Z" style="fill:#070000;fill-rule:nonzero" transform="rotate(179.786 818.945 923.479)"/><path d="m1243.75 1307 26.26-1 26.25-.87 52.52-1.74 105-3.18-3.49 1.75a304.57 304.57 0 0 0 15.11-22.78c4.69-7.81 9-15.81 12.93-24a292.932 292.932 0 0 0 18.73-51 270.15 270.15 0 0 0 8.52-53.46c.59-9 .59-18 .29-27 0-2.25-.25-4.49-.39-6.74l-.47-6.73c-.2-2.24-.5-4.47-.75-6.71s-.47-4.47-.81-6.69c-2.6-17.8-6.9-35.32-12.84-52.3-.71-2.13-1.57-4.21-2.34-6.32-.77-2.11-1.53-4.23-2.44-6.28-1.74-4.15-3.41-8.32-5.35-12.38-3.68-8.2-7.86-16.18-12.27-24a330.28 330.28 0 0 0-30.39-44.55c-5.65-7-11.56-13.76-17.74-20.28a270.887 270.887 0 0 0-9.45-9.54c-3.2-3.09-6.49-6.11-9.78-8.92l-5.88-5 3.15-7.28a300.048 300.048 0 0 0 23.91-109.52 253.712 253.712 0 0 0-4.72-55.61l-.69-3.41c-.22-1.14-.46-2.28-.75-3.4l-1.64-6.76c-.6-2.25-1.26-4.47-1.88-6.7-.33-1.11-.61-2.24-1-3.34l-1.09-3.3-1.08-3.31-.53-1.65-.61-1.63-2.43-6.51c-.82-2.16-1.77-4.26-2.65-6.4l-1.34-3.19-1.42-3.27c-15.48-33.54-39.46-63-68.61-85.85a244.478 244.478 0 0 0-126.68-51.53c-2.28-.27-4.58-.37-6.87-.56l-3.44-.26-3.44-.13c-2.29-.06-4.59-.18-6.88-.2h-6.88a229.071 229.071 0 0 0-54.29 7.85c-1.11.25-2.21.6-3.3.94l-3.29 1c-2.19.69-4.41 1.29-6.57 2.06l-6.47 2.34-3.24 1.18-3.18 1.33-6.36 2.64c-2.1.92-4.15 2-6.24 2.93l-3.11 1.47-1.56.74-1.52.81-6.09 3.25c-2 1-4 2.25-6 3.43l-5.93 3.52-5.77 3.8c-1.92 1.28-3.88 2.49-5.71 3.89-3.71 2.73-7.51 5.35-11 8.31l-5.4 4.32-5.2 4.56c-3.54 3-6.77 6.27-10.13 9.43-1.7 1.56-3.23 3.29-4.85 4.94l-4.78 5-4.57 5.21c-1.51 1.74-3.07 3.44-4.48 5.27-2.87 3.63-5.86 7.15-8.51 10.94a269.375 269.375 0 0 0-28.13 47.68A275.64 275.64 0 0 0 944 744.85a282.88 282.88 0 0 0-7 55l-1.06 37.91-25.14-28.36a272.67 272.67 0 0 0-30.75-29.67c-1.34-1.16-2.77-2.23-4.17-3.33l-4.21-3.28-4.31-3.12c-1.43-1.05-2.87-2.1-4.36-3.07l-4.41-3c-1.47-1-3-1.9-4.5-2.86-3-1.94-6.07-3.69-9.13-5.47-1.52-.92-3.1-1.73-4.66-2.57-1.56-.84-3.12-1.69-4.7-2.49l-4.77-2.35-2.38-1.19-2.45-1.07-4.85-2.17-4.91-2-2.45-1-2.49-.91-5-1.82c-6.7-2.22-13.43-4.34-20.28-5.91l-2.56-.63c-.86-.2-1.72-.36-2.58-.54l-5.16-1.07-5.12-.88-2.6-.43-2.6-.33-5.21-.66-5.22-.45c-1.74-.18-3.48-.25-5.23-.32-1.75-.07-3.48-.19-5.22-.21-3.48 0-7-.09-10.44.1-3.44.19-6.93.4-10.39.67a161.643 161.643 0 0 0-40.3 9.18 158.818 158.818 0 0 0-36.59 19.25 188.394 188.394 0 0 0-31.31 27.83c-18.91 20.91-33.77 45.84-44.18 72.41a241.92 241.92 0 0 0-12 41 202.387 202.387 0 0 0-3 20.94 154.602 154.602 0 0 0-.57 20.82 111.298 111.298 0 0 0 2.52 20 80.46 80.46 0 0 0 2.71 9.24 59.607 59.607 0 0 0 3.79 8.31 39.541 39.541 0 0 0 4.92 6.9 33.517 33.517 0 0 0 6.13 5.36 47.637 47.637 0 0 0 16.4 6.68 73.08 73.08 0 0 0 9.6 1.51c3.29.34 6.67.48 10.09.49a161.446 161.446 0 0 0 20.89-1.42 294.599 294.599 0 0 0 42.36-9.15l-3.9 21C654 994.26 634.6 983.8 614 978a120.922 120.922 0 0 0-31.33-4.63 90.71 90.71 0 0 0-30.47 4.68 70.003 70.003 0 0 0-25.65 15.52 76.358 76.358 0 0 0-17.22 25.1 105.53 105.53 0 0 0-5.21 15c-1.401 5.23-2.5 10.53-3.29 15.88a210.167 210.167 0 0 0-2 33.12c.14 11.19 1 22.45 2.14 33.81l.44 4.28c.16 1.43.3 2.88.49 4.25l1.06 8.32 1.38 8.28c.47 2.76 1.11 5.49 1.66 8.23a262.773 262.773 0 0 0 22.72 63.26 305.918 305.918 0 0 0 37.42 56.5 348.904 348.904 0 0 0 48.55 47.88l-3.34-1.08 122.42-2.84 61.23-1.24 61.22-1.12-61.1 4-61.11 3.9-122.24 7.43-1.77.11-1.57-1.18a356.133 356.133 0 0 1-51.75-47.76 319.243 319.243 0 0 1-40.85-57.81 275.37 275.37 0 0 1-25.89-66.35c-.67-2.91-1.42-5.8-2-8.73l-1.71-8.79-1.37-8.86c-.24-1.5-.42-2.92-.62-4.36l-.57-4.34c-1.51-11.61-2.68-23.43-3.11-35.37a229.676 229.676 0 0 1 1.38-36.14c.763-6.11 1.875-12.17 3.33-18.16 1.459-6.1 3.385-12.08 5.76-17.89a106.921 106.921 0 0 1 8.83-17 87.15 87.15 0 0 1 12.28-15.16 91.307 91.307 0 0 1 32.86-20.8 112.258 112.258 0 0 1 37.67-6.64 143.71 143.71 0 0 1 37.21 4.7c24.14 6.26 46.34 17.92 65.89 32.64l18.74 14.11-22.64 6.86a320.178 320.178 0 0 1-45.75 10.64 185.828 185.828 0 0 1-24.14 2c-4.161.07-8.323-.06-12.47-.41a95.83 95.83 0 0 1-12.73-1.81 73.108 73.108 0 0 1-25.25-10.13 59.358 59.358 0 0 1-11-9.32 65.238 65.238 0 0 1-8.34-11.33 85.772 85.772 0 0 1-5.76-12.13 108.927 108.927 0 0 1-3.81-12.39 137.6 137.6 0 0 1-3.46-24.73c-.425-8.105-.308-16.23.35-24.32a230.044 230.044 0 0 1 3.12-23.81 266.054 266.054 0 0 1 13-45.78 276.428 276.428 0 0 1 20.64-42.81 250.712 250.712 0 0 1 28.13-38.65 213.234 213.234 0 0 1 35.8-32.33 187.446 187.446 0 0 1 43-22.93 190.82 190.82 0 0 1 47.51-11.11c4-.35 8.09-.75 12.15-.85 4.06-.1 8.1-.18 12.14-.19 2 0 4.05.14 6.07.2 2.02.06 4 .16 6 .35l6 .49 9 1.08 3 .48 6 1 5.91 1.19c1 .2 2 .38 3 .6l2.93.71c1.95.47 3.9.92 5.85 1.42l5.79 1.64c1 .28 1.93.53 2.89.83l2.86.92 5.71 1.86 8.46 3 2.78 1.12 5.55 2.25 5.47 2.44 2.74 1.22 2.69 1.31 5.38 2.63c1.77.9 3.52 1.86 5.28 2.79 1.76.93 3.53 1.86 5.24 2.88 3.45 2 6.91 4 10.26 6.12 1.68 1.06 3.39 2.08 5 3.19l4.95 3.34c1.66 1.09 3.27 2.25 4.88 3.43l4.82 3.5 4.71 3.65c1.57 1.22 3.16 2.42 4.66 3.71a302.605 302.605 0 0 1 34.29 33l-26.2 9.54a305.182 305.182 0 0 1 27.5-119.18A299.165 299.165 0 0 1 965.91 627c3-4.2 6.28-8.14 9.49-12.15 1.57-2 3.31-3.93 5-5.87l5.09-5.78 5.34-5.57c1.8-1.84 3.53-3.74 5.43-5.48 3.75-3.52 7.39-7.16 11.34-10.45l5.84-5.05 6-4.8c4-3.27 8.23-6.19 12.4-9.21 2.06-1.54 4.25-2.9 6.4-4.32l6.48-4.2 6.67-3.93c2.22-1.31 4.43-2.63 6.74-3.79l6.84-3.61 1.71-.9 1.76-.82 3.5-1.64c2.35-1.08 4.66-2.22 7-3.24l7.17-3 3.58-1.46 3.65-1.31 7.31-2.59c2.44-.86 4.94-1.53 7.41-2.29l3.71-1.12c1.24-.37 2.47-.75 3.74-1A253.258 253.258 0 0 1 1177 515h7.75c2.59 0 5.17.2 7.75.3l3.87.18 3.85.32c2.57.24 5.15.38 7.71.7a279.783 279.783 0 0 1 30.47 5.18 274.05 274.05 0 0 1 109.9 53.46c32 25.68 58.2 58.76 75 96.36l1.58 3.52 1.45 3.57c.94 2.39 2 4.76 2.83 7.17l2.57 7.25.63 1.81.57 1.84 1.14 3.67 1.13 3.67c.39 1.22.68 2.47 1 3.71.65 2.47 1.34 4.94 1.95 7.42l1.69 7.49c.3 1.25.55 2.5.77 3.76l.7 3.77a277.448 277.448 0 0 1 4.19 60.9 309.225 309.225 0 0 1-8.42 60.09 317.7 317.7 0 0 1-19.56 57.32l-2.72-12.31c3.69 3.28 7.16 6.6 10.55 10 3.39 3.4 6.69 6.86 9.9 10.4 6.44 7.06 12.53 14.4 18.35 21.94a352.378 352.378 0 0 1 31.06 47.89c4.47 8.41 8.7 17 12.4 25.74 2 4.35 3.63 8.82 5.36 13.26.89 2.21 1.6 4.49 2.41 6.73s1.6 4.49 2.29 6.77c5.82 18.17 9.89 36.86 12.14 55.81 2.17 18.93 2.4 38.03.66 57-1.67 18.91-5.24 37.6-10.63 55.8a298.686 298.686 0 0 1-51.85 99.85l-1.39 1.77h-2.09l-105.08-.88-52.54-.59-26.27-.3-26.32-.34Z" style="fill:#190202;fill-rule:nonzero" transform="translate(-475.85 -510.01)"/></svg>