<svg viewBox="0 0 1050 1050" xmlns="http://www.w3.org/2000/svg" xml:space="preserve" style="fill-rule:evenodd;clip-rule:evenodd;stroke-linejoin:round;stroke-miterlimit:2"><path d="M538.24 826.51c2 16 3.7 32.12 5.27 48.2 1.57 16.08 3 32.15 4.35 48.24l3.89 48.26 4 48.25 4.18 48.23c1.453 16.07 2.947 32.14 4.48 48.19 3.15 32.1 6.54 64.18 10.82 96.1 2.15 16 4.53 31.88 7.41 47.67 1.45 7.89 3 15.75 4.91 23.49.93 3.87 1.93 7.72 3.06 11.49a103.29 103.29 0 0 0 3.84 11 41.32 41.32 0 0 0 2.43 4.91c.42.69.881 1.36 1.38 2 .369.48.803.91 1.29 1.27.36.21.45.2.32.18-.13-.02-.14.11.24-.24.466-.43.876-.92 1.22-1.45.23-.32.44-.66.63-1 .22-.34.41-.74.61-1.13a63.038 63.038 0 0 0 3.92-10.61c1.09-3.75 2-7.6 2.87-11.48 3.36-15.55 5.66-31.49 7.77-47.43 4.14-31.92 7.33-64 10.77-96.13 3.44-32.13 6.82-64.23 11-96.29s8.81-64.07 14.19-96c2.72-16 5.64-31.89 9.17-47.72 1.76-7.92 3.69-15.81 6-23.65a158.147 158.147 0 0 1 8.37-23.16c.9-1.89 1.86-3.75 2.95-5.58a41.36 41.36 0 0 1 3.7-5.33 23.25 23.25 0 0 1 5.08-4.66 13.812 13.812 0 0 1 7.22-2.35c2.576.002 5.103.715 7.3 2.06a25.016 25.016 0 0 1 5.35 4.33 56.764 56.764 0 0 1 7.55 10.35 158.565 158.565 0 0 1 10.47 22.37c3 7.61 5.57 15.33 8 23.08 4.89 15.49 9.07 31.15 13 46.85 3.93 15.7 7.54 31.46 11 47.25 6.92 31.57 13.31 63.24 19.79 94.87 6.48 31.63 13 63.25 20.5 94.64 3.74 15.69 7.72 31.32 12.18 46.79 4.46 15.47 9.38 30.85 16 45.3a90.827 90.827 0 0 0 5.55 10.37 41.834 41.834 0 0 0 3.33 4.6 19.222 19.222 0 0 0 3.83 3.57c.619.42 1.292.76 2 1 .595.18 1.219.25 1.84.21.35 0 .21 0 .83-.19s.88-.3 1.32-.45l1.27-.46 1.23-.57a31.983 31.983 0 0 0 8.92-6.42 53.812 53.812 0 0 0 7.09-8.9c1.06-1.6 2-3.28 3-5 1-1.72 1.81-3.44 2.62-5.22a149.375 149.375 0 0 0 8.17-22.12c4.4-15.22 7.15-31 9.26-46.79 2.11-15.79 3.38-31.81 4.46-47.8 1.08-15.99 1.81-32 2.61-48 .8-16 1.6-32.06 2.54-48.09s2-32.07 3.25-48.11l3.44-48.19 3.31-48.26 1.68-24.16.39-5.9.16-2.83.18-2.96.49-12c.6-16.16 1.37-32.57 2.6-48.92s2.87-32.71 5-49 4.73-32.63 7.52-48.51c2.79-15.88 5.79-32 9.26-48.11 1.74-8 3.59-16.08 5.71-24.17 1.07-4.05 2.2-8.12 3.49-12.24a133.677 133.677 0 0 1 4.57-12.69 55.326 55.326 0 0 1 3.67-7.2c.4-.66.9-1.39 1.44-2.13a24.443 24.443 0 0 1 2.06-2.47 20.128 20.128 0 0 1 3.57-3 16.047 16.047 0 0 1 7.32-2.5c3-.243 6.006.393 8.65 1.83 1.685.92 3.2 2.12 4.48 3.55a22.647 22.647 0 0 1 3.59 5.32 47.02 47.02 0 0 1 3 7.7 124.648 124.648 0 0 1 3 13.14c.76 4.23 1.37 8.39 1.92 12.52 2.15 16.51 3.41 32.74 4.52 49 1.11 16.26 1.91 32.43 2.64 48.61 1.43 32.37 2.42 64.69 3.42 97l2.89 96.87c1 32.28 2.11 64.55 3.48 96.8s2.95 64.48 5.1 96.66c1.05 16.09 2.3 32.15 3.73 48.2 1.49 16 3.14 32.05 5.48 47.91 1.18 7.91 2.49 15.81 4.25 23.5.84 3.79 1.88 7.53 3.13 11.2a36.05 36.05 0 0 0 2.12 5c.34.66.75 1.29 1.21 1.88.19.27.43.5.7.69-.13-.05-.26-.08-.4-.08h-.23c.38-.24.72-.53 1-.88a21.11 21.11 0 0 0 2.67-4.19c1.69-3.43 3.14-6.98 4.33-10.62 2.54-7.43 4.6-15.15 6.49-22.91 3.76-15.55 6.83-31.35 9.68-47.18 2.85-15.83 5.39-31.74 7.78-47.68 2.39-15.94 4.6-31.9 6.73-47.88 2.13-15.98 4.14-32 6.06-48 3.88-32 7.35-64.11 10.73-96.2 3.38-32.09 6.57-64.21 9.72-96.34 6.23-64.2 11.75-128.48 17.43-192.82 2.88-32.17 5.82-64.35 9.12-96.58 1.66-16.11 3.41-32.23 5.39-48.39 1.98-16.16 4.16-32.33 7-48.68 1.46-8.2 3-16.4 5.27-24.93a75.04 75.04 0 0 1 4.54-13.36A40.868 40.868 0 0 1 1151 417a26.265 26.265 0 0 1 5.2-5.08 19.95 19.95 0 0 1 5.13-2.68 16.881 16.881 0 0 1 7.36-.83c2.29.25 4.5.95 6.51 2.06 1.38.803 2.65 1.788 3.77 2.93.83.849 1.59 1.773 2.25 2.76.5.776.96 1.577 1.38 2.4a33.486 33.486 0 0 1 2.59 8.05c.75 4.451 1.25 8.942 1.48 13.45.35 4.27.69 8.44 1.24 12.53s1.28 8.11 2.14 12.09c3.27 16 5.82 32 8.28 48 1.22 8 2.35 16 3.46 24 1.11 8 2.2 16 3.23 24 4.19 32.07 8 64.16 11.68 96.26 3.68 32.1 7.29 64.21 10.76 96.32 6.92 64.24 13.3 128.523 19.13 192.85 2.94 32.16 5.72 64.33 8.33 96.52 2.7 32.17 5.33 64.35 8.68 96.44.83 8 1.75 16 2.71 24s2 16 3.3 23.88c.65 3.94 1.34 7.9 2.26 11.64.24.92.49 1.84.77 2.66.13.34.27.67.43 1-.14.23.89.44-1.06-.45-2.78.17-1.76.75-1.87.36.2-.3.37-.61.52-.94.37-.76.72-1.64 1.05-2.53 1.31-3.61 2.4-7.48 3.45-11.33 1.05-3.85 2-7.75 3-11.66 3.78-15.63 7.17-31.41 10.53-47.19 3.36-15.78 6.6-31.59 9.85-47.41 12.91-63.27 25.63-126.61 39.77-189.69 7.13-31.53 14.54-63 23.4-94.21 2.24-7.79 4.58-15.56 7.14-23.29 2.56-7.73 5.3-15.42 8.67-23a78.31 78.31 0 0 1 6-11.22 25.141 25.141 0 0 1 4.63-5.4 10.59 10.59 0 0 1 4.07-2.18 7.649 7.649 0 0 1 5.59.66c1.33.736 2.5 1.737 3.43 2.94.75.967 1.42 1.998 2 3.08a42.212 42.212 0 0 1 2.66 6.09c1.36 3.961 2.5 7.998 3.39 12.09 1.8 8 3.08 16.11 4.2 24.17 1.12 8.06 2 16.13 2.83 24.2 1.61 16.14 2.81 32.28 3.85 48.43 2 32.29 3.4 64.59 4.5 96.89s1.93 64.59 2.68 96.88l2.09 96.86c.37 16.13.79 32.26 1.24 48.39.47 16.12 1 32.24 1.79 48.31.4 8 .87 16.06 1.54 24 .34 4 .73 7.94 1.26 11.81.27 1.93.58 3.84 1 5.62.17.81.39 1.6.65 2.38.07.2.15.39.25.58 0 .27 0-1.1-3-1.21-2.47.65-2 1.23-2.08 1-.08-.23.19-.36.33-.68.27-.67.55-1.52.8-2.39.49-1.76.92-3.65 1.31-5.56.77-3.83 1.4-7.77 2-11.71 1.16-7.9 2.12-15.88 3-23.87 3.53-32 6.22-64.18 8.92-96.34l7.89-96.54c2.65-32.19 5.28-64.39 8.27-96.56 2.99-32.17 6.08-64.34 10.08-96.44 2-16 4.18-32.08 7.13-48.05.76-4 1.58-8 2.51-11.95a98.166 98.166 0 0 1 3.48-11.88c.38-1.022.81-2.023 1.29-3a13.69 13.69 0 0 1 1.93-3 5.533 5.533 0 0 1 1.84-1.4 3.804 3.804 0 0 1 3 0c.73.315 1.38.802 1.89 1.42.41.47.78.979 1.09 1.52a30.172 30.172 0 0 1 2.45 6c.63 2 1.12 4 1.58 6 1.79 8 3 16 4 24s1.88 16.07 2.66 24.12c1.53 16.09 2.69 32.2 3.71 48.32l-1.08.09c-1.51-16.08-3.12-32.14-5-48.16-1-8-2-16-3.21-24s-2.57-15.9-4.47-23.63c-.49-1.93-1-3.85-1.63-5.69a26.196 26.196 0 0 0-2.2-5.16 3.957 3.957 0 0 0-1.18-1.33c-.07 0 .1 0 0 0-.19.124-.37.279-.51.46a10.02 10.02 0 0 0-1.3 2.14c-.4.851-.76 1.723-1.07 2.61a94.01 94.01 0 0 0-3.09 11.42c-.83 3.9-1.56 7.84-2.23 11.8-2.66 15.84-4.54 31.85-6.3 47.87-3.4 32.07-6.16 64.23-8.72 96.4-2.56 32.17-5 64.37-7.3 96.58l-3.53 48.31-3.66 48.31c-1.25 16.1-2.58 32.2-4 48.31-1.4 16.1-2.87 32.21-4.65 48.31-.89 8.06-1.85 16.11-3 24.19-.6 4-1.24 8.08-2.06 12.16-.41 2-.86 4.1-1.46 6.23-.31 1.14-.69 2.26-1.13 3.35-.28.69-.61 1.36-1 2-.64.62-.81 2.12-4.31 2.94-4.11 0-4.84-2.36-5.36-2.9-.41-.69-.74-1.41-1-2.17-.41-1.12-.74-2.27-1-3.44-.48-2.17-.81-4.25-1.1-6.32-.58-4.13-1-8.2-1.33-12.27-.7-8.13-1.18-16.22-1.6-24.31-1.62-32.36-2.33-64.66-3.06-97l-2-96.86c-.66-32.28-1.39-64.55-2.38-96.8s-2.21-64.5-4.09-96.67c-1-16.09-2.08-32.16-3.6-48.16-.77-8-1.63-16-2.69-23.93s-2.28-15.84-4-23.55c-.8-3.8-1.83-7.55-3.07-11.23-.59-1.72-1.3-3.392-2.15-5-.36-.703-.79-1.372-1.27-2-.3-.398-.67-.737-1.1-1-.24-.1-.06-.07-.27-.05a3.34 3.34 0 0 0-1.19.71 17.894 17.894 0 0 0-3.21 3.78 73.172 73.172 0 0 0-5.42 10.12c-3.22 7.17-5.95 14.7-8.51 22.27-2.56 7.57-4.9 15.27-7.15 23-9 30.89-16.49 62.28-23.75 93.7-7.26 31.42-14 63-20.68 94.59l-19.69 94.84c-3.27 15.82-6.54 31.63-9.91 47.44-3.37 15.81-6.79 31.6-10.6 47.35-1 3.94-2 7.87-3 11.8-1 3.93-2.17 7.86-3.62 11.83-.38 1-.77 2-1.28 3.06-.29.59-.62 1.16-1 1.7-.67.36-.34 2-4.19 2.06-2.93-1.22-2.38-2.06-3-2.67-.27-.57-.51-1.15-.72-1.75-.37-1.09-.65-2.13-.91-3.16-1-4.09-1.7-8.1-2.36-12.13-2.53-16.07-4.36-32.12-6.22-48.19-7.24-64.24-14-128.47-19.91-192.79-6-64.3-11.5-128.64-17.61-192.92-6.11-64.28-12.78-128.51-22.19-192.33-2.38-16-4.91-31.87-7.77-47.72-2.86-15.85-6-31.62-9.72-47.19a83.348 83.348 0 0 0-3.44-11.47 78.968 78.968 0 0 0-5.16-10.83l-1.53-2.57c-.53-.84-1.08-1.66-1.62-2.48a47.582 47.582 0 0 0-3.29-4.38 9.981 9.981 0 0 0-3.06-2.63c-.21-.14-.31 0-.43 0 0 .21-.13.19.12.61.34.489.79.896 1.31 1.19a8.445 8.445 0 0 0 3.6 1.28c1.48.169 2.97.036 4.4-.39.89-.28 1.73-.663 2.53-1.14 1-.62 1.15-.72 1.21-.56a16.48 16.48 0 0 1-.77 2.93c-.83 2.75-2 6.16-2.89 9.67-1.88 7.1-3.41 14.75-4.8 22.44-2.78 15.45-5 31.29-7.14 47.15-2.14 15.86-4 31.84-5.94 47.82-3.78 32-7.36 64.05-11 96.13-7.39 64.16-15.09 128.39-24 192.47-4.4 32-8.88 64-13.44 96-4.56 32-9.37 64.07-14.44 96.22-2.48 16-5.01 31.97-7.59 47.91-2.58 15.94-5.28 31.89-8.09 47.85-2.81 15.94-5.71 31.87-8.88 47.76-3.17 15.89-6.54 31.75-10.59 47.54-2.06 7.89-4.24 15.77-7 23.6-1.4 4.02-3.07 7.94-5 11.73a29.73 29.73 0 0 1-3.95 5.91c-1.03 1.2-2.29 2.19-3.71 2.89-.98.47-2.05.73-3.14.77-1.15.04-2.29-.18-3.34-.66-1.53-.73-2.87-1.82-3.89-3.17a21.26 21.26 0 0 1-2-3.21 44.638 44.638 0 0 1-2.6-6.18c-1.32-3.98-2.43-8.03-3.31-12.13-1.79-8.06-3.11-16.11-4.28-24.16-2.28-16.11-4-32.22-5.5-48.34-1.5-16.12-2.78-32.24-4-48.36-4.73-64.5-8.3-129-12.35-193.49-4.05-64.49-8.18-128.94-13.91-193.11-1.43-16-3-32-4.75-48s-3.78-31.83-6.5-47.24c-.68-3.85-1.43-7.65-2.26-11.34a100.336 100.336 0 0 0-2.82-10.35 20.876 20.876 0 0 0-1.51-3.54c-.14-.28-.35-.39.23.31a8.09 8.09 0 0 0 2.14 1.65 10.588 10.588 0 0 0 5.75 1.21 9.734 9.734 0 0 0 4.5-1.48 7.002 7.002 0 0 0 1.28-1c.15-.15.19-.2.15-.12-.04.08-.1.18-.21.4a32.015 32.015 0 0 0-1.62 3.69c-1.15 3-2.2 6.63-3.17 10.24-.97 3.61-1.86 7.39-2.7 11.18-1.68 7.59-3.15 15.36-4.52 23.17-2.73 15.63-5.08 31.46-7.3 47.34-2.22 15.88-4.28 31.6-5.85 47.43a993.739 993.739 0 0 0-3.56 47.49c-.81 15.87-1.25 31.75-1.6 47.86L943 878.3l-.1 3.12-.14 3.22-.33 6.19L941 915c-.94 16.13-1.89 32.27-2.94 48.41-1.05 16.14-2.16 32.29-3.35 48.45-1.19 16.16-2.63 32.32-4.52 48.46a958.335 958.335 0 0 1-16.11 96.43c-1.747 8-3.593 15.97-5.54 23.91a785.72 785.72 0 0 1-6.23 23.79c-2.21 7.89-4.48 15.78-7 23.59-2.52 7.81-5.2 15.6-8.25 23.27-1.55 3.83-3.11 7.65-4.87 11.4-.83 1.89-1.78 3.75-2.68 5.62-.9 1.87-1.89 3.7-2.93 5.51-4 7.28-8.84 14.35-15.18 20.25a39.757 39.757 0 0 1-10.92 7.26l-1.54.65-1.6.52c-.51.16-1.1.37-1.55.48-.695.21-1.414.33-2.14.36-1.396.06-2.791-.15-4.11-.61a14.77 14.77 0 0 1-3.36-1.8 24.797 24.797 0 0 1-4.88-4.8 46.945 46.945 0 0 1-3.6-5.31 97.053 97.053 0 0 1-5.6-11.11c-3.28-7.53-5.93-15.23-8.45-23-2.52-7.77-4.75-15.51-6.88-23.32-4.31-15.61-8.14-31.32-11.88-47-14.76-62.93-27.78-126.22-42.48-189.05-3.68-15.7-7.44-31.38-11.47-47-4.03-15.62-8.27-31.12-13.07-46.44-2.41-7.65-5-15.23-7.85-22.68a164.549 164.549 0 0 0-9.82-21.56 52.325 52.325 0 0 0-6.52-9.3c-2.45-2.68-5.37-4.72-8.1-4.71a8 8 0 0 0-4.15 1.31 17.354 17.354 0 0 0-3.85 3.44 34.015 34.015 0 0 0-3.3 4.54c-1 1.62-1.94 3.33-2.81 5.07a143.71 143.71 0 0 0-8.47 22.25c-2.3 7.65-4.25 15.45-6 23.28-3.48 15.69-6.2 31.58-8.56 47.51-4.72 31.88-7.91 64-11.09 96.1-3.18 32.1-6.32 64.23-9.71 96.36-3.39 32.13-7 64.24-11.62 96.32-1.16 8-2.39 16-3.75 24-1.36 8-2.85 16-4.67 24-.92 4-1.89 8-3.08 12a72.104 72.104 0 0 1-4.56 12c-.27.51-.52 1-.84 1.53-.304.53-.638 1.04-1 1.53a15.644 15.644 0 0 1-2.73 3.11 8.605 8.605 0 0 1-5.21 2.15 8.714 8.714 0 0 1-5.34-1.61 14.54 14.54 0 0 1-3.07-2.9 27.719 27.719 0 0 1-2.05-3 50.136 50.136 0 0 1-2.94-5.93c-1.6-3.88-2.983-7.84-4.14-11.87-1.18-4-2.21-7.93-3.16-11.91-1.91-8-3.51-15.94-5-23.92-3-16-5.37-32-7.61-48-4.42-32.08-8-64.22-11.24-96.38-1.62-16.08-3.133-32.17-4.54-48.27s-2.74-32.2-4-48.31l-1.8-24.07-1.71-24.17c-1.12-16.12-2.23-32.23-3.15-48.36-.92-16.13-1.7-32.26-2.28-48.41-.58-16.15-1-32.3-1-48.48l1.09-.07Z" style="fill:#1c0202;fill-rule:nonzero" transform="matrix(.98955 0 0 .98776 -465.095 -391.462)"/><path d="M487.85 847.68a76.154 76.154 0 0 1 5-12.26 28.398 28.398 0 0 1 3.8-5.61 12.555 12.555 0 0 1 2.68-2.32 7.51 7.51 0 0 1 3.57-1.19 7.107 7.107 0 0 1 3.71.93 12.293 12.293 0 0 1 2.84 2.23 28.331 28.331 0 0 1 4 5.57 83.127 83.127 0 0 1 5.37 12.21 257.186 257.186 0 0 1 7.32 25.37c2.08 8.53 3.88 17.13 5.57 25.73 6.68 34.45 11.71 69.14 16.58 103.82 4.87 34.68 9.34 69.42 14.05 104.09 4.71 34.67 9.52 69.32 15.33 103.74 2.92 17.2 6.09 34.36 10 51.28 1.94 8.45 4 16.85 6.54 25 1.25 4.1 2.61 8.15 4.13 12.07a71.334 71.334 0 0 0 5.26 11 24.422 24.422 0 0 0 3.24 4.34 5.835 5.835 0 0 0 2.88 1.89c.309.06.629.05.93-.05.218-.08.428-.17.63-.28.272-.12.527-.28.76-.47a16.77 16.77 0 0 0 3.4-3.59 59.859 59.859 0 0 0 5.85-10.5c1.72-3.8 3.25-7.77 4.67-11.8 5.65-16.16 9.83-33.08 13.78-50 7.77-33.94 13.92-68.36 19.95-102.78a4617.83 4617.83 0 0 0 8.69-51.73l8.45-51.81C682.39 998.1 688 963.53 693.88 929c5.88-34.53 12-69 19.38-103.41 3.7-17.18 7.65-34.32 12.6-51.32a223.323 223.323 0 0 1 8.83-25.3 69.289 69.289 0 0 1 6.66-12.36 24.012 24.012 0 0 1 5.6-5.8c.669-.46 1.379-.858 2.12-1.19a9.905 9.905 0 0 1 2.55-.82 10.183 10.183 0 0 1 2.82-.16c.908.076 1.803.271 2.66.58.802.255 1.576.59 2.31 1a21.01 21.01 0 0 1 1.88 1.34 21.201 21.201 0 0 1 2.9 3 37.055 37.055 0 0 1 4 6.23 91.854 91.854 0 0 1 5.35 12.71 250.065 250.065 0 0 1 7.09 25.76c3.9 17.25 6.81 34.59 9.44 52 5.18 34.74 8.94 69.59 12.42 104.45 3.48 34.86 6.44 69.76 9.44 104.64 3 34.88 6.1 69.75 9.66 104.56 1.8 17.4 3.69 34.79 5.85 52.14 1 8.68 2.23 17.33 3.45 26a730.86 730.86 0 0 0 4.09 25.83c.76 4.28 1.58 8.54 2.46 12.78.9 4.23 1.78 8.46 3.08 12.53a62.45 62.45 0 0 0 2.19 5.92 29.62 29.62 0 0 0 2.8 5.2c.26.34.52.68.78 1 .212.24.454.45.72.63.22.19.35.14.34.05-.01-.09-.37-.51-1.2-.79a4.262 4.262 0 0 0-2.5.07c-.58.19-.76.29-.84.22-.08-.07 0-.76.16-1.47.28-1.45.52-3.39.69-5.31.17-1.92.27-4 .33-6.07.17-4.14.25-8.38.47-12.63.22-4.25.52-8.5 1-12.76l1.53-12.81c2-17.16 3.6-34.5 5.16-51.87l4.58-52.19c3.08-34.88 6-69.62 8.93-104.45 2.93-34.83 5.46-69.66 8-104.54 4.94-69.76 9.29-139.72 14.49-209.69 2.62-34.98 5.523-69.947 8.71-104.9 3.34-35 6.81-69.73 10.56-104.66 1.9-17.47 3.83-34.93 6.43-52.58.65-4.42 1.36-8.86 2.18-13.34.82-4.48 1.74-9 3-13.78a65.246 65.246 0 0 1 2.48-7.59 31.515 31.515 0 0 1 2.28-4.63 20.432 20.432 0 0 1 2.18-3 16.162 16.162 0 0 1 4.68-3.73A14.27 14.27 0 0 1 940 403a14.743 14.743 0 0 1 7 3.61 19.411 19.411 0 0 1 2.9 3.33c.63.94 1.13 1.8 1.56 2.6a38.652 38.652 0 0 1 1.92 4.29c.52 1.33.93 2.56 1.33 3.8 1.51 4.87 2.53 9.39 3.48 13.91.95 4.52 1.73 8.94 2.47 13.36 1.47 8.85 2.72 17.63 3.88 26.39 2.32 17.52 4.3 35 6.18 52.45 3.75 34.91 7.1 69.78 10.47 104.64l10 104.56c13.33 139.333 27.7 278.53 43.09 417.59 3.9 34.75 7.97 69.46 12.2 104.13 4.3 34.64 8.77 69.28 14.11 103.52 1.35 8.55 2.75 17.07 4.28 25.49 1.53 8.42 3.19 16.79 5.14 24.65.85 3.6 1.91 7.16 3.16 10.64.27.71.53 1.32.73 1.73.2.41.37.62.08.2-.36-.5-.78-.95-1.24-1.36-1.32-1.19-2.87-2.1-4.55-2.67-2.49-.84-5.17-.97-7.73-.38-1.82.42-3.52 1.23-5 2.36-.62.47-1.18 1-1.67 1.6-.13.14-.24.3-.34.46-.1.16.17-.33.37-.83.57-1.39 1.05-2.82 1.45-4.27 1-3.39 1.84-7.32 2.62-11.3 1.54-8 2.79-16.46 3.93-24.93 1.14-8.47 2.14-17.07 3.08-25.67 1.9-17.23 3.56-34.57 5.15-51.94 6.33-69.52 12-139.36 18.36-209.1 3.14-34.89 6.39-69.77 9.76-104.63s7.08-69.687 11.14-104.48c4-34.79 8.21-69.56 12.33-104.34 4.12-34.78 8.17-69.59 12.49-104.36 2.13-17.39 4.39-34.77 6.65-52.16 2.26-17.39 4.6-34.76 7-52.13 2.4-17.37 5-34.73 7.67-52.08s5.55-34.7 8.81-52c1.63-8.67 3.38-17.32 5.38-26 1-4.33 2.08-8.65 3.31-13 1.21-4.459 2.69-8.838 4.45-13.11.48-1.12 1-2.24 1.62-3.4a23.028 23.028 0 0 1 2.39-3.63c.63-.749 1.34-1.42 2.13-2a8.255 8.255 0 0 1 4-1.59 7.64 7.64 0 0 1 4.69 1.07c.93.573 1.76 1.288 2.47 2.12.96 1.167 1.78 2.45 2.42 3.82.59 1.2 1 2.35 1.48 3.49.84 2.28 1.48 4.5 2.06 6.72 2.13 8.675 3.8 17.458 5 26.31 2.51 17.48 4.24 34.94 5.87 52.41s3 34.93 4.26 52.41c5.15 69.88 9 139.8 12.62 209.72l10.68 209.77c1.82 34.96 3.72 69.91 5.71 104.86 2 34.94 4.1 69.88 6.63 104.78 1.26 17.45 2.62 34.88 4.24 52.29.82 8.69 1.7 17.39 2.74 26 .52 4.33 1.08 8.65 1.73 12.94.65 4.29 1.37 8.57 2.33 12.7.43 1.97 1.02 3.9 1.78 5.76.13.31.3.6.5.87-.35-.19-.74-.28-1.14-.26-.39.1-.26.14-.09-.07.23-.29.44-.6.62-.92a31.1 31.1 0 0 0 2.22-5.57c.63-2 1.18-4.08 1.69-6.17 2-8.37 3.57-17 5-25.55 2.88-17.21 5.3-34.53 7.66-51.86 9.3-69.34 17.55-138.88 26.32-208.34 2.17-17.367 4.39-34.737 6.66-52.11 2.32-17.36 4.65-34.72 7.62-52.08.76-4.34 1.57-8.68 2.52-13 .9-4.446 2.11-8.824 3.63-13.1.43-1.151.94-2.273 1.51-3.36a11.587 11.587 0 0 1 2.71-3.55 6.359 6.359 0 0 1 2.88-1.43 6.211 6.211 0 0 1 3.46.41 9.665 9.665 0 0 1 3.71 3.19 31.23 31.23 0 0 1 3.41 6.5c.86 2.16 1.59 4.3 2.25 6.45 2.46 8.52 4.49 17.162 6.06 25.89 1.65 8.65 3.08 17.32 4.42 26 5.28 34.7 9.34 69.49 13.38 104.27 4.04 34.78 7.89 69.56 12.27 104.27 2.2 17.35 4.5 34.68 7.19 51.93 1.36 8.63 2.81 17.23 4.47 25.78 1.57 8.52 3.6 16.95 6.07 25.26.64 2.05 1.35 4.06 2.14 6 .73 1.87 1.67 3.65 2.8 5.31.43.64.98 1.18 1.62 1.6.3.22.7.22 1 0 .65-.42 1.2-.97 1.62-1.62.56-.8 1.07-1.64 1.5-2.51 1.78-3.84 3.22-7.84 4.29-11.94 1.15-4.15 2.14-8.38 3-12.63 3.55-17 6-34.35 8.22-51.68 4.36-34.68 7.66-69.53 10.6-104.4 2.94-34.87 5.58-69.7 7.96-104.7l1.36.09c-1.88 34.96-4.08 69.9-6.59 104.83-1.28 17.46-2.68 34.91-4.21 52.36-1.55 17.44-3.25 34.88-5.33 52.29-2.08 17.41-4.39 34.79-7.84 52.07-.88 4.32-1.85 8.62-3 12.91-1.1 4.38-2.61 8.66-4.49 12.77-.53 1.09-1.14 2.14-1.84 3.13a9.558 9.558 0 0 1-3.06 2.91c-.8.46-1.69.71-2.61.73-.92-.01-1.81-.24-2.62-.68-1.23-.72-2.3-1.7-3.12-2.87a30.737 30.737 0 0 1-3.37-6.23c-.88-2.11-1.64-4.22-2.32-6.35-2.58-8.46-4.7-17.05-6.37-25.73-1.74-8.62-3.25-17.27-4.67-25.92-2.82-17.32-5.25-34.68-7.55-52-4.56-34.74-8.59-69.52-12.78-104.27-2.09-17.37-4.24-34.733-6.45-52.08-2.23-17.35-4.57-34.67-7.28-51.92-1.36-8.62-2.81-17.22-4.46-25.76a253.17 253.17 0 0 0-6-25.2c-.63-2-1.32-4-2.09-5.94a24.582 24.582 0 0 0-2.65-5.1c-.3-.452-.69-.84-1.14-1.14-.45-.3.1 0 .26 0s.13-.06 0 .05a6.214 6.214 0 0 0-1.19 1.69c-.44.851-.83 1.729-1.16 2.63a93.394 93.394 0 0 0-3.32 12.19c-.9 4.21-1.69 8.48-2.44 12.76-2.92 17.16-5.22 34.5-7.52 51.83l-6.67 52.07-13.22 104.18c-4.48 34.72-8.9 69.46-13.8 104.14-2.47 17.35-5 34.69-8 52-1.53 8.65-3.12 17.29-5.27 25.92-.55 2.15-1.13 4.31-1.83 6.47-.68 2.28-1.58 4.48-2.71 6.58-.35.63-.77 1.22-1.24 1.77a5.24 5.24 0 0 1-2.77 1.71c-1.5.26-3.02-.35-3.92-1.58-.47-.62-.86-1.29-1.16-2-.91-2.19-1.61-4.45-2.09-6.77-1-4.4-1.68-8.76-2.32-13.13-.64-4.37-1.17-8.73-1.66-13.09-1-8.73-1.82-17.46-2.58-26.2-1.5-17.46-2.74-34.93-3.89-52.41-4.53-69.9-7.8-139.84-11.34-209.76-3.54-69.92-7-139.85-11.06-209.74-2-34.94-4.16-69.88-6.56-104.8-2.4-34.92-5-69.81-8.14-104.65-1.62-17.41-3.36-34.81-5.41-52.16-1.01-8.667-2.12-17.333-3.33-26-1.21-8.63-2.51-17.25-4.06-25.78a239.169 239.169 0 0 0-5.67-25.09c-.61-2-1.27-3.95-2-5.75-.35-.856-.74-1.694-1.17-2.51a8.153 8.153 0 0 0-1.14-1.68c-.12-.13-.19-.13 0 0a2.573 2.573 0 0 0 2.55.01c.07-.06-.08.11-.21.28-.42.608-.8 1.25-1.11 1.92-.38.78-.75 1.66-1.1 2.57a100.4 100.4 0 0 0-3.44 11.91c-1 4.13-1.82 8.34-2.61 12.58-1.56 8.48-2.86 17.07-4.06 25.67-2.4 17.23-4.33 34.57-6.15 51.93-1.82 17.36-3.44 34.75-5 52.16l-4.48 52.25-4.22 52.3c-2.78 34.88-5.58 69.76-8.19 104.66l-7.67 104.74c-5.17 69.85-11.75 139.45-17.7 209.19l-9.17 104.59-4.73 52.34c-1.62 17.45-3.25 34.9-5 52.38-1.75 17.48-3.59 35-5.67 52.52-1 8.78-2.16 17.58-3.42 26.43-1.26 8.85-2.64 17.74-4.49 26.89-1 4.6-2 9.23-3.46 14.23-.8 2.76-1.76 5.47-2.89 8.11-.74 1.72-1.6 3.4-2.58 5-.67 1.1-1.41 2.16-2.21 3.16a24.318 24.318 0 0 1-4 3.92 20.77 20.77 0 0 1-8 3.81c-3.64.86-7.46.68-11-.53-2.72-.94-5.21-2.43-7.32-4.39a25.121 25.121 0 0 1-3.38-3.83 33.399 33.399 0 0 1-3.17-5.5c-.74-1.56-1.31-3-1.8-4.32-1.7-4.76-3.12-9.61-4.25-14.53-2.18-9.15-3.82-18-5.36-26.8-1.54-8.8-2.89-17.57-4.19-26.33-5.14-35-9.32-69.83-13.36-104.7-4.04-34.87-7.76-69.72-11.38-104.57-7.18-69.73-13.957-139.47-20.33-209.22a23061.05 23061.05 0 0 1-18.16-209.24l-8.85-104.64c-3-34.86-6-69.71-9.41-104.44-1.72-17.36-3.51-34.7-5.63-51.9-1-8.6-2.2-17.16-3.54-25.59-.68-4.22-1.4-8.39-2.21-12.47s-1.73-8.08-2.79-11.58c-.27-.84-.54-1.69-.81-2.4s-.55-1.37-.73-1.71c-.09-.17-.15-.25-.12-.22.227.309.489.591.78.84a8.906 8.906 0 0 0 4.17 2 9.581 9.581 0 0 0 6.27-.85 7.453 7.453 0 0 0 2.16-1.65c.099-.105.19-.219.27-.34a8.175 8.175 0 0 0-.61 1.26 45.073 45.073 0 0 0-1.6 4.87c-1 3.68-1.88 7.75-2.67 11.85s-1.48 8.35-2.11 12.59c-2.62 17-4.68 34.29-6.69 51.6-3.9 34.66-7.55 69.55-11 104.26-3.45 34.71-6.43 69.55-9 104.39-2.57 34.84-4.57 69.73-6.39 104.66l-5.18 104.91c-1.77 35-3.71 70-6 105s-5.22 70-8.35 104.88c-3.13 34.88-6.4 69.79-11.11 104.93-.61 4.39-1.18 8.8-2 13.21a124.54 124.54 0 0 1-3.11 13.17 121.276 121.276 0 0 1-4.69 13.11c-.94 2.18-1.93 4.38-3 6.61a56.761 56.761 0 0 1-4 6.93 24.44 24.44 0 0 1-3.41 4c-.998.93-2.143 1.69-3.39 2.25a8.87 8.87 0 0 1-9.78-1.7c-.731-.7-1.367-1.49-1.89-2.35a20.61 20.61 0 0 1-1.86-4 63.469 63.469 0 0 1-1.93-7.05c-.5-2.27-1-4.49-1.39-6.7-.87-4.41-1.8-8.75-2.56-13.11-.76-4.36-1.47-8.71-2.11-13.07-2.53-17.42-4.52-34.84-6.36-52.28-.93-8.71-1.79-17.43-2.65-26.14l-2.54-26.15c-3.34-34.86-6.6-69.72-10.07-104.55-3.47-34.83-7.07-69.64-11-104.4-3.93-34.76-8.4-69.41-13.73-103.93-2.7-17.22-5.66-34.42-9.55-51.3a243.467 243.467 0 0 0-6.92-24.82 83.578 83.578 0 0 0-4.86-11.45 28.887 28.887 0 0 0-3.09-4.78 7.84 7.84 0 0 0-3.14-2.59 1.603 1.603 0 0 0-1-.08 1.412 1.412 0 0 0-.56.19 4.862 4.862 0 0 0-.74.42 15.716 15.716 0 0 0-3.4 3.67 60.754 60.754 0 0 0-5.67 10.76 217.047 217.047 0 0 0-8.3 24.3c-4.74 16.64-8.56 33.66-12.1 50.73-7 34.17-12.88 68.64-18.55 103.15-5.67 34.51-11 69.1-16.48 103.68l-8.29 51.87c-2.82 17.29-5.72 34.57-8.7 51.84-3 17.27-6.1 34.52-9.46 51.75-3.36 17.23-6.9 34.43-10.91 51.57-2 8.57-4.14 17.12-6.51 25.64s-4.92 17-8 25.44c-1.52 4.21-3.17 8.4-5.09 12.56-1 2.08-2 4.16-3.13 6.21a51.281 51.281 0 0 1-3.91 6.11 26.091 26.091 0 0 1-5.72 5.77c-.627.47-1.296.88-2 1.23-.766.41-1.569.75-2.4 1-.895.25-1.813.4-2.74.45-.945.05-1.892-.02-2.82-.21-.887-.17-1.755-.43-2.59-.77-.756-.34-1.485-.73-2.18-1.18-.649-.41-1.265-.86-1.84-1.37-.548-.46-1.069-.94-1.56-1.46a34.187 34.187 0 0 1-4.59-6.17 62.522 62.522 0 0 1-3.28-6.3c-1-2.11-1.84-4.23-2.65-6.35-1.62-4.25-3-8.52-4.28-12.8-2.54-8.57-4.63-17.17-6.52-25.79-3.74-17.25-6.74-34.57-9.5-51.91-5.45-34.68-9.89-69.44-14.1-104.21L542.29 1003c-2.11-17.37-4.3-34.72-6.67-52s-4.87-34.63-7.86-51.84c-1.5-8.6-3.11-17.18-5-25.7a256.57 256.57 0 0 0-6.62-25.22 81.633 81.633 0 0 0-4.89-11.93 26.527 26.527 0 0 0-3.48-5.2c-1.36-1.48-3-2.64-4.8-2.61-1.8.03-3.51 1.22-4.92 2.71a27.13 27.13 0 0 0-3.68 5.15 74.995 74.995 0 0 0-5.26 11.85l-1.26-.53Z" style="fill:#1c0202;fill-rule:nonzero" transform="matrix(.98955 0 0 .98776 -465.095 -391.462)"/></svg>