<svg viewBox="0 0 1350 1050" xmlns="http://www.w3.org/2000/svg" xml:space="preserve" style="fill-rule:evenodd;clip-rule:evenodd;stroke-linecap:round;stroke-miterlimit:10"><path d="M1513.06 1071.13c1.61-40.2 8-231-35-327.22-8-17.9-22.51-49.18-52.4-57.72-29.43-8.41-57.2 9.93-61.52 12.81-1.83 1.21-36.88 25.27-39.76 62.61-3.44 44.54 43.29 58.87 87.86 138.28 20.88 37.2 30.51 68.09 40.74 101 14.22 45.77 31.36 100.35 29.52 167.25-.55 19.78-4.5 104.16-51.71 180.54-82.2 133-263.39 189.73-405.21 143.49-17.78-5.79-149.39-48.67-195.88-166-2.91-7.34-4.65-12.81-6-17-27.32-86.92-16.3-170.31-16.3-170.31 4-31.53 12.3-97.58 57.42-157.69 68.63-91.44 181.51-114.69 259.4-130.73 102.69-21.05 169.78-10 171.59-24.44 2.11-16.39-82.81-44-155.24-53.11-29.3-3.66-73.59-9-128.68 2.05-70.81 14.24-113.81 45.95-118.46 38.81-5-7.65 30.35-50 77.61-75.58 130.57-70.69 283.56 23.62 300.26-9.19 11-21.59-42-88.41-114.39-116.06-93.32-35.64-165.47 15.35-204.47-30.66-19.25-22.71-25.9-63.51-9.12-83.86 11.94-14.47 35-17.72 52.08-10.9 23.37 9.32 36.77 38.08 35.73 60.88-2.31 50.23-73.67 53.51-144.66 134.64-47.25 54-83.14 129.71-60.37 162.17 10.71 15.28 31.65 16.85 33.89 33.06 2.41 17.49-19.68 33.16-32.1 44.07-66.48 58.38-33.82 139.2-87.76 178.67-35 25.6-91.76 23.76-120.06-4-43.8-43.07-9.26-127.59-32.11-136-29.26-10.75-122 119.64-91.59 163.26 14.63 21 45 3.58 75.64 29.9 29 25 17.43 54.32 43.61 115.13 7.4 17.17 25.39 59 60.64 89.87 48 42.1 109.36 47.11 144.1 46.53" style="fill:none;stroke:#160202;stroke-width:23px" transform="matrix(.98342 0 0 .98342 -173.951 -454.552)"/><path d="m122.642 57.794 2.336 251.123" style="fill:none;stroke:#000;stroke-width:39.96px;stroke-linejoin:round;stroke-miterlimit:1.5" transform="rotate(-179.469 153.238 182.05)"/><path d="m122.642 57.794 2.336 251.123" style="fill:none;stroke:#000;stroke-width:39.96px;stroke-linejoin:round;stroke-miterlimit:1.5" transform="rotate(-89.467 152.064 152.479)"/></svg>