<svg viewBox="0 0 1050 1050" xmlns="http://www.w3.org/2000/svg" xml:space="preserve" style="fill-rule:evenodd;clip-rule:evenodd;stroke-miterlimit:10"><path d="M932.17 576.09C870.29 507.32 758.3 469 664 516.22 535.89 580.3 502.85 770.84 511.36 886.39c12.73 172.71 117.71 281.92 172.15 337.33 2 2 4.42 4.48 7.32 7.29 84.49 81.91 166.6 115.44 198.38 128.87 165.84 70.06 308.12 167.32 311.81 158.95 2.21-5-53.3-30.52-119.83-100.09-45.86-48-83.44-87.25-105.53-149.67-38.87-109.85 9-190.13-39.83-243.31-27.19-29.6-64.13-35.44-89.91-36l139-107.08-154.53-83c83.27-9 143-58.24 150.13-113.51 6.29-49.37-31.08-90.89-48.35-110.08Z" style="fill:none;fill-rule:nonzero;stroke:#070000;stroke-width:24px" transform="matrix(.98229 0 0 .98229 -470.168 -468.957)"/><path d="M973.39 788.39c6.4-2.48 54.93-22.34 74.12-80.89 15.57-47.48 5.76-101.86-25.08-139.92 213.59-93.21 408.64-41 468.73 86.3 24.72 52.36 31.3 127.36 16.48 192.36-20 87.82-65.85 99.12-156.93 243.3-30.26 47.9-70 111.6-101.63 199.91-32.87 91.79-43.95 173.84-48.06 229.38-159.43-108-197.68-200.55-197.8-269.8-.16-86.61 55.23-161.6 26-231.63-8.46-20.26-27.58-43.12-73.59-56.85l130.07-93.35-112.31-78.81Z" style="fill:none;fill-rule:nonzero;stroke:#070000;stroke-width:24px" transform="matrix(.98229 0 0 .98229 -470.168 -468.957)"/></svg>