<svg viewBox="0 0 1050 1050" xmlns="http://www.w3.org/2000/svg" xml:space="preserve" style="fill-rule:evenodd;clip-rule:evenodd;stroke-linejoin:round;stroke-miterlimit:2"><path d="m738.47 621.24-1.79-.27c-.57-.11-1-.27-1.56-.41l-3-.86a8.018 8.018 0 0 1-1.39-.52l-1.31-.56a16.254 16.254 0 0 1-2.43-1.25 29.437 29.437 0 0 1-7.84-6.15c-4.1-4.813-8.02-9.727-11.76-14.74a277.32 277.32 0 0 1-10.68-15.37c-3.38-5.24-6.5-10.6-9.61-16.18-3.11-5.58-6.22-11.47-9.1-17.93-1.42-3.21-2.72-6.52-3.87-9.78l-.85-2.45-.75-2.25c-.49-1.52-1-3-1.49-4.61a136.735 136.735 0 0 1-5-20.42 83.003 83.003 0 0 1-.43-22.55 95.032 95.032 0 0 1 1.89-10.63c.78-3.41 1.71-6.77 2.81-10.15a87 87 0 0 1 4-10.24 50.587 50.587 0 0 1 6.71-10.79 28.808 28.808 0 0 1 6.19-5.58l1-.65 1.14-.61c.39-.19.76-.39 1.18-.57l1.28-.5a20.775 20.775 0 0 1 5.55-1.2c3.38-.198 6.76.409 9.86 1.77a27.754 27.754 0 0 1 6.43 3.9 49.026 49.026 0 0 1 8.22 8.45 94.147 94.147 0 0 1 6 8.53c3.56 5.7 6.59 11.44 9.44 17.2 2.85 5.76 5.46 11.54 8 17.35 2.54 5.81 4.87 11.64 7.18 17.48l3.41 8.76 1.67 4.39.83 2.2.41 1.09c.15.36.34.71.51 1.06l-10.43 1.19c1.73-11.86 3.94-23.69 6.74-35.42.667-2.933 1.4-5.857 2.2-8.77l2.28-8.62c1.57-5.77 3.22-11.61 5.23-17.51a119.991 119.991 0 0 1 7.51-17.6 97.658 97.658 0 0 1 10.9-16.32 126.016 126.016 0 0 1 13-14.15 62.115 62.115 0 0 1 8.52-6.58 35.253 35.253 0 0 1 12.06-5 24.736 24.736 0 0 1 8.29-.21c2.94.461 5.77 1.457 8.35 2.94a27.212 27.212 0 0 1 6.1 4.94 34.931 34.931 0 0 1 4.06 5.34 51.36 51.36 0 0 1 4.8 10.3 80.622 80.622 0 0 1 2.73 9.82 140.191 140.191 0 0 1 2.63 18.95c.47 6.21.6 12.4.6 18.42a208.427 208.427 0 0 1-3.46 37.14 293.926 293.926 0 0 1-8.82 35.72c-3.63 11.66-7.89 23.07-12.6 34.27-4.71 11.2-9.92 22.17-15.65 32.85-11.39 21.43-25.27 41.34-40.43 60.19a304.667 304.667 0 0 1-5.77 7l-2.94 3.46-1.49 1.73-1.57 1.77c-4.14 4.6-8.32 9-12.58 13.28-8.53 8.58-17.35 16.79-26.4 24.74-9.05 7.95-18.4 15.57-27.93 22.93A551.682 551.682 0 0 1 666 764.09c-2.46 1.73-5 3.31-7.52 5-2.52 1.69-5 3.33-7.59 4.89-5.12 3.17-10.2 6.38-15.43 9.37-2.61 1.51-5.18 3.06-7.81 4.53l-7.91 4.35-4 2.17-12 6.21c-2.67 1.38-5.42 2.62-8.13 3.94-2.71 1.32-5.42 2.62-8.17 3.87l-8.3 3.58c-2.76 1.22-5.51 2.46-8.32 3.55-5.6 2.22-11.14 4.6-16.84 6.59l-8.51 3.09c-2.83 1-5.73 1.89-8.59 2.84a434.315 434.315 0 0 1-70.39 16.68c-5.94 1.05-12 1.56-18 2.28l-4.49.51c-1.5.17-3 .23-4.52.35l-9 .63a316.344 316.344 0 0 1-36.33.45 198.015 198.015 0 0 1-36.62-4.84c-3-.79-6.08-1.48-9.08-2.48-1.5-.49-3-.9-4.5-1.46l-4.45-1.66a112.22 112.22 0 0 1-17.1-8.54 100.195 100.195 0 0 1-15.18-11.6l-3.45-3.25c-1.16-1.07-2.17-2.29-3.26-3.43l-3.19-3.48-2.95-3.67a147.965 147.965 0 0 1-19.28-32.09 132.297 132.297 0 0 1-10.26-36.23 112.405 112.405 0 0 1 1.5-38.35l.49-2.4.65-2.35 1.34-4.72 1.66-4.64c.29-.76.54-1.55.86-2.3l1-2.26c2.595-6.033 5.77-11.8 9.48-17.22a125.491 125.491 0 0 1 26.87-28.24 159.095 159.095 0 0 1 15.86-10.9c5.45-3.33 11-6.33 16.73-9.08a253.268 253.268 0 0 1 35-13.73c5.95-1.87 11.95-3.53 17.95-5 3-.75 6-1.48 8.88-2.16l9.37-2a228.929 228.929 0 0 1 38.27-4 253.38 253.38 0 0 1 38.32 2.29 360.905 360.905 0 0 1 36.94 7.04c12 2.88 23.5 6.22 35.21 9.55l17.42 5.41c5.78 1.91 11.54 3.91 17.31 5.9a702.324 702.324 0 0 1 67.49 28.08c21.92 10.44 43.14 21.75 63.91 33.18 20.77 11.43 41.22 22.92 61.71 34.11 10.23 5.66 20.48 11.08 30.77 16.64L851 745.7c20.73 11 41.37 22.1 62 32.6 20.63 10.5 41.27 20.44 62.06 28.68l7.8 3c2.61 1 5.22 1.84 7.83 2.78l3.91 1.37 2 .69 2 .6 7.87 2.39c2.62.87 5.27 1.44 7.9 2.13l4 1c1.33.34 2.64.71 4 .95 5.31 1.07 10.62 2.32 16 3l4 .62c1.34.22 2.69.43 4 .54l8.11.82 2 .21c.66.07 1.31.1 2 .15l4.11.24c2.76.13 5.56.23 8.37.3 11.23.28 22.57.07 33.86-.56 22.58-1.31 45.07-4.32 66.71-9.89 21.64-5.57 42.44-13.75 60.42-25.77a123.255 123.255 0 0 0 24.15-21c3.51-3.991 6.7-8.243 9.56-12.72.74-1.09 1.4-2.27 2.07-3.44l2-3.51c.71-1.15 1.26-2.39 1.87-3.6l1.8-3.64a146.333 146.333 0 0 0 10.34-31.24c.31-1.35.59-2.71.83-4.08l.76-4.09c.41-2.75.86-5.5 1.16-8.26.18-1.38.31-2.77.43-4.15.12-1.38.24-2.76.32-4.14.08-1.38.14-2.74.21-4.12v-4.46.65a129.02 129.02 0 0 0-2.2-19.1 114.24 114.24 0 0 0-5.3-18.58 126.716 126.716 0 0 0-8.2-17.6c-1.59-2.84-3.28-5.61-5-8.37-.89-1.367-1.81-2.743-2.74-4.13l-2.88-3.94a147.163 147.163 0 0 0-26.8-28.14 174.634 174.634 0 0 0-33.18-20.89 272.642 272.642 0 0 0-37.12-14.5c-3.17-1-6.53-2.06-9.68-3-3.15-.94-6.36-1.86-9.58-2.67-3.22-.81-6.44-1.57-9.67-2.32-3.23-.75-6.5-1.35-9.77-1.93a285.695 285.695 0 0 0-39.55-4.2 266.05 266.05 0 0 0-39.64 1.69 248.629 248.629 0 0 0-75.8 21.38 264.992 264.992 0 0 0-34.49 19.3 335.506 335.506 0 0 0-16.34 11.48c-2.67 2-5.34 4-7.93 6-1.3 1-2.62 2-3.91 3.09l-3.84 3.17a334.256 334.256 0 0 0-29 27.26 438.188 438.188 0 0 0-13.37 14.86c-4.38 5.09-8.69 10.27-13 15.53-8.56 10.51-17.22 21.35-26 31.93-8.78 10.58-17.56 21.17-26.46 31.66l-53.23 62.68-13.23 15.66-13.14 15.75c-8.89 10.59-17.95 21-27.06 31.32-18.26 20.59-36.45 40.65-53.06 61.92l-6.19 8-6.09 8.13-6 8.2c-2 2.753-3.943 5.503-5.83 8.25a232.497 232.497 0 0 0-20 34.1A165.664 165.664 0 0 0 585 989.9c-2 6.18-4 12.4-5.51 18.78l-.62 2.38-.52 2.41-1.06 4.83c-.64 3.37-1.27 6.72-1.82 10a105.863 105.863 0 0 0-1.73 19.81 58.767 58.767 0 0 0 3.23 18.85A37.753 37.753 0 0 0 587 1082c.535.52 1.107 1 1.71 1.43l1.75 1.36c.62.41 1.26.8 1.88 1.19.614.42 1.252.8 1.91 1.14 1.298.74 2.633 1.4 4 2l2 .88 2.13.74a82.121 82.121 0 0 0 17.88 3.75c12.38 1.35 25.3.34 38-1.86a244.692 244.692 0 0 0 37.66-9.85c6.14-2.14 12.2-4.47 18.07-7.1a187.63 187.63 0 0 0 17.08-8.65 173.848 173.848 0 0 0 31-22.38l3.53-3.28 3.41-3.42c1.16-1.12 2.23-2.33 3.33-3.51 1.1-1.18 2.19-2.37 3.23-3.61 1.04-1.24 2.12-2.44 3.13-3.71l3-3.8c1.94-2.61 3.89-5.21 5.69-7.92a202.057 202.057 0 0 0 18.59-34.46 198.253 198.253 0 0 0 11.75-37.39c1.31-6.41 2.34-13 3-19.43.34-3.24.6-6.47.7-9.6 0-1.56.07-3.11 0-4.57a33.679 33.679 0 0 0-.31-4c0-.26-.08-.56-.13-.73l-.07-.31a1.265 1.265 0 0 1-.05-.18v-.07c0 .04 0 0 0 0 .047.118.111.23.19.33.141.247.312.475.51.68.338.378.721.714 1.14 1a6.334 6.334 0 0 0 2 1 6.736 6.736 0 0 0 2.23.3 6.348 6.348 0 0 0 1.58-.24c.278-.076.549-.177.81-.3.129-.056.253-.123.37-.2.08-.06.06 0 .09-.07h-.06a8.137 8.137 0 0 0-.9.9c-.37.41-.79.92-1.21 1.46a61.09 61.09 0 0 0-2.53 3.62 190.101 190.101 0 0 0-9.53 17.1c-3 6-5.87 12.08-8.63 18.23a342.11 342.11 0 0 0-4 9.3l-4 9.38c-10.41 25-19.21 50.46-24.57 76.69a248.465 248.465 0 0 0-5 39.64c-.561 13.23.324 26.48 2.64 39.52a145.786 145.786 0 0 0 12.14 37.28c.7 1.48 1.52 2.89 2.28 4.34.76 1.45 1.48 2.86 2.36 4.34 1.7 2.93 3.43 5.74 5.29 8.43 3.55 5.25 7.781 10 12.58 14.14a37.068 37.068 0 0 0 14.16 7.9c2.145.61 4.373.87 6.6.77 2.17-.08 4.32-.45 6.39-1.11a32.124 32.124 0 0 0 6.68-3 53.072 53.072 0 0 0 6.76-4.82c4.649-4 8.92-8.41 12.76-13.19 4.07-4.89 7.91-10.19 11.69-15.64 1.893-2.73 3.77-5.51 5.63-8.33 1.84-2.8 3.83-5.72 5.49-8.44a207.638 207.638 0 0 0 33.41-112.05c.11-6.66-.08-13.4-.49-20.06a144.165 144.165 0 0 0-2.33-19.5 42.349 42.349 0 0 0-1.1-4.34 13.915 13.915 0 0 0-1.22-2.92c-.516-.924 0 0 0 0l.13.12c.336.274.719.484 1.13.62a4.181 4.181 0 0 0 2.15.17c.219-.028.432-.092.63-.19a.57.57 0 0 0 .25-.12c.13 0-.12.06-.44.44a7.357 7.357 0 0 0-.5.6c-.18.21-.36.47-.55.74a44.05 44.05 0 0 0-4.1 7.89c-1.221 2.97-2.286 6-3.19 9.08a119.917 119.917 0 0 0-5 38.51 140.104 140.104 0 0 0 7.2 38.12c2.025 6.1 4.457 12.05 7.28 17.82a109.845 109.845 0 0 0 9.57 16.12 69.77 69.77 0 0 0 11.9 13.08 45.695 45.695 0 0 0 6.69 4.72 38.79 38.79 0 0 0 7 3c.59.17 1.19.29 1.78.45l.89.22.91.13c.6.08 1.19.23 1.8.28l1.82.09.92.07h.92l1.86-.07c.62 0 1.26-.17 1.89-.23.63-.06 1.26-.12 1.9-.28a56.503 56.503 0 0 0 15.63-5.92 120.79 120.79 0 0 0 15.52-10.4c1.29-1 2.58-2 3.89-3l3.89-3.16c2.5-2.06 4.86-4.12 7.12-6.28 2.22-2.16 4.32-4.44 6.3-6.82 1.93-2.36 3.69-4.86 5.25-7.48 1.55-2.58 2.89-5.29 4-8.09.45-1.42 1-2.82 1.4-4.27l.54-2.17c.09-.37.19-.73.27-1.09l.17-1.11c.23-1.48.52-2.95.62-4.46.1-1.51.17-3 .16-4.59-.02-3.09-.27-6.18-.77-9.23-.45-2.94-1.19-5.83-2.21-8.62-.43-1.16-.98-2.28-1.64-3.34-.2-.32-.44-.62-.7-.89-.16-.19-.16-.12.18 0 .2.06.4.08.61.07.08.01.15.01.23 0 .04.01.08.01.12 0 .08 0-.16 0-.47.24-.91.63-1.72 1.39-2.41 2.26a34.047 34.047 0 0 0-4.54 7.4 44.53 44.53 0 0 0-2.94 8.55c-.62 2.9-.92 5.86-.89 8.83-.03.37-.03.75 0 1.12l.27 3.39c.29 1.5.48 3 .83 4.5.71 3.02 1.69 5.97 2.93 8.82 2.53 5.81 5.92 11.2 10.05 16 8.28 9.65 19.29 17 31.53 19.94a65.194 65.194 0 0 0 18.88 1.69 72.36 72.36 0 0 0 18.76-3.61l3.36 10.39a88.872 88.872 0 0 1-21.59 3.77c-7.37.33-14.75-.38-21.93-2.1a69.755 69.755 0 0 1-20.36-8.74 77.638 77.638 0 0 1-16.71-14.34 75.78 75.78 0 0 1-12-18.53c-1.55-3.42-2.8-6.97-3.75-10.6-.47-1.83-.77-3.72-1.15-5.58l-.3-2.86-.14-1.44c-.06-.48-.09-.96-.08-1.44-.13-3.89.17-7.78.89-11.61.76-3.78 1.92-7.46 3.44-11a46.54 46.54 0 0 1 5.93-10.25c1.41-1.85 3.1-3.48 5-4.83 1.25-.9 2.65-1.57 4.13-2 .45-.11.9-.22 1.37-.3.5-.07 1.01-.11 1.52-.12 1.06 0 2.12.15 3.14.46 1.69.52 3.24 1.42 4.55 2.61 1 .9 1.88 1.9 2.65 3 1.26 1.79 2.32 3.72 3.17 5.74 1.49 3.59 2.6 7.33 3.33 11.15 1.5 7.45 1.84 15.09 1 22.65l-.14 1.45c-.07.47-.16 1-.24 1.42l-.5 2.86c-.36 1.91-.91 3.76-1.38 5.64-.47 1.88-1.14 3.69-1.86 5.47-.72 1.78-1.42 3.58-2.27 5.29-1.63 3.46-3.48 6.8-5.56 10-2.07 3.15-4.31 6.2-6.69 9.12a127.84 127.84 0 0 1-7.44 8.22l-3.73 3.76c-1.25 1.23-2.51 2.49-3.83 3.73-5.39 5.2-11.281 9.86-17.58 13.92a69.472 69.472 0 0 1-22.36 9.34 51.868 51.868 0 0 1-26-1.24 58.487 58.487 0 0 1-11.7-5.36 66.343 66.343 0 0 1-9.87-7.41 86.297 86.297 0 0 1-14.88-18c-1.06-1.59-1.94-3.24-2.91-4.86-.97-1.62-1.77-3.3-2.64-5-1.64-3.35-3.18-6.72-4.54-10.14a158.789 158.789 0 0 1-6.62-20.85 165.724 165.724 0 0 1-4.74-43c.176-7.24.915-14.46 2.21-21.59a159.231 159.231 0 0 1 5.14-20.92c1.11-3.44 2.33-6.85 3.79-10.25a58.167 58.167 0 0 1 5.45-10.27c.31-.44.61-.88 1-1.34.39-.46.71-.89 1.16-1.36a14.762 14.762 0 0 1 3.45-2.89c.45-.25.92-.49 1.39-.7a12.565 12.565 0 0 1 1.87-.56 10.1 10.1 0 0 1 2.31-.14c.804.066 1.596.23 2.36.49a9.595 9.595 0 0 1 3.28 2 7.5 7.5 0 0 1 1 1c.27.32.57.68.79 1a19.804 19.804 0 0 1 1.88 3.4c.24.53.45 1.05.63 1.54s.37 1 .52 1.47c.63 1.94 1.1 3.78 1.51 5.6a177.53 177.53 0 0 1 3 21.26c.63 7 1 14 1.23 21 .458 14.15-.258 28.32-2.14 42.35a229.04 229.04 0 0 1-9.71 41.65 214.509 214.509 0 0 1-17.64 39.21c-1.76 3.22-3.5 6.06-5.31 9.06-1.81 3-3.63 6-5.53 9-3.81 6-7.85 11.9-12.38 17.69a118.231 118.231 0 0 1-15.4 16.45 71.264 71.264 0 0 1-9.92 7.18 50.156 50.156 0 0 1-12.06 5.3 40.133 40.133 0 0 1-13.92 1.41 37.713 37.713 0 0 1-7-1.17 41.188 41.188 0 0 1-6.46-2.35c-2.007-.93-3.942-2-5.79-3.22a52.282 52.282 0 0 1-5-3.84 63.528 63.528 0 0 1-8.28-8.65 137.533 137.533 0 0 1-12.19-18.61c-1.77-3.12-3.45-6.26-5.11-9.3-.82-1.5-1.64-3.17-2.45-4.75-.81-1.58-1.67-3.18-2.41-4.81a173.226 173.226 0 0 1-13-40.81 217.795 217.795 0 0 1-3.29-42.37 278.222 278.222 0 0 1 4.17-42c4.77-27.7 13.28-54.53 23.54-80.34l3.91-9.63c1.3-3.15 2.65-6.41 4-9.61 2.77-6.4 5.64-12.74 8.71-19.06a203.47 203.47 0 0 1 10.26-18.94c1-1.59 2.07-3.19 3.3-4.84.62-.82 1.27-1.65 2-2.52a27.258 27.258 0 0 1 2.74-2.74c.31-.26.6-.5.94-.76.34-.26.7-.51 1.15-.79.48-.303.977-.577 1.49-.82a12.981 12.981 0 0 1 2-.76 11.285 11.285 0 0 1 2.84-.44 10.999 10.999 0 0 1 3.51.46c1.111.354 2.165.866 3.13 1.52a12.941 12.941 0 0 1 2.08 1.86c.468.534.896 1.102 1.28 1.7.29.48.56 1 .81 1.46.25.46.36.82.53 1.24.158.372.295.753.41 1.14l.31 1.05.23.95c.16.65.25 1.21.35 1.79.332 2.072.536 4.163.61 6.26.09 2 .09 3.85.05 5.71-.08 3.72-.33 7.33-.65 10.92-.66 7.17-1.65 14.2-3 21.24A202.863 202.863 0 0 1 831.2 968a245.411 245.411 0 0 1-7 20.26 225.812 225.812 0 0 1-19.59 38.26 215.763 215.763 0 0 1-12.5 17.7 200.33 200.33 0 0 1-14.32 16.43 168.295 168.295 0 0 1-53.86 37.35 221.512 221.512 0 0 1-20.31 7.64 208.845 208.845 0 0 1-42.33 8.86c-7.259.73-14.557 1-21.85.82a130.19 130.19 0 0 1-22.1-2.38 76.186 76.186 0 0 1-21.5-7.67 58.37 58.37 0 0 1-18-14.81 59.894 59.894 0 0 1-10.45-20.31 98.919 98.919 0 0 1-3.44-21.6c-.44-7.17-.35-14.25-.23-21.26 0-3.51.18-7 .28-10.43l.31-5.36.17-2.68.29-2.68c.21-1.78.39-3.57.65-5.35.26-1.78.6-3.55.92-5.32.32-1.77.73-3.53 1.14-5.28.41-1.75.8-3.52 1.34-5.23l1.56-5.18 1.75-5.11c.56-1.71 1.24-3.37 1.89-5 .65-1.63 1.28-3.36 2-5a249.8 249.8 0 0 1 20.19-37.55 671.306 671.306 0 0 1 23.63-34.42c8.24-11.25 16.86-22.18 25.66-32.86s17.79-21.11 26.63-31.54 17.66-20.79 26.26-31.32c8.6-10.53 17.47-21.24 26.3-31.74l26.63-31.42L778 702.47a5036.173 5036.173 0 0 0 26.46-31.33c8.78-10.49 17.34-21 26.18-31.67 4.42-5.333 8.94-10.63 13.56-15.89 4.62-5.26 9.387-10.43 14.3-15.51a349.674 349.674 0 0 1 31.31-28.65l4.19-3.32c1.39-1.09 2.81-2.15 4.21-3.22 2.79-2.17 5.66-4.23 8.52-6.3 5.66-4.1 11.487-8.07 17.48-11.91a288.756 288.756 0 0 1 37.59-20.17c6.51-2.9 13.16-5.49 19.87-7.89 6.71-2.4 13.61-4.23 20.44-6.24 1.7-.54 3.45-.87 5.18-1.28l5.21-1.17 5.21-1.18c.86-.21 1.74-.37 2.62-.51l2.63-.44 10.52-1.75 10.59-1.2a290.103 290.103 0 0 1 42.5-1.1c14.14.729 28.2 2.447 42.1 5.14 3.47.67 6.92 1.46 10.37 2.22 3.45.76 6.88 1.65 10.3 2.61 3.42.96 6.82 1.93 10.19 3 3.37 1.07 6.58 2.1 9.92 3.22a290.51 290.51 0 0 1 39.25 15.87 196.775 196.775 0 0 1 36 23.27 173.402 173.402 0 0 1 50.42 69.13 161.358 161.358 0 0 1 10.54 42.26V679.82l.08 1.24.13 2.4c0 1.58.11 3.17.1 4.73-.01 1.56 0 3.14 0 4.7s-.07 3.13-.16 4.69c-.13 3.12-.42 6.22-.68 9.33-.26 3.11-.67 6.22-1.23 9.3a165.388 165.388 0 0 1-9.93 36.42l-1.89 4.4c-.64 1.46-1.22 2.94-2 4.36l-2.16 4.29c-.72 1.43-1.44 2.87-2.27 4.27a135.63 135.63 0 0 1-10.65 16.19 149.96 149.96 0 0 1-27.53 27.05 198.11 198.11 0 0 1-32.36 20 266.4 266.4 0 0 1-34.71 14.21 387.754 387.754 0 0 1-72.22 16.11c-12.21 1.57-24.44 2.68-36.8 3.25-3.09.147-6.2.253-9.33.32l-4.74.07h-2.42l-2.39-.06-9.54-.29c-1.6 0-3.19-.15-4.77-.28l-4.77-.39c-6.39-.39-12.68-1.37-19-2.2-1.59-.18-3.15-.49-4.71-.77l-4.68-.87c-3.12-.61-6.28-1.1-9.34-1.88l-9.23-2.16-2.3-.54-2.27-.63-4.53-1.26c-3-.86-6.08-1.63-9-2.59l-8.88-2.85c-23.63-7.75-46.1-17.18-68-27.08-21.9-9.9-43.28-20.38-64.49-31a10713.388 10713.388 0 0 1-31.69-16c-10.58-5.43-21.25-10.92-31.74-16.55-21-11.21-41.77-22.81-62.27-34.23-20.5-11.42-40.76-22.67-61.15-33.12-20.39-10.45-41-20.16-62-29-5.29-2.13-10.54-4.36-15.85-6.47l-16-6.16c-5.38-2-10.8-3.88-16.2-5.84-5.4-1.96-10.84-3.81-16.19-5.58-10.73-3.58-21.32-6.6-32-9a225.149 225.149 0 0 0-32-4.94 193.544 193.544 0 0 0-32.3.22l-8.1.9c-2.91.39-5.69.78-8.49 1.21-5.56.85-11.06 1.83-16.52 3a222.86 222.86 0 0 0-31.9 9.09 147.862 147.862 0 0 0-29.15 14.34 98.362 98.362 0 0 0-23.65 20.9 77.074 77.074 0 0 0-8.61 13l-.93 1.73c-.3.57-.54 1.19-.82 1.78l-1.61 3.59-1.43 3.83-.67 1.85-.53 1.92c-6 20.32-4.34 43.34 3.77 64A103.751 103.751 0 0 0 306.08 795l2.68 3.15 2.89 3 1.44 1.47c.468.502.962.979 1.48 1.43l3.07 2.72a90.235 90.235 0 0 0 13.12 9.58 96.382 96.382 0 0 0 14.65 7l3.86 1.37c1.29.46 2.64.78 4 1.19 2.61.83 5.34 1.39 8 2a181.399 181.399 0 0 0 33.54 3.67 300.24 300.24 0 0 0 34.39-1.26l8.6-.81c1.43-.15 2.87-.23 4.3-.43l12.84-1.77c2.86-.34 5.7-.89 8.53-1.4a427.54 427.54 0 0 0 66.84-17.39 480.092 480.092 0 0 0 63.52-27.35 551.51 551.51 0 0 0 59.3-35.85c9.51-6.58 18.79-13.5 27.9-20.61 9.11-7.11 18-14.56 26.63-22.21 8.63-7.65 17.09-15.56 25.21-23.7 4-4.07 8-8.22 11.78-12.38l1.37-1.54 1.41-1.62 2.77-3.26a463.11 463.11 0 0 0 5.51-6.62c7.28-8.89 14.18-18.11 20.78-27.52 6.6-9.41 13-19 19-28.74 6-9.74 11.71-19.81 16.72-30.12A234.18 234.18 0 0 0 825 535.25a186.595 186.595 0 0 0 7.41-33.11 164.026 164.026 0 0 0 .82-33.41c-.4-5.77-1-11.36-1.72-16.89a153.64 153.64 0 0 0-2.92-16 71.735 71.735 0 0 0-2.14-7.18 32.68 32.68 0 0 0-2.62-5.73 10.027 10.027 0 0 0-1.93-2.4c-.763-.696 0-.07 0 0h.08s-.11-.08-.51 0a13.258 13.258 0 0 0-4.23 1.67 43.073 43.073 0 0 0-5.66 4 124.34 124.34 0 0 0-11.65 11.2 86.78 86.78 0 0 0-9.84 12.29 106.706 106.706 0 0 0-7.83 14.25c-2.37 5.06-4.54 10.38-6.67 15.82l-3.16 8.21c-1.04 2.667-2.04 5.38-3 8.14a316.889 316.889 0 0 0-9.78 33.39l-4 17.13-6.45-16.03c-.14-.36-.27-.73-.43-1.08l-.53-1-1.06-2.06-2.13-4.11a561.516 561.516 0 0 0-4.34-8.17c-2.94-5.41-5.94-10.78-9.06-16-3.12-5.22-6.31-10.45-9.65-15.47a174.052 174.052 0 0 0-10.49-14.25 73.79 73.79 0 0 0-5.58-6.08 27.526 27.526 0 0 0-5.36-4.23 3.79 3.79 0 0 0-1.67-.63c-.27 0 0 .27.75.3.352.019.706-.012 1.05-.09l.21-.06h.14a.205.205 0 0 0 .12 0h.07c.14 0-.12.33-.44.91a29.498 29.498 0 0 0-2.28 5.45 71.169 71.169 0 0 0-1.9 7.4c-.52 2.62-.94 5.32-1.27 8a68.35 68.35 0 0 0-.54 7.83 56.272 56.272 0 0 0 1.7 14.51 118.722 118.722 0 0 0 5.21 15.23l1.68 4.14.86 2.11.81 1.92c1.09 2.52 2.23 4.92 3.48 7.31 2.47 4.76 5.49 9.69 8.66 14.82 3.17 5.13 6.4 10.43 9.47 15.8 3.07 5.37 6 10.87 8.62 16.49 2.62 5.62 5.2 11.32 7.58 17.12a29.425 29.425 0 0 1 1.81 9.78 16.59 16.59 0 0 1 0 2.73l-.11 1.43a7.13 7.13 0 0 1-.18 1.47l-.64 3.12c-.12.53-.19 1-.35 1.58l-.58 1.72-4.36 2.7Z" style="fill:#0a0404;fill-rule:nonzero" transform="translate(-259.975 -285.002)"/></svg>