<svg viewBox="0 0 1050 1050" xmlns="http://www.w3.org/2000/svg" xml:space="preserve" style="fill-rule:evenodd;clip-rule:evenodd;stroke-linejoin:round;stroke-miterlimit:2"><path d="M939.6 856.57a296.257 296.257 0 0 1-8.52-128.71 295.042 295.042 0 0 1 17.23-63.5l3.12-7.67 3.41-7.56c1.11-2.54 2.41-5 3.62-7.47l1.85-3.71c.62-1.24 1.31-2.44 2-3.67a282.953 282.953 0 0 1 17.34-28.42l2.39-3.43 1.19-1.71 1.26-1.67 5-6.66c3.52-4.32 7-8.71 10.73-12.84 3.73-4.13 7.55-8.24 11.4-12.29 3.85-4.05 8-7.88 12.16-11.57l3.12-2.83c1-.94 2.13-1.81 3.2-2.72 2.15-1.8 4.27-3.63 6.47-5.38l6.68-5.11 3.34-2.56c1.13-.83 2.3-1.61 3.44-2.42l6.92-4.81c1.14-.82 2.34-1.55 3.53-2.3l3.56-2.25 3.57-2.24c1.18-.76 2.37-1.51 3.6-2.18l7.33-4.18c1.22-.68 2.42-1.42 3.68-2.05l3.74-1.93 7.51-3.86 7.66-3.53c2.55-1.18 5.11-2.36 7.73-3.38l7.81-3.18c1.3-.55 2.62-1 3.95-1.49l8-2.86c1.32-.48 2.65-1 4-1.36l8.06-2.54c2.67-.88 5.39-1.59 8.11-2.33l8.15-2.2 8.23-1.89 4.12-.94c1.38-.29 2.76-.53 4.14-.8l8.31-1.57c2.77-.49 5.56-.86 8.35-1.28 5.57-.9 11.18-1.41 16.79-2a350.217 350.217 0 0 1 67.68.19l8.44 1 4.23.52 4.2.67 8.4 1.37 8.37 1.67 4.18.85 4.15 1 8.31 2 8.23 2.34 4.12 1.18 4.07 1.35 8.15 2.71 8 3.05c1.34.52 2.69 1 4 1.55l4 1.69c2.63 1.15 5.3 2.24 7.91 3.44 5.19 2.53 10.45 4.9 15.5 7.76l3.82 2.07 1.91 1 1.87 1.12 7.46 4.5c1.26.73 2.46 1.56 3.67 2.36l3.64 2.43 3.63 2.44c1.21.81 2.36 1.73 3.54 2.59l7 5.25 6.81 5.56a243.816 243.816 0 0 1 25.06 24.67 262.124 262.124 0 0 1 38.49 58.15c1.31 2.59 2.47 5.23 3.71 7.85 1.24 2.62 2.31 5.29 3.47 7.93 2.18 5.34 4.28 10.7 6.18 16.13a331.233 331.233 0 0 1 9.75 32.95c2.72 11.08 4.8 22.34 6.45 33.46l.6 4.13c.19 1.37.38 2.64.56 4.14.33 2.9.74 5.8 1 8.71.26 2.91.55 5.82.73 8.73.18 2.91.35 5.83.44 8.74.7 23.155-1.31 46.313-6 69a383.574 383.574 0 0 1-19.77 65.22 501.49 501.49 0 0 1-29.25 60.44c-22 38.73-47.89 74.51-75.89 108.15-14 16.82-28.5 33.15-43.49 49-14.93 15.86-30.32 31.23-46 46.24-31.38 30-64 58.48-97.56 85.74-67.13 54.43-137.53 104.28-210 150.52-18.17 11.51-36.4 22.89-54.81 34-18.41 11.11-36.92 22-55.6 32.57-37.33 21.23-75.11 41.66-113.68 60.45a4284.167 4284.167 0 0 0 211.6-145.24c17.21-12.62 34.3-25.39 51.26-38.32 16.95-12.94 33.81-26 50.47-39.24 16.66-13.24 33.19-26.67 49.53-40.28 16.34-13.61 32.44-27.48 48.39-41.48 31.85-28.07 62.87-57 92.56-87a1227.31 1227.31 0 0 0 84.29-93.89c26.18-32.66 50.24-66.84 70.19-102.84a462.915 462.915 0 0 0 26.33-55.29 340.257 340.257 0 0 0 17.38-57.58 254.054 254.054 0 0 0 5.29-58.67c-.06-2.43-.22-4.86-.32-7.3-.1-2.44-.39-4.85-.57-7.27-.18-2.42-.54-4.83-.79-7.25-.12-1.16-.32-2.53-.49-3.82l-.53-3.82c-1.42-10.07-3.21-19.89-5.47-29.64a288.587 288.587 0 0 0-8.18-28.7 258.912 258.912 0 0 0-11.12-27.47 224.13 224.13 0 0 0-31.39-49.2 203.832 203.832 0 0 0-20.29-20.8l-5.51-4.73-5.74-4.48c-1-.73-1.89-1.52-2.89-2.22l-6-4.2c-1-.7-2-1.42-3-2.06l-6.21-3.93-1.55-1-1.6-.91-3.21-1.83c-4.21-2.53-8.67-4.67-13-7-2.22-1.09-4.49-2.08-6.73-3.13l-3.37-1.56c-1.14-.5-2.3-.95-3.45-1.43l-6.89-2.83-7-2.55-3.51-1.28-3.58-1.13-7.14-2.28-7.24-2-3.63-1-3.67-.86-7.33-1.71-7.41-1.43-3.7-.72-3.74-.58-7.47-1.17-7.51-.89-3.76-.45c-1.26-.12-2.52-.2-3.78-.31l-7.55-.6c-2.53-.16-5-.23-7.58-.35-5-.3-10.12-.2-15.18-.27-2.54 0-5.06.13-7.6.18l-3.8.12h-1.9l-1.89.14c-5.06.36-10.13.61-15.16 1.24-2.52.29-5.06.49-7.57.82l-7.54 1.08c-1.25.19-2.52.35-3.77.55l-3.74.69-7.5 1.36-7.43 1.66c-2.48.55-5 1.07-7.41 1.77l-7.37 2c-1.24.3-2.45.68-3.66 1.06l-7.28 2.26c-1.22.37-2.44.74-3.63 1.18l-7.18 2.56c-1.19.44-2.41.81-3.58 1.3l-3.54 1.43-7.09 2.82-7 3.13-3.48 1.56c-1.17.51-2.28 1.12-3.42 1.68A274.883 274.883 0 0 0 997.3 619a286.897 286.897 0 0 0-54 111.31c-9.84 40.77-10.95 83.99-3.7 126.26Z" style="fill-rule:nonzero" transform="matrix(.98753 0 0 .99383 -463.68 -468.655)"/><path d="M964.69 832.51a360.777 360.777 0 0 0-45.15-83.76A320.89 320.89 0 0 0 889.15 713c-2.74-2.77-5.6-5.41-8.36-8.15s-5.79-5.25-8.63-7.85c-2.84-2.6-5.94-5-8.94-7.42l-4.6-3.53c-1.54-1.16-3-2.39-4.62-3.47a259.907 259.907 0 0 0-39.24-23.81 222.45 222.45 0 0 0-42.33-15.88 204.67 204.67 0 0 0-43.95-6.45 179.005 179.005 0 0 0-43.48 4.32c-28.35 6.42-54.77 20.14-77.72 38.61a249.29 249.29 0 0 0-32 30.8 299.678 299.678 0 0 0-26.68 35.93 315.662 315.662 0 0 0-21.26 39.52 277.826 277.826 0 0 0-15.07 41.87l-1.38 5.34c-.5 1.77-.82 3.56-1.24 5.34-.42 1.78-.83 3.56-1.15 5.34l-1 5.34c-.15.89-.34 1.79-.46 2.67l-.37 2.67-.72 5.32c-.29 3.55-.75 7.09-.85 10.66a189.671 189.671 0 0 0 0 21.46l.38 5.38c.12 1.79.38 3.58.56 5.38.33 3.58 1 7.16 1.47 10.74 1.27 7.14 2.66 14.28 4.62 21.35.87 3.55 2 7 3.05 10.57.51 1.76 1.16 3.5 1.73 5.25.57 1.75 1.14 3.5 1.82 5.23a310.948 310.948 0 0 0 18.3 40.8c14.27 26.52 32.06 51.56 51.92 75.09a658.189 658.189 0 0 0 65.26 66.32 901.952 901.952 0 0 0 73.58 58.6c51.12 36.83 105.87 69.14 162.41 98.36 28.3 14.59 57.053 28.41 86.26 41.47 29.16 13.16 58.76 25.44 88.54 37.59a1185.7 1185.7 0 0 1-46.74-12c-7.77-2.11-15.47-4.46-23.21-6.69l-11.55-3.55-5.78-1.79-5.75-1.85c-15.38-4.84-30.59-10.22-45.8-15.65-7.58-2.76-15.137-5.61-22.67-8.54-7.56-2.87-15-5.93-22.56-8.92-59.86-24.53-118-53.91-173-89.13a823.154 823.154 0 0 1-79.53-57.7c-12.69-10.47-25.09-21.36-37.06-32.78-11.97-11.42-23.56-23.3-34.62-35.76-22.11-24.91-42.18-52.07-58.7-81.84a350.249 350.249 0 0 1-21.42-46.7c-.78-2-1.43-4.08-2.14-6.12-.71-2.04-1.44-4.08-2.06-6.16-1.25-4.16-2.58-8.29-3.65-12.52-2.33-8.39-4.08-17-5.59-25.63a238.788 238.788 0 0 1-2.8-52.88c.19-4.44.75-8.87 1.18-13.3.29-2.2.63-4.38.95-6.58l.48-3.29c.16-1.09.39-2.16.59-3.25l1.23-6.47c.42-2.16 1-4.27 1.43-6.4.43-2.13.94-4.28 1.54-6.36l1.72-6.28a311.282 311.282 0 0 1 18.19-48.26 342.306 342.306 0 0 1 25.23-44.58 323.073 323.073 0 0 1 31.78-40.3A279.92 279.92 0 0 1 583.11 648a240.968 240.968 0 0 1 44.94-26.45 209.373 209.373 0 0 1 50.16-15.37l3.24-.58 1.61-.28 1.64-.2 6.53-.76c4.34-.6 8.73-.7 13.1-.92 8.71-.352 17.434-.159 26.12.58a221.412 221.412 0 0 1 50.47 10.73 238.693 238.693 0 0 1 46.2 21.25 275.835 275.835 0 0 1 40.67 29.48A298.911 298.911 0 0 1 930 742a314.918 314.918 0 0 1 34.69 90.51Z" style="fill-rule:nonzero" transform="matrix(.98446 0 0 .98446 -448.819 -455.678)"/></svg>