<svg viewBox="0 0 1050 1050" xmlns="http://www.w3.org/2000/svg" xml:space="preserve" style="fill-rule:evenodd;clip-rule:evenodd;stroke-linecap:round;stroke-miterlimit:10"><path d="M563 1261.9c-11.13-75.93 7.77-134.32 36-141.88 30.77-8.24 79.84 41.86 87.46 96.73 4.73 34.15-4.94 81.94-38.4 101-47.25 27-123-14.07-149.32-73.09-22.63-50.68-7.36-108 25.6-144 36.21-39.6 94.78-55.63 138.65-38.7 54.38 21 55.17 80.62 110.93 189.18 39.17 76.27 79.3 154.4 151.45 204.22 89.63 61.89 224 76.88 332.77 25.8 107.64-50.55 153.18-148.46 194.12-236.47a688.244 688.244 0 0 0 59.73-215c-53.36-37.58-239.81-158.91-492.76-133.28-156.18 15.82-270 80.8-328.51 120.38A535.366 535.366 0 0 0 803.79 1105c27.61 16 253.75 142.61 482.09 34.39 113.22-53.65 177.81-141.71 209-193.47a514.245 514.245 0 0 0-130.12-92.44C1084.37 714.78 711 906.51 714.2 920.81c.16.72 15.43 1.11 46 1.91 47.49 1.24 57.84.45 75.84 1.91 18.42 1.5 38.47 6.51 77.82 16.47 66.7 16.89 80.35 22.72 122 30.21 14 2.51 30 1.94 49.57 4.68 71.34 10 108 3.29 132.8-7 63-26 85.94-93.23 86.91-96.23 1.85-5.69 25-81.07-23.46-144-35-45.51-93.55-66.21-143.38-59.81-102 13.09-142.2 136.44-176.6 122.15-25.34-10.53-31.59-89.16 4.27-137.58 43.68-59 133.37-50.85 149.32-49.45 67.58 6 101.46 42.18 119.46 25.8 15.81-14.39 3.87-55.3-10.67-79.54-34.13-56.91-106.94-61.79-117.32-62.34" style="fill:none;fill-rule:nonzero;stroke:#000;stroke-width:24px" transform="translate(-470.286 -468.508) scale(.99372)"/></svg>