<svg viewBox="0 0 1300 1050" xmlns="http://www.w3.org/2000/svg" xml:space="preserve" style="fill-rule:evenodd;clip-rule:evenodd;stroke-linecap:round;stroke-linejoin:round;stroke-miterlimit:1.5"><path d="M687 1125.92c-3.27-1.49-6.6-2.81-10-4-3.4-1.19-6.75-2.29-10.16-3.23s-6.86-1.77-10.31-2.48-6.92-1.25-10.39-1.71a125.792 125.792 0 0 0-41.15 1.36 117.597 117.597 0 0 0-37.31 14.87 124.339 124.339 0 0 0-30.17 25.61 99.464 99.464 0 0 0-19 33 90.172 90.172 0 0 0-4.37 36.62 97.435 97.435 0 0 0 10.27 35.23 113.162 113.162 0 0 0 9.81 15.9 109.66 109.66 0 0 0 12 13.89l5 4.77.05 8 .17 29.38.08 29.38v29.38l-.07 29.38-39.18-9c3.93-8.83 8-17.62 12.35-26.35s9-17.35 14.07-25.89 10.45-17 16.43-25.21a216.128 216.128 0 0 1 20-24c3.753-3.82 7.753-7.52 12-11.1a131.19 131.19 0 0 1 13.85-10 101.594 101.594 0 0 1 16.08-8.1 87.44 87.44 0 0 1 18.25-5 78.67 78.67 0 0 1 19.45-.65c6.577.63 13.047 2.1 19.25 4.37a99.01 99.01 0 0 1 16.34 7.82c4.88 2.87 9.26 5.82 13.34 8.74 8.16 5.83 15.39 11.4 22.62 16.48s14.38 9.77 21.78 14a212.624 212.624 0 0 0 22.92 11.41c3.93 1.62 7.83 3.35 11.86 4.7 2 .71 4 1.48 6 2.15l9.15 2.82 3.08.81 6.18 1.64 6.26 1.36 3.13.69 3.16.55 6.34 1.11 6.4.87c1.07.14 2.13.32 3.21.42l3.23.33c2.16.2 4.3.48 6.48.63 8.67.7 17.48.94 26.37 1 8.89.06 17.93-.27 27.09-.67l13.87-.66 1.73-.1 1.63-.11 3.26-.23c2.17-.17 4.34-.25 6.52-.5 4.34-.52 8.7-.82 13-1.53l6.53-.93L952 1352c4.34-.71 8.65-1.73 13-2.63 2.17-.43 4.32-1 6.47-1.54l6.46-1.61c4.28-1.23 8.58-2.38 12.84-3.7l6.39-2c1.06-.34 2.13-.66 3.19-1l3.17-1.12a436.829 436.829 0 0 0 49.87-20.75l3.06-1.48 3-1.56 6-3.11c2-1 4-2.12 6-3.2l6-3.25c4-2.2 7.9-4.54 11.86-6.8 3.96-2.26 7.79-4.75 11.69-7.13l11.55-7.4L1124 1276l11.23-8 11.07-8.23c14.69-11.11 28.87-23 42.7-35.3l2.6-2.3 2.55-2.36 5.1-4.73c3.46-3.11 6.77-6.37 10.13-9.57 1.67-1.62 3.38-3.2 5-4.85l4.92-5 5-4.93 4.85-5a929.138 929.138 0 0 0 37.76-41.58c-9.54 16.2-19.9 31.93-31.07 47.2l-4.17 5.73-4.3 5.63-4.33 5.63c-1.45 1.87-3 3.69-4.44 5.54-5.89 7.42-12 14.64-18.32 21.75-12.54 14.26-25.86 27.88-39.81 40.92-3.52 3.22-7.06 6.43-10.62 9.62l-10.88 9.35-11.13 9.1c-3.79 2.94-7.56 5.91-11.39 8.79-3.83 2.88-7.75 5.69-11.67 8.48s-7.9 5.5-11.92 8.17l-6.06 4c-2 1.31-4 2.66-6.1 3.9l-6.19 3.77-3.1 1.88-3.15 1.81a442.227 442.227 0 0 1-52.25 25.92l-3.39 1.42-3.42 1.32-6.87 2.63c-2.28.91-4.62 1.65-6.94 2.47l-7 2.38c-9.4 2.94-18.86 5.77-28.55 7.94l-7.25 1.65-7.33 1.41c-2.45.48-4.89 1-7.36 1.29l-7.41 1.13c-2.47.38-5 .59-7.46.88l-3.74.42-1.86.2-1.77.17-14.16 1.26c-9.53.77-19.21 1.4-29 1.73-9.79.33-19.77.26-29.79-.26-2.49-.1-5-.34-7.52-.5l-3.76-.28c-1.26-.09-2.51-.26-3.77-.39l-7.54-.84-7.53-1.13-3.76-.58-3.75-.73-7.5-1.47-7.45-1.78-3.72-.9-3.68-1.06-7.36-2.16c-2.44-.76-4.84-1.63-7.26-2.45-4.87-1.57-9.58-3.53-14.33-5.42a241.181 241.181 0 0 1-27.6-13.33 287.878 287.878 0 0 1-25.6-16.15c-8.11-5.66-15.75-11.5-22.85-16.53-3.54-2.5-6.93-4.8-10.12-6.68a55.797 55.797 0 0 0-8.93-4.37 31.902 31.902 0 0 0-8-1.89 35.376 35.376 0 0 0-8.54.23 47.577 47.577 0 0 0-17.84 6.77c-3.132 1.9-6.139 4-9 6.29a130.63 130.63 0 0 0-8.74 7.85 184.908 184.908 0 0 0-16.32 18.85c-5.18 6.8-10 14-14.75 21.51a507.117 507.117 0 0 0-25.74 47.21l-43.28 89.06 4.1-98.1 1.23-29.35 1.3-29.35 1.38-29.35 1.47-29.34 5 12.78c-2.88-3.13-5.5-6.29-8-9.52-2.5-3.23-4.77-6.56-6.93-10-4.337-6.83-8.104-14-11.26-21.45a124.454 124.454 0 0 1-10.14-47.6c-.067-8.16.721-16.3 2.35-24.3a110.358 110.358 0 0 1 7.3-23.14 122.527 122.527 0 0 1 27.23-38.71c2.79-2.74 5.75-5.25 8.74-7.72 2.99-2.47 6.1-4.75 9.3-6.89 1.57-1.11 3.22-2.11 4.82-3.16 1.6-1.05 3.27-2 4.94-2.94 3.31-1.93 6.74-3.63 10.19-5.26a125.45 125.45 0 0 1 88.1-7.32 143.18 143.18 0 0 1 20.57 7.52 123.894 123.894 0 0 1 18.84 10.61Z" style="fill-rule:nonzero" transform="translate(-176.535 -383.798) scale(.94136)"/><path d="M669.14 936.51c-.77-18.25-.86-36.47-.7-54.69l.2-13.67.37-13.67c.24-9.12.7-18.23 1.14-27.36 1-18.25 2.33-36.51 4.62-55 .56-4.62 1.21-9.24 1.94-13.92s1.58-9.37 2.62-14.2a109.127 109.127 0 0 1 4.32-15.3c.26-.7.54-1.42.87-2.18l.49-1.13.57-1.2.29-.6.35-.66.72-1.31a32.306 32.306 0 0 1 2-3l.63-.83c.2-.25.54-.63.81-.93l.88-.94c.26-.28.68-.66 1.1-1 .42-.34.84-.71 1.28-1 .513-.406 1.051-.78 1.61-1.12.6-.37 1.23-.73 1.86-1.06.78-.379 1.582-.712 2.4-1 .87-.313 1.763-.561 2.67-.74.991-.19 1.993-.317 3-.38 4.052-.19 8.067.856 11.51 3 .716.431 1.407.901 2.07 1.41.55.43 1 .83 1.49 1.28.49.45 1 .93 1.34 1.34l1 1.13c.31.38.63.79.9 1.17l.65 1c.43.65.86 1.35 1.13 1.86.27.51.61 1.13.87 1.66.44 1 .92 2 1.23 2.82l.5 1.31.41 1.2a84.802 84.802 0 0 1 2.32 8.49c1.14 5.23 1.88 10.06 2.55 14.84 1.31 9.53 2.16 18.74 2.95 27.93 1.53 18.34 2.56 36.44 3.63 54.5 1.07 18.06 2.05 36 2.93 54l2.6 53.72c1.83 35.73 3.62 71.47 8.42 106.79 1.19 8.83 2.54 17.63 4.22 26.36 1.68 8.73 3.58 17.39 5.8 26a250.007 250.007 0 0 0 18.19 49.56 158.86 158.86 0 0 0 13.57 22.27 111.023 111.023 0 0 0 17.4 18.74 84.682 84.682 0 0 0 21.23 13.4 79.821 79.821 0 0 0 24.11 6.12c8.402.72 16.861.38 25.18-1a143.444 143.444 0 0 0 24.8-6.46c4.06-1.43 8.08-3 12.06-4.73 3.98-1.73 7.91-3.57 11.79-5.55 7.79-3.88 15.36-8.29 22.82-12.9 29.75-18.65 57.07-41.45 83.68-65 26.61-23.55 52.5-48.26 77.82-73.65 25.32-25.39 50-51.57 74.86-77.81 12.45-13.1 24.91-26.25 37.64-39.27 12.73-13.02 25.61-26 39.15-38.74 6.79-6.36 13.7-12.69 21.09-18.9 3.69-3.11 7.48-6.22 11.53-9.27 4.29-3.282 8.75-6.327 13.37-9.12a77.337 77.337 0 0 1 8.62-4.5 56.006 56.006 0 0 1 5.71-2.12l.8-.25.91-.24 1.84-.44c.29-.07.61-.14 1-.2l1.09-.19c.74-.11 1.43-.22 2.21-.3.78-.08 1.74-.12 2.61-.14h1.32l1.54.08c1 .08 2 .16 3.11.34 1.11.18 2.35.48 3.49.8.56.15 1.15.34 1.79.58.64.24 1.23.48 1.83.74.6.26 1.2.54 1.79.84.59.3 1.18.66 1.75 1a28.39 28.39 0 0 1 6.18 5.08c.84.933 1.63 1.914 2.36 2.94.65 1 1.29 2 1.84 3s.93 1.86 1.34 2.81c.41.95.66 1.72 1 2.61a36.148 36.148 0 0 1 1.61 8.56c.25 3.913.05 7.843-.6 11.71a86.909 86.909 0 0 1-1.93 8.88 154.842 154.842 0 0 1-5 15c-3.64 9.36-7.59 18.06-11.82 26.51-4.23 8.45-8.57 16.69-13 24.81-4.43 8.12-9.11 16.09-13.78 24-2.35 3.953-4.7 7.89-7.07 11.81l-7.23 11.69c-19.37 31.07-39.73 61.28-60.8 91a2387.855 2387.855 0 0 1-32.16 44.12c-10.92 14.55-22 29-33.42 43.21l-3.79-2.42c16.1-32.68 33-64.82 49.63-97 16.63-32.18 33.43-64.17 49.52-96.29l6-12.06 5.91-12c3.91-8 7.69-16.11 11.39-24.15s7.29-16.09 10.59-24.12c3.3-8.03 6.43-16 8.89-23.71 1.19-3.595 2.19-7.25 3-10.95.31-1.47.54-2.956.69-4.45.12-1.2 0-2.15 0-1.83.03.651.15 1.294.36 1.91.1.34.23.674.37 1 .16.446.36.878.6 1.29.27.53.58 1.038.93 1.52.39.572.83 1.114 1.3 1.62a17.067 17.067 0 0 0 3.54 3c.32.206.66.397 1 .57.32.188.66.358 1 .51.35.159.7.299 1.06.42.37.12.7.22 1 .32.6.194 1.21.335 1.84.42.47.094.94.157 1.42.19h1.17c.3.003.61-.013.91-.05h.78a.605.605 0 0 1 .17 0c.06.01.13.01.19 0h.1c-.19.13-.4.241-.62.33-.75.37-2 1.14-3.31 2-3.04 2.04-5.98 4.236-8.79 6.58-3.08 2.53-6.24 5.23-9.39 8.05-6.3 5.66-12.63 11.69-18.94 17.83-6.31 6.14-12.65 12.42-18.94 18.77l-19 19.1a5220.713 5220.713 0 0 1-38.37 38.4c-25.84 25.53-52.15 50.83-79.18 75.52-27.03 24.69-54.73 48.89-84.35 71-14.79 11.06-30 21.62-45.79 31.49a486.344 486.344 0 0 1-49 27c-16.93 8-34.53 15-53 19.73a176.889 176.889 0 0 1-28.26 4.92c-4.817.44-9.654.61-14.49.53-4.865-.13-9.72-.53-14.54-1.2a100.737 100.737 0 0 1-28.05-8.32 105.322 105.322 0 0 1-24.47-16.11 138.511 138.511 0 0 1-19.43-21 206.767 206.767 0 0 1-15.41-23.63c-9.17-16.33-16.52-33.46-23-50.84-6.48-17.38-11.93-35.09-16.79-52.93a820.68 820.68 0 0 1-21.51-108.38c-2.38-18.2-4.15-36.43-5.45-54.65-1.3-18.22-2.07-36.42-2.74-54.55l-1.76-54c-.34-8.89-.72-17.75-1.38-26.23-.33-4.22-.74-8.39-1.3-12-.27-1.82-.59-3.54-.88-4.7l-.1-.42-.08-.29c-.05-.25-.06-.23-.05-.32.03.052.063.102.1.15.037.048.14.22.27.39.061.088.128.171.2.25.1.15.24.34.37.5.13.16.29.32.44.47.23.263.474.513.73.75.278.248.568.482.87.7.423.369.874.703 1.35 1 .48.27.93.5 1.65.84a11.63 11.63 0 0 0 2 .71c.748.206 1.51.356 2.28.45a18.33 18.33 0 0 0 2.32.06 11.677 11.677 0 0 0 2.21-.29c.63-.129 1.251-.296 1.86-.5a13.837 13.837 0 0 0 1.61-.7c.392-.18.77-.391 1.13-.63.36-.23.74-.52.91-.64.17-.12.42-.33.62-.51l.47-.46.3-.32.24-.31.11-.15c.18-.3.11-.19.1-.26l-.13.17-.07.08-.09.15-.2.32-.22.41c-.15.26-.31.58-.48.93-.66 1.37-1.34 3.08-2 4.88-.66 1.8-1.29 3.73-1.9 5.69-2.43 7.92-4.52 16.48-6.48 25.07-1.96 8.59-3.77 17.37-5.54 26.15-1.77 8.78-3.44 17.63-5.13 26.48-6.74 35.44-13 71.2-20.48 106.89l-4.4-.49Z" style="fill-rule:nonzero" transform="translate(-176.535 -383.798) scale(.94136)"/><path d="M522.55 996.07c-1.15-13.44-1.4-27-1.27-40.5.13-13.5.8-27.06 1.82-40.58a653.608 653.608 0 0 1 11.34-80.65c10.91-53.32 28.67-105.62 54.2-154.43A515.973 515.973 0 0 1 632.86 610a480.933 480.933 0 0 1 55.66-61.76c5-4.79 10.29-9.34 15.51-13.94l8-6.68c2.64-2.26 5.44-4.34 8.16-6.5l4.11-3.22c1.37-1.08 2.79-2.08 4.18-3.13 2.81-2.06 5.59-4.15 8.41-6.18 5.73-4 11.37-8 17.3-11.82 11.78-7.62 23.82-14.63 36.1-21.17 12.28-6.54 24.82-12.58 37.56-18.16a564.133 564.133 0 0 1 38.85-15.3c13.14-4.63 26.49-8.68 39.95-12.36l10.14-2.62c1.69-.45 3.39-.84 5.1-1.21l5.11-1.16 5.12-1.15 2.55-.57 2.58-.5 10.3-2c3.43-.71 6.89-1.2 10.35-1.77 3.46-.57 6.91-1.13 10.37-1.63l10.43-1.33 5.22-.65c1.74-.21 3.49-.33 5.24-.5a492.389 492.389 0 0 1 84.22-1.08c3.52.16 7 .58 10.52.93l10.51 1.09c.87.1 1.75.17 2.62.28l2.62.38 5.23.76 10.46 1.53c6.94 1.19 13.84 2.6 20.77 3.9 6.88 1.53 13.72 3.2 20.59 4.81a476.981 476.981 0 0 1 153.3 69.84c11.69 7.91 22.82 16.61 33.79 25.47 10.77 9.09 21.39 18.37 31.4 28.28 10.01 9.91 19.7 20.1 29 30.64l6.86 8c2.3 2.66 4.45 5.43 6.68 8.14 2.23 2.71 4.44 5.44 6.55 8.24l6.41 8.34a623.818 623.818 0 0 1 23.91 34.58c7.58 11.79 14.66 23.87 21.38 36.15a554.03 554.03 0 0 1 34.65 76.7 589.175 589.175 0 0 1 22.46 80.92c2.74 13.72 5 27.54 6.79 41.42 1.79 13.88 3 27.84 3.79 41.83 1.45 28.014.73 56.098-2.16 84a505.08 505.08 0 0 1-16 82.65 484.96 484.96 0 0 1-29.74 78.64 514.942 514.942 0 0 1-19.83 37c-7.16 12-14.88 23.74-23 35.11-2.07 2.82-4.09 5.68-6.22 8.46l-6.4 8.32-6.61 8.14c-2.2 2.72-4.54 5.32-6.8 8a494.83 494.83 0 0 1-28.79 30.39c-20 19.36-41.6 36.99-64.57 52.7a554.56 554.56 0 0 1-71.65 41.6 618.321 618.321 0 0 1-76.41 30.88 670.77 670.77 0 0 1-39.42 11.59c-13.24 3.45-26.57 6.52-40 9.09-13.43 2.57-26.92 4.75-40.5 6.42-6.79.82-13.59 1.55-20.49 2-3.44.21-6.83.35-10.25.53l-5.11.24-5.12.12c-13.64.4-27.263.21-40.87-.56-13.59-.76-27.14-2-40.59-3.79a523.634 523.634 0 0 1-79.3-17 585.997 585.997 0 0 0 79.95 10.26c13.37.81 26.76 1 40.12.79 3.34 0 6.68-.1 10-.26 3.32-.16 6.67-.24 10-.42l10-.65c3.33-.2 6.64-.57 10-.85l5-.45 5-.57c3.3-.4 6.63-.76 9.9-1.18 6.51-.9 13.07-2 19.6-3.17 13.06-2.43 26.04-5.31 38.93-8.63A657.368 657.368 0 0 0 1178 1411c24.67-9.51 48.7-20.61 71.93-33.25a544.905 544.905 0 0 0 66.35-42.45 486.3 486.3 0 0 0 58.68-51.73c9.01-9.38 17.6-19.13 25.77-29.24 2-2.55 4.1-5 6-7.63l5.88-7.75 5.69-7.88c1.89-2.63 3.67-5.34 5.51-8a461.194 461.194 0 0 0 20.32-33.1 434.06 434.06 0 0 0 17.36-34.73 455.78 455.78 0 0 0 25.62-73.1 478.069 478.069 0 0 0 13.12-76.25c.29-3.21.46-6.44.7-9.66l.33-4.83.16-2.42.09-2.42c.21-6.46.56-12.91.52-19.38 0-3.23.07-6.46 0-9.7l-.23-9.69c0-1.62-.05-3.24-.13-4.85l-.25-4.85c-.18-3.23-.31-6.46-.52-9.69-.55-6.45-.93-12.91-1.7-19.35-.37-3.21-.63-6.44-1.07-9.65l-1.25-9.64c-1.84-12.82-4.06-25.6-6.74-38.29a555.29 555.29 0 0 0-21.41-74.6 515.032 515.032 0 0 0-32.25-70.37c-6.23-11.35-12.81-22.52-19.83-33.4a595.078 595.078 0 0 0-22.11-31.89c-4-5.11-7.79-10.32-11.91-15.29-2-2.5-4-5.06-6.13-7.5l-6.29-7.36-1.57-1.84-1.62-1.79-3.25-3.59-3.24-3.58-1.63-1.79-1.67-1.75-6.69-7L1349 588l-1.73-1.7-3.44-3.38c-9.1-9.12-18.76-17.62-28.53-26-10-8.12-20.06-16.07-30.62-23.36A446.224 446.224 0 0 0 1070 454.75a462.83 462.83 0 0 0-77.29-.58C941.09 458.06 890 470.62 841.54 490a508.637 508.637 0 0 0-70.1 34.38c-5.54 3.27-11 6.9-16.47 10.41-2.72 1.81-5.38 3.68-8.08 5.51-1.34.93-2.7 1.83-4 2.79l-4 2.87c-5.32 3.78-10.45 7.8-15.64 11.76-5.19 3.96-10.19 8.16-15.1 12.46a467.813 467.813 0 0 0-55 56 503.239 503.239 0 0 0-45.36 64.52c-27 45.44-47.1 95.14-61.29 146.62-3.57 12.88-6.65 25.89-9.48 39-1.42 6.54-2.69 13.12-3.93 19.71-1.24 6.59-2.32 13.21-3.33 19.84-2.08 13.26-3.71 26.6-5 40-.667 6.7-1.187 13.41-1.56 20.13-.33 6.6-.63 13.33-.65 20.07Z" style="fill-rule:nonzero" transform="translate(-176.535 -383.798) scale(.94136)"/><path d="m122.642 57.794 2.336 251.123" style="fill:none;stroke:#000;stroke-width:39.96px" transform="rotate(-179.469 153.238 182.05)"/><path d="m122.642 57.794 2.336 251.123" style="fill:none;stroke:#000;stroke-width:39.96px" transform="rotate(-89.467 152.064 152.479)"/></svg>