<svg id="Слой_1" data-name="Слой 1" xmlns="http://www.w3.org/2000/svg" viewBox="0 0 1065.49 1065.49"><defs><style>.cls-1{fill:#050101}</style></defs><path class="cls-1" d="M882.81 1487.3a407.5 407.5 0 0 1-44.26 17.78q-22.62 7.67-46 13.21c-15.57 3.7-31.34 6.75-47.25 9l-6 .89-6 .72c-4 .45-8 1-12 1.37l-12 1.08-3 .26-3 .19-6 .36c-8 .58-16.11.68-24.18.94-4 .07-8.07 0-12.11 0s-8.09 0-12.12-.16c-8.09-.17-16.16-.58-24.23-1.13-4-.23-8.07-.59-12.11-.93s-8-.76-12.08-1.19a601.32 601.32 0 0 1-95.37-18.33l-14.29-4-3.38-14.35a653.78 653.78 0 0 1-14.92-92.01 622.88 622.88 0 0 1-1.29-93 590.8 590.8 0 0 1 12.71-91.7q5-22.55 11.86-44.54a421.35 421.35 0 0 1 15.89-43.11c-.79 15.3-1.72 30.43-2.39 45.49l-.45 11.29-.39 11.25c-.05 3.76-.16 7.5-.27 11.24l-.18 11.2c-.37 29.86.27 59.47 2.17 88.88s4.91 58.59 9.19 87.54 9.85 57.63 16.63 86l-17.67-18.31a873.71 873.71 0 0 0 88.49 19.27 881.19 881.19 0 0 0 90.42 10c7.61.53 15.22.8 22.86 1.14 3.81.14 7.63.21 11.46.32l5.74.16h5.74c15.33.25 30.72 0 46.16-.49s31-1.29 46.55-2.42 31.26-2.52 47.07-3.91ZM1485 1115.63a405.48 405.48 0 0 1 17.78 44.26q7.68 22.63 13.21 46c3.7 15.57 6.75 31.33 9 47.24l.89 6 .72 6c.45 4 1 8 1.37 12l1.09 12 .26 3 .18 3 .36 6c.59 8 .68 16.11.94 24.19.07 4 0 8.07 0 12.11s0 8.08-.15 12.12c-.18 8.08-.59 16.16-1.13 24.23-.24 4-.6 8.07-.93 12.1s-.77 8.06-1.2 12.08a600.89 600.89 0 0 1-18.33 95.37l-4 14.3-14.35 3.37a653.88 653.88 0 0 1-92.08 14.87 624.38 624.38 0 0 1-93 1.3 590.82 590.82 0 0 1-91.7-12.72q-22.54-5-44.54-11.85a423.79 423.79 0 0 1-43.11-15.9c15.31.8 30.43 1.73 45.5 2.39l11.28.45 11.26.39c3.75.06 7.49.17 11.23.27l11.21.18c29.85.37 59.47-.27 88.87-2.16s58.6-4.91 87.54-9.2 57.64-9.84 86-16.63l-18.32 17.68a871.77 871.77 0 0 0 19.27-88.5 881.19 881.19 0 0 0 10-90.42c.53-7.6.8-15.22 1.14-22.85.15-3.82.21-7.64.32-11.47l.16-5.74.06-5.74c.24-15.33 0-30.71-.5-46.16s-1.29-31-2.41-46.55-2.54-31.17-3.89-47.01ZM1113.29 513.48a409.13 409.13 0 0 1 44.26-17.78q22.64-7.67 46-13.21c15.57-3.7 31.34-6.75 47.24-9l6-.89 6-.72c4-.45 8-1 12-1.37l12-1.08 3-.26 3-.19 6-.36c8.05-.58 16.11-.68 24.19-.94 4-.07 8.07 0 12.11 0s8.08 0 12.12.16c8.08.17 16.16.58 24.23 1.13 4 .23 8.07.59 12.1.93s8.06.76 12.08 1.19a600.89 600.89 0 0 1 95.37 18.33l14.3 4 3.38 14.35a655.21 655.21 0 0 1 14.86 92.09 624.34 624.34 0 0 1 1.3 93 590.86 590.86 0 0 1-12.72 91.69q-5 22.56-11.85 44.54a423.79 423.79 0 0 1-15.9 43.11c.8-15.3 1.73-30.43 2.39-45.49l.46-11.29.38-11.25c.06-3.76.17-7.5.27-11.24l.19-11.2c.36-29.86-.28-59.47-2.17-88.88s-4.91-58.59-9.2-87.54-9.84-57.63-16.62-86l17.67 18.31a873.3 873.3 0 0 0-88.5-19.27 884 884 0 0 0-90.42-10c-7.6-.52-15.22-.8-22.85-1.14-3.82-.14-7.64-.21-11.46-.32l-5.74-.16-5.75-.05c-15.33-.25-30.71 0-46.16.49s-31 1.29-46.55 2.42-31.17 2.5-47.01 3.89ZM511.15 885.15a405.54 405.54 0 0 1-17.79-44.26q-7.67-22.64-13.21-46c-3.7-15.57-6.74-31.33-9-47.24l-.88-6-.72-6c-.46-4-1-8-1.38-12l-1.08-12-.26-3-.18-3-.36-6c-.59-8.05-.68-16.11-1-24.18-.07-4 0-8.08 0-12.12s0-8.08.16-12.12c.17-8.08.58-16.16 1.13-24.23.23-4 .6-8.07.93-12.1s.77-8.06 1.19-12.08a602 602 0 0 1 18.33-95.37l4-14.3 14.35-3.37a653.78 653.78 0 0 1 92.09-14.87 624.34 624.34 0 0 1 93-1.3 590.86 590.86 0 0 1 91.69 12.72q22.56 5 44.54 11.85A424.84 424.84 0 0 1 869.85 514c-15.31-.8-30.44-1.72-45.5-2.39l-11.29-.45-11.25-.39c-3.76-.06-7.5-.17-11.23-.27l-11.21-.18c-29.85-.37-59.47.27-88.88 2.16s-58.59 4.91-87.54 9.2-57.63 9.84-86 16.63l18.31-17.68A874.49 874.49 0 0 0 516 609.15a884 884 0 0 0-10 90.42c-.52 7.6-.79 15.22-1.13 22.85-.15 3.82-.22 7.64-.33 11.47l-.15 5.74-.06 5.74c-.24 15.33 0 30.71.49 46.16s1.29 31 2.42 46.55 2.52 31.23 3.91 47.07ZM503.52 1000.48c20.21-3 40.43-5.39 60.65-7.59s40.45-4.13 60.67-5.95l30.34-2.53c10.12-.84 20.23-1.5 30.35-2.26 20.22-1.51 40.46-2.75 60.69-3.91 80.93-4.62 161.88-7.09 242.85-8s162-.16 243 2.68c20.25.72 40.5 1.54 60.76 2.6 10.13.54 20.26 1 30.39 1.61l30.38 1.87c10.13.73 20.26 1.39 30.39 2.17s20.27 1.56 30.4 2.49c20.26 1.78 40.53 3.74 60.8 6.31-20.21 3-40.43 5.42-60.65 7.63-10.11 1.16-20.22 2.11-30.33 3.15s-20.23 1.88-30.34 2.83l-30.34 2.53c-10.11.83-20.23 1.51-30.34 2.27-20.23 1.5-40.46 2.76-60.7 3.91-80.93 4.6-161.88 7.07-242.85 7.94s-162 .11-243-2.75c-20.25-.72-40.5-1.53-60.76-2.6-10.13-.54-20.26-1-30.39-1.61l-30.38-1.86c-20.26-1.38-40.53-2.85-60.79-4.64s-40.53-3.77-60.8-6.29Z" transform="translate(-465.31 -467.65)"/></svg>