<svg viewBox="0 0 1050 1050" xmlns="http://www.w3.org/2000/svg" xml:space="preserve" style="fill-rule:evenodd;clip-rule:evenodd;stroke-linecap:round;stroke-linejoin:round"><path d="M927.73 1354.65c-93.71-7.37-167.89-58.94-187.06-126.93-16.35-58 3.16-143 58-157.32 47.06-12.3 117.08 28.16 144.81 107 12-64.74 65.51-104.67 110.52-99.84 48.44 5.2 78 63.46 80 107 2.34 50.47-40.46 92.33-126.15 174-88.54 84.38-138.68 120.94-180.63 120.16-125.69-2.35-162.86-236.22-315.44-618.32-10-25.08-34.75-86.41-6.17-115.39 10-10.17 26.22-16 41.08-14.43 34 3.48 55.14 44.7 78.82 99.57 47.31 109.58 71.87 197.4 76 196.63 7.33-1.38-7.48-210.48-15-352.89C685 644 682.09 575.68 716 560.36c1.36-.62 11.83-5.17 23.4-2.19 32.66 8.44 41.41 68.69 45.46 95.47C806.13 794.34 833.59 1000 838.7 1000c2.83 0 10.77-63 8.26-157.57-.83-31.3-5.12-153 .23-269.92 1.15-25.17 3.21-67.93 29.15-80.08 12.08-5.66 27.54-4.46 38.85 1.19 31.5 15.73 32.63 66.92 33.13 86.53 3.13 122.44 20.33 398.78 31.55 400.17 6.24.77 29.7-81.11 41.73-193 15.67-145.89 1.43-245.45 45.18-262.22 14-5.35 27.33.23 28.48.69 48.79 19.6 28.5 133.36 28.71 278.83.21 136.94 18.6 303.77 50.26 306.76 23.49 2.23 25.75-86.83 105-168.25 81-83.16 209.48-124.7 233.66-98.13 28.76 31.6-130.45 115-205.44 330.63-19.78 56.86-51.48 160.55-141.84 247.52-10 9.52-20.82 18.15-32.32 25.79-94.8 64-198.6 67.52-261.06 62" style="fill:none;stroke:#0c0303;stroke-width:24px" transform="translate(-479.33 -475.72)"/></svg>