<svg viewBox="0 0 1050 1050" xmlns="http://www.w3.org/2000/svg" xml:space="preserve" style="fill-rule:evenodd;clip-rule:evenodd;stroke-linejoin:round;stroke-miterlimit:2"><path d="M512 15.604C512 6.992 505.008 0 496.396 0H15.604C6.992 0 0 6.992 0 15.604v480.792C0 505.008 6.992 512 15.604 512h480.792c8.612 0 15.604-6.992 15.604-15.604V15.604Z" style="fill:#fff" transform="scale(2.05078)"/><path d="m122.31 84.615-2.85 8.54-11.394 34.185-5.703-5.703L96 115.27 83.27 128l6.367 6.363 26.297 26.297 20.605-61.814 2.845-8.537-17.076-5.695.002.001ZM151 119v18h242v-18H151Zm0 64v18h242v-18H151Zm0 64v18h242v-18H151Zm-28.69 29.615-2.85 8.54-11.394 34.185-5.703-5.703L96 307.27 83.27 320l6.367 6.363 26.297 26.297 20.605-61.814 2.845-8.537-17.076-5.695.002.001ZM151 311v18h242v-18H151Zm0 64v18h242v-18H151Z" style="fill:#4a4a4a;fill-rule:nonzero" transform="scale(2.05078)"/></svg>