<svg version="1.0" xmlns="http://www.w3.org/2000/svg" width="682.667" height="682.667" viewBox="0 0 512 512"><path d="M39 1.4C21.1 6.4 6.1 21.5 1.4 39.5.3 43.6 0 75.9 0 213.6c0 186.8-.5 172.9 6.3 185.9 6.6 12.4 21.5 23.5 35.5 26.4 3.6.8 37.1 1.1 105.8 1.1 108.1 0 104.6.2 107.4-4.9 1.3-2.5 1.3-9.7 0-12.1-2.5-4.6-.1-4.5-107.1-5l-101.6-.5-6.9-3.5c-4.9-2.5-7.9-4.9-10.6-8.5-7.3-9.5-6.8 3.3-6.8-179.6V48.1l2.2-5.8c2.9-7.7 10.4-15.2 18.1-18.1l5.8-2.2h165.3c183.5 0 169.4-.5 179.1 6.8 3.6 2.7 6 5.6 8.5 10.6l3.5 6.9.5 101.6c.5 107 .4 104.6 5 107.1 2.4 1.3 9.6 1.3 12.1 0 5.1-2.8 4.9.7 4.9-107.4 0-68.7-.3-102.2-1.1-105.8-2.9-14-14-28.9-26.4-35.5-13-6.8 1-6.3-186.4-6.2C80.7.2 42.5.5 39 1.4z"/><path d="M303.4 299.8c-3.9 2.5-5.8 7-4.9 11.9.6 3.4 10.3 13.4 87.8 91l87.2 87.3h-61.8c-66.6 0-65.4-.1-69.1 5.2-3.1 4.4-1.1 13.4 3.3 15.8 1.3.7 28.7 1 81.1 1h79.2l2.9-2.9 2.9-2.9V427c0-52.4-.3-79.8-1-81.1-2.4-4.4-11.4-6.4-15.8-3.3-4.7 3.3-4.7 2.4-5.2 68.1l-.5 62.2-85.3-85.2c-47-46.9-86.5-86-87.9-87.1-3.7-2.7-9.2-3.1-12.9-.8z"/></svg>