<svg id="Слой_1" data-name="Слой 1" xmlns="http://www.w3.org/2000/svg" viewBox="0 0 1072.37 1067.32"><defs><style>.cls-2{fill:#070000}</style></defs><path d="M1198.08 1237.76c1.65 20 3 39.9 4.27 59.85s2.41 39.91 3.45 59.86l1.52 29.93 1.4 29.93 1.26 29.93 1.19 29.93.45 11.24-11.88 2.91a1449.82 1449.82 0 0 1-171.28 31.18 1462.14 1462.14 0 0 1-174 10.64 1263.63 1263.63 0 0 1-173.89-12c-57.56-8-114.48-19.61-170.63-33.56l-10.09-2.5 1.76-9.46c7.24-38.9 13.5-78 18.5-117.27q3.74-29.45 6.64-59l1.36-14.78c.45-4.93.93-9.85 1.29-14.79.77-9.87 1.57-19.73 2.25-29.6 5.55-79 6.35-158.26 3.56-237.3s-8.67-157.84-16-236.36c-3.7-39.27-7.85-78.47-12.8-117.57s-10.62-78.1-16.88-117l-3.3-20.51 20.68-5.13a1376.85 1376.85 0 0 1 172.46-31.53 1346.68 1346.68 0 0 1 175.07-8.8c14.61.16 29.22.65 43.81 1.25l21.88 1.18c7.29.43 14.57 1 21.85 1.51l5.46.39 5.46.47 10.9 1c7.28.62 14.53 1.42 21.79 2.2l10.88 1.18 10.86 1.34 10.86 1.34c3.61.46 7.22 1 10.83 1.52a1380.16 1380.16 0 0 1 171.09 35.12l11.74 3.19-.5 11.13-1.45 31.73-1.54 31.74-1.64 31.71-1.72 31.71-1.83 31.74-2 31.73c-1.36 21.15-2.77 42.31-4.42 63.46h-4.5c-1.28-21.18-2.32-42.35-3.31-63.53l-1.4-31.76-1.27-31.76-1.17-31.76-1.03-31.83-1-31.75-.89-31.76 11.24 14.32a1653.31 1653.31 0 0 0-169-24.31l-10.61-1-10.62-.84-10.61-.85-10.58-.61c-7.08-.46-14.16-.94-21.25-1.23l-10.63-.52-5.31-.27-5.32-.19c-28.35-1.17-56.72-1.42-85-1a1683.42 1683.42 0 0 0-337.09 38.93l17.38-25.63q8.09 59.38 13.8 119c3.85 39.74 7 79.55 9.22 119.41 4.41 79.71 4.39 159.6 1.54 239.22-1.39 39.82-3.4 79.59-5.74 119.3s-5.12 79.38-8.26 119l-2.49 29.78-2.58 29.7c-.39 4.95-.87 9.9-1.33 14.85l-1.34 14.84-2.78 29.7c-3.79 39.58-7.77 79.17-12.2 118.75l-8.32-12c56.33 9.65 113.09 16 169.84 19.91s113.54 5.82 170.3 5.84c28.38 0 56.77-.42 85.13-1.71s56.71-3.07 85-5.52q84.92-7.39 169.21-22.21l-11.44 14.15 1-29.94 1-29.94 1.17-29.94 1.28-29.94q1.34-29.94 3-59.88c1.13-20 2.31-39.92 3.81-59.88Z" transform="translate(-486.19 -465.85)" style="fill:#050101"/><path class="cls-2" d="M580.07 1028.27q12.4-2.73 24.86-5.28l12.45-2.53 12.49-2.31c8.32-1.56 16.66-3 25-4.51s16.71-2.73 25.08-4.07l12.55-2 12.58-1.79 25.17-3.54 25.23-3.09 12.63-1.54c4.21-.49 8.42-.88 12.64-1.33 67.43-7.13 135.23-11.52 203.11-12.6s135.85.56 203.63 5.09 135.35 11.94 202.45 22.31l39 6-27.27 27.11q-32.16 32-66.74 61.23t-71.32 55.49c-12.27 8.7-24.61 17.29-37.24 25.43-3.13 2.07-6.3 4.08-9.46 6.11s-6.31 4.07-9.52 6c-6.37 4-12.8 7.83-19.23 11.69q-19.37 11.44-39.18 22c-13.21 7-26.56 13.81-40.13 20.11 12-9 23.9-17.92 35.72-27s23.53-18.19 35.12-27.45c5.79-4.65 11.56-9.28 17.27-14l8.58-7.05c2.85-2.36 5.71-4.7 8.52-7.1q17-14.3 33.57-28.94l16.49-14.75c2.74-2.45 5.43-5 8.15-7.46s5.43-5 8.1-7.51l16.06-15.15q8-7.64 15.81-15.38 31.38-31 60.93-63.56l11.73 33.13q-50-5.13-100.11-9.31l-25-2c-8.35-.66-16.7-1.31-25-1.87l-25.06-1.72c-8.36-.56-16.7-1.21-25.07-1.66q-100.27-6.22-200.8-8.47c-4.19-.12-8.37-.22-12.56-.26l-12.57-.21-25.15-.44-25.15-.23-12.59-.14c-4.19-.06-8.38 0-12.58 0-16.78 0-33.57-.18-50.36 0l-25.2.14-25.21.24-50.46.73-25.25.51-12.64.23-12.63.31c-8.43.21-16.86.44-25.3.56s-16.87.51-25.31.68c-16.98.37-33.9 1.01-50.83 1.15Z" transform="translate(-486.19 -465.85)"/><path class="cls-2" d="M1108.86 1252.35c17.55-10 35.25-19.61 53-29.12s35.46-18.9 53.18-28.3c35.45-18.74 70.92-37.22 106-56.15 17.54-9.46 35-18.94 52.32-28.64s34.41-19.57 51.19-29.73 33.19-20.72 48.54-31.91c3.81-2.81 7.57-5.63 11.22-8.51s7.13-5.82 10.45-8.8 6.47-6 9.25-9a67.81 67.81 0 0 0 6.92-8.67 33.27 33.27 0 0 0 2-3.55 10 10 0 0 0 .69-2c.06-.29 0 0 .09.4a1.14 1.14 0 0 0 .08.33.34.34 0 0 0 0 .26s.09.09.07.08h-.05v-.11a1.52 1.52 0 0 1-.26-.35 1.48 1.48 0 0 0-.3-.45 16 16 0 0 0-1-1.23l-.66-.71c-.19-.24-.55-.5-.81-.76l-.84-.79c-.28-.27-.66-.54-1-.82a83.23 83.23 0 0 0-9.59-6.69c-3.65-2.21-7.58-4.36-11.64-6.43s-8.33-4.05-12.63-6c-8.64-3.92-17.62-7.59-26.75-11.27l-27.87-11c-4.72-1.9-9.49-3.8-14.32-5.89-5-2.16-9.4-4.16-14-6.18-18.16-8.12-36.26-15.87-54.76-23.72-9.26-3.93-18.72-8.09-28.13-12.65-2.35-1.13-4.67-2.31-7-3.49l-7-3.64c-2.32-1.22-4.59-2.54-6.87-3.83-1.14-.65-2.28-1.28-3.41-2l-3.36-2q-13.45-8.09-26-17.37l-6.24-4.7c-2.06-1.58-4.06-3.24-6.08-4.86-4.08-3.2-8-6.62-11.88-10a358.7 358.7 0 0 1-42.37-44.68 376.62 376.62 0 0 1-34.11-50.42c14 14.6 28.25 28.64 43.21 41.68.93.82 1.84 1.66 2.79 2.46l2.86 2.37 5.68 4.76c1.87 1.62 3.84 3.11 5.77 4.64l5.81 4.56 11.81 8.78 6 4.18c2 1.39 4 2.81 6.07 4.1 4.11 2.64 8.11 5.39 12.31 7.85 2.08 1.26 4.13 2.56 6.23 3.77l6.32 3.58c2.09 1.22 4.24 2.33 6.37 3.47s4.23 2.32 6.39 3.39l6.47 3.22c2.14 1.1 4.36 2 6.53 3.07 8.77 4 17.53 7.71 26.6 11s18.3 6.36 27.78 9.53 19.12 6.36 28.7 9.69 19.11 6.82 28.6 10.37c4.71 1.79 9.58 3.66 13.88 5.22 4.48 1.62 9.09 3.25 13.77 4.85 9.35 3.21 18.91 6.44 28.53 9.88s19.31 7.08 29.06 11.11a261.72 261.72 0 0 1 29.54 14.35 123.37 123.37 0 0 1 15.17 10.33c.64.53 1.27 1 1.92 1.58l1.94 1.74c.65.6 1.28 1.11 1.94 1.8l2 2c1.27 1.26 2.59 2.93 3.85 4.48a30.2 30.2 0 0 1 1.88 2.6c.62.92 1.23 1.85 1.82 2.79s1.15 2.15 1.7 3.24l.8 1.65c.26.54.49 1.22.72 1.83.47 1.26.9 2.54 1.3 3.81s.65 2.66.9 4a43.75 43.75 0 0 1-.14 15.35 53.72 53.72 0 0 1-3.88 12.32 74 74 0 0 1-5.27 9.6 111.2 111.2 0 0 1-11.81 14.81c-4.06 4.33-8.18 8.24-12.38 11.91a305.32 305.32 0 0 1-25.58 19.85 606.24 606.24 0 0 1-52.93 32.65c-35.84 19.86-72.48 37.18-109.55 53.29s-74.6 30.84-112.51 44.51c-19 6.81-38 13.41-57.16 19.64s-38.41 12.28-57.88 17.69Z" transform="translate(-486.19 -465.85)"/></svg>