<?xml version="1.0" encoding="UTF-8" standalone="no"?>
<!DOCTYPE svg PUBLIC "-//W3C//DTD SVG 1.1//EN" "http://www.w3.org/Graphics/SVG/1.1/DTD/svg11.dtd">
<svg width="100%" height="100%" viewBox="0 0 1050 1050" version="1.1" xmlns="http://www.w3.org/2000/svg" xmlns:xlink="http://www.w3.org/1999/xlink" xml:space="preserve" xmlns:serif="http://www.serif.com/" style="fill-rule:evenodd;clip-rule:evenodd;stroke-linecap:round;stroke-miterlimit:10;">
    <g transform="matrix(1,0,0,1,-477.34,-471.1)">
        <path d="M1513.06,1071.13C1514.67,1030.93 1521.06,840.13 1478.06,743.91C1470.06,726.01 1455.55,694.73 1425.66,686.19C1396.23,677.78 1368.46,696.12 1364.14,699C1362.31,700.21 1327.26,724.27 1324.38,761.61C1320.94,806.15 1367.67,820.48 1412.24,899.89C1433.12,937.09 1442.75,967.98 1452.98,1000.89C1467.2,1046.66 1484.34,1101.24 1482.5,1168.14C1481.95,1187.92 1478,1272.3 1430.79,1348.68C1348.59,1481.68 1167.4,1538.41 1025.58,1492.17C1007.8,1486.38 876.19,1443.5 829.7,1326.17C826.79,1318.83 825.05,1313.36 823.7,1309.17C796.38,1222.25 807.4,1138.86 807.4,1138.86C811.4,1107.33 819.7,1041.28 864.82,981.17C933.45,889.73 1046.33,866.48 1124.22,850.44C1226.91,829.39 1294,840.44 1295.81,826C1297.92,809.61 1213,782 1140.57,772.89C1111.27,769.23 1066.98,763.89 1011.89,774.94C941.08,789.18 898.08,820.89 893.43,813.75C888.43,806.1 923.78,763.75 971.04,738.17C1101.61,667.48 1254.6,761.79 1271.3,728.98C1282.3,707.39 1229.3,640.57 1156.91,612.92C1063.59,577.28 991.44,628.27 952.44,582.26C933.19,559.55 926.54,518.75 943.32,498.4C955.26,483.93 978.32,480.68 995.4,487.5C1018.77,496.82 1032.17,525.58 1031.13,548.38C1028.82,598.61 957.46,601.89 886.47,683.02C839.22,737.02 803.33,812.73 826.1,845.19C836.81,860.47 857.75,862.04 859.99,878.25C862.4,895.74 840.31,911.41 827.89,922.32C761.41,980.7 794.07,1061.52 740.13,1100.99C705.13,1126.59 648.37,1124.75 620.07,1096.99C576.27,1053.92 610.81,969.4 587.96,960.99C558.7,950.24 465.96,1080.63 496.37,1124.25C511,1145.25 541.37,1127.83 572.01,1154.15C601.01,1179.15 589.44,1208.47 615.62,1269.28C623.02,1286.45 641.01,1328.28 676.26,1359.15C724.26,1401.25 785.62,1406.26 820.36,1405.68" style="fill:none;stroke:rgb(22,2,2);stroke-width:23px;"/>
    </g>
</svg>
