<?xml version="1.0" encoding="UTF-8" standalone="no"?>
<!DOCTYPE svg PUBLIC "-//W3C//DTD SVG 1.1//EN" "http://www.w3.org/Graphics/SVG/1.1/DTD/svg11.dtd">
<svg width="100%" height="100%" viewBox="0 0 1050 1050" version="1.1" xmlns="http://www.w3.org/2000/svg" xmlns:xlink="http://www.w3.org/1999/xlink" xml:space="preserve" xmlns:serif="http://www.serif.com/" style="fill-rule:evenodd;clip-rule:evenodd;stroke-linecap:round;stroke-linejoin:round;">
    <g transform="matrix(1,0,0,1,-479.33,-475.72)">
        <path d="M927.73,1354.65C834.02,1347.28 759.84,1295.71 740.67,1227.72C724.32,1169.72 743.83,1084.72 798.67,1070.4C845.73,1058.1 915.75,1098.56 943.48,1177.4C955.48,1112.66 1008.99,1072.73 1054,1077.56C1102.44,1082.76 1132,1141.02 1134,1184.56C1136.34,1235.03 1093.54,1276.89 1007.85,1358.56C919.31,1442.94 869.17,1479.5 827.22,1478.72C701.53,1476.37 664.36,1242.5 511.78,860.4C501.78,835.32 477.03,773.99 505.61,745.01C515.61,734.84 531.83,729.01 546.69,730.58C580.69,734.06 601.83,775.28 625.51,830.15C672.82,939.73 697.38,1027.55 701.51,1026.78C708.84,1025.4 694.03,816.3 686.51,673.89C685,644 682.09,575.68 716,560.36C717.36,559.74 727.83,555.19 739.4,558.17C772.06,566.61 780.81,626.86 784.86,653.64C806.13,794.34 833.59,1000 838.7,1000C841.53,1000 849.47,937 846.96,842.43C846.13,811.13 841.84,689.43 847.19,572.51C848.34,547.34 850.4,504.58 876.34,492.43C888.42,486.77 903.88,487.97 915.19,493.62C946.69,509.35 947.82,560.54 948.32,580.15C951.45,702.59 968.65,978.93 979.87,980.32C986.11,981.09 1009.57,899.21 1021.6,787.32C1037.27,641.43 1023.03,541.87 1066.78,525.1C1080.78,519.75 1094.11,525.33 1095.26,525.79C1144.05,545.39 1123.76,659.15 1123.97,804.62C1124.18,941.56 1142.57,1108.39 1174.23,1111.38C1197.72,1113.61 1199.98,1024.55 1279.23,943.13C1360.23,859.97 1488.71,818.43 1512.89,845C1541.65,876.6 1382.44,960 1307.45,1175.63C1287.67,1232.49 1255.97,1336.18 1165.61,1423.15C1155.61,1432.67 1144.79,1441.3 1133.29,1448.94C1038.49,1512.94 934.69,1516.46 872.23,1510.94" style="fill:none;stroke:rgb(12,3,3);stroke-width:24px;"/>
    </g>
</svg>
