<?xml version="1.0" encoding="UTF-8" standalone="no"?>
<!DOCTYPE svg PUBLIC "-//W3C//DTD SVG 1.1//EN" "http://www.w3.org/Graphics/SVG/1.1/DTD/svg11.dtd">
<svg width="100%" height="100%" viewBox="0 0 1350 1050" version="1.1" xmlns="http://www.w3.org/2000/svg" xmlns:xlink="http://www.w3.org/1999/xlink" xml:space="preserve" xmlns:serif="http://www.serif.com/" style="fill-rule:evenodd;clip-rule:evenodd;stroke-linecap:round;stroke-linejoin:round;stroke-miterlimit:1.5;">
    <g transform="matrix(1,0,0,1,-327.34,-471.1)">
        <g transform="matrix(1,0,0,1,327.34,471.1)">
            <g transform="matrix(-0.999957,-0.00930192,0.00930192,-0.999957,304.775,365.519)">
                <path d="M122.642,57.794L124.978,308.917" style="fill:none;stroke:black;stroke-width:39.96px;"/>
            </g>
            <g transform="matrix(0.00930192,-0.999957,0.999957,0.00930192,-1.82306,303.118)">
                <path d="M122.642,57.794L124.978,308.917" style="fill:none;stroke:black;stroke-width:39.96px;"/>
            </g>
        </g>
        <g id="scissors-44.svg" transform="matrix(0.00572953,0.926894,-0.926894,0.00572953,1174.98,996.1)">
            <g transform="matrix(1,0,0,1,-512.5,-512)">
                <clipPath id="_clip1">
                    <rect x="0" y="0" width="1025" height="1024"/>
                </clipPath>
                <g clip-path="url(#_clip1)">
                    <path d="M816.026,928.01C877.793,928.01 928.031,877.773 928.031,816.005C928.031,754.237 877.793,704 816.026,704C754.258,704 704.02,754.237 704.02,816.005C704.02,877.773 754.258,928.01 816.026,928.01ZM816.026,736.01C860.119,736.01 896.02,771.891 896.02,816.005C896.02,860.119 860.119,896 816.026,896C771.932,896 736.031,860.119 736.031,816.005C736.031,771.891 771.932,736.01 816.026,736.01ZM599.45,766.403C599.45,812.831 610.877,871.076 626.196,904.028C657.551,983.613 719.258,1024 809.615,1024C927.826,1024 1024.02,927.805 1024.02,809.595C1024.02,694.62 933.847,611.205 809.615,611.205C668.406,611.205 622.326,535.327 620.503,532.193C619.868,531.108 619.131,530.084 618.271,529.162L126.915,5.059C122.429,0.287 115.466,-1.249 109.343,1.126C103.26,3.523 99.226,9.441 99.226,16.015C99.226,324.854 305.172,486.892 455.537,605.164C535.962,668.426 599.45,718.356 599.45,766.403ZM132.628,57.958L593.818,549.868C602.399,563.425 659.231,643.215 809.615,643.215C915.313,643.215 992.01,713.196 992.01,809.615C992.01,910.234 910.193,992.01 809.615,992.01C732.652,992.01 682.394,959.365 655.606,891.412C643.891,866.263 631.439,813.875 631.439,766.423C631.439,702.833 562.545,648.622 475.341,580.014C337.203,471.347 150.467,324.485 132.628,57.958ZM96.031,816.005C96.031,877.773 146.268,928.01 208.036,928.01C269.804,928.01 320.041,877.773 320.041,816.005C320.041,754.237 269.804,704 208.036,704C146.268,704 96.031,754.237 96.031,816.005ZM288.031,816.005C288.031,860.14 252.129,896 208.036,896C163.942,896 128.041,860.119 128.041,816.005C128.041,771.891 163.942,736.01 208.036,736.01C252.129,736.01 288.031,771.891 288.031,816.005ZM660.316,495.063C653.783,501.023 653.312,511.119 659.251,517.652C662.426,521.114 666.747,522.875 671.089,522.875C674.939,522.875 678.81,521.503 681.882,518.676C794.993,415.642 924.815,265.4 924.815,15.995C924.815,9.441 920.822,3.523 914.698,1.106C908.616,-1.229 901.632,0.266 897.126,5.038L547.697,377.713C541.655,384.143 541.962,394.281 548.434,400.302C554.865,406.323 564.982,406.057 571.064,399.606L891.515,57.836C877.875,269.988 762.04,402.35 660.316,495.043L660.316,495.063ZM349.164,604.672C357.396,601.477 361.492,592.22 358.318,584.008C355.144,575.795 345.846,571.617 337.613,574.894C330.854,577.516 323.564,580.751 315.72,584.233C288.707,596.234 255.078,611.205 214.405,611.205C90.173,611.205 -0,694.62 -0,809.595C-0,927.805 96.195,1024 214.405,1024C304.763,1024 366.469,983.613 397.414,904.888C413.614,870.175 416.01,794.173 416.01,751.985C416.01,743.383 440.402,725.012 454.984,714.035C468.46,703.918 482.386,693.432 491.971,682.619C497.828,676.004 497.213,665.887 490.619,660.029C484.024,654.152 473.887,654.787 468.029,661.381C460.534,669.86 447.939,679.342 435.712,688.517C409.129,708.547 384,727.429 384,752.005C384,818.299 378.184,870.441 368.026,892.293C341.627,959.365 291.348,992.01 214.385,992.01C113.807,992.01 31.99,910.193 31.99,809.615C31.99,713.175 108.687,643.215 214.385,643.215C261.878,643.215 300.503,625.992 328.724,613.417C336.015,610.161 342.835,607.15 349.143,604.672L349.164,604.672ZM486.236,543.498C486.236,557.752 497.787,569.283 512.02,569.283C526.254,569.283 537.805,557.732 537.805,543.498C537.805,529.244 526.254,517.714 512.02,517.714C497.787,517.714 486.236,529.265 486.236,543.498Z" style="fill-rule:nonzero;"/>
                </g>
            </g>
        </g>
    </g>
</svg>
