<?xml version="1.0" encoding="UTF-8" standalone="no"?>
<!DOCTYPE svg PUBLIC "-//W3C//DTD SVG 1.1//EN" "http://www.w3.org/Graphics/SVG/1.1/DTD/svg11.dtd">
<svg width="100%" height="100%" viewBox="0 0 1050 1050" version="1.1" xmlns="http://www.w3.org/2000/svg" xmlns:xlink="http://www.w3.org/1999/xlink" xml:space="preserve" xmlns:serif="http://www.serif.com/" style="fill-rule:evenodd;clip-rule:evenodd;stroke-linejoin:round;stroke-miterlimit:2;">
    <g transform="matrix(0.989551,0,0,0.987756,-465.095,-391.462)">
        <path d="M538.24,826.51C540.24,842.51 541.94,858.63 543.51,874.71C545.08,890.79 546.51,906.86 547.86,922.95L551.75,971.21L555.75,1019.46L559.93,1067.69C561.383,1083.76 562.877,1099.83 564.41,1115.88C567.56,1147.98 570.95,1180.06 575.23,1211.98C577.38,1227.98 579.76,1243.86 582.64,1259.65C584.09,1267.54 585.64,1275.4 587.55,1283.14C588.48,1287.01 589.48,1290.86 590.61,1294.63C591.683,1298.37 592.965,1302.04 594.45,1305.63C595.151,1307.32 595.963,1308.96 596.88,1310.54C597.3,1311.23 597.761,1311.9 598.26,1312.54C598.629,1313.02 599.063,1313.45 599.55,1313.81C599.91,1314.02 600,1314.01 599.87,1313.99C599.74,1313.97 599.73,1314.1 600.11,1313.75C600.576,1313.32 600.986,1312.83 601.33,1312.3C601.56,1311.98 601.77,1311.64 601.96,1311.3C602.18,1310.96 602.37,1310.56 602.57,1310.17C604.191,1306.76 605.503,1303.21 606.49,1299.56C607.58,1295.81 608.49,1291.96 609.36,1288.08C612.72,1272.53 615.02,1256.59 617.13,1240.65C621.27,1208.73 624.46,1176.65 627.9,1144.52C631.34,1112.39 634.72,1080.29 638.9,1048.23C643.08,1016.17 647.71,984.16 653.09,952.23C655.81,936.23 658.73,920.34 662.26,904.51C664.02,896.59 665.95,888.7 668.26,880.86C670.444,872.934 673.242,865.191 676.63,857.7C677.53,855.81 678.49,853.95 679.58,852.12C680.672,850.249 681.909,848.467 683.28,846.79C684.732,844.993 686.445,843.422 688.36,842.13C690.5,840.688 693.001,839.873 695.58,839.78C698.156,839.782 700.683,840.495 702.88,841.84C704.854,843.03 706.655,844.487 708.23,846.17C711.129,849.324 713.662,852.796 715.78,856.52C719.846,863.693 723.347,871.172 726.25,878.89C729.25,886.5 731.82,894.22 734.25,901.97C739.14,917.46 743.32,933.12 747.25,948.82C751.18,964.52 754.79,980.28 758.25,996.07C765.17,1027.64 771.56,1059.31 778.04,1090.94C784.52,1122.57 791.04,1154.19 798.54,1185.58C802.28,1201.27 806.26,1216.9 810.72,1232.37C815.18,1247.84 820.1,1263.22 826.72,1277.67C828.344,1281.24 830.198,1284.71 832.27,1288.04C833.274,1289.65 834.387,1291.18 835.6,1292.64C836.708,1294 837.997,1295.2 839.43,1296.21C840.049,1296.63 840.722,1296.97 841.43,1297.21C842.025,1297.39 842.649,1297.46 843.27,1297.42C843.62,1297.42 843.48,1297.42 844.1,1297.23C844.72,1297.04 844.98,1296.93 845.42,1296.78L846.69,1296.32L847.92,1295.75C851.241,1294.14 854.259,1291.97 856.84,1289.33C859.512,1286.62 861.888,1283.64 863.93,1280.43C864.99,1278.83 865.93,1277.15 866.93,1275.43C867.93,1273.71 868.74,1271.99 869.55,1270.21C872.852,1263.06 875.584,1255.67 877.72,1248.09C882.12,1232.87 884.87,1217.09 886.98,1201.3C889.09,1185.51 890.36,1169.49 891.44,1153.5C892.52,1137.51 893.25,1121.5 894.05,1105.5C894.85,1089.5 895.65,1073.44 896.59,1057.41C897.53,1041.38 898.59,1025.34 899.84,1009.3L903.28,961.11L906.59,912.85L908.27,888.69L908.66,882.79L908.82,879.96L909,877L909.49,865C910.09,848.84 910.86,832.43 912.09,816.08C913.32,799.73 914.96,783.37 917.09,767.08C919.22,750.79 921.82,734.45 924.61,718.57C927.4,702.69 930.4,686.57 933.87,670.46C935.61,662.46 937.46,654.38 939.58,646.29C940.65,642.24 941.78,638.17 943.07,634.05C944.379,629.746 945.904,625.51 947.64,621.36C948.686,618.874 949.913,616.467 951.31,614.16C951.71,613.5 952.21,612.77 952.75,612.03C953.382,611.162 954.07,610.337 954.81,609.56C955.88,608.425 957.078,607.418 958.38,606.56C960.58,605.142 963.093,604.284 965.7,604.06C968.7,603.817 971.706,604.453 974.35,605.89C976.035,606.81 977.55,608.01 978.83,609.44C980.273,611.034 981.482,612.825 982.42,614.76C983.644,617.234 984.648,619.81 985.42,622.46C986.656,626.783 987.658,631.169 988.42,635.6C989.18,639.83 989.79,643.99 990.34,648.12C992.49,664.63 993.75,680.86 994.86,697.12C995.97,713.38 996.77,729.55 997.5,745.73C998.93,778.1 999.92,810.42 1000.92,842.73L1003.81,939.6C1004.81,971.88 1005.92,1004.15 1007.29,1036.4C1008.66,1068.65 1010.24,1100.88 1012.39,1133.06C1013.44,1149.15 1014.69,1165.21 1016.12,1181.26C1017.61,1197.26 1019.26,1213.31 1021.6,1229.17C1022.78,1237.08 1024.09,1244.98 1025.85,1252.67C1026.69,1256.46 1027.73,1260.2 1028.98,1263.87C1029.56,1265.59 1030.27,1267.26 1031.1,1268.87C1031.44,1269.53 1031.85,1270.16 1032.31,1270.75C1032.5,1271.02 1032.74,1271.25 1033.01,1271.44C1032.88,1271.39 1032.75,1271.36 1032.61,1271.36C1032.42,1271.36 1032.35,1271.36 1032.38,1271.36C1032.76,1271.12 1033.1,1270.83 1033.38,1270.48C1034.43,1269.19 1035.33,1267.79 1036.05,1266.29C1037.74,1262.86 1039.19,1259.31 1040.38,1255.67C1042.92,1248.24 1044.98,1240.52 1046.87,1232.76C1050.63,1217.21 1053.7,1201.41 1056.55,1185.58C1059.4,1169.75 1061.94,1153.84 1064.33,1137.9C1066.72,1121.96 1068.93,1106 1071.06,1090.02C1073.19,1074.04 1075.2,1058.02 1077.12,1042.02C1081,1010.02 1084.47,977.91 1087.85,945.82C1091.23,913.73 1094.42,881.61 1097.57,849.48C1103.8,785.28 1109.32,721 1115,656.66C1117.88,624.49 1120.82,592.31 1124.12,560.08C1125.78,543.97 1127.53,527.85 1129.51,511.69C1131.49,495.53 1133.67,479.36 1136.51,463.01C1137.97,454.81 1139.51,446.61 1141.78,438.08C1142.87,433.495 1144.39,429.022 1146.32,424.72C1147.59,421.982 1149.16,419.392 1151,417C1152.49,415.073 1154.24,413.364 1156.2,411.92C1157.77,410.782 1159.5,409.879 1161.33,409.24C1163.69,408.422 1166.21,408.138 1168.69,408.41C1170.98,408.66 1173.19,409.36 1175.2,410.47C1176.58,411.273 1177.85,412.258 1178.97,413.4C1179.8,414.249 1180.56,415.173 1181.22,416.16C1181.72,416.936 1182.18,417.737 1182.6,418.56C1183.8,421.122 1184.67,423.828 1185.19,426.61C1185.94,431.061 1186.44,435.552 1186.67,440.06C1187.02,444.33 1187.36,448.5 1187.91,452.59C1188.46,456.68 1189.19,460.7 1190.05,464.68C1193.32,480.68 1195.87,496.68 1198.33,512.68C1199.55,520.68 1200.68,528.68 1201.79,536.68C1202.9,544.68 1203.99,552.68 1205.02,560.68C1209.21,592.75 1213.02,624.84 1216.7,656.94C1220.38,689.04 1223.99,721.15 1227.46,753.26C1234.38,817.5 1240.76,881.783 1246.59,946.11C1249.53,978.27 1252.31,1010.44 1254.92,1042.63C1257.62,1074.8 1260.25,1106.98 1263.6,1139.07C1264.43,1147.07 1265.35,1155.07 1266.31,1163.07C1267.27,1171.07 1268.31,1179.07 1269.61,1186.95C1270.26,1190.89 1270.95,1194.85 1271.87,1198.59C1272.11,1199.51 1272.36,1200.43 1272.64,1201.25C1272.77,1201.59 1272.91,1201.92 1273.07,1202.25C1272.93,1202.48 1273.96,1202.69 1272.01,1201.8C1269.23,1201.97 1270.25,1202.55 1270.14,1202.16C1270.34,1201.86 1270.51,1201.55 1270.66,1201.22C1271.03,1200.46 1271.38,1199.58 1271.71,1198.69C1273.02,1195.08 1274.11,1191.21 1275.16,1187.36C1276.21,1183.51 1277.16,1179.61 1278.16,1175.7C1281.94,1160.07 1285.33,1144.29 1288.69,1128.51C1292.05,1112.73 1295.29,1096.92 1298.54,1081.1C1311.45,1017.83 1324.17,954.49 1338.31,891.41C1345.44,859.88 1352.85,828.41 1361.71,797.2C1363.95,789.41 1366.29,781.64 1368.85,773.91C1371.41,766.18 1374.15,758.49 1377.52,750.91C1379.21,747.015 1381.22,743.262 1383.52,739.69C1384.8,737.679 1386.36,735.86 1388.15,734.29C1389.33,733.273 1390.72,732.528 1392.22,732.11C1393.16,731.861 1394.14,731.793 1395.1,731.91C1396.05,732.026 1396.97,732.318 1397.81,732.77C1399.14,733.506 1400.31,734.507 1401.24,735.71C1401.99,736.677 1402.66,737.708 1403.24,738.79C1404.29,740.747 1405.17,742.783 1405.9,744.88C1407.26,748.841 1408.4,752.878 1409.29,756.97C1411.09,764.97 1412.37,773.08 1413.49,781.14C1414.61,789.2 1415.49,797.27 1416.32,805.34C1417.93,821.48 1419.13,837.62 1420.17,853.77C1422.17,886.06 1423.57,918.36 1424.67,950.66C1425.77,982.96 1426.6,1015.25 1427.35,1047.54L1429.44,1144.4C1429.81,1160.53 1430.23,1176.66 1430.68,1192.79C1431.15,1208.91 1431.68,1225.03 1432.47,1241.1C1432.87,1249.1 1433.34,1257.16 1434.01,1265.1C1434.35,1269.1 1434.74,1273.04 1435.27,1276.91C1435.54,1278.84 1435.85,1280.75 1436.27,1282.53C1436.44,1283.34 1436.66,1284.13 1436.92,1284.91C1436.99,1285.11 1437.07,1285.3 1437.17,1285.49C1437.17,1285.76 1437.17,1284.39 1434.17,1284.28C1431.7,1284.93 1432.17,1285.51 1432.09,1285.28C1432.01,1285.05 1432.28,1284.92 1432.42,1284.6C1432.69,1283.93 1432.97,1283.08 1433.22,1282.21C1433.71,1280.45 1434.14,1278.56 1434.53,1276.65C1435.3,1272.82 1435.93,1268.88 1436.53,1264.94C1437.69,1257.04 1438.65,1249.06 1439.53,1241.07C1443.06,1209.07 1445.75,1176.89 1448.45,1144.73L1456.34,1048.19C1458.99,1016 1461.62,983.8 1464.61,951.63C1467.6,919.46 1470.69,887.29 1474.69,855.19C1476.69,839.19 1478.87,823.11 1481.82,807.14C1482.58,803.14 1483.4,799.14 1484.33,795.19C1485.24,791.161 1486.4,787.193 1487.81,783.31C1488.19,782.288 1488.62,781.287 1489.1,780.31C1489.61,779.229 1490.26,778.22 1491.03,777.31C1491.54,776.72 1492.16,776.243 1492.87,775.91C1493.83,775.499 1494.91,775.499 1495.87,775.91C1496.6,776.225 1497.25,776.712 1497.76,777.33C1498.17,777.8 1498.54,778.309 1498.85,778.85C1499.88,780.755 1500.7,782.767 1501.3,784.85C1501.93,786.85 1502.42,788.85 1502.88,790.85C1504.67,798.85 1505.88,806.85 1506.88,814.85C1507.88,822.85 1508.76,830.92 1509.54,838.97C1511.07,855.06 1512.23,871.17 1513.25,887.29L1512.17,887.38C1510.66,871.3 1509.05,855.24 1507.17,839.22C1506.17,831.22 1505.17,823.22 1503.96,815.22C1502.75,807.22 1501.39,799.32 1499.49,791.59C1499,789.66 1498.49,787.74 1497.86,785.9C1497.31,784.107 1496.58,782.377 1495.66,780.74C1495.37,780.212 1494.97,779.757 1494.48,779.41C1494.41,779.41 1494.58,779.41 1494.48,779.41C1494.29,779.534 1494.11,779.689 1493.97,779.87C1493.45,780.527 1493.01,781.246 1492.67,782.01C1492.27,782.861 1491.91,783.733 1491.6,784.62C1490.33,788.359 1489.3,792.173 1488.51,796.04C1487.68,799.94 1486.95,803.88 1486.28,807.84C1483.62,823.68 1481.74,839.69 1479.98,855.71C1476.58,887.78 1473.82,919.94 1471.26,952.11C1468.7,984.28 1466.26,1016.48 1463.96,1048.69L1460.43,1097L1456.77,1145.31C1455.52,1161.41 1454.19,1177.51 1452.77,1193.62C1451.37,1209.72 1449.9,1225.83 1448.12,1241.93C1447.23,1249.99 1446.27,1258.04 1445.12,1266.12C1444.52,1270.12 1443.88,1274.2 1443.06,1278.28C1442.65,1280.28 1442.2,1282.38 1441.6,1284.51C1441.29,1285.65 1440.91,1286.77 1440.47,1287.86C1440.19,1288.55 1439.86,1289.22 1439.47,1289.86C1438.83,1290.48 1438.66,1291.98 1435.16,1292.8C1431.05,1292.8 1430.32,1290.44 1429.8,1289.9C1429.39,1289.21 1429.06,1288.49 1428.8,1287.73C1428.39,1286.61 1428.06,1285.46 1427.8,1284.29C1427.32,1282.12 1426.99,1280.04 1426.7,1277.97C1426.12,1273.84 1425.7,1269.77 1425.37,1265.7C1424.67,1257.57 1424.19,1249.48 1423.77,1241.39C1422.15,1209.03 1421.44,1176.73 1420.71,1144.39L1418.71,1047.53C1418.05,1015.25 1417.32,982.98 1416.33,950.73C1415.34,918.48 1414.12,886.23 1412.24,854.06C1411.24,837.97 1410.16,821.9 1408.64,805.9C1407.87,797.9 1407.01,789.9 1405.95,781.97C1404.89,774.04 1403.67,766.13 1401.95,758.42C1401.15,754.62 1400.12,750.87 1398.88,747.19C1398.29,745.47 1397.58,743.798 1396.73,742.19C1396.37,741.487 1395.94,740.818 1395.46,740.19C1395.16,739.792 1394.79,739.453 1394.36,739.19C1394.12,739.09 1394.3,739.12 1394.09,739.14C1393.65,739.291 1393.24,739.533 1392.9,739.85C1391.66,740.954 1390.58,742.227 1389.69,743.63C1387.62,746.856 1385.81,750.24 1384.27,753.75C1381.05,760.92 1378.32,768.45 1375.76,776.02C1373.2,783.59 1370.86,791.29 1368.61,799.02C1359.61,829.91 1352.12,861.3 1344.86,892.72C1337.6,924.14 1330.86,955.72 1324.18,987.31L1304.49,1082.15C1301.22,1097.97 1297.95,1113.78 1294.58,1129.59C1291.21,1145.4 1287.79,1161.19 1283.98,1176.94C1282.98,1180.88 1281.98,1184.81 1280.98,1188.74C1279.98,1192.67 1278.81,1196.6 1277.36,1200.57C1276.98,1201.57 1276.59,1202.57 1276.08,1203.63C1275.79,1204.22 1275.46,1204.79 1275.08,1205.33C1274.41,1205.69 1274.74,1207.33 1270.89,1207.39C1267.96,1206.17 1268.51,1205.33 1267.89,1204.72C1267.62,1204.15 1267.38,1203.57 1267.17,1202.97C1266.8,1201.88 1266.52,1200.84 1266.26,1199.81C1265.26,1195.72 1264.56,1191.71 1263.9,1187.68C1261.37,1171.61 1259.54,1155.56 1257.68,1139.49C1250.44,1075.25 1243.68,1011.02 1237.77,946.7C1231.77,882.4 1226.27,818.06 1220.16,753.78C1214.05,689.5 1207.38,625.27 1197.97,561.45C1195.59,545.45 1193.06,529.58 1190.2,513.73C1187.34,497.88 1184.2,482.11 1180.48,466.54C1179.61,462.639 1178.46,458.806 1177.04,455.07C1175.6,451.335 1173.87,447.715 1171.88,444.24L1170.35,441.67C1169.82,440.83 1169.27,440.01 1168.73,439.19C1167.72,437.669 1166.62,436.207 1165.44,434.81C1164.61,433.735 1163.57,432.84 1162.38,432.18C1162.17,432.04 1162.07,432.18 1161.95,432.18C1161.95,432.39 1161.82,432.37 1162.07,432.79C1162.41,433.279 1162.86,433.686 1163.38,433.98C1164.47,434.677 1165.7,435.115 1166.98,435.26C1168.46,435.429 1169.95,435.296 1171.38,434.87C1172.27,434.59 1173.11,434.207 1173.91,433.73C1174.91,433.11 1175.06,433.01 1175.12,433.17C1174.95,434.168 1174.7,435.149 1174.35,436.1C1173.52,438.85 1172.35,442.26 1171.46,445.77C1169.58,452.87 1168.05,460.52 1166.66,468.21C1163.88,483.66 1161.66,499.5 1159.52,515.36C1157.38,531.22 1155.52,547.2 1153.58,563.18C1149.8,595.18 1146.22,627.23 1142.58,659.31C1135.19,723.47 1127.49,787.7 1118.58,851.78C1114.18,883.78 1109.7,915.78 1105.14,947.78C1100.58,979.78 1095.77,1011.85 1090.7,1044C1088.22,1060 1085.69,1075.97 1083.11,1091.91C1080.53,1107.85 1077.83,1123.8 1075.02,1139.76C1072.21,1155.7 1069.31,1171.63 1066.14,1187.52C1062.97,1203.41 1059.6,1219.27 1055.55,1235.06C1053.49,1242.95 1051.31,1250.83 1048.55,1258.66C1047.15,1262.68 1045.48,1266.6 1043.55,1270.39C1042.47,1272.51 1041.15,1274.5 1039.6,1276.3C1038.57,1277.5 1037.31,1278.49 1035.89,1279.19C1034.91,1279.66 1033.84,1279.92 1032.75,1279.96C1031.6,1280 1030.46,1279.78 1029.41,1279.3C1027.88,1278.57 1026.54,1277.48 1025.52,1276.13C1024.76,1275.12 1024.09,1274.05 1023.52,1272.92C1022.5,1270.93 1021.63,1268.86 1020.92,1266.74C1019.6,1262.76 1018.49,1258.71 1017.61,1254.61C1015.82,1246.55 1014.5,1238.5 1013.33,1230.45C1011.05,1214.34 1009.33,1198.23 1007.83,1182.11C1006.33,1165.99 1005.05,1149.87 1003.83,1133.75C999.1,1069.25 995.53,1004.75 991.48,940.26C987.43,875.77 983.3,811.32 977.57,747.15C976.14,731.15 974.57,715.15 972.82,699.15C971.07,683.15 969.04,667.32 966.32,651.91C965.64,648.06 964.89,644.26 964.06,640.57C963.305,637.072 962.364,633.617 961.24,630.22C960.847,628.996 960.341,627.811 959.73,626.68C959.59,626.4 959.38,626.29 959.96,626.99C960.576,627.656 961.299,628.214 962.1,628.64C963.864,629.578 965.858,629.997 967.85,629.85C969.449,629.735 970.995,629.226 972.35,628.37C972.814,628.087 973.244,627.752 973.63,627.37C973.78,627.22 973.82,627.17 973.78,627.25C973.74,627.33 973.68,627.43 973.57,627.65C972.953,628.845 972.412,630.077 971.95,631.34C970.8,634.34 969.75,637.97 968.78,641.58C967.81,645.19 966.92,648.97 966.08,652.76C964.4,660.35 962.93,668.12 961.56,675.93C958.83,691.56 956.48,707.39 954.26,723.27C952.04,739.15 949.98,754.87 948.41,770.7C946.84,786.53 945.66,802.32 944.85,818.19C944.04,834.06 943.6,849.94 943.25,866.05L943,878.3L942.9,881.42L942.76,884.64L942.43,890.83L941,915C940.06,931.13 939.11,947.27 938.06,963.41C937.01,979.55 935.9,995.7 934.71,1011.86C933.52,1028.02 932.08,1044.18 930.19,1060.32C926.464,1092.72 921.087,1124.9 914.08,1156.75C912.333,1164.75 910.487,1172.72 908.54,1180.66C906.593,1188.6 904.517,1196.53 902.31,1204.45C900.1,1212.34 897.83,1220.23 895.31,1228.04C892.79,1235.85 890.11,1243.64 887.06,1251.31C885.51,1255.14 883.95,1258.96 882.19,1262.71C881.36,1264.6 880.41,1266.46 879.51,1268.33C878.61,1270.2 877.62,1272.03 876.58,1273.84C872.58,1281.12 867.74,1288.19 861.4,1294.09C858.186,1297.1 854.496,1299.55 850.48,1301.35L848.94,1302L847.34,1302.52C846.83,1302.68 846.24,1302.89 845.79,1303C845.095,1303.21 844.376,1303.33 843.65,1303.36C842.254,1303.42 840.859,1303.21 839.54,1302.75C838.347,1302.3 837.217,1301.69 836.18,1300.95C834.339,1299.58 832.696,1297.97 831.3,1296.15C829.979,1294.46 828.776,1292.69 827.7,1290.84C825.598,1287.26 823.727,1283.55 822.1,1279.73C818.82,1272.2 816.17,1264.5 813.65,1256.73C811.13,1248.96 808.9,1241.22 806.77,1233.41C802.46,1217.8 798.63,1202.09 794.89,1186.41C780.13,1123.48 767.11,1060.19 752.41,997.36C748.73,981.66 744.97,965.98 740.94,950.36C736.91,934.74 732.67,919.24 727.87,903.92C725.46,896.27 722.87,888.69 720.02,881.24C717.269,873.827 713.987,866.621 710.2,859.68C708.371,856.353 706.184,853.234 703.68,850.38C701.23,847.7 698.31,845.66 695.58,845.67C694.102,845.715 692.666,846.168 691.43,846.98C689.982,847.928 688.685,849.088 687.58,850.42C686.357,851.84 685.253,853.358 684.28,854.96C683.28,856.58 682.34,858.29 681.47,860.03C678.036,867.2 675.203,874.642 673,882.28C670.7,889.93 668.75,897.73 667,905.56C663.52,921.25 660.8,937.14 658.44,953.07C653.72,984.95 650.53,1017.07 647.35,1049.17C644.17,1081.27 641.03,1113.4 637.64,1145.53C634.25,1177.66 630.64,1209.77 626.02,1241.85C624.86,1249.85 623.63,1257.85 622.27,1265.85C620.91,1273.85 619.42,1281.85 617.6,1289.85C616.68,1293.85 615.71,1297.85 614.52,1301.85C613.36,1305.98 611.834,1309.99 609.96,1313.85C609.69,1314.36 609.44,1314.85 609.12,1315.38C608.816,1315.91 608.482,1316.42 608.12,1316.91C607.353,1318.06 606.434,1319.11 605.39,1320.02C603.944,1321.3 602.108,1322.06 600.18,1322.17C598.272,1322.23 596.395,1321.67 594.84,1320.56C593.682,1319.75 592.647,1318.77 591.77,1317.66C591.022,1316.71 590.337,1315.7 589.72,1314.66C588.611,1312.75 587.628,1310.77 586.78,1308.73C585.18,1304.85 583.797,1300.89 582.64,1296.86C581.46,1292.86 580.43,1288.93 579.48,1284.95C577.57,1276.95 575.97,1269.01 574.48,1261.03C571.48,1245.03 569.11,1229.03 566.87,1213.03C562.45,1180.95 558.87,1148.81 555.63,1116.65C554.01,1100.57 552.497,1084.48 551.09,1068.38C549.683,1052.28 548.35,1036.18 547.09,1020.07L545.29,996L543.58,971.83C542.46,955.71 541.35,939.6 540.43,923.47C539.51,907.34 538.73,891.21 538.15,875.06C537.57,858.91 537.15,842.76 537.15,826.58L538.24,826.51Z" style="fill:rgb(28,2,2);fill-rule:nonzero;"/>
    </g>
    <g transform="matrix(0.989551,0,0,0.987756,-465.095,-391.462)">
        <path d="M487.85,847.68C489.158,843.456 490.83,839.354 492.85,835.42C493.888,833.405 495.164,831.522 496.65,829.81C497.429,828.914 498.331,828.133 499.33,827.49C500.4,826.797 501.628,826.387 502.9,826.3C504.198,826.265 505.482,826.587 506.61,827.23C507.661,827.829 508.618,828.581 509.45,829.46C511.004,831.148 512.347,833.018 513.45,835.03C515.564,838.949 517.36,843.033 518.82,847.24C521.693,855.566 524.136,864.034 526.14,872.61C528.22,881.14 530.02,889.74 531.71,898.34C538.39,932.79 543.42,967.48 548.29,1002.16C553.16,1036.84 557.63,1071.58 562.34,1106.25C567.05,1140.92 571.86,1175.57 577.67,1209.99C580.59,1227.19 583.76,1244.35 587.67,1261.27C589.61,1269.72 591.67,1278.12 594.21,1286.27C595.46,1290.37 596.82,1294.42 598.34,1298.34C599.776,1302.15 601.536,1305.83 603.6,1309.34C604.516,1310.9 605.602,1312.36 606.84,1313.68C607.588,1314.59 608.592,1315.24 609.72,1315.57C610.029,1315.63 610.349,1315.62 610.65,1315.52C610.868,1315.44 611.078,1315.35 611.28,1315.24C611.552,1315.12 611.807,1314.96 612.04,1314.77C613.343,1313.75 614.488,1312.54 615.44,1311.18C617.738,1307.88 619.698,1304.37 621.29,1300.68C623.01,1296.88 624.54,1292.91 625.96,1288.88C631.61,1272.72 635.79,1255.8 639.74,1238.88C647.51,1204.94 653.66,1170.52 659.69,1136.1C662.683,1118.88 665.58,1101.64 668.38,1084.37L676.83,1032.56C682.39,998.1 688,963.53 693.88,929C699.76,894.47 705.88,860 713.26,825.59C716.96,808.41 720.91,791.27 725.86,774.27C728.294,765.668 731.243,757.219 734.69,748.97C736.486,744.635 738.717,740.494 741.35,736.61C742.876,734.375 744.77,732.414 746.95,730.81C747.619,730.35 748.329,729.952 749.07,729.62C749.879,729.232 750.737,728.957 751.62,728.8C752.548,728.616 753.497,728.562 754.44,728.64C755.348,728.716 756.243,728.911 757.1,729.22C757.902,729.475 758.676,729.81 759.41,730.22C760.061,730.632 760.688,731.079 761.29,731.56C762.353,732.462 763.324,733.467 764.19,734.56C765.728,736.498 767.068,738.585 768.19,740.79C770.289,744.887 772.078,749.135 773.54,753.5C776.361,761.954 778.727,770.553 780.63,779.26C784.53,796.51 787.44,813.85 790.07,831.26C795.25,866 799.01,900.85 802.49,935.71C805.97,970.57 808.93,1005.47 811.93,1040.35C814.93,1075.23 818.03,1110.1 821.59,1144.91C823.39,1162.31 825.28,1179.7 827.44,1197.05C828.44,1205.73 829.67,1214.38 830.89,1223.05C832.11,1231.72 833.46,1240.31 834.98,1248.88C835.74,1253.16 836.56,1257.42 837.44,1261.66C838.34,1265.89 839.22,1270.12 840.52,1274.19C841.149,1276.2 841.88,1278.17 842.71,1280.11C843.466,1281.93 844.404,1283.67 845.51,1285.31C845.77,1285.65 846.03,1285.99 846.29,1286.31C846.502,1286.55 846.744,1286.76 847.01,1286.94C847.23,1287.13 847.36,1287.08 847.35,1286.99C847.34,1286.9 846.98,1286.48 846.15,1286.2C845.329,1285.97 844.457,1286 843.65,1286.27C843.07,1286.46 842.89,1286.56 842.81,1286.49C842.73,1286.42 842.81,1285.73 842.97,1285.02C843.25,1283.57 843.49,1281.63 843.66,1279.71C843.83,1277.79 843.93,1275.71 843.99,1273.64C844.16,1269.5 844.24,1265.26 844.46,1261.01C844.68,1256.76 844.98,1252.51 845.46,1248.25L846.99,1235.44C848.99,1218.28 850.59,1200.94 852.15,1183.57L856.73,1131.38C859.81,1096.5 862.73,1061.76 865.66,1026.93C868.59,992.1 871.12,957.27 873.66,922.39C878.6,852.63 882.95,782.67 888.15,712.7C890.77,677.72 893.673,642.753 896.86,607.8C900.2,572.8 903.67,538.07 907.42,503.14C909.32,485.67 911.25,468.21 913.85,450.56C914.5,446.14 915.21,441.7 916.03,437.22C916.85,432.74 917.77,428.22 919.03,423.44C919.701,420.862 920.529,418.327 921.51,415.85C922.142,414.247 922.905,412.698 923.79,411.22C924.424,410.156 925.154,409.152 925.97,408.22C927.284,406.696 928.872,405.431 930.65,404.49C933.506,402.944 936.805,402.418 940,403C942.617,403.546 945.037,404.794 947,406.61C948.09,407.606 949.063,408.723 949.9,409.94C950.53,410.88 951.03,411.74 951.46,412.54C952.186,413.93 952.828,415.362 953.38,416.83C953.9,418.16 954.31,419.39 954.71,420.63C956.22,425.5 957.24,430.02 958.19,434.54C959.14,439.06 959.92,443.48 960.66,447.9C962.13,456.75 963.38,465.53 964.54,474.29C966.86,491.81 968.84,509.29 970.72,526.74C974.47,561.65 977.82,596.52 981.19,631.38L991.19,735.94C1004.52,875.273 1018.89,1014.47 1034.28,1153.53C1038.18,1188.28 1042.25,1222.99 1046.48,1257.66C1050.78,1292.3 1055.25,1326.94 1060.59,1361.18C1061.94,1369.73 1063.34,1378.25 1064.87,1386.67C1066.4,1395.09 1068.06,1403.46 1070.01,1411.32C1070.86,1414.92 1071.92,1418.48 1073.17,1421.96C1073.44,1422.67 1073.7,1423.28 1073.9,1423.69C1074.1,1424.1 1074.27,1424.31 1073.98,1423.89C1073.62,1423.39 1073.2,1422.94 1072.74,1422.53C1071.42,1421.34 1069.87,1420.43 1068.19,1419.86C1065.7,1419.02 1063.02,1418.89 1060.46,1419.48C1058.64,1419.9 1056.94,1420.71 1055.46,1421.84C1054.84,1422.31 1054.28,1422.84 1053.79,1423.44C1053.66,1423.58 1053.55,1423.74 1053.45,1423.9C1053.35,1424.06 1053.62,1423.57 1053.82,1423.07C1054.39,1421.68 1054.87,1420.25 1055.27,1418.8C1056.27,1415.41 1057.11,1411.48 1057.89,1407.5C1059.43,1399.5 1060.68,1391.04 1061.82,1382.57C1062.96,1374.1 1063.96,1365.5 1064.9,1356.9C1066.8,1339.67 1068.46,1322.33 1070.05,1304.96C1076.38,1235.44 1082.05,1165.6 1088.41,1095.86C1091.55,1060.97 1094.8,1026.09 1098.17,991.23C1101.54,956.37 1105.25,921.543 1109.31,886.75C1113.31,851.96 1117.52,817.19 1121.64,782.41C1125.76,747.63 1129.81,712.82 1134.13,678.05C1136.26,660.66 1138.52,643.28 1140.78,625.89C1143.04,608.5 1145.38,591.13 1147.78,573.76C1150.18,556.39 1152.78,539.03 1155.45,521.68C1158.12,504.33 1161,486.98 1164.26,469.68C1165.89,461.01 1167.64,452.36 1169.64,443.68C1170.64,439.35 1171.72,435.03 1172.95,430.68C1174.16,426.221 1175.64,421.842 1177.4,417.57C1177.88,416.45 1178.4,415.33 1179.02,414.17C1179.7,412.888 1180.5,411.673 1181.41,410.54C1182.04,409.791 1182.75,409.12 1183.54,408.54C1184.71,407.665 1186.09,407.117 1187.54,406.95C1189.18,406.792 1190.82,407.168 1192.23,408.02C1193.16,408.593 1193.99,409.308 1194.7,410.14C1195.66,411.307 1196.48,412.59 1197.12,413.96C1197.71,415.16 1198.12,416.31 1198.6,417.45C1199.44,419.73 1200.08,421.95 1200.66,424.17C1202.79,432.845 1204.46,441.628 1205.66,450.48C1208.17,467.96 1209.9,485.42 1211.53,502.89C1213.16,520.36 1214.53,537.82 1215.79,555.3C1220.94,625.18 1224.79,695.1 1228.41,765.02L1239.09,974.79C1240.91,1009.75 1242.81,1044.7 1244.8,1079.65C1246.8,1114.59 1248.9,1149.53 1251.43,1184.43C1252.69,1201.88 1254.05,1219.31 1255.67,1236.72C1256.49,1245.41 1257.37,1254.11 1258.41,1262.72C1258.93,1267.05 1259.49,1271.37 1260.14,1275.66C1260.79,1279.95 1261.51,1284.23 1262.47,1288.36C1262.9,1290.33 1263.49,1292.26 1264.25,1294.12C1264.38,1294.43 1264.55,1294.72 1264.75,1294.99C1264.4,1294.8 1264.01,1294.71 1263.61,1294.73C1263.22,1294.83 1263.35,1294.87 1263.52,1294.66C1263.75,1294.37 1263.96,1294.06 1264.14,1293.74C1265.06,1291.96 1265.8,1290.09 1266.36,1288.17C1266.99,1286.17 1267.54,1284.09 1268.05,1282C1270.05,1273.63 1271.62,1265 1273.05,1256.45C1275.93,1239.24 1278.35,1221.92 1280.71,1204.59C1290.01,1135.25 1298.26,1065.71 1307.03,996.25C1309.2,978.883 1311.42,961.513 1313.69,944.14C1316.01,926.78 1318.34,909.42 1321.31,892.06C1322.07,887.72 1322.88,883.38 1323.83,879.06C1324.73,874.614 1325.94,870.236 1327.46,865.96C1327.89,864.809 1328.4,863.687 1328.97,862.6C1329.63,861.252 1330.56,860.046 1331.68,859.05C1332.5,858.336 1333.49,857.843 1334.56,857.62C1335.73,857.424 1336.93,857.566 1338.02,858.03C1339.51,858.759 1340.79,859.857 1341.73,861.22C1343.12,863.244 1344.26,865.426 1345.14,867.72C1346,869.88 1346.73,872.02 1347.39,874.17C1349.85,882.69 1351.88,891.332 1353.45,900.06C1355.1,908.71 1356.53,917.38 1357.87,926.06C1363.15,960.76 1367.21,995.55 1371.25,1030.33C1375.29,1065.11 1379.14,1099.89 1383.52,1134.6C1385.72,1151.95 1388.02,1169.28 1390.71,1186.53C1392.07,1195.16 1393.52,1203.76 1395.18,1212.31C1396.75,1220.83 1398.78,1229.26 1401.25,1237.57C1401.89,1239.62 1402.6,1241.63 1403.39,1243.57C1404.12,1245.44 1405.06,1247.22 1406.19,1248.88C1406.62,1249.52 1407.17,1250.06 1407.81,1250.48C1408.11,1250.7 1408.51,1250.7 1408.81,1250.48C1409.46,1250.06 1410.01,1249.51 1410.43,1248.86C1410.99,1248.06 1411.5,1247.22 1411.93,1246.35C1413.71,1242.51 1415.15,1238.51 1416.22,1234.41C1417.37,1230.26 1418.36,1226.03 1419.22,1221.78C1422.77,1204.78 1425.22,1187.43 1427.44,1170.1C1431.8,1135.42 1435.1,1100.57 1438.04,1065.7C1440.98,1030.83 1443.62,996 1446,961L1447.36,961.09C1445.48,996.05 1443.28,1030.99 1440.77,1065.92C1439.49,1083.38 1438.09,1100.83 1436.56,1118.28C1435.01,1135.72 1433.31,1153.16 1431.23,1170.57C1429.15,1187.98 1426.84,1205.36 1423.39,1222.64C1422.51,1226.96 1421.54,1231.26 1420.39,1235.55C1419.29,1239.93 1417.78,1244.21 1415.9,1248.32C1415.37,1249.41 1414.76,1250.46 1414.06,1251.45C1413.27,1252.64 1412.22,1253.63 1411,1254.36C1410.2,1254.82 1409.31,1255.07 1408.39,1255.09C1407.47,1255.08 1406.58,1254.85 1405.77,1254.41C1404.54,1253.69 1403.47,1252.71 1402.65,1251.54C1401.29,1249.6 1400.16,1247.51 1399.28,1245.31C1398.4,1243.2 1397.64,1241.09 1396.96,1238.96C1394.38,1230.5 1392.26,1221.91 1390.59,1213.23C1388.85,1204.61 1387.34,1195.96 1385.92,1187.31C1383.1,1169.99 1380.67,1152.63 1378.37,1135.31C1373.81,1100.57 1369.78,1065.79 1365.59,1031.04C1363.5,1013.67 1361.35,996.307 1359.14,978.96C1356.91,961.61 1354.57,944.29 1351.86,927.04C1350.5,918.42 1349.05,909.82 1347.4,901.28C1345.83,892.783 1343.83,884.372 1341.4,876.08C1340.77,874.08 1340.08,872.08 1339.31,870.14C1338.63,868.343 1337.74,866.632 1336.66,865.04C1336.36,864.588 1335.97,864.2 1335.52,863.9C1335.07,863.6 1335.62,863.9 1335.78,863.9C1335.94,863.9 1335.91,863.84 1335.78,863.95C1335.29,864.444 1334.89,865.015 1334.59,865.64C1334.15,866.491 1333.76,867.369 1333.43,868.27C1332.05,872.253 1330.94,876.326 1330.11,880.46C1329.21,884.67 1328.42,888.94 1327.67,893.22C1324.75,910.38 1322.45,927.72 1320.15,945.05L1313.48,997.12L1300.26,1101.3C1295.78,1136.02 1291.36,1170.76 1286.46,1205.44C1283.99,1222.79 1281.46,1240.13 1278.46,1257.44C1276.93,1266.09 1275.34,1274.73 1273.19,1283.36C1272.64,1285.51 1272.06,1287.67 1271.36,1289.83C1270.68,1292.11 1269.78,1294.31 1268.65,1296.41C1268.3,1297.04 1267.88,1297.63 1267.41,1298.18C1266.69,1299.03 1265.72,1299.63 1264.64,1299.89C1263.14,1300.15 1261.62,1299.54 1260.72,1298.31C1260.25,1297.69 1259.86,1297.02 1259.56,1296.31C1258.65,1294.12 1257.95,1291.86 1257.47,1289.54C1256.47,1285.14 1255.79,1280.78 1255.15,1276.41C1254.51,1272.04 1253.98,1267.68 1253.49,1263.32C1252.49,1254.59 1251.67,1245.86 1250.91,1237.12C1249.41,1219.66 1248.17,1202.19 1247.02,1184.71C1242.49,1114.81 1239.22,1044.87 1235.68,974.95C1232.14,905.03 1228.68,835.1 1224.62,765.21C1222.62,730.27 1220.46,695.33 1218.06,660.41C1215.66,625.49 1213.06,590.6 1209.92,555.76C1208.3,538.35 1206.56,520.95 1204.51,503.6C1203.5,494.933 1202.39,486.267 1201.18,477.6C1199.97,468.97 1198.67,460.35 1197.12,451.82C1195.68,443.361 1193.79,434.985 1191.45,426.73C1190.84,424.73 1190.18,422.78 1189.45,420.98C1189.1,420.124 1188.71,419.286 1188.28,418.47C1187.97,417.865 1187.59,417.3 1187.14,416.79C1187.02,416.66 1186.95,416.66 1187.14,416.79C1187.61,417.06 1188.15,417.176 1188.69,417.12C1189.04,417.087 1189.38,416.978 1189.69,416.8C1189.76,416.74 1189.61,416.91 1189.48,417.08C1189.06,417.688 1188.68,418.33 1188.37,419C1187.99,419.78 1187.62,420.66 1187.27,421.57C1185.88,425.464 1184.73,429.442 1183.83,433.48C1182.83,437.61 1182.01,441.82 1181.22,446.06C1179.66,454.54 1178.36,463.13 1177.16,471.73C1174.76,488.96 1172.83,506.3 1171.01,523.66C1169.19,541.02 1167.57,558.41 1166.01,575.82L1161.53,628.07L1157.31,680.37C1154.53,715.25 1151.73,750.13 1149.12,785.03L1141.45,889.77C1136.28,959.62 1129.7,1029.22 1123.75,1098.96L1114.58,1203.55L1109.85,1255.89C1108.23,1273.34 1106.6,1290.79 1104.85,1308.27C1103.1,1325.75 1101.26,1343.27 1099.18,1360.79C1098.18,1369.57 1097.02,1378.37 1095.76,1387.22C1094.5,1396.07 1093.12,1404.96 1091.27,1414.11C1090.27,1418.71 1089.27,1423.34 1087.81,1428.34C1087.01,1431.1 1086.05,1433.81 1084.92,1436.45C1084.18,1438.17 1083.32,1439.85 1082.34,1441.45C1081.67,1442.55 1080.93,1443.61 1080.13,1444.61C1078.95,1446.07 1077.61,1447.38 1076.13,1448.53C1073.77,1450.36 1071.04,1451.66 1068.13,1452.34C1064.49,1453.2 1060.67,1453.02 1057.13,1451.81C1054.41,1450.87 1051.92,1449.38 1049.81,1447.42C1048.56,1446.26 1047.42,1444.98 1046.43,1443.59C1045.2,1441.86 1044.14,1440.02 1043.26,1438.09C1042.52,1436.53 1041.95,1435.09 1041.46,1433.77C1039.76,1429.01 1038.34,1424.16 1037.21,1419.24C1035.03,1410.09 1033.39,1401.24 1031.85,1392.44C1030.31,1383.64 1028.96,1374.87 1027.66,1366.11C1022.52,1331.11 1018.34,1296.28 1014.3,1261.41C1010.26,1226.54 1006.54,1191.69 1002.92,1156.84C995.74,1087.11 988.963,1017.37 982.59,947.62C976.217,877.873 970.163,808.127 964.43,738.38L955.58,633.74C952.58,598.88 949.58,564.03 946.17,529.3C944.45,511.94 942.66,494.6 940.54,477.4C939.54,468.8 938.34,460.24 937,451.81C936.32,447.59 935.6,443.42 934.79,439.34C933.98,435.26 933.06,431.26 932,427.76C931.73,426.92 931.46,426.07 931.19,425.36C930.92,424.65 930.64,423.99 930.46,423.65C930.37,423.48 930.31,423.4 930.34,423.43C930.567,423.739 930.829,424.021 931.12,424.27C932.309,425.292 933.748,425.982 935.29,426.27C937.416,426.705 939.627,426.405 941.56,425.42C942.375,425.007 943.107,424.448 943.72,423.77C943.819,423.665 943.91,423.551 943.99,423.43C943.751,423.832 943.547,424.253 943.38,424.69C942.755,426.282 942.22,427.908 941.78,429.56C940.78,433.24 939.9,437.31 939.11,441.41C938.32,445.51 937.63,449.76 937,454C934.38,471 932.32,488.29 930.31,505.6C926.41,540.26 922.76,575.15 919.31,609.86C915.86,644.57 912.88,679.41 910.31,714.25C907.74,749.09 905.74,783.98 903.92,818.91L898.74,923.82C896.97,958.82 895.03,993.82 892.74,1028.82C890.45,1063.82 887.52,1098.82 884.39,1133.7C881.26,1168.58 877.99,1203.49 873.28,1238.63C872.67,1243.02 872.1,1247.43 871.28,1251.84C870.483,1256.28 869.445,1260.68 868.17,1265.01C866.859,1269.47 865.293,1273.84 863.48,1278.12C862.54,1280.3 861.55,1282.5 860.48,1284.73C859.311,1287.13 857.974,1289.45 856.48,1291.66C855.493,1293.11 854.349,1294.45 853.07,1295.66C852.072,1296.59 850.927,1297.35 849.68,1297.91C846.386,1299.39 842.501,1298.72 839.9,1296.21C839.169,1295.51 838.533,1294.72 838.01,1293.86C837.25,1292.6 836.627,1291.26 836.15,1289.86C835.371,1287.55 834.727,1285.19 834.22,1282.81C833.72,1280.54 833.22,1278.32 832.83,1276.11C831.96,1271.7 831.03,1267.36 830.27,1263C829.51,1258.64 828.8,1254.29 828.16,1249.93C825.63,1232.51 823.64,1215.09 821.8,1197.65C820.87,1188.94 820.01,1180.22 819.15,1171.51L816.61,1145.36C813.27,1110.5 810.01,1075.64 806.54,1040.81C803.07,1005.98 799.47,971.17 795.54,936.41C791.61,901.65 787.14,867 781.81,832.48C779.11,815.26 776.15,798.06 772.26,781.18C770.393,772.79 768.083,764.505 765.34,756.36C764.007,752.428 762.382,748.601 760.48,744.91C759.61,743.219 758.575,741.618 757.39,740.13C756.59,739.005 755.506,738.112 754.25,737.54C753.934,737.407 753.583,737.379 753.25,737.46C753.052,737.483 752.861,737.548 752.69,737.65C752.431,737.768 752.184,737.909 751.95,738.07C750.628,739.104 749.48,740.343 748.55,741.74C746.305,745.128 744.405,748.733 742.88,752.5C739.636,760.429 736.865,768.543 734.58,776.8C729.84,793.44 726.02,810.46 722.48,827.53C715.48,861.7 709.6,896.17 703.93,930.68C698.26,965.19 692.93,999.78 687.45,1034.36L679.16,1086.23C676.34,1103.52 673.44,1120.8 670.46,1138.07C667.46,1155.34 664.36,1172.59 661,1189.82C657.64,1207.05 654.1,1224.25 650.09,1241.39C648.09,1249.96 645.95,1258.51 643.58,1267.03C641.21,1275.55 638.66,1284.03 635.58,1292.47C634.06,1296.68 632.41,1300.87 630.49,1305.03C629.49,1307.11 628.49,1309.19 627.36,1311.24C626.201,1313.37 624.894,1315.41 623.45,1317.35C621.855,1319.56 619.925,1321.51 617.73,1323.12C617.103,1323.59 616.434,1324 615.73,1324.35C614.964,1324.76 614.161,1325.1 613.33,1325.35C612.435,1325.6 611.517,1325.75 610.59,1325.8C609.645,1325.85 608.698,1325.78 607.77,1325.59C606.883,1325.42 606.015,1325.16 605.18,1324.82C604.424,1324.48 603.695,1324.09 603,1323.64C602.351,1323.23 601.735,1322.78 601.16,1322.27C600.612,1321.81 600.091,1321.33 599.6,1320.81C597.841,1318.93 596.301,1316.86 595.01,1314.64C593.797,1312.6 592.702,1310.5 591.73,1308.34C590.73,1306.23 589.89,1304.11 589.08,1301.99C587.46,1297.74 586.08,1293.47 584.8,1289.19C582.26,1280.62 580.17,1272.02 578.28,1263.4C574.54,1246.15 571.54,1228.83 568.78,1211.49C563.33,1176.81 558.89,1142.05 554.68,1107.28L542.29,1003C540.18,985.63 537.99,968.28 535.62,951C533.25,933.72 530.75,916.37 527.76,899.16C526.26,890.56 524.65,881.98 522.76,873.46C520.982,864.947 518.773,856.529 516.14,848.24C514.827,844.141 513.192,840.151 511.25,836.31C510.299,834.445 509.131,832.7 507.77,831.11C506.41,829.63 504.77,828.47 502.97,828.5C501.17,828.53 499.46,829.72 498.05,831.21C496.627,832.777 495.391,834.506 494.37,836.36C492.278,840.151 490.518,844.115 489.11,848.21L487.85,847.68Z" style="fill:rgb(28,2,2);fill-rule:nonzero;"/>
    </g>
</svg>
