<?xml version="1.0" encoding="UTF-8" standalone="no"?>
<!DOCTYPE svg PUBLIC "-//W3C//DTD SVG 1.1//EN" "http://www.w3.org/Graphics/SVG/1.1/DTD/svg11.dtd">
<svg width="100%" height="100%" viewBox="0 0 1050 1050" version="1.1" xmlns="http://www.w3.org/2000/svg" xmlns:xlink="http://www.w3.org/1999/xlink" xml:space="preserve" xmlns:serif="http://www.serif.com/" style="fill-rule:evenodd;clip-rule:evenodd;stroke-linecap:round;stroke-miterlimit:10;">
    <g transform="matrix(0.993722,0,0,0.993722,-470.286,-468.508)">
        <path d="M563,1261.9C551.87,1185.97 570.77,1127.58 599,1120.02C629.77,1111.78 678.84,1161.88 686.46,1216.75C691.19,1250.9 681.52,1298.69 648.06,1317.75C600.81,1344.75 525.06,1303.68 498.74,1244.66C476.11,1193.98 491.38,1136.66 524.34,1100.66C560.55,1061.06 619.12,1045.03 662.99,1061.96C717.37,1082.96 718.16,1142.58 773.92,1251.14C813.09,1327.41 853.22,1405.54 925.37,1455.36C1015,1517.25 1149.37,1532.24 1258.14,1481.16C1365.78,1430.61 1411.32,1332.7 1452.26,1244.69C1483.73,1176.75 1503.91,1104.13 1511.99,1029.69C1458.63,992.11 1272.18,870.78 1019.23,896.41C863.05,912.23 749.23,977.21 690.72,1016.79C724.282,1051.13 762.314,1080.8 803.79,1105C831.4,1121 1057.54,1247.61 1285.88,1139.39C1399.1,1085.74 1463.69,997.68 1494.88,945.92C1456.58,908.522 1412.68,877.332 1364.76,853.48C1084.37,714.78 711,906.51 714.2,920.81C714.36,921.53 729.63,921.92 760.2,922.72C807.69,923.96 818.04,923.17 836.04,924.63C854.46,926.13 874.51,931.14 913.86,941.1C980.56,957.99 994.21,963.82 1035.86,971.31C1049.86,973.82 1065.86,973.25 1085.43,975.99C1156.77,985.99 1193.43,979.28 1218.23,968.99C1281.23,942.99 1304.17,875.76 1305.14,872.76C1306.99,867.07 1330.14,791.69 1281.68,728.76C1246.68,683.25 1188.13,662.55 1138.3,668.95C1036.3,682.04 996.1,805.39 961.7,791.1C936.36,780.57 930.11,701.94 965.97,653.52C1009.65,594.52 1099.34,602.67 1115.29,604.07C1182.87,610.07 1216.75,646.25 1234.75,629.87C1250.56,615.48 1238.62,574.57 1224.08,550.33C1189.95,493.42 1117.14,488.54 1106.76,487.99" style="fill:none;fill-rule:nonzero;stroke:black;stroke-width:24px;"/>
    </g>
</svg>
