<?xml version="1.0" encoding="UTF-8" standalone="no"?>
<!DOCTYPE svg PUBLIC "-//W3C//DTD SVG 1.1//EN" "http://www.w3.org/Graphics/SVG/1.1/DTD/svg11.dtd">
<svg width="100%" height="100%" viewBox="0 0 1050 1050" version="1.1" xmlns="http://www.w3.org/2000/svg" xmlns:xlink="http://www.w3.org/1999/xlink" xml:space="preserve" xmlns:serif="http://www.serif.com/" style="fill-rule:evenodd;clip-rule:evenodd;stroke-linejoin:round;stroke-miterlimit:2;">
    <g transform="matrix(0.987528,0,0,0.993831,-463.68,-468.655)">
        <path d="M939.6,856.57C927.341,814.815 924.432,770.867 931.08,727.86C934.438,706.117 940.217,684.818 948.31,664.36L951.43,656.69L954.84,649.13C955.95,646.59 957.25,644.13 958.46,641.66L960.31,637.95C960.93,636.71 961.62,635.51 962.31,634.28C967.527,624.475 973.317,614.985 979.65,605.86L982.04,602.43L983.23,600.72L984.49,599.05L989.49,592.39C993.01,588.07 996.49,583.68 1000.22,579.55C1003.95,575.42 1007.77,571.31 1011.62,567.26C1015.47,563.21 1019.62,559.38 1023.78,555.69L1026.9,552.86C1027.9,551.92 1029.03,551.05 1030.1,550.14C1032.25,548.34 1034.37,546.51 1036.57,544.76L1043.25,539.65L1046.59,537.09C1047.72,536.26 1048.89,535.48 1050.03,534.67L1056.95,529.86C1058.09,529.04 1059.29,528.31 1060.48,527.56L1064.04,525.31L1067.61,523.07C1068.79,522.31 1069.98,521.56 1071.21,520.89L1078.54,516.71C1079.76,516.03 1080.96,515.29 1082.22,514.66L1085.96,512.73L1093.47,508.87L1101.13,505.34C1103.68,504.16 1106.24,502.98 1108.86,501.96L1116.67,498.78C1117.97,498.23 1119.29,497.78 1120.62,497.29L1128.62,494.43C1129.94,493.95 1131.27,493.43 1132.62,493.07L1140.68,490.53C1143.35,489.65 1146.07,488.94 1148.79,488.2L1156.94,486L1165.17,484.11L1169.29,483.17C1170.67,482.88 1172.05,482.64 1173.43,482.37L1181.74,480.8C1184.51,480.31 1187.3,479.94 1190.09,479.52C1195.66,478.62 1201.27,478.11 1206.88,477.52C1229.39,475.398 1252.06,475.462 1274.56,477.71L1283,478.71L1287.23,479.23L1291.43,479.9L1299.83,481.27L1308.2,482.94L1312.38,483.79L1316.53,484.79L1324.84,486.79L1333.07,489.13L1337.19,490.31L1341.26,491.66L1349.41,494.37L1357.41,497.42C1358.75,497.94 1360.1,498.42 1361.41,498.97L1365.41,500.66C1368.04,501.81 1370.71,502.9 1373.32,504.1C1378.51,506.63 1383.77,509 1388.82,511.86L1392.64,513.93L1394.55,514.93L1396.42,516.05L1403.88,520.55C1405.14,521.28 1406.34,522.11 1407.55,522.91L1411.19,525.34L1414.82,527.78C1416.03,528.59 1417.18,529.51 1418.36,530.37L1425.36,535.62L1432.17,541.18C1441.11,548.791 1449.48,557.035 1457.23,565.85C1472.59,583.433 1485.54,602.989 1495.72,624C1497.03,626.59 1498.19,629.23 1499.43,631.85C1500.67,634.47 1501.74,637.14 1502.9,639.78C1505.08,645.12 1507.18,650.48 1509.08,655.91C1512.9,666.717 1516.15,677.715 1518.83,688.86C1521.55,699.94 1523.63,711.2 1525.28,722.32L1525.88,726.45C1526.07,727.82 1526.26,729.09 1526.44,730.59C1526.77,733.49 1527.18,736.39 1527.44,739.3C1527.7,742.21 1527.99,745.12 1528.17,748.03C1528.35,750.94 1528.52,753.86 1528.61,756.77C1529.31,779.925 1527.3,803.083 1522.61,825.77C1517.97,848.054 1511.35,869.88 1502.84,890.99C1494.45,911.768 1484.68,931.96 1473.59,951.43C1451.59,990.16 1425.7,1025.94 1397.7,1059.58C1383.7,1076.4 1369.2,1092.73 1354.21,1108.58C1339.28,1124.44 1323.89,1139.81 1308.21,1154.82C1276.83,1184.82 1244.21,1213.3 1210.65,1240.56C1143.52,1294.99 1073.12,1344.84 1000.65,1391.08C982.48,1402.59 964.25,1413.97 945.84,1425.08C927.43,1436.19 908.92,1447.08 890.24,1457.65C852.91,1478.88 815.13,1499.31 776.56,1518.1C848.687,1471.7 919.22,1423.29 988.16,1372.86C1005.37,1360.24 1022.46,1347.47 1039.42,1334.54C1056.37,1321.6 1073.23,1308.54 1089.89,1295.3C1106.55,1282.06 1123.08,1268.63 1139.42,1255.02C1155.76,1241.41 1171.86,1227.54 1187.81,1213.54C1219.66,1185.47 1250.68,1156.54 1280.37,1126.54C1310.06,1096.71 1338.19,1065.37 1364.66,1032.65C1390.84,999.99 1414.9,965.81 1434.85,929.81C1444.84,911.982 1453.63,893.512 1461.18,874.52C1468.66,855.876 1474.48,836.608 1478.56,816.94C1482.59,797.654 1484.37,777.966 1483.85,758.27C1483.79,755.84 1483.63,753.41 1483.53,750.97C1483.43,748.53 1483.14,746.12 1482.96,743.7C1482.78,741.28 1482.42,738.87 1482.17,736.45C1482.05,735.29 1481.85,733.92 1481.68,732.63L1481.15,728.81C1479.73,718.74 1477.94,708.92 1475.68,699.17C1473.45,689.469 1470.72,679.889 1467.5,670.47C1464.32,661.11 1460.61,651.938 1456.38,643C1448.11,625.303 1437.55,608.763 1424.99,593.8C1418.73,586.393 1411.95,579.442 1404.7,573L1399.19,568.27L1393.45,563.79C1392.45,563.06 1391.56,562.27 1390.56,561.57L1384.56,557.37C1383.56,556.67 1382.56,555.95 1381.56,555.31L1375.35,551.38L1373.8,550.38L1372.2,549.47L1368.99,547.64C1364.78,545.11 1360.32,542.97 1355.99,540.64C1353.77,539.55 1351.5,538.56 1349.26,537.51L1345.89,535.95C1344.75,535.45 1343.59,535 1342.44,534.52L1335.55,531.69L1328.55,529.14L1325.04,527.86L1321.46,526.73L1314.32,524.45L1307.08,522.45L1303.45,521.45L1299.78,520.59L1292.45,518.88L1285.04,517.45L1281.34,516.73L1277.6,516.15L1270.13,514.98L1262.62,514.09L1258.86,513.64C1257.6,513.52 1256.34,513.44 1255.08,513.33L1247.53,512.73C1245,512.57 1242.53,512.5 1239.95,512.38C1234.95,512.08 1229.83,512.18 1224.77,512.11C1222.23,512.11 1219.71,512.24 1217.17,512.29L1213.37,512.41L1211.47,512.41L1209.58,512.55C1204.52,512.91 1199.45,513.16 1194.42,513.79C1191.9,514.08 1189.36,514.28 1186.85,514.61L1179.31,515.69C1178.06,515.88 1176.79,516.04 1175.54,516.24L1171.8,516.93L1164.3,518.29L1156.87,519.95C1154.39,520.5 1151.87,521.02 1149.46,521.72L1142.09,523.72C1140.85,524.02 1139.64,524.4 1138.43,524.78L1131.15,527.04C1129.93,527.41 1128.71,527.78 1127.52,528.22L1120.34,530.78C1119.15,531.22 1117.93,531.59 1116.76,532.08L1113.22,533.51L1106.13,536.33L1099.13,539.46L1095.65,541.02C1094.48,541.53 1093.37,542.14 1092.23,542.7C1055.28,560.714 1022.84,586.789 997.3,619C971.42,651.733 952.99,689.722 943.3,730.31C933.46,771.08 932.35,814.3 939.6,856.57Z" style="fill-rule:nonzero;"/>
    </g>
    <g transform="matrix(0.984464,0,0,0.984464,-448.819,-455.678)">
        <path d="M964.69,832.51C953.404,802.719 938.222,774.554 919.54,748.75C910.296,736.108 900.139,724.159 889.15,713C886.41,710.23 883.55,707.59 880.79,704.85C878.03,702.11 875,699.6 872.16,697C869.32,694.4 866.22,692 863.22,689.58L858.62,686.05C857.08,684.89 855.62,683.66 854,682.58C841.648,673.502 828.517,665.534 814.76,658.77C801.226,652.053 787.043,646.732 772.43,642.89C758.057,639.152 743.321,636.989 728.48,636.44C713.865,636.099 699.262,637.55 685,640.76C656.65,647.18 630.23,660.9 607.28,679.37C595.718,688.664 585.009,698.972 575.28,710.17C565.504,721.465 556.585,733.475 548.6,746.1C540.585,758.752 533.48,771.959 527.34,785.62C521.205,799.151 516.166,813.153 512.27,827.49L510.89,832.83C510.39,834.6 510.07,836.39 509.65,838.17C509.23,839.95 508.82,841.73 508.5,843.51L507.5,848.85C507.35,849.74 507.16,850.64 507.04,851.52L506.67,854.19L505.95,859.51C505.66,863.06 505.2,866.6 505.1,870.17C504.695,877.318 504.695,884.482 505.1,891.63L505.48,897.01C505.6,898.8 505.86,900.59 506.04,902.39C506.37,905.97 507.04,909.55 507.51,913.13C508.78,920.27 510.17,927.41 512.13,934.48C513,938.03 514.13,941.48 515.18,945.05C515.69,946.81 516.34,948.55 516.91,950.3C517.48,952.05 518.05,953.8 518.73,955.53C523.843,969.552 529.959,983.187 537.03,996.33C551.3,1022.85 569.09,1047.89 588.95,1071.42C609.112,1095.04 630.92,1117.2 654.21,1137.74C677.701,1158.54 702.261,1178.1 727.79,1196.34C778.91,1233.17 833.66,1265.48 890.2,1294.7C918.5,1309.29 947.253,1323.11 976.46,1336.17C1005.62,1349.33 1035.22,1361.61 1065,1373.76C1049.35,1370.08 1033.77,1366.08 1018.26,1361.76C1010.49,1359.65 1002.79,1357.3 995.05,1355.07L983.5,1351.52L977.72,1349.73L971.97,1347.88C956.59,1343.04 941.38,1337.66 926.17,1332.23C918.59,1329.47 911.033,1326.62 903.5,1323.69C895.94,1320.82 888.5,1317.76 880.94,1314.77C821.08,1290.24 762.94,1260.86 707.94,1225.64C680.307,1208.01 653.749,1188.74 628.41,1167.94C615.72,1157.47 603.32,1146.58 591.35,1135.16C579.38,1123.74 567.79,1111.86 556.73,1099.4C534.62,1074.49 514.55,1047.33 498.03,1017.56C489.757,1002.54 482.597,986.93 476.61,970.86C475.83,968.86 475.18,966.78 474.47,964.74C473.76,962.7 473.03,960.66 472.41,958.58C471.16,954.42 469.83,950.29 468.76,946.06C466.43,937.67 464.68,929.06 463.17,920.43C460.279,902.962 459.34,885.226 460.37,867.55C460.56,863.11 461.12,858.68 461.55,854.25C461.84,852.05 462.18,849.87 462.5,847.67L462.98,844.38C463.14,843.29 463.37,842.22 463.57,841.13L464.8,834.66C465.22,832.5 465.8,830.39 466.23,828.26C466.66,826.13 467.17,823.98 467.77,821.9L469.49,815.62C474.208,799.058 480.292,782.916 487.68,767.36C494.965,751.891 503.398,736.989 512.91,722.78C522.418,708.525 533.045,695.049 544.69,682.48C556.407,669.828 569.269,658.285 583.11,648C597.089,637.584 612.157,628.715 628.05,621.55C644.059,614.344 660.912,609.18 678.21,606.18L681.45,605.6L683.06,605.32L684.7,605.12L691.23,604.36C695.57,603.76 699.96,603.66 704.33,603.44C713.04,603.088 721.764,603.281 730.45,604.02C747.634,605.617 764.572,609.219 780.92,614.75C797.033,620.168 812.521,627.292 827.12,636C841.545,644.569 855.158,654.437 867.79,665.48C892.62,687.366 913.643,713.225 930,742C946.165,770.199 957.867,800.731 964.69,832.51Z" style="fill-rule:nonzero;"/>
    </g>
</svg>
