<?xml version="1.0" encoding="UTF-8" standalone="no"?>
<!DOCTYPE svg PUBLIC "-//W3C//DTD SVG 1.1//EN" "http://www.w3.org/Graphics/SVG/1.1/DTD/svg11.dtd">
<svg width="100%" height="100%" viewBox="0 0 1050 1050" version="1.1" xmlns="http://www.w3.org/2000/svg" xmlns:xlink="http://www.w3.org/1999/xlink" xml:space="preserve" xmlns:serif="http://www.serif.com/" style="fill-rule:evenodd;clip-rule:evenodd;stroke-linejoin:round;stroke-miterlimit:2;">
    <g transform="matrix(1,0,0,1,-475.685,-522.59)">
        <path d="M1091.41,621C1078.31,652.261 1066.96,684.227 1057.41,716.75C1055.09,724.86 1052.85,732.98 1050.77,741.14C1048.69,749.3 1046.77,757.49 1044.96,765.68C1044.06,769.79 1043.21,773.9 1042.36,778.01C1041.51,782.12 1040.72,786.24 1040.01,790.37C1038.5,798.623 1037.14,806.893 1035.91,815.18L1032.74,840.11L1032.33,843.22L1032.06,846.34L1031.5,852.59L1030.39,865.07C1029.2,881.73 1028.39,898.4 1028.39,915.07L1028.31,921.33C1028.31,923.42 1028.39,925.51 1028.43,927.6L1028.67,940.13L1028.78,946.39L1029.06,952.67L1029.65,965.22L1029.94,971.5L1030.38,977.79L1031.24,990.37L1031.64,996.66L1032.14,1002.97L1033.14,1015.58C1036,1049.25 1039.14,1083.16 1041.48,1117.23C1042.02,1125.75 1042.63,1134.23 1043.09,1142.81L1044.39,1168.43C1044.64,1172.7 1044.76,1176.98 1044.88,1181.25L1045.6,1206.91C1045.73,1211.19 1045.71,1215.47 1045.77,1219.75L1045.99,1245.42C1045.99,1253.98 1045.74,1262.53 1045.62,1271.08L1045.41,1283.91L1045.3,1290.33L1045.11,1296.78C1044.84,1305.37 1044.44,1313.95 1043.91,1322.54C1042.91,1339.7 1041.52,1356.83 1039.71,1373.91C1037.9,1390.99 1035.71,1408.01 1033.15,1424.98L1030,1445.9L1013.43,1433.62C1002.65,1425.62 992.02,1417.44 981.54,1409.09C971.06,1400.72 960.83,1392.09 950.73,1383.26C940.63,1374.43 930.73,1365.42 921.05,1356.2C918.63,1353.9 916.21,1351.59 913.82,1349.2C911.43,1346.81 909.02,1344.55 906.65,1342.2C901.94,1337.45 897.22,1332.73 892.59,1327.9C873.99,1308.71 856.33,1288.64 839.5,1267.98C831.12,1257.6 822.97,1247.06 815.05,1236.37C811.05,1231.03 807.24,1225.6 803.4,1220.17L797.71,1211.99L792.15,1203.71L805.44,1218.54C809.9,1223.45 814.44,1228.31 818.92,1233.16C827.96,1242.85 837.117,1252.4 846.39,1261.81C864.957,1280.61 884.067,1298.78 903.72,1316.33C923.373,1333.88 943.557,1350.71 964.27,1366.84C969.43,1370.89 974.66,1374.84 979.9,1378.84C985.14,1382.84 990.43,1386.66 995.73,1390.52C1006.31,1398.25 1017.04,1405.77 1027.93,1413.07L1008.21,1421.71C1010.06,1404.99 1011.64,1388.25 1012.85,1371.5C1013.41,1363.12 1014.02,1354.74 1014.48,1346.36C1014.94,1337.98 1015.32,1329.59 1015.61,1321.21C1015.9,1312.83 1016.09,1304.44 1016.25,1296.05L1016.34,1289.76L1016.34,1270.8C1016.34,1262.37 1016.42,1253.94 1016.34,1245.51L1015.98,1220.23C1015.25,1186.53 1013.98,1152.86 1011.83,1119.14C1011.34,1110.72 1010.83,1102.27 1010.24,1093.83C1009.65,1085.39 1009.15,1076.94 1008.54,1068.47C1007.34,1051.56 1006.2,1034.58 1005.24,1017.53C1004.28,1000.48 1003.44,983.35 1003.18,966.14L1003.02,953.23L1002.96,946.77L1003.07,940.3L1003.33,927.35C1003.38,925.2 1003.41,923.04 1003.49,920.89L1003.86,914.41C1004.68,897.15 1006.2,879.9 1008.43,862.77L1010.28,849.95L1011.66,840.35L1012.26,837.17L1017.11,811.78C1020.69,794.92 1024.96,778.253 1029.91,761.78C1032.37,753.55 1035.04,745.38 1037.84,737.27C1040.64,729.16 1043.57,721.1 1046.71,713.12C1052.94,697.16 1059.79,681.493 1067.24,666.12C1069.05,662.26 1071.05,658.48 1072.94,654.65C1073.94,652.75 1074.86,650.85 1075.85,648.96L1078.85,643.32C1082.92,635.74 1087.16,628.34 1091.41,621Z" style="fill:rgb(7,0,0);fill-rule:nonzero;"/>
    </g>
    <g transform="matrix(1,0,0,1,-475.685,-522.59)">
        <path d="M792.21,1203.74C832.47,1265.86 870.94,1328.74 911.78,1389.74C932.22,1420.15 953.09,1450.26 975.67,1478.4C987,1492.4 998.67,1506.04 1011.31,1517.74C1017.6,1523.53 1024.11,1528.94 1030.61,1532.87C1033.52,1534.69 1036.64,1536.17 1039.89,1537.28C1042.03,1538.06 1044.31,1538.33 1046.57,1538.08C1046.94,1538.02 1047.31,1537.93 1047.67,1537.82C1048.01,1537.76 1048.36,1537.48 1048.74,1537.37C1048.93,1537.37 1049.17,1537.11 1049.38,1537L1050.07,1536.61C1050.57,1536.19 1051.07,1535.9 1051.61,1535.43C1054.15,1533.19 1056.42,1530.66 1058.37,1527.9C1060.7,1524.63 1062.84,1521.23 1064.78,1517.71C1066.78,1514.09 1068.72,1510.23 1070.59,1506.32C1074.34,1498.49 1077.74,1490.24 1081.03,1481.87C1084.32,1473.5 1087.38,1464.87 1090.58,1456.3C1093.78,1447.73 1096.9,1438.95 1100.41,1430.07L1101.75,1426.72L1103.08,1423.46L1105.72,1417.12L1110.95,1404.42C1117.89,1387.42 1124.33,1370.5 1131.29,1353.09C1134.77,1344.36 1138.6,1335.64 1142.82,1327.09C1147.04,1318.54 1151.49,1310.09 1156.46,1302.09C1158.86,1297.99 1161.46,1294.09 1164.04,1290.09C1165.31,1288.09 1166.7,1286.18 1168.04,1284.22C1169.38,1282.26 1170.68,1280.3 1172.11,1278.42L1176.33,1272.73C1177.04,1271.79 1177.73,1270.83 1178.45,1269.9L1180.64,1267.13L1185.03,1261.59C1186.49,1259.74 1188.03,1257.97 1189.56,1256.18C1201.69,1241.89 1214.8,1228.46 1228.8,1216L1234.02,1211.35L1239.38,1206.88C1242.96,1203.88 1246.5,1200.88 1250.22,1198.11L1255.75,1193.88C1257.59,1192.46 1259.43,1191.06 1261.33,1189.72L1266.97,1185.72L1272.65,1181.72L1267.77,1186.67L1262.86,1191.55C1261.2,1193.15 1259.61,1194.83 1258.03,1196.55L1253.27,1201.55C1250.05,1204.83 1246.97,1208.26 1243.89,1211.66L1239.25,1216.75L1234.76,1221.95C1222.79,1235.7 1211.6,1250.12 1201.26,1265.14C1191,1279.97 1181.8,1295.51 1173.74,1311.65C1169.74,1319.65 1166.07,1327.8 1162.74,1336.09C1159.34,1344.35 1156.38,1352.8 1153.46,1361.37C1150.54,1369.94 1147.75,1378.78 1144.83,1387.58C1141.91,1396.38 1138.83,1405.18 1135.71,1413.94L1130.98,1427.06L1128.56,1433.59L1127.38,1436.77L1126.24,1439.89C1123.24,1448.27 1120.41,1457.01 1117.49,1465.78C1114.57,1474.55 1111.49,1483.4 1108.28,1492.26C1105.07,1501.12 1101.54,1510.01 1097.5,1518.91C1095.5,1523.35 1093.3,1527.77 1090.85,1532.2C1088.36,1536.78 1085.61,1541.21 1082.6,1545.47C1079.24,1550.26 1075.31,1554.63 1070.89,1558.47C1069.69,1559.47 1068.27,1560.47 1066.94,1561.47C1066.22,1561.95 1065.44,1562.41 1064.68,1562.87L1063.53,1563.56C1063.13,1563.8 1062.73,1564.01 1062.31,1564.2C1060.6,1565.06 1058.83,1565.8 1057.01,1566.42C1055.18,1567.03 1053.3,1567.48 1051.39,1567.78C1047.77,1568.34 1044.08,1568.4 1040.44,1567.97C1037.16,1567.59 1033.93,1566.87 1030.8,1565.84C1025.31,1564 1020.05,1561.5 1015.15,1558.42C1010.69,1555.65 1006.41,1552.61 1002.34,1549.29C998.34,1546.08 994.63,1542.77 991.07,1539.35C983.97,1532.51 977.44,1525.35 971.2,1518.15C964.96,1510.95 959.03,1503.51 953.35,1495.97C941.977,1480.91 931.25,1465.54 921.17,1449.85C916.11,1442.02 911.09,1434.17 906.23,1426.23C901.37,1418.29 896.61,1410.32 891.91,1402.31C873.19,1370.23 855.573,1337.62 839.06,1304.49C830.793,1287.93 822.737,1271.26 814.89,1254.49C810.96,1246.11 807.14,1237.69 803.34,1229.25C799.54,1220.81 795.78,1212.29 792.21,1203.74Z" style="fill:rgb(7,0,0);fill-rule:nonzero;"/>
    </g>
    <g transform="matrix(1,0,0,1,-475.685,-510.59)">
        <path d="M1243.75,1307L1270.01,1306L1296.26,1305.13L1348.78,1303.39L1453.78,1300.21L1450.29,1301.96C1455.67,1294.59 1460.71,1286.99 1465.4,1279.18C1470.09,1271.37 1474.4,1263.37 1478.33,1255.18C1486.14,1238.8 1492.41,1221.72 1497.06,1204.18C1501.68,1186.69 1504.54,1168.78 1505.58,1150.72C1506.17,1141.72 1506.17,1132.72 1505.87,1123.72C1505.87,1121.47 1505.62,1119.23 1505.48,1116.98L1505.01,1110.25C1504.81,1108.01 1504.51,1105.78 1504.26,1103.54C1504.01,1101.3 1503.79,1099.07 1503.45,1096.85C1500.85,1079.05 1496.55,1061.53 1490.61,1044.55C1489.9,1042.42 1489.04,1040.34 1488.27,1038.23C1487.5,1036.12 1486.74,1034 1485.83,1031.95C1484.09,1027.8 1482.42,1023.63 1480.48,1019.57C1476.8,1011.37 1472.62,1003.39 1468.21,995.57C1459.31,979.917 1449.15,965.018 1437.82,951.02C1432.17,944.02 1426.26,937.26 1420.08,930.74C1417,927.473 1413.85,924.293 1410.63,921.2C1407.43,918.11 1404.14,915.09 1400.85,912.28L1394.97,907.28L1398.12,900C1412.9,865.321 1421.01,828.164 1422.03,790.48C1422.51,771.826 1420.92,753.177 1417.31,734.87L1416.62,731.46C1416.4,730.32 1416.16,729.18 1415.87,728.06L1414.23,721.3C1413.63,719.05 1412.97,716.83 1412.35,714.6C1412.02,713.49 1411.74,712.36 1411.35,711.26L1410.26,707.96L1409.18,704.65L1408.65,703L1408.04,701.37L1405.61,694.86C1404.79,692.7 1403.84,690.6 1402.96,688.46L1401.62,685.27L1400.2,682C1384.72,648.46 1360.74,619 1331.59,596.15C1295.13,567.273 1251.17,549.393 1204.91,544.62C1202.63,544.35 1200.33,544.25 1198.04,544.06L1194.6,543.8L1191.16,543.67C1188.87,543.61 1186.57,543.49 1184.28,543.47L1177.4,543.47C1159.05,543.903 1140.83,546.538 1123.11,551.32C1122,551.57 1120.9,551.92 1119.81,552.26L1116.52,553.26C1114.33,553.95 1112.11,554.55 1109.95,555.32L1103.48,557.66L1100.24,558.84L1097.06,560.17L1090.7,562.81C1088.6,563.73 1086.55,564.81 1084.46,565.74L1081.35,567.21L1079.79,567.95L1078.27,568.76L1072.18,572.01C1070.18,573.01 1068.18,574.26 1066.18,575.44L1060.25,578.96L1054.48,582.76C1052.56,584.04 1050.6,585.25 1048.77,586.65C1045.06,589.38 1041.26,592 1037.77,594.96L1032.37,599.28L1027.17,603.84C1023.63,606.84 1020.4,610.11 1017.04,613.27C1015.34,614.83 1013.81,616.56 1012.19,618.21L1007.41,623.21L1002.84,628.42C1001.33,630.16 999.77,631.86 998.36,633.69C995.49,637.32 992.5,640.84 989.85,644.63C978.861,659.515 969.434,675.493 961.72,692.31C954.062,709.183 948.126,726.786 944,744.85C939.871,762.91 937.527,781.332 937,799.85L935.94,837.76L910.8,809.4C901.342,798.721 891.06,788.8 880.05,779.73C878.71,778.57 877.28,777.5 875.88,776.4L871.67,773.12L867.36,770C865.93,768.95 864.49,767.9 863,766.93L858.59,763.93C857.12,762.93 855.59,762.03 854.09,761.07C851.09,759.13 848.02,757.38 844.96,755.6C843.44,754.68 841.86,753.87 840.3,753.03C838.74,752.19 837.18,751.34 835.6,750.54L830.83,748.19L828.45,747L826,745.93L821.15,743.76L816.24,741.76L813.79,740.76L811.3,739.85L806.3,738.03C799.6,735.81 792.87,733.69 786.02,732.12L783.46,731.49C782.6,731.29 781.74,731.13 780.88,730.95L775.72,729.88L770.6,729L768,728.57L765.4,728.24L760.19,727.58L754.97,727.13C753.23,726.95 751.49,726.88 749.74,726.81C747.99,726.74 746.26,726.62 744.52,726.6C741.04,726.6 737.52,726.51 734.08,726.7C730.64,726.89 727.15,727.1 723.69,727.37C709.919,728.693 696.375,731.778 683.39,736.55C670.407,741.345 658.106,747.816 646.8,755.8C635.361,763.884 624.86,773.218 615.49,783.63C596.58,804.54 581.72,829.47 571.31,856.04C566.109,869.326 562.093,883.046 559.31,897.04C557.946,903.963 556.944,910.952 556.31,917.98C555.652,924.899 555.462,931.855 555.74,938.8C555.973,945.529 556.817,952.223 558.26,958.8C558.978,961.931 559.883,965.017 560.97,968.04C562.019,970.903 563.286,973.681 564.76,976.35C566.148,978.82 567.798,981.133 569.68,983.25C571.498,985.279 573.556,987.079 575.81,988.61C580.811,991.842 586.374,994.108 592.21,995.29C595.373,996.006 598.58,996.51 601.81,996.8C605.1,997.14 608.48,997.28 611.9,997.29C618.887,997.269 625.865,996.795 632.79,995.87C647.115,993.864 661.274,990.806 675.15,986.72L671.25,1007.72C654,994.26 634.6,983.8 614,978C603.805,975.09 593.271,973.533 582.67,973.37C572.321,973.18 562.015,974.763 552.2,978.05C542.63,981.31 533.879,986.605 526.55,993.57C519.183,1000.7 513.327,1009.23 509.33,1018.67C507.219,1023.53 505.477,1028.55 504.12,1033.67C502.719,1038.9 501.62,1044.2 500.83,1049.55C499.291,1060.52 498.623,1071.6 498.83,1082.67C498.97,1093.86 499.83,1105.12 500.97,1116.48L501.41,1120.76C501.57,1122.19 501.71,1123.64 501.9,1125.01L502.96,1133.33L504.34,1141.61C504.81,1144.37 505.45,1147.1 506,1149.84C510.833,1171.81 518.469,1193.07 528.72,1213.1C539.062,1233.26 551.612,1252.21 566.14,1269.6C580.721,1287.11 596.982,1303.14 614.69,1317.48L611.35,1316.4L733.77,1313.56L795,1312.32L856.22,1311.2L795.12,1315.2L734.01,1319.1L611.77,1326.53L610,1326.64L608.43,1325.46C589.645,1311.29 572.31,1295.29 556.68,1277.7C540.963,1260 527.262,1240.62 515.83,1219.89C504.364,1198.99 495.661,1176.68 489.94,1153.54C489.27,1150.63 488.52,1147.74 487.94,1144.81L486.23,1136.02L484.86,1127.16C484.62,1125.66 484.44,1124.24 484.24,1122.8L483.67,1118.46C482.16,1106.85 480.99,1095.03 480.56,1083.09C480.069,1071.03 480.531,1058.94 481.94,1046.95C482.703,1040.84 483.815,1034.78 485.27,1028.79C486.729,1022.69 488.655,1016.71 491.03,1010.9C493.459,1004.98 496.414,999.291 499.86,993.9C503.373,988.403 507.492,983.318 512.14,978.74C521.472,969.528 532.68,962.433 545,957.94C557.084,953.588 569.826,951.342 582.67,951.3C595.225,951.234 607.735,952.815 619.88,956C644.02,962.26 666.22,973.92 685.77,988.64L704.51,1002.75L681.87,1009.61C666.902,1014.27 651.61,1017.83 636.12,1020.25C628.125,1021.44 620.062,1022.11 611.98,1022.25C607.819,1022.32 603.657,1022.19 599.51,1021.84C595.231,1021.52 590.978,1020.92 586.78,1020.03C577.804,1018.26 569.239,1014.83 561.53,1009.9C557.496,1007.25 553.802,1004.12 550.53,1000.58C547.35,997.115 544.553,993.316 542.19,989.25C539.956,985.363 538.03,981.308 536.43,977.12C534.915,973.069 533.643,968.932 532.62,964.73C530.72,956.609 529.561,948.331 529.16,940C528.735,931.895 528.852,923.77 529.51,915.68C530.135,907.694 531.176,899.747 532.63,891.87C535.587,876.252 539.938,860.931 545.63,846.09C551.268,831.254 558.174,816.931 566.27,803.28C574.394,789.53 583.814,776.588 594.4,764.63C605.072,752.534 617.082,741.688 630.2,732.3C643.474,722.818 657.93,715.11 673.2,709.37C688.496,703.649 704.463,699.915 720.71,698.26C724.71,697.91 728.8,697.51 732.86,697.41C736.92,697.31 740.96,697.23 745,697.22C747,697.22 749.05,697.36 751.07,697.42C753.09,697.48 755.07,697.58 757.07,697.77L763.07,698.26L772.07,699.34L775.07,699.82L781.07,700.82L786.98,702.01C787.98,702.21 788.98,702.39 789.98,702.61L792.91,703.32C794.86,703.79 796.81,704.24 798.76,704.74L804.55,706.38C805.55,706.66 806.48,706.91 807.44,707.21L810.3,708.13L816.01,709.99L824.47,712.99L827.25,714.11L832.8,716.36L838.27,718.8L841.01,720.02L843.7,721.33L849.08,723.96C850.85,724.86 852.6,725.82 854.36,726.75C856.12,727.68 857.89,728.61 859.6,729.63C863.05,731.63 866.51,733.63 869.86,735.75C871.54,736.81 873.25,737.83 874.86,738.94L879.81,742.28C881.47,743.37 883.08,744.53 884.69,745.71L889.51,749.21L894.22,752.86C895.79,754.08 897.38,755.28 898.88,756.57C911.159,766.653 922.624,777.687 933.17,789.57L906.97,799.11C908,757.936 917.355,717.393 934.47,679.93C943.102,661.252 953.638,643.515 965.91,627C968.91,622.8 972.19,618.86 975.4,614.85C976.97,612.85 978.71,610.92 980.4,608.98L985.49,603.2L990.83,597.63C992.63,595.79 994.36,593.89 996.26,592.15C1000.01,588.63 1003.65,584.99 1007.6,581.7L1013.44,576.65L1019.44,571.85C1023.44,568.58 1027.67,565.66 1031.84,562.64C1033.9,561.1 1036.09,559.74 1038.24,558.32L1044.72,554.12L1051.39,550.19C1053.61,548.88 1055.82,547.56 1058.13,546.4L1064.97,542.79L1066.68,541.89L1068.44,541.07L1071.94,539.43C1074.29,538.35 1076.6,537.21 1078.94,536.19L1086.11,533.19L1089.69,531.73L1093.34,530.42L1100.65,527.83C1103.09,526.97 1105.59,526.3 1108.06,525.54L1111.77,524.42C1113.01,524.05 1114.24,523.67 1115.51,523.42C1135.58,518.103 1156.24,515.275 1177,515L1184.75,515C1187.34,515 1189.92,515.2 1192.5,515.3L1196.37,515.48L1200.22,515.8C1202.79,516.04 1205.37,516.18 1207.93,516.5C1218.17,517.664 1228.35,519.393 1238.4,521.68C1278.59,531 1316.16,549.276 1348.3,575.14C1380.3,600.82 1406.5,633.9 1423.3,671.5L1424.88,675.02L1426.33,678.59C1427.27,680.98 1428.33,683.35 1429.16,685.76L1431.73,693.01L1432.36,694.82L1432.93,696.66L1434.07,700.33L1435.2,704C1435.59,705.22 1435.88,706.47 1436.2,707.71C1436.85,710.18 1437.54,712.65 1438.15,715.13L1439.84,722.62C1440.14,723.87 1440.39,725.12 1440.61,726.38L1441.31,730.15C1444.94,750.234 1446.35,770.658 1445.5,791.05C1444.67,811.307 1441.85,831.434 1437.08,851.14C1432.4,870.827 1425.85,890.021 1417.52,908.46L1414.8,896.15C1418.49,899.43 1421.96,902.75 1425.35,906.15C1428.74,909.55 1432.04,913.01 1435.25,916.55C1441.69,923.61 1447.78,930.95 1453.6,938.49C1465.23,953.587 1475.62,969.603 1484.66,986.38C1489.13,994.79 1493.36,1003.38 1497.06,1012.12C1499.06,1016.47 1500.69,1020.94 1502.42,1025.38C1503.31,1027.59 1504.02,1029.87 1504.83,1032.11C1505.64,1034.35 1506.43,1036.6 1507.12,1038.88C1512.94,1057.05 1517.01,1075.74 1519.26,1094.69C1521.43,1113.62 1521.66,1132.72 1519.92,1151.69C1518.25,1170.6 1514.68,1189.29 1509.29,1207.49C1498.49,1243.76 1480.89,1277.64 1457.44,1307.34L1456.05,1309.11L1453.96,1309.11L1348.88,1308.23L1296.34,1307.64L1270.07,1307.34L1243.75,1307Z" style="fill:rgb(25,2,2);fill-rule:nonzero;"/>
    </g>
</svg>
