<svg id="Слой_1" data-name="Слой 1" xmlns="http://www.w3.org/2000/svg" viewBox="0 0 1054.48 1045.82"><defs><style>.cls-1{fill:#0c0303;}</style></defs><path class="cls-1" d="M915.65,1378A644,644,0,0,1,968.24,1331a611.41,611.41,0,0,1,57.78-41.07c2.48-1.63,5.07-3.08,7.6-4.63l7.64-4.57c5.14-3,10.34-5.83,15.53-8.74,5.28-2.72,10.53-5.52,15.87-8.16l8.06-3.88,4-1.94c1.35-.63,2.72-1.21,4.08-1.82,5.46-2.41,10.89-4.91,16.47-7.09l8.32-3.35,8.45-3.08c5.6-2.14,11.35-3.9,17-5.79,2.85-1,5.77-1.73,8.65-2.59s5.78-1.71,8.7-2.47l8.79-2.19c1.47-.36,2.93-.75,4.41-1.06l4.45-.93c3-.6,5.93-1.24,8.91-1.81l9-1.49c1.5-.24,3-.53,4.51-.72l4.54-.56c3-.35,6.05-.8,9.1-1.07l9.17-.73,2.29-.18,2.31-.08,4.61-.16c3.08-.1,6.16-.25,9.26-.14s6.19.08,9.29.18l9.32.62,2.33.16,2.33.28,4.66.56,4.67.57c1.55.25,3.1.54,4.66.82l4.65.84,2.33.43,2.31.55c3.09.75,6.18,1.48,9.26,2.27l9.17,2.85a161.57,161.57,0,0,1,17.92,7.32c1.46.71,3,1.35,4.39,2.12l4.28,2.39,4.27,2.41c1.42.82,2.77,1.75,4.16,2.62a158,158,0,0,1,15.67,11.71,173.69,173.69,0,0,1,14,13.51,167.34,167.34,0,0,1,12.33,15c1.94,2.59,3.72,5.31,5.52,8s3.45,5.5,5,8.35a157.39,157.39,0,0,1,15,36.29,132.91,132.91,0,0,1,4.66,40.12,109.23,109.23,0,0,1-9.77,40.73,124,124,0,0,1-23.45,33.64,177.57,177.57,0,0,1-30.19,25c-21.45,14.21-44.68,24.28-68.54,31.6a311.93,311.93,0,0,1-73.58,13.1c-6.26.37-12.54.48-18.85.4s-12.63-.36-19-.91a218.32,218.32,0,0,1-38-6.47,165.75,165.75,0,0,1-37.07-14.69,129,129,0,0,1-17.26-11.4c-2.78-2.09-5.4-4.46-8-6.8l-3.79-3.72c-1.27-1.24-2.42-2.6-3.62-3.91a113.19,113.19,0,0,1-12.62-17.17,125.4,125.4,0,0,1-9.06-18.91c-1.25-3.22-2.28-6.47-3.29-9.71l-1.34-4.88c-.44-1.62-.78-3.24-1.16-4.86a190.24,190.24,0,0,1-3.27-19.3,308.7,308.7,0,0,1-1.79-37.35c.1-12.17.6-24.11,1.24-35.88,1.24-23.55,2.84-46.52,3-69.24.12-11.35,0-22.64-.71-33.84s-1.81-22.3-3.5-33.29a278.78,278.78,0,0,0-7-32.51,261,261,0,0,0-10.86-31.35,255.22,255.22,0,0,0-14.88-29.78c-1.35-2.43-2.86-4.77-4.32-7.15s-3-4.7-4.55-7c-.78-1.15-1.53-2.34-2.34-3.48l-2.43-3.41-2.43-3.42c-.77-1-1.6-2.12-2.44-3.2a292.47,292.47,0,0,0-22.43-25.08q-12-12-25.16-22.89a345.28,345.28,0,0,0-56.52-38.06,337.06,337.06,0,0,0-30.86-14.62q-15.86-6.39-32.3-11.17A338.86,338.86,0,0,0,774.68,952c-11.21-1.85-22.7-3.12-34.16-4a406.54,406.54,0,0,0-68.91.6c-22.83,2.23-45.45,6.63-66.89,14.19-5.36,1.86-10.63,4-15.79,6.28s-10.24,4.79-15.15,7.55-9.7,5.71-14.29,8.92a167.63,167.63,0,0,0-13.25,10.3,156.85,156.85,0,0,0-11.93,11.7,145.14,145.14,0,0,0-10.48,13,150.51,150.51,0,0,0-8.86,14.12,163.35,163.35,0,0,0-7.25,15.09,169.26,169.26,0,0,0-9.73,32.07c-1.16,5.47-1.88,11-2.53,16.57l-.36,4.17-.17,2.09-.1,2.09-.2,4.18-.05,4.18a153.08,153.08,0,0,0,13.48,64.39,139.65,139.65,0,0,0,40.08,51,158.05,158.05,0,0,0,58.2,28.8,177.73,177.73,0,0,0,64.77,4.74,154,154,0,0,0,60.52-19.7,164.37,164.37,0,0,0,25.88-18.67,195.65,195.65,0,0,0,22.33-23.32A274.45,274.45,0,0,0,799,1175.5c1.6-2.44,2.91-4.74,4.34-7.1l2.1-3.51,1.06-1.75,1-1.8,3.87-7.16c1.26-2.4,2.35-4.86,3.54-7.28a200.25,200.25,0,0,0,11.31-30,206.24,206.24,0,0,0,6.25-31.38c2.59-21.33,1.89-43.39.3-66.31s-3.91-46.87-3.35-71.85a267.94,267.94,0,0,1,3.38-37.83,232.52,232.52,0,0,1,9.42-37.45c8.46-24.44,21-46.94,35.86-67.3s32-38.61,50.43-55.13c9.2-8.26,18.81-16,28.61-23.39C962,722.5,967,719,972,715.42s10.12-6.9,15.29-10.17c10.3-6.59,20.77-12.89,31.48-18.72s21.53-11.44,32.56-16.57a611.53,611.53,0,0,1,67.74-27q17.34-5.67,35-10.41t35.61-8.25a525.73,525.73,0,0,1,72.86-9.34,403.6,403.6,0,0,1,74.4,2.45,312.33,312.33,0,0,1,37.29,7.11A252.6,252.6,0,0,1,1410.84,637a204.19,204.19,0,0,1,34.74,19,211.9,211.9,0,0,1,30.15,25.38q6.87,7,13.14,14.45t11.82,15.62a195.92,195.92,0,0,1,19.16,34.7,157.82,157.82,0,0,1,6.76,19.11,143.9,143.9,0,0,1,4.27,20.17c.12.86.26,1.71.35,2.58l.27,2.6c.15,1.74.38,3.46.43,5.21l.25,5.25v5.27a130,130,0,0,1-2.09,21.06,133.06,133.06,0,0,1-5.56,20.4,134.62,134.62,0,0,1-8.72,19,152,152,0,0,1-24.4,32.44,192.13,192.13,0,0,1-30.36,25,215.17,215.17,0,0,1-34,18.48A192.21,192.21,0,0,1,1351.5,959a211.29,211.29,0,0,1-38.28-3.07,237.62,237.62,0,0,1-36.73-9.47,272.15,272.15,0,0,1-121-84.54c-2-2.39-3.86-4.91-5.72-7.41s-3.65-5.09-5.44-7.66L1143,845l-1.27-2-2.52-4c-.86-1.31-1.59-2.71-2.38-4.07l-2.32-4.11a208.54,208.54,0,0,1-15-34.4,230.42,230.42,0,0,1-8.54-36.25l-1.2-9.19c-.31-3.07-.51-6.15-.77-9.21s-.32-6.15-.43-9.22-.2-6.15-.08-9.21a248.13,248.13,0,0,1,3-36.5,264.88,264.88,0,0,1,7.94-35.5l2.64-8.67,3-8.54c1-2.86,2.09-5.65,3.21-8.45l1.67-4.19c.55-1.4,1.1-2.8,1.74-4.16l3.7-8.22.93-2.05,1-2,2-4c2.59-5.42,5.59-10.61,8.46-15.86a334.28,334.28,0,0,1,19.47-30c3.41-4.88,7.16-9.51,10.81-14.19l1.39-1.75,1.44-1.7,2.88-3.39,2.89-3.39c1-1.14,1.91-2.27,2.93-3.35a381.33,381.33,0,0,1,52-48l2.88,3.46a406.92,406.92,0,0,0-47.13,51c-.91,1.11-1.76,2.28-2.61,3.45l-2.55,3.49-2.55,3.48-1.28,1.74-1.21,1.79c-3.2,4.79-6.53,9.47-9.48,14.41a336.28,336.28,0,0,0-16.73,30c-2.41,5.19-5,10.3-7.08,15.59l-1.66,3.94-.83,2-.75,2-3,8c-.52,1.32-1,2.67-1.4,4l-1.34,4c-.89,2.69-1.82,5.37-2.54,8.11l-2.33,8.17-2,8.25a257.09,257.09,0,0,0-5.47,33.3,226.91,226.91,0,0,0-.95,33.46c0,2.78.31,5.55.54,8.31s.38,5.54.8,8.27.69,5.49,1.1,8.22l1.49,8.14a205.89,205.89,0,0,0,9.12,31.55,186.77,186.77,0,0,0,14.4,29.16l2.16,3.43c.73,1.14,1.39,2.31,2.2,3.41l2.32,3.32,1.16,1.66,1.23,1.62c1.66,2.16,3.24,4.35,5,6.43s3.44,4.21,5.29,6.23a243.15,243.15,0,0,0,109,70,189.9,189.9,0,0,0,63,8.4,154.9,154.9,0,0,0,30.83-4.45,160,160,0,0,0,29.34-10.57,174.39,174.39,0,0,0,27.16-15.76A149.44,149.44,0,0,0,1461,870.16c13.64-14.79,23.19-32.08,26-50.32a87.2,87.2,0,0,0-.18-27.87,97.87,97.87,0,0,0-3.32-14c-.67-2.33-1.55-4.64-2.36-7s-1.8-4.6-2.85-6.87c-8.12-18.23-20.62-35.32-35.39-49.81a165.31,165.31,0,0,0-23.71-19.39,160.72,160.72,0,0,0-26.91-14.24c-19.08-7.95-40-12.9-61.46-15.52a364.92,364.92,0,0,0-65.63-1.82,493.16,493.16,0,0,0-66.2,8.42,579.8,579.8,0,0,0-127.84,41c-10.23,4.59-20.25,9.62-30.15,14.85s-19.57,10.81-29.06,16.67c-4.76,2.9-9.4,6-14.06,9s-9.19,6.26-13.65,9.56c-9,6.54-17.7,13.34-26,20.57-16.62,14.43-32,30.13-45,47.37s-23.75,35.79-31,55.46a189.61,189.61,0,0,0-8.21,30.35,226.86,226.86,0,0,0-3.43,31.93c-.91,21.8.82,44.53,2,68.28.57,11.88,1,24,.76,36.35a293,293,0,0,1-3,37.38,227.6,227.6,0,0,1-23,72.23c-1.46,2.78-2.85,5.61-4.39,8.35l-4.73,8.12-1.19,2-1.27,2-2.55,3.92c-1.7,2.58-3.41,5.29-5.1,7.68a310.36,310.36,0,0,1-22.65,29.37,226.64,226.64,0,0,1-27.24,26.2,191.45,191.45,0,0,1-31.83,21q-8.51,4.41-17.4,8c-6,2.3-12,4.36-18.13,6a187.59,187.59,0,0,1-18.59,4.1q-9.36,1.53-18.78,2.19a203.82,203.82,0,0,1-74.07-8.75,182.74,182.74,0,0,1-65.21-35.81,162.29,162.29,0,0,1-43.62-60c-1.13-2.89-2.35-5.75-3.31-8.7-.5-1.47-1-2.93-1.51-4.4l-1.33-4.45-.66-2.23-.57-2.25-1.13-4.49c-.35-1.51-.63-3-.95-4.54s-.65-3-.87-4.54a179.49,179.49,0,0,1-2.51-36.7l.17-4.59.33-4.57.16-2.29.25-2.28.5-4.55c.86-6,1.8-12.08,3.21-18,.61-3,1.47-5.92,2.21-8.88l1.29-4.38.66-2.19.72-2.17,1.45-4.34,1.6-4.28c.51-1.44,1.09-2.85,1.69-4.25s1.15-2.83,1.77-4.22q3.72-8.37,8.24-16.37a168.4,168.4,0,0,1,10-15.4A165.31,165.31,0,0,1,523.82,998a172.21,172.21,0,0,1,13.26-12.66q7-5.92,14.53-11.1c5-3.44,10.23-6.57,15.53-9.5s10.76-5.57,16.28-8,11.14-4.63,16.82-6.61c22.72-7.94,46.33-12.51,70-15a450.49,450.49,0,0,1,71.21-1.47c11.87.68,23.67,1.72,35.58,3.42,11.82,1.85,23.6,4.07,35.21,7.06s23,6.58,34.31,10.71,22.26,9,33.06,14.2A380.63,380.63,0,0,1,941,1006.66c9.62,7.21,18.88,14.93,27.84,23a315.86,315.86,0,0,1,25.65,25.94c1,1.17,2,2.36,3.07,3.63l2.84,3.58,2.84,3.59c.95,1.2,1.83,2.45,2.75,3.67,1.81,2.45,3.66,4.89,5.37,7.43s3.51,5,5.14,7.61a284.25,284.25,0,0,1,18.11,32.07,296.33,296.33,0,0,1,23.35,69.87c5,24.06,7.12,48.44,7.87,72.47s0,47.82-.56,71c-.24,11.59-.44,23-.21,34.24q.15,8.42.67,16.6c.36,5.45.91,10.8,1.6,16a147.94,147.94,0,0,0,2.86,15.22,101.76,101.76,0,0,0,4.42,14.07,85.92,85.92,0,0,0,6.22,12.61,77.46,77.46,0,0,0,8.23,11c.8.83,1.52,1.72,2.36,2.5l2.48,2.41c1.77,1.51,3.48,3.09,5.4,4.48a89.63,89.63,0,0,0,12,7.87,129.81,129.81,0,0,0,28,11c20,5.34,41.66,7.08,63.29,6.07a277.75,277.75,0,0,0,64.34-10.74,255.35,255.35,0,0,0,30.6-11q7.41-3.24,14.53-7c4.71-2.5,9.31-5.16,13.75-8a144.11,144.11,0,0,0,24.18-19.14,88.55,88.55,0,0,0,17.08-23.22,72.74,72.74,0,0,0,7.09-26.91,97.26,97.26,0,0,0-2.68-29.36c-4.73-19.67-14.92-38.64-28.48-54.43a141.54,141.54,0,0,0-10.85-11.19A128.61,128.61,0,0,0,1320,1274c-1.06-.72-2.09-1.49-3.18-2.17l-3.3-2-3.3-2c-1.11-.65-2.3-1.2-3.45-1.81a136.61,136.61,0,0,0-14.28-6.49l-7.48-2.66-7.7-2.21-1.93-.55-2-.44-3.94-.87-4-.88-4-.66-4-.66-2-.33-2-.22-8.15-.91-8.23-.5c-2.74-.22-5.51-.22-8.28-.26-22.15-.47-44.59,2.42-66.75,6.94a440.35,440.35,0,0,0-65.44,19.56,541.16,541.16,0,0,0-62.69,28.74c-40.74,21.76-79.14,48.26-115.25,77.8Z" transform="translate(-477.7 -479.3)"/></svg>