<?xml version="1.0" encoding="UTF-8" standalone="no"?>
<!DOCTYPE svg PUBLIC "-//W3C//DTD SVG 1.1//EN" "http://www.w3.org/Graphics/SVG/1.1/DTD/svg11.dtd">
<svg width="100%" height="100%" viewBox="0 0 1050 1050" version="1.1" xmlns="http://www.w3.org/2000/svg" xmlns:xlink="http://www.w3.org/1999/xlink" xml:space="preserve" xmlns:serif="http://www.serif.com/" style="fill-rule:evenodd;clip-rule:evenodd;stroke-linejoin:round;stroke-miterlimit:2;">
    <g transform="matrix(1,0,0,1,-259.975,-285.002)">
        <g id="Слой_1">
            <path d="M738.47,621.24L736.68,620.97C736.11,620.86 735.68,620.7 735.12,620.56L732.12,619.7C731.642,619.57 731.176,619.396 730.73,619.18L729.42,618.62C728.576,618.272 727.763,617.854 726.99,617.37C724.046,615.78 721.395,613.701 719.15,611.22C715.05,606.407 711.13,601.493 707.39,596.48C703.65,591.467 700.09,586.343 696.71,581.11C693.33,575.87 690.21,570.51 687.1,564.93C683.99,559.35 680.88,553.46 678,547C676.58,543.79 675.28,540.48 674.13,537.22L673.28,534.77L672.53,532.52C672.04,531 671.53,529.52 671.04,527.91C668.852,521.242 667.18,514.415 666.04,507.49C664.871,500.028 664.727,492.441 665.61,484.94C666.038,481.364 666.669,477.815 667.5,474.31C668.28,470.9 669.21,467.54 670.31,464.16C671.426,460.666 672.762,457.246 674.31,453.92C676.084,450.056 678.339,446.43 681.02,443.13C682.802,440.98 684.887,439.1 687.21,437.55L688.21,436.9L689.35,436.29C689.74,436.1 690.11,435.9 690.53,435.72L691.81,435.22C693.596,434.568 695.464,434.164 697.36,434.02C700.74,433.822 704.12,434.429 707.22,435.79C709.53,436.792 711.693,438.104 713.65,439.69C716.72,442.166 719.48,445.003 721.87,448.14C724.026,450.87 726.029,453.718 727.87,456.67C731.43,462.37 734.46,468.11 737.31,473.87C740.16,479.63 742.77,485.41 745.31,491.22C747.85,497.03 750.18,502.86 752.49,508.7L755.9,517.46L757.57,521.85L758.4,524.05L758.81,525.14C758.96,525.5 759.15,525.85 759.32,526.2L748.89,527.39C750.62,515.53 752.83,503.7 755.63,491.97C756.297,489.037 757.03,486.113 757.83,483.2L760.11,474.58C761.68,468.81 763.33,462.97 765.34,457.07C767.371,451.013 769.882,445.127 772.85,439.47C775.926,433.678 779.578,428.21 783.75,423.15C787.717,418.109 792.063,413.379 796.75,409C799.394,406.564 802.245,404.363 805.27,402.42C808.944,400.017 813.034,398.321 817.33,397.42C820.062,396.884 822.865,396.813 825.62,397.21C828.56,397.671 831.39,398.667 833.97,400.15C836.231,401.493 838.286,403.157 840.07,405.09C841.592,406.736 842.951,408.524 844.13,410.43C846.106,413.675 847.716,417.13 848.93,420.73C850.046,423.942 850.958,427.222 851.66,430.55C852.967,436.799 853.846,443.131 854.29,449.5C854.76,455.71 854.89,461.9 854.89,467.92C854.849,480.379 853.691,492.808 851.43,505.06C849.239,517.139 846.293,529.069 842.61,540.78C838.98,552.44 834.72,563.85 830.01,575.05C825.3,586.25 820.09,597.22 814.36,607.9C802.97,629.33 789.09,649.24 773.93,668.09C772.043,670.45 770.12,672.783 768.16,675.09L765.22,678.55L763.73,680.28L762.16,682.05C758.02,686.65 753.84,691.05 749.58,695.33C741.05,703.91 732.23,712.12 723.18,720.07C714.13,728.02 704.78,735.64 695.25,743C685.72,750.36 676,757.36 666,764.09C663.54,765.82 661,767.4 658.48,769.09C655.96,770.78 653.48,772.42 650.89,773.98C645.77,777.15 640.69,780.36 635.46,783.35C632.85,784.86 630.28,786.41 627.65,787.88L619.74,792.23L615.74,794.4L603.74,800.61C601.07,801.99 598.32,803.23 595.61,804.55C592.9,805.87 590.19,807.17 587.44,808.42L579.14,812C576.38,813.22 573.63,814.46 570.82,815.55C565.22,817.77 559.68,820.15 553.98,822.14L545.47,825.23C542.64,826.23 539.74,827.12 536.88,828.07C513.921,835.578 490.376,841.157 466.49,844.75C460.55,845.8 454.49,846.31 448.49,847.03L444,847.54C442.5,847.71 441,847.77 439.48,847.89L430.48,848.52C418.389,849.366 406.259,849.516 394.15,848.97C381.819,848.501 369.559,846.881 357.53,844.13C354.53,843.34 351.45,842.65 348.45,841.65C346.95,841.16 345.45,840.75 343.95,840.19L339.5,838.53C333.568,836.175 327.847,833.318 322.4,829.99C316.982,826.616 311.899,822.731 307.22,818.39L303.77,815.14C302.61,814.07 301.6,812.85 300.51,811.71L297.32,808.23L294.37,804.56C286.611,794.723 280.132,783.94 275.09,772.47C269.96,760.944 266.505,748.744 264.83,736.24C263.128,723.465 263.635,710.493 266.33,697.89L266.82,695.49L267.47,693.14L268.81,688.42L270.47,683.78C270.76,683.02 271.01,682.23 271.33,681.48L272.33,679.22C274.925,673.187 278.1,667.42 281.81,662C289.241,651.245 298.307,641.716 308.68,633.76C313.742,629.81 319.038,626.17 324.54,622.86C329.99,619.53 335.54,616.53 341.27,613.78C352.58,608.343 364.279,603.753 376.27,600.05C382.22,598.18 388.22,596.52 394.22,595.05C397.22,594.3 400.22,593.57 403.1,592.89L412.47,590.89C425.092,588.485 437.894,587.147 450.74,586.89C463.553,586.683 476.363,587.449 489.06,589.18C501.487,590.883 513.817,593.233 526,596.22C538,599.1 549.5,602.44 561.21,605.77L578.63,611.18C584.41,613.09 590.17,615.09 595.94,617.08C618.909,625.262 641.436,634.635 663.43,645.16C685.35,655.6 706.57,666.91 727.34,678.34C748.11,689.77 768.56,701.26 789.05,712.45C799.28,718.11 809.53,723.53 819.82,729.09L851,745.7C871.73,756.7 892.37,767.8 913,778.3C933.63,788.8 954.27,798.74 975.06,806.98L982.86,809.98C985.47,810.98 988.08,811.82 990.69,812.76L994.6,814.13L996.6,814.82L998.6,815.42L1006.47,817.81C1009.09,818.68 1011.74,819.25 1014.37,819.94L1018.37,820.94C1019.7,821.28 1021.01,821.65 1022.37,821.89C1027.68,822.96 1032.99,824.21 1038.37,824.89L1042.37,825.51C1043.71,825.73 1045.06,825.94 1046.37,826.05L1054.48,826.87L1056.48,827.08C1057.14,827.15 1057.79,827.18 1058.48,827.23L1062.59,827.47C1065.35,827.6 1068.15,827.7 1070.96,827.77C1082.19,828.05 1093.53,827.84 1104.82,827.21C1127.4,825.9 1149.89,822.89 1171.53,817.32C1193.17,811.75 1213.97,803.57 1231.95,791.55C1240.88,785.627 1249,778.568 1256.1,770.55C1259.61,766.559 1262.8,762.307 1265.66,757.83C1266.4,756.74 1267.06,755.56 1267.73,754.39L1269.73,750.88C1270.44,749.73 1270.99,748.49 1271.6,747.28L1273.4,743.64C1278.01,733.647 1281.48,723.168 1283.74,712.4C1284.05,711.05 1284.33,709.69 1284.57,708.32L1285.33,704.23C1285.74,701.48 1286.19,698.73 1286.49,695.97C1286.67,694.59 1286.8,693.2 1286.92,691.82C1287.04,690.44 1287.16,689.06 1287.24,687.68C1287.32,686.3 1287.38,684.94 1287.45,683.56L1287.45,679.1L1287.45,679.75C1287.19,673.337 1286.46,666.953 1285.25,660.65C1284.01,654.319 1282.24,648.104 1279.95,642.07C1277.67,636.002 1274.93,630.118 1271.75,624.47C1270.16,621.63 1268.47,618.86 1266.75,616.1C1265.86,614.733 1264.94,613.357 1264.01,611.97L1261.13,608.03C1253.48,597.508 1244.47,588.045 1234.33,579.89C1224.09,571.704 1212.96,564.696 1201.15,559C1189.15,553.268 1176.74,548.422 1164.03,544.5C1160.86,543.5 1157.5,542.44 1154.35,541.5C1151.2,540.56 1147.99,539.64 1144.77,538.83C1141.55,538.02 1138.33,537.26 1135.1,536.51C1131.87,535.76 1128.6,535.16 1125.33,534.58C1112.26,532.263 1099.05,530.86 1085.78,530.38C1072.54,529.956 1059.29,530.521 1046.14,532.07C1019.9,535.124 994.31,542.341 970.34,553.45C958.379,559.016 946.85,565.467 935.85,572.75C930.343,576.377 924.897,580.203 919.51,584.23C916.84,586.23 914.17,588.23 911.58,590.23C910.28,591.23 908.96,592.23 907.67,593.32L903.83,596.49C893.63,604.993 883.947,614.095 874.83,623.75C870.277,628.583 865.82,633.537 861.46,638.61C857.08,643.7 852.77,648.88 848.46,654.14C839.9,664.65 831.24,675.49 822.46,686.07C813.68,696.65 804.9,707.24 796,717.73L742.77,780.41L729.54,796.07L716.4,811.82C707.51,822.41 698.45,832.82 689.34,843.14C671.08,863.73 652.89,883.79 636.28,905.06L630.09,913.06L624,921.19L618,929.39C616,932.143 614.057,934.893 612.17,937.64C604.547,948.418 597.857,959.826 592.17,971.74C589.425,977.647 587.031,983.711 585,989.9C583,996.08 581,1002.3 579.49,1008.68L578.87,1011.06L578.35,1013.47L577.29,1018.3C576.65,1021.67 576.02,1025.02 575.47,1028.3C574.273,1034.83 573.694,1041.47 573.74,1048.11C573.78,1054.53 574.871,1060.89 576.97,1066.96C579.044,1072.71 582.487,1077.87 587,1082C587.535,1082.52 588.107,1083 588.71,1083.43L590.46,1084.79C591.08,1085.2 591.72,1085.59 592.34,1085.98C592.954,1086.4 593.592,1086.78 594.25,1087.12C595.548,1087.86 596.883,1088.52 598.25,1089.12L600.25,1090L602.38,1090.74C608.182,1092.65 614.179,1093.91 620.26,1094.49C632.64,1095.84 645.56,1094.83 658.26,1092.63C671.055,1090.35 683.649,1087.06 695.92,1082.78C702.06,1080.64 708.12,1078.31 713.99,1075.68C719.828,1073.09 725.529,1070.2 731.07,1067.03C742.194,1060.73 752.591,1053.23 762.07,1044.65L765.6,1041.37L769.01,1037.95C770.17,1036.83 771.24,1035.62 772.34,1034.44C773.44,1033.26 774.53,1032.07 775.57,1030.83C776.61,1029.59 777.69,1028.39 778.7,1027.12L781.7,1023.32C783.64,1020.71 785.59,1018.11 787.39,1015.4C794.688,1004.54 800.914,993.002 805.98,980.94C811.122,968.895 815.058,956.371 817.73,943.55C819.04,937.14 820.07,930.55 820.73,924.12C821.07,920.88 821.33,917.65 821.43,914.52C821.43,912.96 821.5,911.41 821.43,909.95C821.406,908.612 821.303,907.276 821.12,905.95C821.12,905.69 821.04,905.39 820.99,905.22L820.92,904.91C820.899,904.851 820.882,904.791 820.87,904.73C820.87,904.66 820.87,904.62 820.87,904.66C820.87,904.7 820.87,904.66 820.87,904.66C820.917,904.778 820.981,904.89 821.06,904.99C821.201,905.237 821.372,905.465 821.57,905.67C821.908,906.048 822.291,906.384 822.71,906.67C823.312,907.119 823.989,907.458 824.71,907.67C825.431,907.894 826.185,907.996 826.94,907.97C827.475,907.957 828.006,907.876 828.52,907.73C828.798,907.654 829.069,907.553 829.33,907.43C829.459,907.374 829.583,907.307 829.7,907.23C829.78,907.17 829.76,907.23 829.79,907.16L829.73,907.16C829.407,907.436 829.106,907.737 828.83,908.06C828.46,908.47 828.04,908.98 827.62,909.52C826.79,910.61 825.93,911.85 825.09,913.14C821.622,918.672 818.441,924.38 815.56,930.24C812.56,936.24 809.69,942.32 806.93,948.47C805.55,951.55 804.24,954.6 802.93,957.77L798.93,967.15C788.52,992.15 779.72,1017.61 774.36,1043.84C771.632,1056.9 769.96,1070.15 769.36,1083.48C768.799,1096.71 769.684,1109.96 772,1123C774.351,1135.92 778.434,1148.46 784.14,1160.28C784.84,1161.76 785.66,1163.17 786.42,1164.62C787.18,1166.07 787.9,1167.48 788.78,1168.96C790.48,1171.89 792.21,1174.7 794.07,1177.39C797.62,1182.64 801.851,1187.39 806.65,1191.53C810.729,1195.18 815.565,1197.87 820.81,1199.43C822.955,1200.04 825.183,1200.3 827.41,1200.2C829.58,1200.12 831.73,1199.75 833.8,1199.09C836.133,1198.35 838.374,1197.34 840.48,1196.09C842.858,1194.66 845.118,1193.05 847.24,1191.27C851.889,1187.27 856.16,1182.86 860,1178.08C864.07,1173.19 867.91,1167.89 871.69,1162.44C873.583,1159.71 875.46,1156.93 877.32,1154.11C879.16,1151.31 881.15,1148.39 882.81,1145.67C904.449,1112.3 916.048,1073.39 916.22,1033.62C916.33,1026.96 916.14,1020.22 915.73,1013.56C915.397,1007.01 914.619,1000.5 913.4,994.06C913.11,992.595 912.743,991.146 912.3,989.72C912.006,988.703 911.596,987.724 911.08,986.8C910.564,985.876 911.08,986.8 911.08,986.8L911.21,986.92C911.546,987.194 911.929,987.404 912.34,987.54C913.029,987.784 913.771,987.842 914.49,987.71C914.709,987.682 914.922,987.618 915.12,987.52C915.212,987.501 915.298,987.46 915.37,987.4C915.5,987.4 915.25,987.46 914.93,987.84C914.753,988.031 914.586,988.231 914.43,988.44C914.25,988.65 914.07,988.91 913.88,989.18C912.251,991.665 910.877,994.308 909.78,997.07C908.559,1000.04 907.494,1003.07 906.59,1006.15C902.842,1018.63 901.153,1031.64 901.59,1044.66C902.211,1057.64 904.634,1070.47 908.79,1082.78C910.815,1088.88 913.247,1094.83 916.07,1100.6C918.796,1106.24 921.998,1111.63 925.64,1116.72C929.036,1121.57 933.035,1125.96 937.54,1129.8C939.624,1131.57 941.863,1133.15 944.23,1134.52C946.46,1135.75 948.805,1136.75 951.23,1137.52C951.82,1137.69 952.42,1137.81 953.01,1137.97L953.9,1138.19L954.81,1138.32C955.41,1138.4 956,1138.55 956.61,1138.6L958.43,1138.69L959.35,1138.76L960.27,1138.76L962.13,1138.69C962.75,1138.69 963.39,1138.52 964.02,1138.46C964.65,1138.4 965.28,1138.34 965.92,1138.18C971.394,1136.99 976.662,1135 981.55,1132.26C986.985,1129.2 992.174,1125.72 997.07,1121.86C998.36,1120.86 999.65,1119.86 1000.96,1118.86L1004.85,1115.7C1007.35,1113.64 1009.71,1111.58 1011.97,1109.42C1014.19,1107.26 1016.29,1104.98 1018.27,1102.6C1020.2,1100.24 1021.96,1097.74 1023.52,1095.12C1025.07,1092.54 1026.41,1089.83 1027.52,1087.03C1027.97,1085.61 1028.52,1084.21 1028.92,1082.76L1029.46,1080.59C1029.55,1080.22 1029.65,1079.86 1029.73,1079.5L1029.9,1078.39C1030.13,1076.91 1030.42,1075.44 1030.52,1073.93C1030.62,1072.42 1030.69,1070.93 1030.68,1069.34C1030.66,1066.25 1030.41,1063.16 1029.91,1060.11C1029.46,1057.17 1028.72,1054.28 1027.7,1051.49C1027.27,1050.33 1026.72,1049.21 1026.06,1048.15C1025.86,1047.83 1025.62,1047.53 1025.36,1047.26C1025.2,1047.07 1025.2,1047.14 1025.54,1047.26C1025.74,1047.32 1025.94,1047.34 1026.15,1047.33C1026.23,1047.34 1026.3,1047.34 1026.38,1047.33C1026.42,1047.34 1026.46,1047.34 1026.5,1047.33C1026.58,1047.33 1026.34,1047.33 1026.03,1047.57C1025.12,1048.2 1024.31,1048.96 1023.62,1049.83C1021.8,1052.09 1020.27,1054.58 1019.08,1057.23C1017.81,1059.97 1016.83,1062.84 1016.14,1065.78C1015.52,1068.68 1015.22,1071.64 1015.25,1074.61C1015.22,1074.98 1015.22,1075.36 1015.25,1075.73L1015.52,1079.12C1015.81,1080.62 1016,1082.12 1016.35,1083.62C1017.06,1086.64 1018.04,1089.59 1019.28,1092.44C1021.81,1098.25 1025.2,1103.64 1029.33,1108.44C1037.61,1118.09 1048.62,1125.44 1060.86,1128.38C1067.04,1129.86 1073.4,1130.43 1079.74,1130.07C1086.12,1129.7 1092.43,1128.49 1098.5,1126.46L1101.86,1136.85C1094.85,1138.99 1087.6,1140.26 1080.27,1140.62C1072.9,1140.95 1065.52,1140.24 1058.34,1138.52C1051.13,1136.71 1044.26,1133.76 1037.98,1129.78C1031.76,1125.82 1026.13,1120.99 1021.27,1115.44C1016.39,1109.88 1012.34,1103.64 1009.27,1096.91C1007.72,1093.49 1006.47,1089.94 1005.52,1086.31C1005.05,1084.48 1004.75,1082.59 1004.37,1080.73L1004.07,1077.87L1003.93,1076.43C1003.87,1075.95 1003.84,1075.47 1003.85,1074.99C1003.72,1071.1 1004.02,1067.21 1004.74,1063.38C1005.5,1059.6 1006.66,1055.92 1008.18,1052.38C1009.71,1048.72 1011.71,1045.28 1014.11,1042.13C1015.52,1040.28 1017.21,1038.65 1019.11,1037.3C1020.36,1036.4 1021.76,1035.73 1023.24,1035.3C1023.69,1035.19 1024.14,1035.08 1024.61,1035C1025.11,1034.93 1025.62,1034.89 1026.13,1034.88C1027.19,1034.88 1028.25,1035.03 1029.27,1035.34C1030.96,1035.86 1032.51,1036.76 1033.82,1037.95C1034.82,1038.85 1035.7,1039.85 1036.47,1040.95C1037.73,1042.74 1038.79,1044.67 1039.64,1046.69C1041.13,1050.28 1042.24,1054.02 1042.97,1057.84C1044.47,1065.29 1044.81,1072.93 1043.97,1080.49L1043.83,1081.94C1043.76,1082.41 1043.67,1082.94 1043.59,1083.36L1043.09,1086.22C1042.73,1088.13 1042.18,1089.98 1041.71,1091.86C1041.24,1093.74 1040.57,1095.55 1039.85,1097.33C1039.13,1099.11 1038.43,1100.91 1037.58,1102.62C1035.95,1106.08 1034.1,1109.42 1032.02,1112.62C1029.95,1115.77 1027.71,1118.82 1025.33,1121.74C1022.95,1124.61 1020.44,1127.38 1017.89,1129.96L1014.16,1133.72C1012.91,1134.95 1011.65,1136.21 1010.33,1137.45C1004.94,1142.65 999.049,1147.31 992.75,1151.37C985.901,1155.77 978.333,1158.93 970.39,1160.71C961.759,1162.51 952.81,1162.09 944.39,1159.47C940.304,1158.12 936.38,1156.32 932.69,1154.11C929.175,1151.95 925.87,1149.47 922.82,1146.7C917.068,1141.4 912.062,1135.35 907.94,1128.7C906.88,1127.11 906,1125.46 905.03,1123.84C904.06,1122.22 903.26,1120.54 902.39,1118.84C900.75,1115.49 899.21,1112.12 897.85,1108.7C895.166,1101.91 892.954,1094.94 891.23,1087.85C887.778,1073.79 886.185,1059.33 886.49,1044.85C886.666,1037.61 887.405,1030.39 888.7,1023.26C889.939,1016.18 891.656,1009.19 893.84,1002.34C894.95,998.9 896.17,995.49 897.63,992.09C899.099,988.493 900.925,985.053 903.08,981.82C903.39,981.38 903.69,980.94 904.08,980.48C904.47,980.02 904.79,979.59 905.24,979.12C906.236,977.986 907.399,977.011 908.69,976.23C909.14,975.98 909.61,975.74 910.08,975.53C910.688,975.295 911.313,975.108 911.95,974.97C912.712,974.835 913.487,974.788 914.26,974.83C915.064,974.896 915.856,975.06 916.62,975.32C917.837,975.759 918.953,976.439 919.9,977.32C920.264,977.621 920.599,977.956 920.9,978.32C921.17,978.64 921.47,979 921.69,979.32C922.427,980.389 923.056,981.528 923.57,982.72C923.81,983.25 924.02,983.77 924.2,984.26C924.38,984.75 924.57,985.26 924.72,985.73C925.35,987.67 925.82,989.51 926.23,991.33C927.658,998.35 928.66,1005.45 929.23,1012.59C929.86,1019.59 930.23,1026.59 930.46,1033.59C930.918,1047.74 930.202,1061.91 928.32,1075.94C926.389,1090.1 923.138,1104.04 918.61,1117.59C914.058,1131.22 908.149,1144.35 900.97,1156.8C899.21,1160.02 897.47,1162.86 895.66,1165.86C893.85,1168.86 892.03,1171.86 890.13,1174.86C886.32,1180.86 882.28,1186.76 877.75,1192.55C873.152,1198.51 867.996,1204.02 862.35,1209C859.255,1211.67 855.936,1214.08 852.43,1216.18C848.661,1218.47 844.606,1220.25 840.37,1221.48C835.849,1222.76 831.137,1223.24 826.45,1222.89C824.085,1222.72 821.741,1222.33 819.45,1221.72C817.235,1221.12 815.074,1220.33 812.99,1219.37C810.983,1218.44 809.048,1217.37 807.2,1216.15C805.457,1214.97 803.787,1213.69 802.2,1212.31C799.173,1209.69 796.401,1206.8 793.92,1203.66C789.361,1197.8 785.285,1191.57 781.73,1185.05C779.96,1181.93 778.28,1178.79 776.62,1175.75C775.8,1174.25 774.98,1172.58 774.17,1171C773.36,1169.42 772.5,1167.82 771.76,1166.19C765.756,1153.18 761.389,1139.47 758.76,1125.38C756.285,1111.4 755.183,1097.21 755.47,1083.01C755.795,1068.92 757.189,1054.88 759.64,1041.01C764.41,1013.31 772.92,986.48 783.18,960.67L787.09,951.04C788.39,947.89 789.74,944.63 791.09,941.43C793.86,935.03 796.73,928.69 799.8,922.37C802.883,915.88 806.308,909.558 810.06,903.43C811.06,901.84 812.13,900.24 813.36,898.59C813.98,897.77 814.63,896.94 815.36,896.07C816.207,895.093 817.123,894.177 818.1,893.33C818.41,893.07 818.7,892.83 819.04,892.57C819.38,892.31 819.74,892.06 820.19,891.78C820.67,891.477 821.167,891.203 821.68,890.96C822.325,890.652 822.993,890.398 823.68,890.2C824.604,889.933 825.558,889.785 826.52,889.76C827.707,889.723 828.893,889.878 830.03,890.22C831.141,890.574 832.195,891.086 833.16,891.74C833.918,892.283 834.616,892.907 835.24,893.6C835.708,894.134 836.136,894.702 836.52,895.3C836.81,895.78 837.08,896.3 837.33,896.76C837.58,897.22 837.69,897.58 837.86,898C838.018,898.372 838.155,898.753 838.27,899.14L838.58,900.19L838.81,901.14C838.97,901.79 839.06,902.35 839.16,902.93C839.492,905.002 839.696,907.093 839.77,909.19C839.86,911.19 839.86,913.04 839.82,914.9C839.74,918.62 839.49,922.23 839.17,925.82C838.51,932.99 837.52,940.02 836.17,947.06C834.885,954.123 833.226,961.113 831.2,968C829.16,974.86 826.827,981.613 824.2,988.26C818.9,1001.61 812.341,1014.42 804.61,1026.52C800.742,1032.63 796.57,1038.53 792.11,1044.22C787.638,1049.95 782.858,1055.44 777.79,1060.65C762.458,1076.51 744.157,1089.2 723.93,1098C717.263,1100.89 710.493,1103.43 703.62,1105.64C689.854,1110.05 675.668,1113.02 661.29,1114.5C654.031,1115.23 646.733,1115.5 639.44,1115.32C632.019,1115.16 624.625,1114.36 617.34,1112.94C609.829,1111.48 602.582,1108.89 595.84,1105.27C588.905,1101.59 582.783,1096.56 577.84,1090.46C573.086,1084.42 569.538,1077.53 567.39,1070.15C565.449,1063.1 564.295,1055.86 563.95,1048.55C563.51,1041.38 563.6,1034.3 563.72,1027.29C563.72,1023.78 563.9,1020.29 564,1016.86L564.31,1011.5L564.48,1008.82L564.77,1006.14C564.98,1004.36 565.16,1002.57 565.42,1000.79C565.68,999.01 566.02,997.24 566.34,995.47C566.66,993.7 567.07,991.94 567.48,990.19C567.89,988.44 568.28,986.67 568.82,984.96L570.38,979.78L572.13,974.67C572.69,972.96 573.37,971.3 574.02,969.67C574.67,968.04 575.3,966.31 576.02,964.67C581.668,951.601 588.422,939.038 596.21,927.12C603.75,915.36 611.6,903.95 619.84,892.7C628.08,881.45 636.7,870.52 645.5,859.84C654.3,849.16 663.29,838.73 672.13,828.3C680.97,817.87 689.79,807.51 698.39,796.98C706.99,786.45 715.86,775.74 724.69,765.24L751.32,733.82L778,702.47C786.873,692.05 795.693,681.607 804.46,671.14C813.24,660.65 821.8,650.14 830.64,639.47C835.06,634.137 839.58,628.84 844.2,623.58C848.82,618.32 853.587,613.15 858.5,608.07C868.347,597.895 878.803,588.327 889.81,579.42L894,576.1C895.39,575.01 896.81,573.95 898.21,572.88C901,570.71 903.87,568.65 906.73,566.58C912.39,562.48 918.217,558.51 924.21,554.67C936.226,547.029 948.79,540.287 961.8,534.5C968.31,531.6 974.96,529.01 981.67,526.61C988.38,524.21 995.28,522.38 1002.11,520.37C1003.81,519.83 1005.56,519.5 1007.29,519.09L1012.5,517.92L1017.71,516.74C1018.57,516.53 1019.45,516.37 1020.33,516.23L1022.96,515.79L1033.48,514.04L1044.07,512.84C1058.19,511.434 1072.4,511.067 1086.57,511.74C1100.71,512.469 1114.77,514.187 1128.67,516.88C1132.14,517.55 1135.59,518.34 1139.04,519.1C1142.49,519.86 1145.92,520.75 1149.34,521.71C1152.76,522.67 1156.16,523.64 1159.53,524.71C1162.9,525.78 1166.11,526.81 1169.45,527.93C1182.9,532.258 1196.02,537.562 1208.7,543.8C1221.51,550.221 1233.58,558.024 1244.7,567.07C1267.02,585.539 1284.35,609.309 1295.12,636.2C1300.53,649.746 1304.07,663.962 1305.66,678.46L1305.66,679.12C1305.66,679.12 1305.66,679.07 1305.66,679.2L1305.66,679.82L1305.74,681.06L1305.87,683.46C1305.87,685.04 1305.98,686.63 1305.97,688.19C1305.96,689.75 1305.97,691.33 1305.97,692.89C1305.97,694.45 1305.9,696.02 1305.81,697.58C1305.68,700.7 1305.39,703.8 1305.13,706.91C1304.87,710.02 1304.46,713.13 1303.9,716.21C1301.99,728.689 1298.66,740.909 1293.97,752.63L1292.08,757.03C1291.44,758.49 1290.86,759.97 1290.08,761.39L1287.92,765.68C1287.2,767.11 1286.48,768.55 1285.65,769.95C1282.49,775.595 1278.93,781.006 1275,786.14C1267.03,796.305 1257.77,805.397 1247.47,813.19C1237.35,820.88 1226.51,827.578 1215.11,833.19C1203.89,838.736 1192.29,843.484 1180.4,847.4C1156.89,855.061 1132.71,860.455 1108.18,863.51C1095.97,865.08 1083.74,866.19 1071.38,866.76C1068.29,866.907 1065.18,867.013 1062.05,867.08L1057.31,867.15L1054.89,867.15L1052.5,867.09L1042.96,866.8C1041.36,866.8 1039.77,866.65 1038.19,866.52L1033.42,866.13C1027.03,865.74 1020.74,864.76 1014.42,863.93C1012.83,863.75 1011.27,863.44 1009.71,863.16L1005.03,862.29C1001.91,861.68 998.75,861.19 995.69,860.41L986.46,858.25L984.16,857.71L981.89,857.08L977.36,855.82C974.36,854.96 971.28,854.19 968.36,853.23L959.48,850.38C935.85,842.63 913.38,833.2 891.48,823.3C869.58,813.4 848.2,802.92 826.99,792.3C816.383,786.967 805.82,781.633 795.3,776.3C784.72,770.87 774.05,765.38 763.56,759.75C742.56,748.54 721.79,736.94 701.29,725.52C680.79,714.1 660.53,702.85 640.14,692.4C619.75,681.95 599.14,672.24 578.14,663.4C572.85,661.27 567.6,659.04 562.29,656.93L546.29,650.77C540.91,648.77 535.49,646.89 530.09,644.93C524.69,642.97 519.25,641.12 513.9,639.35C503.17,635.77 492.58,632.75 481.9,630.35C471.366,627.937 460.671,626.287 449.9,625.41C439.146,624.583 428.342,624.657 417.6,625.63L409.5,626.53C406.59,626.92 403.81,627.31 401.01,627.74C395.45,628.59 389.95,629.57 384.49,630.74C373.646,632.973 362.983,636.012 352.59,639.83C342.376,643.525 332.6,648.334 323.44,654.17C314.483,659.818 306.497,666.876 299.79,675.07C296.488,679.101 293.603,683.457 291.18,688.07L290.25,689.8C289.95,690.37 289.71,690.99 289.43,691.58L287.82,695.17L286.39,699L285.72,700.85L285.19,702.77C279.19,723.09 280.85,746.11 288.96,766.77C293.123,777.033 298.903,786.564 306.08,795L308.76,798.15L311.65,801.15L313.09,802.62C313.558,803.122 314.052,803.599 314.57,804.05L317.64,806.77C321.716,810.351 326.108,813.558 330.76,816.35C335.438,819.091 340.338,821.433 345.41,823.35L349.27,824.72C350.56,825.18 351.91,825.5 353.27,825.91C355.88,826.74 358.61,827.3 361.27,827.91C372.312,830.173 383.54,831.401 394.81,831.58C406.288,831.818 417.77,831.397 429.2,830.32L437.8,829.51C439.23,829.36 440.67,829.28 442.1,829.08L454.94,827.31C457.8,826.97 460.64,826.42 463.47,825.91C486.183,821.925 508.535,816.11 530.31,808.52C552.113,800.942 573.342,791.802 593.83,781.17C614.329,770.475 634.134,758.501 653.13,745.32C662.64,738.74 671.92,731.82 681.03,724.71C690.14,717.6 699.03,710.15 707.66,702.5C716.29,694.85 724.75,686.94 732.87,678.8C736.87,674.73 740.87,670.58 744.65,666.42L746.02,664.88L747.43,663.26L750.2,660C752.06,657.807 753.897,655.6 755.71,653.38C762.99,644.49 769.89,635.27 776.49,625.86C783.09,616.45 789.49,606.86 795.49,597.12C801.49,587.38 807.2,577.31 812.21,567C817.242,556.743 821.517,546.131 825,535.25C828.47,524.461 830.951,513.379 832.41,502.14C833.82,491.06 834.095,479.866 833.23,468.73C832.83,462.96 832.23,457.37 831.51,451.84C830.82,446.459 829.845,441.118 828.59,435.84C828.002,433.411 827.288,431.014 826.45,428.66C825.763,426.67 824.886,424.751 823.83,422.93C823.314,422.035 822.663,421.226 821.9,420.53C821.137,419.834 821.9,420.46 821.9,420.53L821.98,420.53C821.98,420.53 821.87,420.45 821.47,420.53C819.974,420.839 818.543,421.404 817.24,422.2C815.249,423.379 813.356,424.717 811.58,426.2C807.458,429.677 803.566,433.418 799.93,437.4C796.284,441.19 792.991,445.304 790.09,449.69C787.121,454.234 784.504,458.998 782.26,463.94C779.89,469 777.72,474.32 775.59,479.76L772.43,487.97C771.39,490.637 770.39,493.35 769.43,496.11C765.561,507.053 762.296,518.199 759.65,529.5L755.65,546.63L749.2,530.6C749.06,530.24 748.93,529.87 748.77,529.52L748.24,528.52L747.18,526.46L745.05,522.35C743.623,519.61 742.177,516.887 740.71,514.18C737.77,508.77 734.77,503.4 731.65,498.18C728.53,492.96 725.34,487.73 722,482.71C718.747,477.785 715.246,473.029 711.51,468.46C709.765,466.331 707.902,464.301 705.93,462.38C704.326,460.753 702.525,459.332 700.57,458.15C700.071,457.81 699.499,457.594 698.9,457.52C698.63,457.52 698.9,457.79 699.65,457.82C700.002,457.839 700.356,457.808 700.7,457.73L700.91,457.67L701.05,457.67C701.089,457.682 701.131,457.682 701.17,457.67L701.24,457.67C701.38,457.67 701.12,458 700.8,458.58C699.859,460.316 699.096,462.142 698.52,464.03C697.755,466.461 697.12,468.931 696.62,471.43C696.1,474.05 695.68,476.75 695.35,479.43C695.02,482.028 694.84,484.642 694.81,487.26C694.744,492.15 695.315,497.028 696.51,501.77C697.9,506.959 699.641,512.047 701.72,517L703.4,521.14L704.26,523.25L705.07,525.17C706.16,527.69 707.3,530.09 708.55,532.48C711.02,537.24 714.04,542.17 717.21,547.3C720.38,552.43 723.61,557.73 726.68,563.1C729.75,568.47 732.68,573.97 735.3,579.59C737.92,585.21 740.5,590.91 742.88,596.71C744.034,599.844 744.646,603.151 744.69,606.49C744.765,607.398 744.765,608.312 744.69,609.22L744.58,610.65C744.571,611.145 744.511,611.638 744.4,612.12L743.76,615.24C743.64,615.77 743.57,616.24 743.41,616.82L742.83,618.54L738.47,621.24Z" style="fill:rgb(10,4,4);fill-rule:nonzero;"/>
        </g>
    </g>
</svg>
