<?xml version="1.0" encoding="UTF-8" standalone="no"?>
<!DOCTYPE svg PUBLIC "-//W3C//DTD SVG 1.1//EN" "http://www.w3.org/Graphics/SVG/1.1/DTD/svg11.dtd">
<svg width="100%" height="100%" viewBox="0 0 1050 1050" version="1.1" xmlns="http://www.w3.org/2000/svg" xmlns:xlink="http://www.w3.org/1999/xlink" xml:space="preserve" xmlns:serif="http://www.serif.com/" style="fill-rule:evenodd;clip-rule:evenodd;stroke-miterlimit:10;">
    <g transform="matrix(0.982288,0,0,0.982288,-470.168,-468.957)">
        <path d="M932.17,576.09C870.29,507.32 758.3,469 664,516.22C535.89,580.3 502.85,770.84 511.36,886.39C524.09,1059.1 629.07,1168.31 683.51,1223.72C685.51,1225.72 687.93,1228.2 690.83,1231.01C775.32,1312.92 857.43,1346.45 889.21,1359.88C1055.05,1429.94 1197.33,1527.2 1201.02,1518.83C1203.23,1513.83 1147.72,1488.31 1081.19,1418.74C1035.33,1370.74 997.75,1331.49 975.66,1269.07C936.79,1159.22 984.66,1078.94 935.83,1025.76C908.64,996.16 871.7,990.32 845.92,989.76L984.92,882.68L830.39,799.68C913.66,790.68 973.39,741.44 980.52,686.17C986.81,636.8 949.44,595.28 932.17,576.09Z" style="fill:none;fill-rule:nonzero;stroke:rgb(7,0,0);stroke-width:24px;"/>
    </g>
    <g transform="matrix(0.982288,0,0,0.982288,-470.168,-468.957)">
        <path d="M973.39,788.39C979.79,785.91 1028.32,766.05 1047.51,707.5C1063.08,660.02 1053.27,605.64 1022.43,567.58C1236.02,474.37 1431.07,526.58 1491.16,653.88C1515.88,706.24 1522.46,781.24 1507.64,846.24C1487.64,934.06 1441.79,945.36 1350.71,1089.54C1320.45,1137.44 1280.71,1201.14 1249.08,1289.45C1216.21,1381.24 1205.13,1463.29 1201.02,1518.83C1041.59,1410.83 1003.34,1318.28 1003.22,1249.03C1003.06,1162.42 1058.45,1087.43 1029.22,1017.4C1020.76,997.14 1001.64,974.28 955.63,960.55L1085.7,867.2L973.39,788.39Z" style="fill:none;fill-rule:nonzero;stroke:rgb(7,0,0);stroke-width:24px;"/>
    </g>
</svg>
