<svg id="Слой_1" data-name="Слой 1" xmlns="http://www.w3.org/2000/svg" viewBox="0 0 1040 1032.37"><defs><style>.cls-1,.cls-2{fill:none;stroke-miterlimit:10;stroke-width:16px;fill-rule:evenodd;}.cls-1{stroke:#160e0e;stroke-linecap:round;}.cls-2{stroke:#230e0e;}</style></defs><path class="cls-1" d="M471.22,933.27c131.55,20.37,171,4.21,180.3-16.71,7.4-16.61-1.24-42.75,9-47.39,11.25-5.1,24.81,23.73,49.08,22.62,17.17-.78,32.28-16.19,30.83-19.9-1.65-4.26-29.25-3.16-42.24,12.23-27.32,32.36,8,106.68,11.37,113.55,4.85,9.8,27.76,56.11,51.63,53,13.91-1.81,24.9-20,24-21-1.09-1.33-30.53,15.25-33,35.54-3.37,27,41.83,54.25,63,67,30.2,18.18,103.4,60.78,203.09,48.92,67.5-8,102-35.65,114.08-46.43,7-6.24,35.65-31.84,30.05-45.24-3.6-8.61-21-11.41-24-6.46-3.65,6,10.71,29.1,25.54,30.69,19.83,2.14,37.86-34.38,47.72-54.85,20.59-42.7,63.09-128.37,45.5-248.08-4.9-33.37-10.42-70.92-33.86-112.77-48.64-86.84-143.64-137.13-235.62-141.8-20.09-1-129.16-4.38-213.81,80-8.71,8.68-69.61,71.1-81.45,168.45-3.6,29.66-3.31,67.94,4.73,69.65,18.22,3.87,51.2-186.59,104-185.56,7.94.16,17,9.35,35.19,27.74,35.06,35.49,87.45,102.84,102.09,133.07,1,2.07,4.38,9.23,11.64,13.68,8.48,5.19,18.5,3.53,21.4,2.33,26.81-11.06-10.2-218.24-21.94-216.63-5.4.74-.35,63.19,9.75,188.1,1.15,14.2,3.06,35.64,13.57,60.44,5,11.72,15.51,32.75,50.34,66.57,38.5,37.36,96.17,80.12,102.18,73.24,12.63-14.44-158.09-181.88-167.71-172.59-1.58,1.52,1.82,7.1-.58,18-.73,3.34-3,13.64-11.52,20.47-7.34,5.87-19.81,9.55-27.89,3.77-13.21-9.47-9.19-40.34,2.84-47.93,10.66-6.72,24.76,6.59,27.56,2.84,6.06-8.14-56.68-75.93-98.73-125-26.61-31-35.58-42.53-38.14-53.62a25.27,25.27,0,0,1-.86-6.94c.71-25,42-52.84,64.35-40.24,13.45,7.58,18.44,28.88,16.21,30.59s-15.56-14.11-17-15.79c-4.91-5.85-7.36-8.78-7.51-10.5-1.19-13.5,59.3-42.2,126.22-41.2,48.25.72,116.68,17.14,121.71,49.28,3.59,22.92-25.85,48.84-25,49.55s17.72-36.5,42.07-39.86c34.29-4.72,66.86,59.87,93.17,112,29.35,58.19,23.52,72.79,20.47,78.09-13.42,23.28-62,20.79-62.55,17.78-.48-2.73,36-20,52.36-6.05,14,12,2,37.2,18.27,53.05,9.81,9.54,27.19,12.47,38.18,4.37,11.44-8.43,15.06-28.21,10.4-32-4.13-3.37-17.52,3.73-18,10.77-1,14,47.47,28.45,61.25,32.57a302.75,302.75,0,0,0,119.8,10.87c12.71-1.42,23.21-3.39,30.54-5" transform="translate(-463.22 -547.85)"/><path class="cls-2" d="M870.68,1579.85c4.16-90.37-4.49-198.09-68.24-243.86-39.48-28.36-82.54-20.46-86.3-39.81-9.33-48.08,260-119.81,253.62-208.77a49,49,0,0,0-8.69-24.46c-13.65-17.45-38.85-15.89-39.07-14.71-.33,1.7,51.26,3.84,64.45,34.8,4.39,10.32,3.27,21,3.2,21.84-1.31,16.16-11.36,25.37-15.09,28.83-39.8,36.85-57.54,57.85-61.7,61.4-29.64,25.31-68.52,58.52-63.39,80.77,4.83,21,44.67,14,101.5,34.21,10.74,3.82,124,46.09,170.61,157.54,14.72,35.2,18.94,68.09,20,91.59" transform="translate(-463.22 -547.85)"/></svg>