<?xml version="1.0" encoding="UTF-8" standalone="no"?>
<!DOCTYPE svg PUBLIC "-//W3C//DTD SVG 1.1//EN" "http://www.w3.org/Graphics/SVG/1.1/DTD/svg11.dtd">
<svg width="100%" height="100%" viewBox="0 0 1300 1050" version="1.1" xmlns="http://www.w3.org/2000/svg" xmlns:xlink="http://www.w3.org/1999/xlink" xml:space="preserve" xmlns:serif="http://www.serif.com/" style="fill-rule:evenodd;clip-rule:evenodd;stroke-linecap:round;stroke-linejoin:round;stroke-miterlimit:1.5;">
    <g transform="matrix(0.941362,0,0,0.941362,-176.535,-383.798)">
        <path d="M687,1125.92C683.73,1124.43 680.4,1123.11 677,1121.92C673.6,1120.73 670.25,1119.63 666.84,1118.69C663.43,1117.75 659.98,1116.92 656.53,1116.21C653.08,1115.5 649.61,1114.96 646.14,1114.5C632.442,1112.69 618.538,1113.15 604.99,1115.86C591.794,1118.64 579.173,1123.67 567.68,1130.73C556.32,1137.6 546.134,1146.25 537.51,1156.34C529.111,1166.01 522.66,1177.22 518.51,1189.34C514.546,1201.12 513.058,1213.58 514.14,1225.96C515.301,1238.25 518.786,1250.2 524.41,1261.19C527.236,1266.75 530.517,1272.07 534.22,1277.09C537.824,1282.05 541.839,1286.69 546.22,1290.98L551.22,1295.75L551.27,1303.75L551.44,1333.13L551.52,1362.51L551.52,1391.89L551.45,1421.27L512.27,1412.27C516.2,1403.44 520.27,1394.65 524.62,1385.92C528.97,1377.19 533.62,1368.57 538.69,1360.03C543.76,1351.49 549.14,1343.03 555.12,1334.82C561.197,1326.35 567.881,1318.33 575.12,1310.82C578.873,1307 582.873,1303.3 587.12,1299.72C591.513,1296.09 596.14,1292.75 600.97,1289.72C606.078,1286.55 611.459,1283.84 617.05,1281.62C622.934,1279.3 629.053,1277.62 635.3,1276.62C641.732,1275.6 648.265,1275.38 654.75,1275.97C661.327,1276.6 667.797,1278.07 674,1280.34C679.673,1282.44 685.142,1285.06 690.34,1288.16C695.22,1291.03 699.6,1293.98 703.68,1296.9C711.84,1302.73 719.07,1308.3 726.3,1313.38C733.53,1318.46 740.68,1323.15 748.08,1327.38C755.483,1331.64 763.137,1335.45 771,1338.79C774.93,1340.41 778.83,1342.14 782.86,1343.49C784.86,1344.2 786.86,1344.97 788.86,1345.64L798.01,1348.46L801.09,1349.27L807.27,1350.91L813.53,1352.27L816.66,1352.96L819.82,1353.51L826.16,1354.62L832.56,1355.49C833.63,1355.63 834.69,1355.81 835.77,1355.91L839,1356.24C841.16,1356.44 843.3,1356.72 845.48,1356.87C854.15,1357.57 862.96,1357.81 871.85,1357.87C880.74,1357.93 889.78,1357.6 898.94,1357.2L912.81,1356.54L914.54,1356.44L916.17,1356.33L919.43,1356.1C921.6,1355.93 923.77,1355.85 925.95,1355.6C930.29,1355.08 934.65,1354.78 938.95,1354.07L945.48,1353.14L952,1352C956.34,1351.29 960.65,1350.27 965,1349.37C967.17,1348.94 969.32,1348.37 971.47,1347.83L977.93,1346.22C982.21,1344.99 986.51,1343.84 990.77,1342.52L997.16,1340.52C998.22,1340.18 999.29,1339.86 1000.35,1339.52L1003.52,1338.4C1020.55,1332.52 1037.21,1325.59 1053.39,1317.65L1056.45,1316.17L1059.45,1314.61L1065.45,1311.5C1067.45,1310.5 1069.45,1309.38 1071.45,1308.3L1077.45,1305.05C1081.45,1302.85 1085.35,1300.51 1089.31,1298.25C1093.27,1295.99 1097.1,1293.5 1101,1291.12L1112.55,1283.72L1124,1276L1135.23,1268L1146.3,1259.77C1160.99,1248.66 1175.17,1236.77 1189,1224.47L1191.6,1222.17L1194.15,1219.81L1199.25,1215.08C1202.71,1211.97 1206.02,1208.71 1209.38,1205.51C1211.05,1203.89 1212.76,1202.31 1214.38,1200.66L1219.3,1195.66L1224.3,1190.73L1229.15,1185.73C1242.1,1172.31 1254.69,1158.45 1266.91,1144.15C1257.37,1160.35 1247.01,1176.08 1235.84,1191.35L1231.67,1197.08L1227.37,1202.71L1223.04,1208.34C1221.59,1210.21 1220.04,1212.03 1218.6,1213.88C1212.71,1221.3 1206.6,1228.52 1200.28,1235.63C1187.74,1249.89 1174.42,1263.51 1160.47,1276.55C1156.95,1279.77 1153.41,1282.98 1149.85,1286.17L1138.97,1295.52L1127.84,1304.62C1124.05,1307.56 1120.28,1310.53 1116.45,1313.41C1112.62,1316.29 1108.7,1319.1 1104.78,1321.89C1100.86,1324.68 1096.88,1327.39 1092.86,1330.06L1086.8,1334.06C1084.8,1335.37 1082.8,1336.72 1080.7,1337.96L1074.51,1341.73L1071.41,1343.61L1068.26,1345.42C1051.43,1355.2 1033.98,1363.86 1016.01,1371.34L1012.62,1372.76L1009.2,1374.08L1002.33,1376.71C1000.05,1377.62 997.71,1378.36 995.39,1379.18L988.39,1381.56C978.99,1384.5 969.53,1387.33 959.84,1389.5L952.59,1391.15L945.26,1392.56C942.81,1393.04 940.37,1393.56 937.9,1393.85L930.49,1394.98C928.02,1395.36 925.49,1395.57 923.03,1395.86L919.29,1396.28L917.43,1396.48L915.66,1396.65L901.5,1397.91C891.97,1398.68 882.29,1399.31 872.5,1399.64C862.71,1399.97 852.73,1399.9 842.71,1399.38C840.22,1399.28 837.71,1399.04 835.19,1398.88L831.43,1398.6C830.17,1398.51 828.92,1398.34 827.66,1398.21L820.12,1397.37L812.59,1396.24L808.83,1395.66L805.08,1394.93L797.58,1393.46L790.13,1391.68L786.41,1390.78L782.73,1389.72L775.37,1387.56C772.93,1386.8 770.53,1385.93 768.11,1385.11C763.24,1383.54 758.53,1381.58 753.78,1379.69C744.306,1375.84 735.088,1371.38 726.18,1366.36C717.371,1361.43 708.826,1356.04 700.58,1350.21C692.47,1344.55 684.83,1338.71 677.73,1333.68C674.19,1331.18 670.8,1328.88 667.61,1327C664.771,1325.28 661.782,1323.82 658.68,1322.63C656.106,1321.66 653.417,1321.02 650.68,1320.74C647.835,1320.47 644.967,1320.55 642.14,1320.97C635.798,1322 629.729,1324.3 624.3,1327.74C621.168,1329.64 618.161,1331.74 615.3,1334.03C612.34,1336.45 609.427,1339.07 606.56,1341.88C600.7,1347.79 595.248,1354.09 590.24,1360.73C585.06,1367.53 580.24,1374.73 575.49,1382.24C566.081,1397.51 557.489,1413.27 549.75,1429.45L506.47,1518.51L510.57,1420.41L511.8,1391.06L513.1,1361.71L514.48,1332.36L515.95,1303.02L520.95,1315.8C518.07,1312.67 515.45,1309.51 512.95,1306.28C510.45,1303.05 508.18,1299.72 506.02,1296.28C501.683,1289.45 497.916,1282.28 494.76,1274.83C488.281,1259.79 484.835,1243.61 484.62,1227.23C484.553,1219.07 485.341,1210.93 486.97,1202.93C488.546,1194.97 490.994,1187.21 494.27,1179.79C500.745,1165.24 509.994,1152.09 521.5,1141.08C524.29,1138.34 527.25,1135.83 530.24,1133.36C533.23,1130.89 536.34,1128.61 539.54,1126.47C541.11,1125.36 542.76,1124.36 544.36,1123.31C545.96,1122.26 547.63,1121.31 549.3,1120.37C552.61,1118.44 556.04,1116.74 559.49,1115.11C586.987,1102.06 618.316,1099.46 647.59,1107.79C654.629,1109.77 661.506,1112.28 668.16,1115.31C674.736,1118.29 681.039,1121.84 687,1125.92Z" style="fill-rule:nonzero;"/>
    </g>
    <g transform="matrix(0.941362,0,0,0.941362,-176.535,-383.798)">
        <path d="M669.14,936.51C668.37,918.26 668.28,900.04 668.44,881.82L668.64,868.15L669.01,854.48C669.25,845.36 669.71,836.25 670.15,827.12C671.15,808.87 672.48,790.61 674.77,772.12C675.33,767.5 675.98,762.88 676.71,758.2C677.44,753.52 678.29,748.83 679.33,744C680.396,738.802 681.84,733.688 683.65,728.7C683.91,728 684.19,727.28 684.52,726.52L685.01,725.39L685.58,724.19L685.87,723.59L686.22,722.93L686.94,721.62C687.55,720.584 688.218,719.582 688.94,718.62L689.57,717.79C689.77,717.54 690.11,717.16 690.38,716.86L691.26,715.92C691.52,715.64 691.94,715.26 692.36,714.92C692.78,714.58 693.2,714.21 693.64,713.92C694.153,713.514 694.691,713.14 695.25,712.8C695.85,712.43 696.48,712.07 697.11,711.74C697.89,711.361 698.692,711.028 699.51,710.74C700.38,710.427 701.273,710.179 702.18,710C703.171,709.81 704.173,709.683 705.18,709.62C709.232,709.43 713.247,710.476 716.69,712.62C717.406,713.051 718.097,713.521 718.76,714.03C719.31,714.46 719.76,714.86 720.25,715.31C720.74,715.76 721.25,716.24 721.59,716.65L722.59,717.78C722.9,718.16 723.22,718.57 723.49,718.95L724.14,719.95C724.57,720.6 725,721.3 725.27,721.81C725.54,722.32 725.88,722.94 726.14,723.47C726.58,724.47 727.06,725.47 727.37,726.29L727.87,727.6L728.28,728.8C729.2,731.588 729.974,734.422 730.6,737.29C731.74,742.52 732.48,747.35 733.15,752.13C734.46,761.66 735.31,770.87 736.1,780.06C737.63,798.4 738.66,816.5 739.73,834.56C740.8,852.62 741.78,870.56 742.66,888.56L745.26,942.28C747.09,978.01 748.88,1013.75 753.68,1049.07C754.87,1057.9 756.22,1066.7 757.9,1075.43C759.58,1084.16 761.48,1092.82 763.7,1101.43C767.998,1118.55 774.096,1135.16 781.89,1150.99C785.794,1158.77 790.333,1166.22 795.46,1173.26C800.519,1180.16 806.357,1186.44 812.86,1192C819.232,1197.5 826.387,1202.01 834.09,1205.4C841.758,1208.69 849.893,1210.75 858.2,1211.52C866.602,1212.24 875.061,1211.9 883.38,1210.52C891.823,1209.11 900.122,1206.95 908.18,1204.06C912.24,1202.63 916.26,1201.06 920.24,1199.33C924.22,1197.6 928.15,1195.76 932.03,1193.78C939.82,1189.9 947.39,1185.49 954.85,1180.88C984.6,1162.23 1011.92,1139.43 1038.53,1115.88C1065.14,1092.33 1091.03,1067.62 1116.35,1042.23C1141.67,1016.84 1166.35,990.66 1191.21,964.42C1203.66,951.32 1216.12,938.17 1228.85,925.15C1241.58,912.13 1254.46,899.15 1268,886.41C1274.79,880.05 1281.7,873.72 1289.09,867.51C1292.78,864.4 1296.57,861.29 1300.62,858.24C1304.91,854.958 1309.37,851.913 1313.99,849.12C1316.77,847.441 1319.64,845.938 1322.61,844.62C1324.47,843.811 1326.38,843.103 1328.32,842.5L1329.12,842.25L1330.03,842.01L1331.87,841.57C1332.16,841.5 1332.48,841.43 1332.87,841.37L1333.96,841.18C1334.7,841.07 1335.39,840.96 1336.17,840.88C1336.95,840.8 1337.91,840.76 1338.78,840.74L1340.1,840.74L1341.64,840.82C1342.64,840.9 1343.64,840.98 1344.75,841.16C1345.86,841.34 1347.1,841.64 1348.24,841.96C1348.8,842.11 1349.39,842.3 1350.03,842.54C1350.67,842.78 1351.26,843.02 1351.86,843.28C1352.46,843.54 1353.06,843.82 1353.65,844.12C1354.24,844.42 1354.83,844.78 1355.4,845.12C1357.69,846.513 1359.77,848.224 1361.58,850.2C1362.42,851.133 1363.21,852.114 1363.94,853.14C1364.59,854.14 1365.23,855.14 1365.78,856.14C1366.33,857.14 1366.71,858 1367.12,858.95C1367.53,859.9 1367.78,860.67 1368.12,861.56C1369,864.338 1369.54,867.212 1369.73,870.12C1369.98,874.033 1369.78,877.963 1369.13,881.83C1368.64,884.821 1368,887.785 1367.2,890.71C1365.79,895.793 1364.12,900.8 1362.2,905.71C1358.56,915.07 1354.61,923.77 1350.38,932.22C1346.15,940.67 1341.81,948.91 1337.38,957.03C1332.95,965.15 1328.27,973.12 1323.6,981.03C1321.25,984.983 1318.9,988.92 1316.53,992.84L1309.3,1004.53C1289.93,1035.6 1269.57,1065.81 1248.5,1095.53C1237.95,1110.36 1227.23,1125.06 1216.34,1139.65C1205.42,1154.2 1194.34,1168.65 1182.92,1182.86L1179.13,1180.44C1195.23,1147.76 1212.13,1115.62 1228.76,1083.44C1245.39,1051.26 1262.19,1019.27 1278.28,987.15L1284.28,975.09L1290.19,963.09C1294.1,955.09 1297.88,946.98 1301.58,938.94C1305.28,930.9 1308.87,922.85 1312.17,914.82C1315.47,906.79 1318.6,898.82 1321.06,891.11C1322.25,887.515 1323.25,883.86 1324.06,880.16C1324.37,878.69 1324.6,877.204 1324.75,875.71C1324.87,874.51 1324.75,873.56 1324.75,873.88C1324.78,874.531 1324.9,875.174 1325.11,875.79C1325.21,876.13 1325.34,876.464 1325.48,876.79C1325.64,877.236 1325.84,877.668 1326.08,878.08C1326.35,878.61 1326.66,879.118 1327.01,879.6C1327.4,880.172 1327.84,880.714 1328.31,881.22C1329.35,882.378 1330.54,883.387 1331.85,884.22C1332.17,884.426 1332.51,884.617 1332.85,884.79C1333.17,884.978 1333.51,885.148 1333.85,885.3C1334.2,885.459 1334.55,885.599 1334.91,885.72C1335.28,885.84 1335.61,885.94 1335.91,886.04C1336.51,886.234 1337.12,886.375 1337.75,886.46C1338.22,886.554 1338.69,886.617 1339.17,886.65L1340.34,886.65C1340.64,886.653 1340.95,886.637 1341.25,886.6L1342.03,886.6C1342.09,886.592 1342.14,886.592 1342.2,886.6C1342.26,886.61 1342.33,886.61 1342.39,886.6L1342.49,886.6C1342.3,886.73 1342.09,886.841 1341.87,886.93C1341.12,887.3 1339.87,888.07 1338.56,888.93C1335.52,890.97 1332.58,893.166 1329.77,895.51C1326.69,898.04 1323.53,900.74 1320.38,903.56C1314.08,909.22 1307.75,915.25 1301.44,921.39C1295.13,927.53 1288.79,933.81 1282.5,940.16L1263.5,959.26C1250.83,972.073 1238.04,984.873 1225.13,997.66C1199.29,1023.19 1172.98,1048.49 1145.95,1073.18C1118.92,1097.87 1091.22,1122.07 1061.6,1144.18C1046.81,1155.24 1031.6,1165.8 1015.81,1175.67C1000.01,1185.6 983.647,1194.62 966.81,1202.67C949.88,1210.67 932.28,1217.67 913.81,1222.4C904.539,1224.8 895.088,1226.45 885.55,1227.32C880.733,1227.76 875.896,1227.93 871.06,1227.85C866.195,1227.72 861.34,1227.32 856.52,1226.65C846.815,1225.26 837.365,1222.45 828.47,1218.33C819.603,1214.13 811.366,1208.7 804,1202.22C796.815,1195.91 790.304,1188.87 784.57,1181.22C778.901,1173.7 773.752,1165.81 769.16,1157.59C759.99,1141.26 752.64,1124.13 746.16,1106.75C739.68,1089.37 734.23,1071.66 729.37,1053.82C719.774,1018.22 712.587,982.009 707.86,945.44C705.48,927.24 703.71,909.01 702.41,890.79C701.11,872.57 700.34,854.37 699.67,836.24L697.91,782.24C697.57,773.35 697.19,764.49 696.53,756.01C696.2,751.79 695.79,747.62 695.23,744.01C694.96,742.19 694.64,740.47 694.35,739.31L694.25,738.89L694.17,738.6C694.12,738.35 694.11,738.37 694.12,738.28C694.15,738.332 694.183,738.382 694.22,738.43C694.257,738.478 694.36,738.65 694.49,738.82C694.551,738.908 694.618,738.991 694.69,739.07C694.79,739.22 694.93,739.41 695.06,739.57C695.19,739.73 695.35,739.89 695.5,740.04C695.73,740.303 695.974,740.553 696.23,740.79C696.508,741.038 696.798,741.272 697.1,741.49C697.523,741.859 697.974,742.193 698.45,742.49C698.93,742.76 699.38,742.99 700.1,743.33C700.744,743.627 701.413,743.865 702.1,744.04C702.848,744.246 703.61,744.396 704.38,744.49C705.151,744.559 705.926,744.579 706.7,744.55C707.444,744.524 708.184,744.427 708.91,744.26C709.54,744.131 710.161,743.964 710.77,743.76C711.321,743.561 711.859,743.327 712.38,743.06C712.772,742.88 713.15,742.669 713.51,742.43C713.87,742.2 714.25,741.91 714.42,741.79C714.59,741.67 714.84,741.46 715.04,741.28L715.51,740.82L715.81,740.5L716.05,740.19L716.16,740.04C716.34,739.74 716.27,739.85 716.26,739.78L716.13,739.95L716.06,740.03L715.97,740.18L715.77,740.5L715.55,740.91C715.4,741.17 715.24,741.49 715.07,741.84C714.41,743.21 713.73,744.92 713.07,746.72C712.41,748.52 711.78,750.45 711.17,752.41C708.74,760.33 706.65,768.89 704.69,777.48C702.73,786.07 700.92,794.85 699.15,803.63C697.38,812.41 695.71,821.26 694.02,830.11C687.28,865.55 681.02,901.31 673.54,937L669.14,936.51Z" style="fill-rule:nonzero;"/>
    </g>
    <g transform="matrix(0.941362,0,0,0.941362,-176.535,-383.798)">
        <path d="M522.55,996.07C521.4,982.63 521.15,969.07 521.28,955.57C521.41,942.07 522.08,928.51 523.1,914.99C525.2,887.897 528.987,860.961 534.44,834.34C545.35,781.02 563.11,728.72 588.64,679.91C601.485,655.461 616.273,632.082 632.86,610C649.596,587.845 668.219,567.181 688.52,548.24C693.52,543.45 698.81,538.9 704.03,534.3L712.03,527.62C714.67,525.36 717.47,523.28 720.19,521.12L724.3,517.9C725.67,516.82 727.09,515.82 728.48,514.77C731.29,512.71 734.07,510.62 736.89,508.59C742.62,504.59 748.26,500.59 754.19,496.77C765.97,489.15 778.01,482.14 790.29,475.6C802.57,469.06 815.11,463.02 827.85,457.44C840.59,451.86 853.56,446.77 866.7,442.14C879.84,437.51 893.19,433.46 906.65,429.78L916.79,427.16C918.48,426.71 920.18,426.32 921.89,425.95L927,424.79L932.12,423.64L934.67,423.07L937.25,422.57L947.55,420.57C950.98,419.86 954.44,419.37 957.9,418.8C961.36,418.23 964.81,417.67 968.27,417.17L978.7,415.84L983.92,415.19C985.66,414.98 987.41,414.86 989.16,414.69C1017.15,411.925 1045.33,411.564 1073.38,413.61C1076.9,413.77 1080.38,414.19 1083.9,414.54L1094.41,415.63C1095.28,415.73 1096.16,415.8 1097.03,415.91L1099.65,416.29L1104.88,417.05L1115.34,418.58C1122.28,419.77 1129.18,421.18 1136.11,422.48C1142.99,424.01 1149.83,425.68 1156.7,427.29C1211.54,441.291 1263.45,464.94 1310,497.13C1321.69,505.04 1332.82,513.74 1343.79,522.6C1354.56,531.69 1365.18,540.97 1375.19,550.88C1385.2,560.79 1394.89,570.98 1404.19,581.52L1411.05,589.52C1413.35,592.18 1415.5,594.95 1417.73,597.66C1419.96,600.37 1422.17,603.1 1424.28,605.9L1430.69,614.24C1439.05,625.5 1447.02,637.027 1454.6,648.82C1462.18,660.61 1469.26,672.69 1475.98,684.97C1489.46,709.622 1501.04,735.262 1510.63,761.67C1520.03,788.076 1527.54,815.117 1533.09,842.59C1535.83,856.31 1538.09,870.13 1539.88,884.01C1541.67,897.89 1542.88,911.85 1543.67,925.84C1545.12,953.854 1544.4,981.938 1541.51,1009.84C1538.49,1037.79 1533.13,1065.43 1525.51,1092.49C1517.89,1119.52 1507.94,1145.83 1495.77,1171.13C1489.66,1183.74 1483.05,1196.07 1475.94,1208.13C1468.78,1220.13 1461.06,1231.87 1452.94,1243.24C1450.87,1246.06 1448.85,1248.92 1446.72,1251.7L1440.32,1260.02L1433.71,1268.16C1431.51,1270.88 1429.17,1273.48 1426.91,1276.16C1417.74,1286.7 1408.14,1296.83 1398.12,1306.55C1378.12,1325.91 1356.52,1343.54 1333.55,1359.25C1310.74,1374.88 1286.79,1388.79 1261.9,1400.85C1237.14,1412.83 1211.62,1423.15 1185.49,1431.73C1172.46,1436 1159.32,1439.86 1146.07,1443.32C1132.83,1446.77 1119.5,1449.84 1106.07,1452.41C1092.64,1454.98 1079.15,1457.16 1065.57,1458.83C1058.78,1459.65 1051.98,1460.38 1045.08,1460.83C1041.64,1461.04 1038.25,1461.18 1034.83,1461.36L1029.72,1461.6L1024.6,1461.72C1010.96,1462.12 997.337,1461.93 983.73,1461.16C970.14,1460.4 956.59,1459.16 943.14,1457.37C916.307,1453.76 889.793,1448.08 863.84,1440.37C890.222,1445.62 916.936,1449.05 943.79,1450.63C957.16,1451.44 970.55,1451.63 983.91,1451.42C987.25,1451.42 990.59,1451.32 993.91,1451.16C997.23,1451 1000.58,1450.92 1003.91,1450.74L1013.91,1450.09C1017.24,1449.89 1020.55,1449.52 1023.91,1449.24L1028.91,1448.79L1033.91,1448.22C1037.21,1447.82 1040.54,1447.46 1043.81,1447.04C1050.32,1446.14 1056.88,1445.04 1063.41,1443.87C1076.47,1441.44 1089.45,1438.56 1102.34,1435.24C1128.03,1428.69 1153.29,1420.6 1178,1411C1202.67,1401.49 1226.7,1390.39 1249.93,1377.75C1273.04,1365.22 1295.22,1351.03 1316.28,1335.3C1337.2,1319.66 1356.82,1302.36 1374.96,1283.57C1383.97,1274.19 1392.56,1264.44 1400.73,1254.33C1402.73,1251.78 1404.83,1249.33 1406.73,1246.7L1412.61,1238.95L1418.3,1231.07C1420.19,1228.44 1421.97,1225.73 1423.81,1223.07C1431.05,1212.32 1437.82,1201.29 1444.13,1189.97C1450.44,1178.65 1456.22,1167.07 1461.49,1155.24C1472.09,1131.64 1480.66,1107.19 1487.11,1082.14C1493.54,1057.12 1497.92,1031.62 1500.23,1005.89C1500.52,1002.68 1500.69,999.45 1500.93,996.23L1501.26,991.4L1501.42,988.98L1501.51,986.56C1501.72,980.1 1502.07,973.65 1502.03,967.18C1502.03,963.95 1502.1,960.72 1502.03,957.48L1501.8,947.79C1501.8,946.17 1501.75,944.55 1501.67,942.94L1501.42,938.09C1501.24,934.86 1501.11,931.63 1500.9,928.4C1500.35,921.95 1499.97,915.49 1499.2,909.05C1498.83,905.84 1498.57,902.61 1498.13,899.4L1496.88,889.76C1495.04,876.94 1492.82,864.16 1490.14,851.47C1484.75,826.135 1477.6,801.207 1468.73,776.87C1459.76,752.637 1448.98,729.114 1436.48,706.5C1430.25,695.15 1423.67,683.98 1416.65,673.1C1409.63,662.22 1402.24,651.59 1394.54,641.21C1390.54,636.1 1386.75,630.89 1382.63,625.92C1380.63,623.42 1378.63,620.86 1376.5,618.42L1370.21,611.06L1368.64,609.22L1367.02,607.43L1363.77,603.84L1360.53,600.26L1358.9,598.47L1357.23,596.72L1350.54,589.72L1349,588L1347.27,586.3L1343.83,582.92C1334.73,573.8 1325.07,565.3 1315.3,556.92C1305.3,548.8 1295.24,540.85 1284.68,533.56C1221.19,489.091 1147.19,461.925 1070,454.75C1044.3,452.402 1018.44,452.208 992.71,454.17C941.09,458.06 890,470.62 841.54,490C817.327,499.647 793.891,511.141 771.44,524.38C765.9,527.65 760.44,531.28 754.97,534.79C752.25,536.6 749.59,538.47 746.89,540.3C745.55,541.23 744.19,542.13 742.89,543.09L738.89,545.96C733.57,549.74 728.44,553.76 723.25,557.72C718.06,561.68 713.06,565.88 708.15,570.18C688.28,587.273 669.882,606.006 653.15,626.18C636.365,646.467 621.199,668.04 607.79,690.7C580.79,736.14 560.69,785.84 546.5,837.32C542.93,850.2 539.85,863.21 537.02,876.32C535.6,882.86 534.33,889.44 533.09,896.03C531.85,902.62 530.77,909.24 529.76,915.87C527.68,929.13 526.05,942.47 524.76,955.87C524.093,962.57 523.573,969.28 523.2,976C522.87,982.6 522.57,989.33 522.55,996.07Z" style="fill-rule:nonzero;"/>
    </g>
    <g>
        <g transform="matrix(-0.999957,-0.00930192,0.00930192,-0.999957,304.775,365.519)">
            <path d="M122.642,57.794L124.978,308.917" style="fill:none;stroke:black;stroke-width:39.96px;"/>
        </g>
        <g transform="matrix(0.00930192,-0.999957,0.999957,0.00930192,-1.82306,303.118)">
            <path d="M122.642,57.794L124.978,308.917" style="fill:none;stroke:black;stroke-width:39.96px;"/>
        </g>
    </g>
</svg>
