<?xml version="1.0" standalone="no"?>
<!DOCTYPE svg PUBLIC "-//W3C//DTD SVG 20010904//EN"
 "http://www.w3.org/TR/2001/REC-SVG-20010904/DTD/svg10.dtd">
<svg version="1.0" xmlns="http://www.w3.org/2000/svg"
 width="512.000000pt" height="512.000000pt" viewBox="0 0 512.000000 512.000000"
 preserveAspectRatio="xMidYMid meet">
<metadata>
Created by potrace 1.16, written by Peter Selinger 2001-2019
</metadata>
<g transform="translate(0.000000,512.000000) scale(0.100000,-0.100000)"
fill="#000000" stroke="none">
<path d="M390 5106 c-179 -50 -329 -201 -376 -381 -11 -41 -14 -364 -14 -1741
0 -1868 -5 -1729 63 -1859 66 -124 215 -235 355 -264 36 -8 371 -11 1058 -11
1081 0 1046 -2 1074 49 13 25 13 97 0 121 -25 46 -1 45 -1071 50 l-1016 5 -69
35 c-49 25 -79 49 -106 85 -73 95 -68 -33 -68 1796 l0 1648 22 58 c29 77 104
152 181 181 l58 22 1653 0 c1835 0 1694 5 1791 -68 36 -27 60 -56 85 -106 l35
-69 5 -1016 c5 -1070 4 -1046 50 -1071 24 -13 96 -13 121 0 51 28 49 -7 49
1074 0 687 -3 1022 -11 1058 -29 140 -140 289 -264 355 -130 68 10 63 -1864
62 -1324 -1 -1706 -4 -1741 -13z"/>
<path d="M3034 2122 c-39 -25 -58 -70 -49 -119 6 -34 103 -134 878 -910 l872
-873 -618 0 c-666 0 -654 1 -691 -52 -31 -44 -11 -134 33 -158 13 -7 287 -10
811 -10 l792 0 29 29 29 29 0 792 c0 524 -3 798 -10 811 -24 44 -114 64 -158
33 -47 -33 -47 -24 -52 -681 l-5 -622 -853 852 c-470 469 -865 860 -879 871
-37 27 -92 31 -129 8z"/>
</g>
</svg>
