<?xml version="1.0" standalone="no"?>
<!DOCTYPE svg PUBLIC "-//W3C//DTD SVG 20010904//EN"
 "http://www.w3.org/TR/2001/REC-SVG-20010904/DTD/svg10.dtd">
<svg version="1.0" xmlns="http://www.w3.org/2000/svg"
 width="512.000000pt" height="512.000000pt" viewBox="0 0 512.000000 512.000000"
 preserveAspectRatio="xMidYMid meet">
<metadata>
Created by potrace 1.16, written by Peter Selinger 2001-2019
</metadata>
<g transform="translate(0.000000,512.000000) scale(0.100000,-0.100000)"
fill="#000000" stroke="none">
<path d="M0 4370 l0 -750 125 0 125 0 0 532 0 533 988 -988 c543 -543 992
-987 997 -987 13 0 175 162 175 175 0 6 -444 454 -987 997 l-988 988 533 0
532 0 0 125 0 125 -750 0 -750 0 0 -750z"/>
<path d="M2120 4620 l0 -130 1375 0 1375 0 0 -2120 0 -2120 -2120 0 -2120 0 0
1375 0 1375 -130 0 -130 0 0 -1500 0 -1500 2375 0 2375 0 0 2375 0 2375 -1500
0 -1500 0 0 -130z"/>
</g>
</svg>
