<?xml version="1.0" encoding="iso-8859-1"?>
<!-- Generator: Adobe Illustrator 24.3.0, SVG Export Plug-In . SVG Version: 6.00 Build 0)  -->
<svg version="1.0" id="&#x421;&#x43B;&#x43E;&#x439;_1"
	 xmlns="http://www.w3.org/2000/svg" xmlns:xlink="http://www.w3.org/1999/xlink" x="0px" y="0px" viewBox="0 0 1024 1024"
	 enable-background="new 0 0 1024 1024" xml:space="preserve">
<path fill-rule="evenodd" clip-rule="evenodd" fill="none" stroke="#230E0E" stroke-width="7" stroke-miterlimit="10" d="
	M477.856,251.335c-12.009,2.6-28.321,8.274-38.549,22.282c-19.86,27.199,3.158,62.245,18.411,126.579
	c27.932,117.801,24.568,151.137,57.536,220.938c13.007,27.539,25.584,47.868,48.33,56.385
	c36.279,13.585,74.603-11.797,82.852-17.261c65.043-43.078,63.62-135.181,63.29-146.141c3.956,6.842,10.059,15.144,17.261,14.959
	c23.838-0.612,51.947-94.021,32.22-107.017c-13.05-8.597-54.941,12.79-60.988,47.179c-6.832,38.855,35.547,74.673,55.235,69.043
	c31.1-8.893,36.729-130.121,4.603-143.84c-18.833-8.042-35.914,27.152-86.304,52.933c-88.935,45.503-213.121,26.633-231.295-19.562
	c-10.3-26.182,22.87-39.16,23.014-88.605c0.175-60.233-48.737-75.769-52.933-131.888c-4.467-59.752,44.493-128.978,82.852-126.867
	c45.544,2.507,64.986,155.854,59.838,157.492c-1.719,0.547-9.498-14.322-12.135-29.012c-9.685-53.949,46.271-126.127,78.301-118.986
	c31.402,7.001,47.831,92.029,25.264,143.151c-1.52,3.442-6.43,14.011-6.935,13.799c-1.898-0.794,47.471-158.441,74.016-154.361
	c24.55,3.773,48.879,148.78,24.453,220.205c-3.916,11.45-16.444,50.183-2.741,89.99c0.912,2.649,2.181,5.167,3.892,7.821
	c23.957,37.165,78.041,16.06,123.127,42.577c31.242,18.374,44.226,54.591,70.194,127.024c10.798,30.12,13.04,44.104,21.864,77.098
	c40.188,150.264,76.357,169.223,63.289,216.335c-12.34,44.49-54.116,66.897-126.579,105.866
	c-46.271,24.884-113.804,61.202-158.494,35.316c-14.497-8.398-23.4-21.493-54.39-37.618c0,0-22.446-11.679-48.33-18.987
	c-84.553-23.871-168.548,23.969-238.199-13.809c-49.564-26.882-74.74-87.822-65.937-97.384c4.417-4.797,16.64,4.354,47.273,14.433
	c14.775,4.862,100.563,33.089,127.014,1.893c7.681-9.059,2.533-13.899,10.174-26.979c21.407-36.647,88.301-43.99,95.51-30.049
	c8.12,15.702-62.156,53.234-54.084,73.776c13.142,33.444,208.804-43.27,241.651,9.206c24.266,38.767-51.466,130.12-60.682,125.517
	c-10.03-5.01,62.059-121.997,76.792-307.331c6.116-76.936,0.62-143.752-11.507-144.991c-15.372-1.57-18.919,108.105-98.962,205.848
	c-59.748,72.96-136.899,108.278-140.676,103.565c-3.563-4.447,56.573-46.544,47.467-65.591c-7.062-14.771-55.864-15.889-83.024,8.31
	c-23.675,21.093-12.607,43.715-30.71,61.286c-14.044,13.631-42.486,17.122-166.236-28.893
	c-89.07-33.12-133.604-49.68-133.138-61.285c1.553-38.653,218.741-72.413,416.561-43.727c13.238,1.92,83.401,12.853,82.852,20.713
	c-0.556,7.945-72.357-1.757-210.581,6.199c-55.55,3.197-106.969,8.391-115.072-11.507c-3.676-9.028,3.121-19.394,5.572-23.133
	c22-33.555,93.833-32.535,121.089-2.346c5.776,6.398,13.844,18.863,9.955,25.298c-2.69,4.452-9.843,3.936-23.846,4.783
	c-20.073,1.213-13.251,2.749-37.974,4.603c-23.869,1.79-35.804,2.685-70.193,1.151c-61.502-2.743-122.331,17.115-247.405,27.172
	c-71.627,5.76-107.736,8.456-115.072-4.603c-25.876-46.061,146.709-199.145,170.306-181.814c6.973,5.121-3.48,21.877,6.905,39.569
	c12.879,21.943,46.558,26.157,73.061,26.275c0,0,0,0.001,0.001,0.001c0.094,0.107,33.182-26.018,31.654-28.577
	c-4.106-6.88-259.496,154.443-273.871,134.634C3.826,765.406,117.149,628.362,195.354,605.469
	c8.099-2.371,42.389-11.295,48.33-33.816c2.962-11.229-4.895-17.025-2.302-27.617c7.459-30.466,51.084-51.438,85.154-50.632
	c72.664,1.719,124.482,106.166,108.168,126.579c-9.569,11.973-36.522-12.341-92.058-3.007c-36.142,6.075-47.498,20.2-65.61,12.715
	c-31.632-13.073-32.327-70.764-36.309-69.997c-2.983,0.574-8.613,34.119,12.704,56.087c22.437,23.122,63.289,21.634,73.105,6.503
	c17.745-27.354-57.959-111.618-63.509-108.176c-2.618,1.624,6.487,25.181,20.932,43.03c34.886,43.105,104.998,57.96,117.373,40.275
	c17.738-25.348-89.507-108.441-67.893-145.436c10.077-17.248,43.433-16.378,66.742-13.809"/>
</svg>
